<?xml version="1.0" encoding="UTF-8" standalone="no"?>
<!DOCTYPE svg PUBLIC "-//W3C//DTD SVG 1.1//EN"
 "http://www.w3.org/Graphics/SVG/1.1/DTD/svg11.dtd">
<!-- Generated by graphviz version 2.43.0 (0)
 -->
<!-- Title: 11.cpp Pages: 1 -->
<svg width="491pt" height="86pt"
 viewBox="0.00 0.00 490.50 86.00" xmlns="http://www.w3.org/2000/svg" xmlns:xlink="http://www.w3.org/1999/xlink">
<g id="graph0" class="graph" transform="scale(1 1) rotate(0) translate(4 82)">
<title>11.cpp</title>
<!-- Node1 -->
<g id="node1" class="node">
<title>Node1</title>
<g id="a_node1"><a xlink:title="C++11.">
<polygon fill="#bfbfbf" stroke="transparent" points="302,-78 247,-78 247,-57 302,-57 302,-78"/>
<text text-anchor="start" x="255" y="-65.4" font-family="Helvetica,Arial,sans-serif" font-weight="bold" font-size="12.00">11.cpp</text>
</a>
</g>
</g>
<!-- Node2 -->
<g id="node2" class="node">
<title>Node2</title>
<g id="a_node2"><a xlink:title=" ">
<text text-anchor="middle" x="26.5" y="-7.4" font-family="Helvetica,Arial,sans-serif" font-size="12.00">03.hpp</text>
</a>
</g>
</g>
<!-- Node1&#45;&gt;Node2 -->
<g id="edge1" class="edge">
<title>Node1&#45;&gt;Node2</title>
<path fill="none" stroke="midnightblue" d="M246.96,-61.02C206.44,-52.85 128.4,-36.76 62.5,-21 61.09,-20.66 59.64,-20.31 58.18,-19.95"/>
<polygon fill="midnightblue" stroke="midnightblue" points="53.2,-18.69 58.6,-17.73 55.63,-19.3 58.05,-19.91 58.05,-19.91 58.05,-19.91 55.63,-19.3 57.5,-22.1 53.2,-18.69 53.2,-18.69"/>
</g>
<!-- Node3 -->
<g id="node3" class="node">
<title>Node3</title>
<g id="a_node3"><a xlink:title=" ">
<text text-anchor="middle" x="110.5" y="-7.4" font-family="Helvetica,Arial,sans-serif" font-size="12.00">forward_list</text>
</a>
</g>
</g>
<!-- Node1&#45;&gt;Node3 -->
<g id="edge2" class="edge">
<title>Node1&#45;&gt;Node3</title>
<path fill="none" stroke="midnightblue" d="M246.68,-57.17C218.34,-47.67 174.39,-32.93 144.12,-22.77"/>
<polygon fill="midnightblue" stroke="midnightblue" points="139.01,-21.06 144.46,-20.52 141.38,-21.86 143.75,-22.65 143.75,-22.65 143.75,-22.65 141.38,-21.86 143.03,-24.78 139.01,-21.06 139.01,-21.06"/>
</g>
<!-- Node4 -->
<g id="node4" class="node">
<title>Node4</title>
<g id="a_node4"><a xlink:title=" ">
<text text-anchor="middle" x="225.5" y="-7.4" font-family="Helvetica,Arial,sans-serif" font-size="12.00">condition_variable</text>
</a>
</g>
</g>
<!-- Node1&#45;&gt;Node4 -->
<g id="edge3" class="edge">
<title>Node1&#45;&gt;Node4</title>
<path fill="none" stroke="midnightblue" d="M265.96,-56.92C258.12,-48.12 246.41,-34.97 237.61,-25.09"/>
<polygon fill="midnightblue" stroke="midnightblue" points="234.27,-21.34 239.27,-23.58 235.93,-23.21 237.59,-25.07 237.59,-25.07 237.59,-25.07 235.93,-23.21 235.91,-26.57 234.27,-21.34 234.27,-21.34"/>
</g>
<!-- Node5 -->
<g id="node5" class="node">
<title>Node5</title>
<g id="a_node5"><a xlink:title=" ">
<text text-anchor="middle" x="324.5" y="-7.4" font-family="Helvetica,Arial,sans-serif" font-size="12.00">future</text>
</a>
</g>
</g>
<!-- Node1&#45;&gt;Node5 -->
<g id="edge4" class="edge">
<title>Node1&#45;&gt;Node5</title>
<path fill="none" stroke="midnightblue" d="M283.21,-56.92C291.21,-48.12 303.16,-34.97 312.15,-25.09"/>
<polygon fill="midnightblue" stroke="midnightblue" points="315.55,-21.34 313.86,-26.55 313.87,-23.19 312.19,-25.04 312.19,-25.04 312.19,-25.04 313.87,-23.19 310.53,-23.53 315.55,-21.34 315.55,-21.34"/>
</g>
<!-- Node6 -->
<g id="node6" class="node">
<title>Node6</title>
<g id="a_node6"><a xlink:title=" ">
<text text-anchor="middle" x="390.5" y="-7.4" font-family="Helvetica,Arial,sans-serif" font-size="12.00">mutex</text>
</a>
</g>
</g>
<!-- Node1&#45;&gt;Node6 -->
<g id="edge5" class="edge">
<title>Node1&#45;&gt;Node6</title>
<path fill="none" stroke="midnightblue" d="M294.71,-56.92C314.38,-47.59 344.33,-33.39 365.49,-23.36"/>
<polygon fill="midnightblue" stroke="midnightblue" points="370.14,-21.16 366.58,-25.33 367.88,-22.23 365.62,-23.3 365.62,-23.3 365.62,-23.3 367.88,-22.23 364.65,-21.26 370.14,-21.16 370.14,-21.16"/>
</g>
<!-- Node7 -->
<g id="node7" class="node">
<title>Node7</title>
<g id="a_node7"><a xlink:title=" ">
<text text-anchor="middle" x="457.5" y="-7.4" font-family="Helvetica,Arial,sans-serif" font-size="12.00">thread</text>
</a>
</g>
</g>
<!-- Node1&#45;&gt;Node7 -->
<g id="edge6" class="edge">
<title>Node1&#45;&gt;Node7</title>
<path fill="none" stroke="midnightblue" d="M302.29,-58.15C336.03,-48.01 392.7,-30.97 427.43,-20.54"/>
<polygon fill="midnightblue" stroke="midnightblue" points="432.39,-19.05 428.25,-22.64 430,-19.77 427.61,-20.48 427.61,-20.48 427.61,-20.48 430,-19.77 426.96,-18.33 432.39,-19.05 432.39,-19.05"/>
</g>
</g>
</svg>
