<?xml version="1.0" encoding="UTF-8" standalone="no"?>
<!DOCTYPE svg PUBLIC "-//W3C//DTD SVG 1.1//EN"
 "http://www.w3.org/Graphics/SVG/1.1/DTD/svg11.dtd">
<!-- Generated by graphviz version 2.43.0 (0)
 -->
<!-- Title: 20.cpp Pages: 1 -->
<svg width="474pt" height="99pt"
 viewBox="0.00 0.00 473.50 99.00" xmlns="http://www.w3.org/2000/svg" xmlns:xlink="http://www.w3.org/1999/xlink">
<g id="graph0" class="graph" transform="scale(1 1) rotate(0) translate(4 95)">
<title>20.cpp</title>
<!-- Node1 -->
<g id="node1" class="node">
<title>Node1</title>
<g id="a_node1"><a xlink:title="C++20.">
<polygon fill="#bfbfbf" stroke="transparent" points="294,-91 239,-91 239,-70 294,-70 294,-91"/>
<text text-anchor="start" x="247" y="-78.4" font-family="Helvetica,Arial,sans-serif" font-weight="bold" font-size="12.00">20.cpp</text>
</a>
</g>
</g>
<!-- Node2 -->
<g id="node2" class="node">
<title>Node2</title>
<g id="a_node2"><a xlink:title=" ">
<text text-anchor="middle" x="41.5" y="-13.9" font-family="Helvetica,Arial,sans-serif" font-size="12.00">bits/stdc++.h</text>
</a>
</g>
</g>
<!-- Node1&#45;&gt;Node2 -->
<g id="edge1" class="edge">
<title>Node1&#45;&gt;Node2</title>
<path fill="none" stroke="midnightblue" d="M238.96,-72.74C204.57,-64.19 143.97,-48.79 92.5,-34 87.17,-32.47 81.56,-30.78 76.08,-29.09"/>
<polygon fill="midnightblue" stroke="midnightblue" points="71.09,-27.55 76.53,-26.88 73.48,-28.29 75.87,-29.03 75.87,-29.03 75.87,-29.03 73.48,-28.29 75.2,-31.18 71.09,-27.55 71.09,-27.55"/>
</g>
<!-- Node3 -->
<g id="node3" class="node">
<title>Node3</title>
<g id="a_node3"><a xlink:title=" ">
<text text-anchor="start" x="109.5" y="-20.4" font-family="Helvetica,Arial,sans-serif" font-size="12.00">experimental/source</text>
<text text-anchor="middle" x="163.5" y="-7.4" font-family="Helvetica,Arial,sans-serif" font-size="12.00">_location</text>
</a>
</g>
</g>
<!-- Node1&#45;&gt;Node3 -->
<g id="edge2" class="edge">
<title>Node1&#45;&gt;Node3</title>
<path fill="none" stroke="midnightblue" d="M250.41,-69.89C235.7,-61.11 213.52,-47.87 195.25,-36.96"/>
<polygon fill="midnightblue" stroke="midnightblue" points="190.7,-34.24 196.14,-34.87 192.84,-35.52 194.99,-36.8 194.99,-36.8 194.99,-36.8 192.84,-35.52 193.84,-38.73 190.7,-34.24 190.7,-34.24"/>
</g>
<!-- Node4 -->
<g id="node4" class="node">
<title>Node4</title>
<g id="a_node4"><a xlink:title=" ">
<text text-anchor="middle" x="266.5" y="-13.9" font-family="Helvetica,Arial,sans-serif" font-size="12.00">string</text>
</a>
</g>
</g>
<!-- Node1&#45;&gt;Node4 -->
<g id="edge3" class="edge">
<title>Node1&#45;&gt;Node4</title>
<path fill="none" stroke="midnightblue" d="M266.5,-69.89C266.5,-60.02 266.5,-44.52 266.5,-33.02"/>
<polygon fill="midnightblue" stroke="midnightblue" points="266.5,-27.74 268.75,-32.74 266.5,-30.24 266.5,-32.74 266.5,-32.74 266.5,-32.74 266.5,-30.24 264.25,-32.74 266.5,-27.74 266.5,-27.74"/>
</g>
<!-- Node5 -->
<g id="node5" class="node">
<title>Node5</title>
<g id="a_node5"><a xlink:title=" ">
<text text-anchor="middle" x="346.5" y="-13.9" font-family="Helvetica,Arial,sans-serif" font-size="12.00">string_view</text>
</a>
</g>
</g>
<!-- Node1&#45;&gt;Node5 -->
<g id="edge4" class="edge">
<title>Node1&#45;&gt;Node5</title>
<path fill="none" stroke="midnightblue" d="M279,-69.89C292.74,-59.33 314.86,-42.32 330.01,-30.67"/>
<polygon fill="midnightblue" stroke="midnightblue" points="334.09,-27.54 331.5,-32.37 332.11,-29.07 330.12,-30.59 330.12,-30.59 330.12,-30.59 332.11,-29.07 328.75,-28.81 334.09,-27.54 334.09,-27.54"/>
</g>
<!-- Node6 -->
<g id="node6" class="node">
<title>Node6</title>
<g id="a_node6"><a xlink:title=" ">
<text text-anchor="middle" x="434.5" y="-13.9" font-family="Helvetica,Arial,sans-serif" font-size="12.00">iostream</text>
</a>
</g>
</g>
<!-- Node1&#45;&gt;Node6 -->
<g id="edge5" class="edge">
<title>Node1&#45;&gt;Node6</title>
<path fill="none" stroke="midnightblue" d="M294.08,-70.04C320.08,-61.05 360.08,-47 394.5,-34 398.24,-32.59 402.16,-31.07 406.02,-29.55"/>
<polygon fill="midnightblue" stroke="midnightblue" points="410.87,-27.63 407.05,-31.56 408.55,-28.55 406.22,-29.47 406.22,-29.47 406.22,-29.47 408.55,-28.55 405.39,-27.38 410.87,-27.63 410.87,-27.63"/>
</g>
</g>
</svg>
