<?xml version="1.0" encoding="UTF-8" standalone="no"?>
<!DOCTYPE svg PUBLIC "-//W3C//DTD SVG 1.1//EN"
 "http://www.w3.org/Graphics/SVG/1.1/DTD/svg11.dtd">
<!-- Generated by graphviz version 2.43.0 (0)
 -->
<!-- Title: main Pages: 1 -->
<svg width="285pt" height="302pt"
 viewBox="0.00 0.00 285.00 302.00" xmlns="http://www.w3.org/2000/svg" xmlns:xlink="http://www.w3.org/1999/xlink">
<g id="graph0" class="graph" transform="scale(1 1) rotate(0) translate(4 298)">
<title>main</title>
<!-- Node1 -->
<g id="node1" class="node">
<title>Node1</title>
<g id="a_node1"><a xlink:title=" ">
<polygon fill="#bfbfbf" stroke="transparent" points="44,-157 0,-157 0,-136 44,-136 44,-157"/>
<text text-anchor="start" x="8" y="-144.4" font-family="Helvetica,Arial,sans-serif" font-weight="bold" font-size="12.00">main</text>
</a>
</g>
</g>
<!-- Node2 -->
<g id="node2" class="node">
<title>Node2</title>
<g id="a_node2"><a xlink:href="$group__test20.html#gafe97b5fa7ae667ea117ca6b4bc3f5e91" xlink:title=" ">
<text text-anchor="middle" x="146" y="-280.4" font-family="Helvetica,Arial,sans-serif" font-size="12.00">attributes</text>
</a>
</g>
</g>
<!-- Node1&#45;&gt;Node2 -->
<g id="edge1" class="edge">
<title>Node1&#45;&gt;Node2</title>
<path fill="none" stroke="midnightblue" d="M25.08,-157.09C30.17,-180.17 45.45,-235.24 80,-264.5 87.79,-271.1 97.78,-275.41 107.58,-278.22"/>
<polygon fill="midnightblue" stroke="midnightblue" points="112.67,-279.56 107.26,-280.46 110.25,-278.92 107.83,-278.29 107.83,-278.29 107.83,-278.29 110.25,-278.92 108.41,-276.11 112.67,-279.56 112.67,-279.56"/>
</g>
<!-- Node3 -->
<g id="node3" class="node">
<title>Node3</title>
<g id="a_node3"><a xlink:href="$group__templ20.html#gad60476e89c26d10aeb283520ea014983" xlink:title=" ">
<text text-anchor="middle" x="146" y="-241.4" font-family="Helvetica,Arial,sans-serif" font-size="12.00">coroutine_demo</text>
</a>
</g>
</g>
<!-- Node1&#45;&gt;Node3 -->
<g id="edge2" class="edge">
<title>Node1&#45;&gt;Node3</title>
<path fill="none" stroke="midnightblue" d="M27.82,-157.19C36.06,-174.23 54.45,-207.45 80,-225.5 83.45,-227.94 87.21,-230.07 91.13,-231.92"/>
<polygon fill="midnightblue" stroke="midnightblue" points="95.8,-233.98 90.31,-234.02 93.51,-232.97 91.22,-231.96 91.22,-231.96 91.22,-231.96 93.51,-232.97 92.13,-229.9 95.8,-233.98 95.8,-233.98"/>
</g>
<!-- Node4 -->
<g id="node4" class="node">
<title>Node4</title>
<g id="a_node4"><a xlink:href="$group__lang20.html#ga695ca6ed5b3485fb505fa16fff84b4e8" xlink:title=" ">
<text text-anchor="middle" x="146" y="-202.4" font-family="Helvetica,Arial,sans-serif" font-size="12.00">dynamic_memory_20</text>
</a>
</g>
</g>
<!-- Node1&#45;&gt;Node4 -->
<g id="edge3" class="edge">
<title>Node1&#45;&gt;Node4</title>
<path fill="none" stroke="midnightblue" d="M35.82,-157.35C46.9,-166.26 63.66,-178.64 80,-186.5 85.3,-189.05 91.01,-191.32 96.76,-193.34"/>
<polygon fill="midnightblue" stroke="midnightblue" points="101.6,-194.97 96.14,-195.5 99.23,-194.17 96.86,-193.37 96.86,-193.37 96.86,-193.37 99.23,-194.17 97.58,-191.24 101.6,-194.97 101.6,-194.97"/>
</g>
<!-- Node5 -->
<g id="node5" class="node">
<title>Node5</title>
<g id="a_node5"><a xlink:href="$group__other20.html#ga0292ff079c75c49f84bd66e57904c781" xlink:title=" ">
<text text-anchor="middle" x="146" y="-163.4" font-family="Helvetica,Arial,sans-serif" font-size="12.00">functional_20</text>
</a>
</g>
</g>
<!-- Node1&#45;&gt;Node5 -->
<g id="edge4" class="edge">
<title>Node1&#45;&gt;Node5</title>
<path fill="none" stroke="midnightblue" d="M44.25,-149.98C58.6,-152.34 78.16,-155.54 96.22,-158.5"/>
<polygon fill="midnightblue" stroke="midnightblue" points="101.27,-159.33 95.97,-160.74 98.8,-158.93 96.33,-158.52 96.33,-158.52 96.33,-158.52 98.8,-158.93 96.7,-156.3 101.27,-159.33 101.27,-159.33"/>
</g>
<!-- Node6 -->
<g id="node6" class="node">
<title>Node6</title>
<g id="a_node6"><a xlink:href="$group__lang20.html#gab08e7db2d73fbef046650e7b719c99bd" xlink:title=" ">
<text text-anchor="middle" x="146" y="-124.4" font-family="Helvetica,Arial,sans-serif" font-size="12.00">init_20</text>
</a>
</g>
</g>
<!-- Node1&#45;&gt;Node6 -->
<g id="edge5" class="edge">
<title>Node1&#45;&gt;Node6</title>
<path fill="none" stroke="midnightblue" d="M44.25,-143.19C63.59,-140.18 92.37,-135.7 114.23,-132.29"/>
<polygon fill="midnightblue" stroke="midnightblue" points="119.34,-131.5 114.75,-134.49 116.87,-131.88 114.4,-132.27 114.4,-132.27 114.4,-132.27 116.87,-131.88 114.05,-130.04 119.34,-131.5 119.34,-131.5"/>
</g>
<!-- Node7 -->
<g id="node7" class="node">
<title>Node7</title>
<g id="a_node7"><a xlink:href="$namespacelambda.html#a2cde9dac3329de71cbb605b62602b904" xlink:title=" ">
<text text-anchor="middle" x="146" y="-85.4" font-family="Helvetica,Arial,sans-serif" font-size="12.00">lambda::lambda_20</text>
</a>
</g>
</g>
<!-- Node1&#45;&gt;Node7 -->
<g id="edge6" class="edge">
<title>Node1&#45;&gt;Node7</title>
<path fill="none" stroke="midnightblue" d="M36.38,-135.95C47.53,-127.57 64.1,-116.05 80,-108.5 86.03,-105.64 92.58,-103.06 99.11,-100.79"/>
<polygon fill="midnightblue" stroke="midnightblue" points="104.09,-99.11 100.07,-102.84 101.72,-99.9 99.35,-100.7 99.35,-100.7 99.35,-100.7 101.72,-99.9 98.63,-98.57 104.09,-99.11 104.09,-99.11"/>
</g>
<!-- Node9 -->
<g id="node9" class="node">
<title>Node9</title>
<g id="a_node9"><a xlink:href="$group__other20.html#ga057a37dd325b6e2202d191c7977a0930" xlink:title="source_location">
<text text-anchor="middle" x="146" y="-46.4" font-family="Helvetica,Arial,sans-serif" font-size="12.00">location_20</text>
</a>
</g>
</g>
<!-- Node1&#45;&gt;Node9 -->
<g id="edge8" class="edge">
<title>Node1&#45;&gt;Node9</title>
<path fill="none" stroke="midnightblue" d="M28.06,-135.85C36.5,-119.22 55.02,-87.18 80,-69.5 86.46,-64.92 94,-61.37 101.61,-58.62"/>
<polygon fill="midnightblue" stroke="midnightblue" points="106.35,-57.01 102.34,-60.75 103.98,-57.82 101.61,-58.62 101.61,-58.62 101.61,-58.62 103.98,-57.82 100.89,-56.49 106.35,-57.01 106.35,-57.01"/>
</g>
<!-- Node10 -->
<g id="node10" class="node">
<title>Node10</title>
<g id="a_node10"><a xlink:href="$group__lang20.html#ga02af8d2ec8c6e12b5295f96e2c747435" xlink:title=" ">
<text text-anchor="middle" x="146" y="-7.4" font-family="Helvetica,Arial,sans-serif" font-size="12.00">types_20</text>
</a>
</g>
</g>
<!-- Node1&#45;&gt;Node10 -->
<g id="edge9" class="edge">
<title>Node1&#45;&gt;Node10</title>
<path fill="none" stroke="midnightblue" d="M25.25,-135.78C30.59,-112.96 46.2,-59.33 80,-30.5 87.87,-23.78 97.98,-19.32 107.86,-16.36"/>
<polygon fill="midnightblue" stroke="midnightblue" points="112.68,-15.02 108.46,-18.52 110.27,-15.69 107.86,-16.36 107.86,-16.36 107.86,-16.36 110.27,-15.69 107.26,-14.19 112.68,-15.02 112.68,-15.02"/>
</g>
<!-- Node8 -->
<g id="node8" class="node">
<title>Node8</title>
<g id="a_node8"><a xlink:href="$group__test20.html#ga3ee6c71848d9e06fcc000cf4cc8f70a7" xlink:title=" ">
<text text-anchor="middle" x="262.5" y="-85.4" font-family="Helvetica,Arial,sans-serif" font-size="12.00">f</text>
</a>
</g>
</g>
<!-- Node7&#45;&gt;Node8 -->
<g id="edge7" class="edge">
<title>Node7&#45;&gt;Node8</title>
<path fill="none" stroke="midnightblue" d="M207.27,-88.5C220.18,-88.5 232.88,-88.5 242.75,-88.5"/>
<polygon fill="midnightblue" stroke="midnightblue" points="247.92,-88.5 242.92,-90.75 245.42,-88.5 242.92,-88.5 242.92,-88.5 242.92,-88.5 245.42,-88.5 242.92,-86.25 247.92,-88.5 247.92,-88.5"/>
</g>
</g>
</svg>
