<?xml version="1.0" encoding="UTF-8" standalone="no"?>
<!DOCTYPE svg PUBLIC "-//W3C//DTD SVG 1.1//EN"
 "http://www.w3.org/Graphics/SVG/1.1/DTD/svg11.dtd">
<!-- Generated by graphviz version 2.43.0 (0)
 -->
<!-- Title: Synchronized_encapsulated_value&lt; ValueType &gt; Pages: 1 -->
<svg width="528pt" height="107pt"
 viewBox="0.00 0.00 528.00 107.00" xmlns="http://www.w3.org/2000/svg" xmlns:xlink="http://www.w3.org/1999/xlink">
<g id="graph0" class="graph" transform="scale(1 1) rotate(0) translate(4 103)">
<title>Synchronized_encapsulated_value&lt; ValueType &gt;</title>
<!-- Node1 -->
<g id="node1" class="node">
<title>Node1</title>
<g id="a_node1"><a xlink:title="encapsulating class with only public accessor and mutator intrfaces">
<polygon fill="#bfbfbf" stroke="transparent" points="520,-60 224,-60 224,-39 520,-39 520,-60"/>
<text text-anchor="start" x="232" y="-47.4" font-family="Helvetica,Arial,sans-serif" font-weight="bold" font-size="12.00">Synchronized_encapsulated_value&lt; ValueType &gt;</text>
</a>
</g>
</g>
<!-- Node2 -->
<g id="node2" class="node">
<title>Node2</title>
<g id="a_node2"><a xlink:href="$structSetter__interface.html" xlink:title="is a sample of setter abstract interface for Synchronized_encapsulated_value">
<text text-anchor="middle" x="94" y="-85.4" font-family="Helvetica,Arial,sans-serif" font-size="12.00">Setter_interface&lt; ValueType &gt;</text>
</a>
</g>
</g>
<!-- Node2&#45;&gt;Node1 -->
<g id="edge1" class="edge">
<title>Node2&#45;&gt;Node1</title>
<path fill="none" stroke="midnightblue" d="M174.46,-77.27C212.9,-71.84 258.78,-65.36 296.54,-60.02"/>
<polygon fill="midnightblue" stroke="midnightblue" points="169.33,-78 173.96,-75.07 171.8,-77.65 174.28,-77.3 174.28,-77.3 174.28,-77.3 171.8,-77.65 174.59,-79.53 169.33,-78 169.33,-78"/>
</g>
<!-- Node3 -->
<g id="node3" class="node">
<title>Node3</title>
<g id="a_node3"><a xlink:href="$structGetter__interface.html" xlink:title="is a sample of getter abstract interface for Synchronized_encapsulated_value">
<text text-anchor="middle" x="94" y="-46.4" font-family="Helvetica,Arial,sans-serif" font-size="12.00">Getter_interface&lt; ValueType &gt;</text>
</a>
</g>
</g>
<!-- Node3&#45;&gt;Node1 -->
<g id="edge2" class="edge">
<title>Node3&#45;&gt;Node1</title>
<path fill="none" stroke="midnightblue" d="M189,-49.5C200.28,-49.5 212,-49.5 223.8,-49.5"/>
<polygon fill="midnightblue" stroke="midnightblue" points="183.85,-49.5 188.85,-47.25 186.35,-49.5 188.85,-49.5 188.85,-49.5 188.85,-49.5 186.35,-49.5 188.85,-51.75 183.85,-49.5 183.85,-49.5"/>
</g>
<!-- Node4 -->
<g id="node4" class="node">
<title>Node4</title>
<g id="a_node4"><a xlink:href="$structChange__interface.html" xlink:title="is a sample of changer abstract interface for Synchronized_encapsulated_value">
<text text-anchor="middle" x="94" y="-7.4" font-family="Helvetica,Arial,sans-serif" font-size="12.00">Change_interface&lt; ValueType &gt;</text>
</a>
</g>
</g>
<!-- Node4&#45;&gt;Node1 -->
<g id="edge3" class="edge">
<title>Node4&#45;&gt;Node1</title>
<path fill="none" stroke="midnightblue" d="M174.46,-21.73C212.9,-27.16 258.78,-33.64 296.54,-38.98"/>
<polygon fill="midnightblue" stroke="midnightblue" points="169.33,-21 174.59,-19.47 171.8,-21.35 174.28,-21.7 174.28,-21.7 174.28,-21.7 171.8,-21.35 173.96,-23.93 169.33,-21 169.33,-21"/>
</g>
</g>
</svg>
