<?xml version="1.0" encoding="UTF-8" standalone="no"?>
<!DOCTYPE svg PUBLIC "-//W3C//DTD SVG 1.1//EN"
 "http://www.w3.org/Graphics/SVG/1.1/DTD/svg11.dtd">
<!-- Generated by graphviz version 2.43.0 (0)
 -->
<!-- Title: Synchronised_encapsulated_value&lt; ValueType &gt; Pages: 1 -->
<svg width="594pt" height="152pt"
 viewBox="0.00 0.00 594.00 152.00" xmlns="http://www.w3.org/2000/svg" xmlns:xlink="http://www.w3.org/1999/xlink">
<g id="graph0" class="graph" transform="scale(1 1) rotate(0) translate(4 148)">
<title>Synchronised_encapsulated_value&lt; ValueType &gt;</title>
<!-- Node1 -->
<g id="node1" class="node">
<title>Node1</title>
<g id="a_node1"><a xlink:title="encapsulating class with only public accessor and mutator intrfaces">
<text text-anchor="start" x="253" y="-69.9" font-family="UbuntuXX" font-weight="bold" font-size="12.00">Synchronised_encapsulated_value&lt; ValueType &gt;</text>
</a>
</g>
</g>
<!-- Node2 -->
<g id="node2" class="node">
<title>Node2</title>
<g id="a_node2"><a xlink:href="structSetter__interface.html" target="_top" xlink:title="is a sample of setter abstract interface for Synchronised_encapsulated_value">
<text text-anchor="middle" x="104.5" y="-122.9" font-family="UbuntuXX" font-size="12.00">Setter_interface&lt; ValueType &gt;</text>
</a>
</g>
</g>
<!-- Node2&#45;&gt;Node1 -->
<g id="edge1" class="edge">
<title>Node2&#45;&gt;Node1</title>
<path fill="none" stroke="midnightblue" d="M209.78,-107.78C242.58,-102.04 278.78,-95.72 311.5,-90"/>
<polygon fill="midnightblue" stroke="midnightblue" points="204.54,-108.69 209.08,-105.61 207.01,-108.26 209.47,-107.83 209.47,-107.83 209.47,-107.83 207.01,-108.26 209.86,-110.05 204.54,-108.69 204.54,-108.69"/>
</g>
<!-- Node3 -->
<g id="node3" class="node">
<title>Node3</title>
<g id="a_node3"><a xlink:href="structGetter__interface.html" target="_top" xlink:title="is a sample of getter abstract interface for Synchronised_encapsulated_value">
<text text-anchor="middle" x="104.5" y="-68.9" font-family="UbuntuXX" font-size="12.00">Getter_interface&lt; ValueType &gt;</text>
</a>
</g>
</g>
<!-- Node3&#45;&gt;Node1 -->
<g id="edge2" class="edge">
<title>Node3&#45;&gt;Node1</title>
<path fill="none" stroke="midnightblue" d="M210.87,-72C221.92,-72 233.34,-72 244.88,-72"/>
<polygon fill="midnightblue" stroke="midnightblue" points="205.82,-72 210.82,-69.75 208.32,-72 210.82,-72 210.82,-72 210.82,-72 208.32,-72 210.82,-74.25 205.82,-72 205.82,-72"/>
</g>
<!-- Node4 -->
<g id="node4" class="node">
<title>Node4</title>
<g id="a_node4"><a xlink:href="structChange__interface.html" target="_top" xlink:title="is a sample of changer abstract interface for Synchronised_encapsulated_value">
<text text-anchor="middle" x="104.5" y="-14.9" font-family="UbuntuXX" font-size="12.00">Change_interface&lt; ValueType &gt;</text>
</a>
</g>
</g>
<!-- Node4&#45;&gt;Node1 -->
<g id="edge3" class="edge">
<title>Node4&#45;&gt;Node1</title>
<path fill="none" stroke="midnightblue" d="M213.87,-36.94C245.5,-42.47 279.97,-48.49 311.28,-53.96"/>
<polygon fill="midnightblue" stroke="midnightblue" points="208.82,-36.06 214.13,-34.7 211.28,-36.49 213.75,-36.92 213.75,-36.92 213.75,-36.92 211.28,-36.49 213.36,-39.13 208.82,-36.06 208.82,-36.06"/>
</g>
</g>
</svg>
