<?xml version="1.0" encoding="UTF-8" standalone="no"?>
<!DOCTYPE svg PUBLIC "-//W3C//DTD SVG 1.1//EN"
 "http://www.w3.org/Graphics/SVG/1.1/DTD/svg11.dtd">
<!-- Generated by graphviz version 2.43.0 (0)
 -->
<!-- Title: Synchronized_queue::push Pages: 1 -->
<svg width="638pt" height="29pt"
 viewBox="0.00 0.00 638.00 29.00" xmlns="http://www.w3.org/2000/svg" xmlns:xlink="http://www.w3.org/1999/xlink">
<g id="graph0" class="graph" transform="scale(1 1) rotate(0) translate(4 25)">
<title>Synchronized_queue::push</title>
<!-- Node1 -->
<g id="node1" class="node">
<title>Node1</title>
<g id="a_node1"><a xlink:title=" ">
<polygon fill="#bfbfbf" stroke="transparent" points="630,-21 454,-21 454,0 630,0 630,-21"/>
<text text-anchor="start" x="462" y="-8.4" font-family="Helvetica,Arial,sans-serif" font-weight="bold" font-size="12.00">Synchronized_queue::push</text>
</a>
</g>
</g>
<!-- Node2 -->
<g id="node2" class="node">
<title>Node2</title>
<g id="a_node2"><a xlink:href="$structActive__object.html#ac125fd7860055c3a289b68ae39488714" xlink:title=" ">
<text text-anchor="middle" x="351" y="-7.4" font-family="Helvetica,Arial,sans-serif" font-size="12.00">Active_object::method</text>
</a>
</g>
</g>
<!-- Node1&#45;&gt;Node2 -->
<g id="edge1" class="edge">
<title>Node1&#45;&gt;Node2</title>
<path fill="none" stroke="midnightblue" d="M448.89,-10.5C438.54,-10.5 428.15,-10.5 418.23,-10.5"/>
<polygon fill="midnightblue" stroke="midnightblue" points="453.97,-10.5 448.97,-12.75 451.47,-10.5 448.97,-10.5 448.97,-10.5 448.97,-10.5 451.47,-10.5 448.97,-8.25 453.97,-10.5 453.97,-10.5"/>
</g>
<!-- Node3 -->
<g id="node3" class="node">
<title>Node3</title>
<g id="a_node3"><a xlink:href="$group__CC.html#ga3e57442badb533d55c8d3d3a05465030" xlink:title=" ">
<text text-anchor="middle" x="163.5" y="-7.4" font-family="Helvetica,Arial,sans-serif" font-size="12.00">concurrency_patterns_demo</text>
</a>
</g>
</g>
<!-- Node2&#45;&gt;Node3 -->
<g id="edge2" class="edge">
<title>Node2&#45;&gt;Node3</title>
<path fill="none" stroke="midnightblue" d="M278.64,-10.5C268.66,-10.5 258.34,-10.5 248.17,-10.5"/>
<polygon fill="midnightblue" stroke="midnightblue" points="283.82,-10.5 278.82,-12.75 281.32,-10.5 278.82,-10.5 278.82,-10.5 278.82,-10.5 281.32,-10.5 278.82,-8.25 283.82,-10.5 283.82,-10.5"/>
</g>
<!-- Node4 -->
<g id="node4" class="node">
<title>Node4</title>
<g id="a_node4"><a xlink:href="$group__DP.html#gae66f6b31b5ad750f1fe042a706a4e3d4" xlink:title=" ">
<text text-anchor="middle" x="21.5" y="-7.4" font-family="Helvetica,Arial,sans-serif" font-size="12.00">main</text>
</a>
</g>
</g>
<!-- Node3&#45;&gt;Node4 -->
<g id="edge3" class="edge">
<title>Node3&#45;&gt;Node4</title>
<path fill="none" stroke="midnightblue" d="M73.43,-10.5C62.21,-10.5 51.69,-10.5 43.16,-10.5"/>
<polygon fill="midnightblue" stroke="midnightblue" points="78.64,-10.5 73.64,-12.75 76.14,-10.5 73.64,-10.5 73.64,-10.5 73.64,-10.5 76.14,-10.5 73.64,-8.25 78.64,-10.5 78.64,-10.5"/>
</g>
</g>
</svg>
