<?xml version="1.0" encoding="UTF-8" standalone="no"?>
<!DOCTYPE svg PUBLIC "-//W3C//DTD SVG 1.1//EN"
 "http://www.w3.org/Graphics/SVG/1.1/DTD/svg11.dtd">
<!-- Generated by graphviz version 2.43.0 (0)
 -->
<!-- Title: Synchronised_encapsulated_value&lt; ValueType &gt; Pages: 1 -->
<svg width="528pt" height="152pt"
 viewBox="0.00 0.00 528.00 152.00" xmlns="http://www.w3.org/2000/svg" xmlns:xlink="http://www.w3.org/1999/xlink">
<g id="graph0" class="graph" transform="scale(1 1) rotate(0) translate(4 148)">
<title>Synchronised_encapsulated_value&lt; ValueType &gt;</title>
<!-- Node1 -->
<g id="node1" class="node">
<title>Node1</title>
<g id="a_node1"><a xlink:title="encapsulating class with only public accessor and mutator intrfaces">
<text text-anchor="start" x="232" y="-69.9" font-family="Helvetica,Arial,sans-serif" font-weight="bold" font-size="12.00">Synchronised_encapsulated_value&lt; ValueType &gt;</text>
</a>
</g>
</g>
<!-- Node2 -->
<g id="node2" class="node">
<title>Node2</title>
<g id="a_node2"><a xlink:href="structSetter__interface.html" target="_top" xlink:title="is a sample of setter abstract interface for Synchronised_encapsulated_value">
<text text-anchor="middle" x="94" y="-122.9" font-family="Helvetica,Arial,sans-serif" font-size="12.00">Setter_interface&lt; ValueType &gt;</text>
</a>
</g>
</g>
<!-- Node2&#45;&gt;Node1 -->
<g id="edge1" class="edge">
<title>Node2&#45;&gt;Node1</title>
<path fill="none" stroke="midnightblue" d="M188.14,-107.78C217.44,-102.04 249.77,-95.72 279,-90"/>
<polygon fill="midnightblue" stroke="midnightblue" points="183.09,-108.77 187.56,-105.6 185.54,-108.29 187.99,-107.81 187.99,-107.81 187.99,-107.81 185.54,-108.29 188.43,-110.01 183.09,-108.77 183.09,-108.77"/>
</g>
<!-- Node3 -->
<g id="node3" class="node">
<title>Node3</title>
<g id="a_node3"><a xlink:href="structGetter__interface.html" target="_top" xlink:title="is a sample of getter abstract interface for Synchronised_encapsulated_value">
<text text-anchor="middle" x="94" y="-68.9" font-family="Helvetica,Arial,sans-serif" font-size="12.00">Getter_interface&lt; ValueType &gt;</text>
</a>
</g>
</g>
<!-- Node3&#45;&gt;Node1 -->
<g id="edge2" class="edge">
<title>Node3&#45;&gt;Node1</title>
<path fill="none" stroke="midnightblue" d="M189,-72C200.28,-72 212,-72 223.8,-72"/>
<polygon fill="midnightblue" stroke="midnightblue" points="183.85,-72 188.85,-69.75 186.35,-72 188.85,-72 188.85,-72 188.85,-72 186.35,-72 188.85,-74.25 183.85,-72 183.85,-72"/>
</g>
<!-- Node4 -->
<g id="node4" class="node">
<title>Node4</title>
<g id="a_node4"><a xlink:href="structChange__interface.html" target="_top" xlink:title="is a sample of changer abstract interface for Synchronised_encapsulated_value">
<text text-anchor="middle" x="94" y="-14.9" font-family="Helvetica,Arial,sans-serif" font-size="12.00">Change_interface&lt; ValueType &gt;</text>
</a>
</g>
</g>
<!-- Node4&#45;&gt;Node1 -->
<g id="edge3" class="edge">
<title>Node4&#45;&gt;Node1</title>
<path fill="none" stroke="midnightblue" d="M192.5,-37.08C220.56,-42.57 251.07,-48.54 278.8,-53.96"/>
<polygon fill="midnightblue" stroke="midnightblue" points="187.29,-36.06 192.63,-34.81 189.74,-36.54 192.19,-37.02 192.19,-37.02 192.19,-37.02 189.74,-36.54 191.76,-39.22 187.29,-36.06 187.29,-36.06"/>
</g>
</g>
</svg>
