<?xml version="1.0" encoding="UTF-8" standalone="no"?>
<!DOCTYPE svg PUBLIC "-//W3C//DTD SVG 1.1//EN"
 "http://www.w3.org/Graphics/SVG/1.1/DTD/svg11.dtd">
<!-- Generated by graphviz version 2.43.0 (0)
 -->
<!-- Title: Synchronized_queue::push Pages: 1 -->
<svg width="700pt" height="44pt"
 viewBox="0.00 0.00 700.00 44.00" xmlns="http://www.w3.org/2000/svg" xmlns:xlink="http://www.w3.org/1999/xlink">
<g id="graph0" class="graph" transform="scale(1 1) rotate(0) translate(4 40)">
<title>Synchronized_queue::push</title>
<!-- Node1 -->
<g id="node1" class="node">
<title>Node1</title>
<g id="a_node1"><a xlink:title=" ">
<text text-anchor="start" x="506" y="-15.9" font-family="UbuntuXX" font-weight="bold" font-size="12.00">Synchronized_queue::push</text>
</a>
</g>
</g>
<!-- Node2 -->
<g id="node2" class="node">
<title>Node2</title>
<g id="a_node2"><a xlink:href="structActive__object.html#ac125fd7860055c3a289b68ae39488714" target="_top" xlink:title=" ">
<text text-anchor="middle" x="387" y="-14.9" font-family="UbuntuXX" font-size="12.00">Active_object::method</text>
</a>
</g>
</g>
<!-- Node1&#45;&gt;Node2 -->
<g id="edge1" class="edge">
<title>Node1&#45;&gt;Node2</title>
<path fill="none" stroke="midnightblue" d="M492.84,-18C482.46,-18 472.04,-18 462.03,-18"/>
<polygon fill="midnightblue" stroke="midnightblue" points="497.94,-18 492.94,-20.25 495.44,-18 492.94,-18 492.94,-18 492.94,-18 495.44,-18 492.94,-15.75 497.94,-18 497.94,-18"/>
</g>
<!-- Node3 -->
<g id="node3" class="node">
<title>Node3</title>
<g id="a_node3"><a xlink:href="group__CC.html#ga3e57442badb533d55c8d3d3a05465030" target="_top" xlink:title=" ">
<text text-anchor="middle" x="183" y="-14.9" font-family="UbuntuXX" font-size="12.00">concurrency_patterns_demo</text>
</a>
</g>
</g>
<!-- Node2&#45;&gt;Node3 -->
<g id="edge2" class="edge">
<title>Node2&#45;&gt;Node3</title>
<path fill="none" stroke="midnightblue" d="M306.73,-18C296.74,-18 286.45,-18 276.28,-18"/>
<polygon fill="midnightblue" stroke="midnightblue" points="311.93,-18 306.93,-20.25 309.43,-18 306.93,-18 306.93,-18 306.93,-18 309.43,-18 306.93,-15.75 311.93,-18 311.93,-18"/>
</g>
<!-- Node4 -->
<g id="node4" class="node">
<title>Node4</title>
<g id="a_node4"><a xlink:href="group__DP.html#gae66f6b31b5ad750f1fe042a706a4e3d4" target="_top" xlink:title=" ">
<text text-anchor="middle" x="27" y="-14.9" font-family="UbuntuXX" font-size="12.00">main</text>
</a>
</g>
</g>
<!-- Node3&#45;&gt;Node4 -->
<g id="edge3" class="edge">
<title>Node3&#45;&gt;Node4</title>
<path fill="none" stroke="midnightblue" d="M84.63,-18C73.57,-18 63.11,-18 54.27,-18"/>
<polygon fill="midnightblue" stroke="midnightblue" points="89.75,-18 84.75,-20.25 87.25,-18 84.75,-18 84.75,-18 84.75,-18 87.25,-18 84.75,-15.75 89.75,-18 89.75,-18"/>
</g>
</g>
</svg>
