<?xml version="1.0" encoding="UTF-8" standalone="no"?>
<!DOCTYPE svg PUBLIC "-//W3C//DTD SVG 1.1//EN"
 "http://www.w3.org/Graphics/SVG/1.1/DTD/svg11.dtd">
<!-- Generated by graphviz version 2.43.0 (0)
 -->
<!-- Title: Graph Legend Pages: 1 -->
<svg width="588pt" height="207pt"
 viewBox="0.00 0.00 588.00 207.00" xmlns="http://www.w3.org/2000/svg" xmlns:xlink="http://www.w3.org/1999/xlink">
<g id="graph0" class="graph" transform="scale(1 1) rotate(0) translate(4 203)">
<title>Graph Legend</title>
<!-- Node9 -->
<g id="node1" class="node">
<title>Node9</title>
<g id="a_node1"><a xlink:title=" ">
<polygon fill="#bfbfbf" stroke="transparent" points="338.5,-21 271.5,-21 271.5,0 338.5,0 338.5,-21"/>
<text text-anchor="start" x="279.5" y="-8.4" font-family="Helvetica,Arial,sans-serif" font-weight="bold" font-size="12.00">Inherited</text>
</a>
</g>
</g>
<!-- Node10 -->
<g id="node2" class="node">
<title>Node10</title>
<g id="a_node2"><a xlink:href="url.html" xlink:title=" ">
<text text-anchor="middle" x="39" y="-88.9" font-family="Helvetica,Arial,sans-serif" font-size="12.00">PublicBase</text>
</a>
</g>
</g>
<!-- Node10&#45;&gt;Node9 -->
<g id="edge1" class="edge">
<title>Node10&#45;&gt;Node9</title>
<path fill="none" stroke="midnightblue" d="M69.79,-79.78C75.49,-77.79 81.41,-75.79 87,-74 151.68,-53.29 228.18,-32.12 271.2,-20.5"/>
<polygon fill="midnightblue" stroke="midnightblue" points="65.06,-81.44 69.03,-77.66 67.42,-80.62 69.78,-79.79 69.78,-79.79 69.78,-79.79 67.42,-80.62 70.52,-81.91 65.06,-81.44 65.06,-81.44"/>
</g>
<!-- Node11 -->
<g id="node3" class="node">
<title>Node11</title>
<g id="a_node3"><a xlink:href="url.html" xlink:title=" ">
<text text-anchor="start" x="12.5" y="-178.9" font-family="Helvetica,Arial,sans-serif" font-style="italic" font-size="12.00">Truncated</text>
</a>
</g>
</g>
<!-- Node11&#45;&gt;Node10 -->
<g id="edge2" class="edge">
<title>Node11&#45;&gt;Node10</title>
<path fill="none" stroke="midnightblue" d="M39,-165.22C39,-147.38 39,-117.87 39,-102.69"/>
<polygon fill="midnightblue" stroke="midnightblue" points="39,-170.36 36.75,-165.36 39,-167.86 39,-165.36 39,-165.36 39,-165.36 39,-167.86 41.25,-165.36 39,-170.36 39,-170.36"/>
</g>
<!-- Node13 -->
<g id="node4" class="node">
<title>Node13</title>
<text text-anchor="middle" x="144" y="-88.9" font-family="Helvetica,Arial,sans-serif" font-size="12.00">ProtectedBase</text>
</g>
<!-- Node13&#45;&gt;Node9 -->
<g id="edge3" class="edge">
<title>Node13&#45;&gt;Node9</title>
<path fill="none" stroke="darkgreen" d="M183.23,-71.63C215.69,-55.6 260.42,-33.51 285.65,-21.06"/>
<polygon fill="darkgreen" stroke="darkgreen" points="178.54,-73.95 182.03,-69.71 180.78,-72.84 183.02,-71.73 183.02,-71.73 183.02,-71.73 180.78,-72.84 184.02,-73.75 178.54,-73.95 178.54,-73.95"/>
</g>
<!-- Node14 -->
<g id="node5" class="node">
<title>Node14</title>
<text text-anchor="middle" x="251" y="-88.9" font-family="Helvetica,Arial,sans-serif" font-size="12.00">PrivateBase</text>
</g>
<!-- Node14&#45;&gt;Node9 -->
<g id="edge4" class="edge">
<title>Node14&#45;&gt;Node9</title>
<path fill="none" stroke="#8b1a1a" d="M265.63,-69.45C276.32,-53.73 290.29,-33.16 298.39,-21.23"/>
<polygon fill="#8b1a1a" stroke="#8b1a1a" points="262.72,-73.75 263.67,-68.35 264.12,-71.68 265.53,-69.61 265.53,-69.61 265.53,-69.61 264.12,-71.68 267.39,-70.88 262.72,-73.75 262.72,-73.75"/>
</g>
<!-- Node15 -->
<g id="node6" class="node">
<title>Node15</title>
<g id="a_node6"><a xlink:title=" ">
<text text-anchor="middle" x="359" y="-88.9" font-family="Helvetica,Arial,sans-serif" font-size="12.00">Undocumented</text>
</a>
</g>
</g>
<!-- Node15&#45;&gt;Node9 -->
<g id="edge5" class="edge">
<title>Node15&#45;&gt;Node9</title>
<path fill="none" stroke="midnightblue" d="M349.51,-77.02C338.66,-61.05 321.18,-35.32 311.68,-21.33"/>
<polygon fill="midnightblue" stroke="midnightblue" points="352.38,-81.25 347.71,-78.38 350.97,-79.18 349.57,-77.12 349.57,-77.12 349.57,-77.12 350.97,-79.18 351.43,-75.85 352.38,-81.25 352.38,-81.25"/>
</g>
<!-- Node16 -->
<g id="node7" class="node">
<title>Node16</title>
<text text-anchor="middle" x="467" y="-88.9" font-family="Helvetica,Arial,sans-serif" font-size="12.00">Templ&lt; int &gt;</text>
</g>
<!-- Node16&#45;&gt;Node9 -->
<g id="edge6" class="edge">
<title>Node16&#45;&gt;Node9</title>
<path fill="none" stroke="midnightblue" d="M427.52,-71.63C394.86,-55.6 349.86,-33.51 324.47,-21.06"/>
<polygon fill="midnightblue" stroke="midnightblue" points="432.25,-73.95 426.77,-73.76 430,-72.84 427.76,-71.74 427.76,-71.74 427.76,-71.74 430,-72.84 428.75,-69.72 432.25,-73.95 432.25,-73.95"/>
</g>
<!-- Node17 -->
<g id="node8" class="node">
<title>Node17</title>
<text text-anchor="middle" x="467" y="-177.9" font-family="Helvetica,Arial,sans-serif" font-size="12.00">Templ&lt; T &gt;</text>
</g>
<!-- Node17&#45;&gt;Node16 -->
<g id="edge7" class="edge">
<title>Node17&#45;&gt;Node16</title>
<path fill="none" stroke="orange" stroke-dasharray="5,2" d="M467,-157.58C467,-142.79 467,-123.73 467,-110.15"/>
<polygon fill="orange" stroke="orange" points="467,-162.81 464.75,-157.81 467,-160.31 467,-157.81 467,-157.81 467,-157.81 467,-160.31 469.25,-157.81 467,-162.81 467,-162.81"/>
<text text-anchor="middle" x="488.5" y="-133" font-family="Helvetica,Arial,sans-serif" font-size="15.00">&lt; int &gt;</text>
</g>
<!-- Node18 -->
<g id="node9" class="node">
<title>Node18</title>
<text text-anchor="middle" x="553" y="-88.9" font-family="Helvetica,Arial,sans-serif" font-size="12.00">Used</text>
</g>
<!-- Node18&#45;&gt;Node9 -->
<g id="edge8" class="edge">
<title>Node18&#45;&gt;Node9</title>
<path fill="none" stroke="#9a32cd" stroke-dasharray="5,2" d="M521.04,-75.6C519.68,-75.04 518.33,-74.51 517,-74 455.32,-50.51 380.82,-30.37 338.58,-19.68"/>
<polygon fill="#9a32cd" stroke="#9a32cd" points="525.67,-77.56 520.19,-77.68 523.37,-76.59 521.07,-75.61 521.07,-75.61 521.07,-75.61 523.37,-76.59 521.95,-73.54 525.67,-77.56 525.67,-77.56"/>
<text text-anchor="middle" x="510.5" y="-44" font-family="Helvetica,Arial,sans-serif" font-size="15.00">m_usedClass</text>
</g>
</g>
</svg>
