<?xml version="1.0" encoding="UTF-8" standalone="no"?>
<!DOCTYPE svg PUBLIC "-//W3C//DTD SVG 1.1//EN"
 "http://www.w3.org/Graphics/SVG/1.1/DTD/svg11.dtd">
<!-- Generated by graphviz version 2.43.0 (0)
 -->
<!-- Title: main Pages: 1 -->
<svg width="369pt" height="243pt"
 viewBox="0.00 0.00 369.00 243.00" xmlns="http://www.w3.org/2000/svg" xmlns:xlink="http://www.w3.org/1999/xlink">
<g id="graph0" class="graph" transform="scale(1 1) rotate(0) translate(4 239)">
<title>main</title>
<!-- Node1 -->
<g id="node1" class="node">
<title>Node1</title>
<g id="a_node1"><a xlink:title=" ">
<polygon fill="#bfbfbf" stroke="transparent" points="44,-99 0,-99 0,-78 44,-78 44,-99"/>
<text text-anchor="start" x="8" y="-86.4" font-family="Helvetica,Arial,sans-serif" font-weight="bold" font-size="12.00">main</text>
</a>
</g>
</g>
<!-- Node2 -->
<g id="node2" class="node">
<title>Node2</title>
<g id="a_node2"><a xlink:href="$group__lang03.html#ga1e0f4bce79948999d38ed78a86d51522" xlink:title="algorithm">
<text text-anchor="middle" x="123" y="-192.4" font-family="Helvetica,Arial,sans-serif" font-size="12.00">algo_03</text>
</a>
</g>
</g>
<!-- Node1&#45;&gt;Node2 -->
<g id="edge1" class="edge">
<title>Node1&#45;&gt;Node2</title>
<path fill="none" stroke="midnightblue" d="M32.85,-99.15C50.72,-118.46 88.46,-159.25 108.63,-181.05"/>
<polygon fill="midnightblue" stroke="midnightblue" points="112.19,-184.89 107.14,-182.75 110.49,-183.06 108.79,-181.22 108.79,-181.22 108.79,-181.22 110.49,-183.06 110.44,-179.69 112.19,-184.89 112.19,-184.89"/>
</g>
<!-- Node4 -->
<g id="node4" class="node">
<title>Node4</title>
<g id="a_node4"><a xlink:href="$group__lang03.html#ga83f53ac8c07000ae6975d0b96cded5da" xlink:title="container">
<text text-anchor="middle" x="123" y="-124.4" font-family="Helvetica,Arial,sans-serif" font-size="12.00">container_03</text>
</a>
</g>
</g>
<!-- Node1&#45;&gt;Node4 -->
<g id="edge3" class="edge">
<title>Node1&#45;&gt;Node4</title>
<path fill="none" stroke="midnightblue" d="M44.48,-96.96C57.87,-102.24 75.33,-109.12 90.29,-115.01"/>
<polygon fill="midnightblue" stroke="midnightblue" points="95.26,-116.97 89.78,-117.23 92.93,-116.05 90.61,-115.13 90.61,-115.13 90.61,-115.13 92.93,-116.05 91.43,-113.04 95.26,-116.97 95.26,-116.97"/>
</g>
<!-- Node9 -->
<g id="node9" class="node">
<title>Node9</title>
<g id="a_node9"><a xlink:href="$group__lang03.html#gaf98b94a091226b55213540a968899af4" xlink:title=" ">
<text text-anchor="middle" x="123" y="-85.4" font-family="Helvetica,Arial,sans-serif" font-size="12.00">init_03</text>
</a>
</g>
</g>
<!-- Node1&#45;&gt;Node9 -->
<g id="edge8" class="edge">
<title>Node1&#45;&gt;Node9</title>
<path fill="none" stroke="midnightblue" d="M44.48,-88.5C58.17,-88.5 76.13,-88.5 91.32,-88.5"/>
<polygon fill="midnightblue" stroke="midnightblue" points="96.35,-88.5 91.35,-90.75 93.85,-88.5 91.35,-88.5 91.35,-88.5 91.35,-88.5 93.85,-88.5 91.35,-86.25 96.35,-88.5 96.35,-88.5"/>
</g>
<!-- Node10 -->
<g id="node10" class="node">
<title>Node10</title>
<g id="a_node10"><a xlink:href="$group__lang03.html#ga1d825ed882a640849aca92a60411a85e" xlink:title=" ">
<text text-anchor="middle" x="123" y="-46.4" font-family="Helvetica,Arial,sans-serif" font-size="12.00">types_03</text>
</a>
</g>
</g>
<!-- Node1&#45;&gt;Node10 -->
<g id="edge9" class="edge">
<title>Node1&#45;&gt;Node10</title>
<path fill="none" stroke="midnightblue" d="M44.48,-80.04C57.87,-74.76 75.33,-67.88 90.29,-61.99"/>
<polygon fill="midnightblue" stroke="midnightblue" points="95.26,-60.03 91.43,-63.96 92.93,-60.95 90.61,-61.87 90.61,-61.87 90.61,-61.87 92.93,-60.95 89.78,-59.77 95.26,-60.03 95.26,-60.03"/>
</g>
<!-- Node12 -->
<g id="node12" class="node">
<title>Node12</title>
<g id="a_node12"><a xlink:href="$group__lang03.html#gaef905cd6f271a73ad5187acb884f55b8" xlink:title=" ">
<text text-anchor="middle" x="123" y="-7.4" font-family="Helvetica,Arial,sans-serif" font-size="12.00">utils_03</text>
</a>
</g>
</g>
<!-- Node1&#45;&gt;Node12 -->
<g id="edge11" class="edge">
<title>Node1&#45;&gt;Node12</title>
<path fill="none" stroke="midnightblue" d="M31.36,-77.98C41.73,-65.44 60.46,-44.43 80,-30.5 83.5,-28.01 87.36,-25.69 91.27,-23.57"/>
<polygon fill="midnightblue" stroke="midnightblue" points="95.88,-21.19 92.47,-25.49 93.66,-22.34 91.44,-23.49 91.44,-23.49 91.44,-23.49 93.66,-22.34 90.4,-21.49 95.88,-21.19 95.88,-21.19"/>
</g>
<!-- Node3 -->
<g id="node3" class="node">
<title>Node3</title>
<g id="a_node3"><a xlink:href="$group__lang03.html#ga38c532a3f874df4d7b9a0b38b5c689c9" xlink:title=" ">
<text text-anchor="middle" x="281.5" y="-221.4" font-family="Helvetica,Arial,sans-serif" font-size="12.00">sort_03</text>
</a>
</g>
</g>
<!-- Node2&#45;&gt;Node3 -->
<g id="edge2" class="edge">
<title>Node2&#45;&gt;Node3</title>
<path fill="none" stroke="midnightblue" d="M153.07,-200.89C179.95,-205.87 219.85,-213.26 247.82,-218.44"/>
<polygon fill="midnightblue" stroke="midnightblue" points="252.9,-219.39 247.57,-220.69 250.44,-218.93 247.98,-218.47 247.98,-218.47 247.98,-218.47 250.44,-218.93 248.39,-216.26 252.9,-219.39 252.9,-219.39"/>
</g>
<!-- Node5 -->
<g id="node5" class="node">
<title>Node5</title>
<g id="a_node5"><a xlink:href="$group__lang03.html#gae73b2e50993103adde4a55c65f358396" xlink:title=" ">
<text text-anchor="middle" x="281.5" y="-182.4" font-family="Helvetica,Arial,sans-serif" font-size="12.00">associative_containers_03</text>
</a>
</g>
</g>
<!-- Node4&#45;&gt;Node5 -->
<g id="edge4" class="edge">
<title>Node4&#45;&gt;Node5</title>
<path fill="none" stroke="midnightblue" d="M142.07,-138.01C157.56,-146.65 180.67,-158.7 202,-166.5 209.31,-169.17 217.13,-171.58 224.91,-173.71"/>
<polygon fill="midnightblue" stroke="midnightblue" points="229.74,-175 224.33,-175.88 227.33,-174.35 224.91,-173.71 224.91,-173.71 224.91,-173.71 227.33,-174.35 225.49,-171.53 229.74,-175 229.74,-175"/>
</g>
<!-- Node6 -->
<g id="node6" class="node">
<title>Node6</title>
<g id="a_node6"><a xlink:href="$group__test20.html#ga4b60c31eceb860aee728d068d0439d4f" xlink:title=" ">
<text text-anchor="middle" x="281.5" y="-143.4" font-family="Helvetica,Arial,sans-serif" font-size="12.00">q</text>
</a>
</g>
</g>
<!-- Node4&#45;&gt;Node6 -->
<g id="edge5" class="edge">
<title>Node4&#45;&gt;Node6</title>
<path fill="none" stroke="midnightblue" d="M166.35,-132.64C197.49,-136.42 238.31,-141.38 261.75,-144.22"/>
<polygon fill="midnightblue" stroke="midnightblue" points="266.76,-144.83 261.52,-146.46 264.28,-144.53 261.79,-144.23 261.79,-144.23 261.79,-144.23 264.28,-144.53 262.07,-142 266.76,-144.83 266.76,-144.83"/>
</g>
<!-- Node7 -->
<g id="node7" class="node">
<title>Node7</title>
<g id="a_node7"><a xlink:href="$group__lang03.html#ga82fa6c134edb8fee184e1ab554edbd44" xlink:title=" ">
<text text-anchor="middle" x="281.5" y="-104.4" font-family="Helvetica,Arial,sans-serif" font-size="12.00">test_generic_container</text>
</a>
</g>
</g>
<!-- Node4&#45;&gt;Node7 -->
<g id="edge6" class="edge">
<title>Node4&#45;&gt;Node7</title>
<path fill="none" stroke="midnightblue" d="M166.35,-122.09C179.01,-120.47 193.27,-118.65 207.31,-116.85"/>
<polygon fill="midnightblue" stroke="midnightblue" points="212.47,-116.19 207.79,-119.06 209.99,-116.51 207.51,-116.83 207.51,-116.83 207.51,-116.83 209.99,-116.51 207.22,-114.6 212.47,-116.19 212.47,-116.19"/>
</g>
<!-- Node8 -->
<g id="node8" class="node">
<title>Node8</title>
<g id="a_node8"><a xlink:href="$group__lang03.html#ga44970e48eb3cf351a9199d4c43b4ab52" xlink:title=" ">
<text text-anchor="middle" x="281.5" y="-65.4" font-family="Helvetica,Arial,sans-serif" font-size="12.00">test_vector_container</text>
</a>
</g>
</g>
<!-- Node4&#45;&gt;Node8 -->
<g id="edge7" class="edge">
<title>Node4&#45;&gt;Node8</title>
<path fill="none" stroke="midnightblue" d="M148.15,-116.99C154.03,-114.31 160.28,-111.38 166,-108.5 182.35,-100.28 184.99,-95.26 202,-88.5 209.58,-85.49 217.75,-82.82 225.85,-80.48"/>
<polygon fill="midnightblue" stroke="midnightblue" points="230.89,-79.07 226.68,-82.59 228.48,-79.75 226.07,-80.42 226.07,-80.42 226.07,-80.42 228.48,-79.75 225.47,-78.25 230.89,-79.07 230.89,-79.07"/>
</g>
<!-- Node11 -->
<g id="node11" class="node">
<title>Node11</title>
<g id="a_node11"><a xlink:href="$group__lang03.html#ga5831d31381cbf4ac7a42c4cc3d54904c" xlink:title="reference">
<text text-anchor="middle" x="281.5" y="-26.4" font-family="Helvetica,Arial,sans-serif" font-size="12.00">a_ref</text>
</a>
</g>
</g>
<!-- Node10&#45;&gt;Node11 -->
<g id="edge10" class="edge">
<title>Node10&#45;&gt;Node11</title>
<path fill="none" stroke="midnightblue" d="M156.05,-45.4C185.06,-41.7 227.26,-36.3 254.3,-32.85"/>
<polygon fill="midnightblue" stroke="midnightblue" points="259.49,-32.18 254.82,-35.05 257.01,-32.5 254.53,-32.82 254.53,-32.82 254.53,-32.82 257.01,-32.5 254.25,-30.59 259.49,-32.18 259.49,-32.18"/>
</g>
</g>
</svg>
