<?xml version="1.0" encoding="UTF-8" standalone="no"?>
<!DOCTYPE svg PUBLIC "-//W3C//DTD SVG 1.1//EN"
 "http://www.w3.org/Graphics/SVG/1.1/DTD/svg11.dtd">
<!-- Generated by graphviz version 2.43.0 (0)
 -->
<!-- Title: foo Pages: 1 -->
<svg width="313pt" height="68pt"
 viewBox="0.00 0.00 313.00 68.00" xmlns="http://www.w3.org/2000/svg" xmlns:xlink="http://www.w3.org/1999/xlink">
<g id="graph0" class="graph" transform="scale(1 1) rotate(0) translate(4 64)">
<title>foo</title>
<!-- Node1 -->
<g id="node1" class="node">
<title>Node1</title>
<g id="a_node1"><a xlink:title=" ">
<polygon fill="#bfbfbf" stroke="transparent" points="305,-40 270,-40 270,-19 305,-19 305,-40"/>
<text text-anchor="start" x="278" y="-27.4" font-family="Helvetica,Arial,sans-serif" font-weight="bold" font-size="12.00">foo</text>
</a>
</g>
</g>
<!-- Node2 -->
<g id="node2" class="node">
<title>Node2</title>
<g id="a_node2"><a xlink:href="$group__lang11.html#ga0e663f52efbc8593793d628b4259ce9b" xlink:title=" ">
<text text-anchor="middle" x="204.5" y="-46.4" font-family="Helvetica,Arial,sans-serif" font-size="12.00">main2</text>
</a>
</g>
</g>
<!-- Node1&#45;&gt;Node2 -->
<g id="edge1" class="edge">
<title>Node1&#45;&gt;Node2</title>
<path fill="none" stroke="midnightblue" d="M264.61,-34.9C253.8,-37.57 240.73,-40.8 229.64,-43.54"/>
<polygon fill="midnightblue" stroke="midnightblue" points="269.72,-33.64 265.4,-37.03 267.29,-34.24 264.86,-34.84 264.86,-34.84 264.86,-34.84 267.29,-34.24 264.32,-32.66 269.72,-33.64 269.72,-33.64"/>
</g>
<!-- Node4 -->
<g id="node4" class="node">
<title>Node4</title>
<g id="a_node4"><a xlink:href="$group__attr.html#ga3f48aea4a68337f783ea488f5c8f0e6a" xlink:title=" ">
<text text-anchor="middle" x="204.5" y="-7.4" font-family="Helvetica,Arial,sans-serif" font-size="12.00">test_attr</text>
</a>
</g>
</g>
<!-- Node1&#45;&gt;Node4 -->
<g id="edge3" class="edge">
<title>Node1&#45;&gt;Node4</title>
<path fill="none" stroke="midnightblue" d="M264.68,-24.38C255.27,-22.17 244.13,-19.56 234.07,-17.2"/>
<polygon fill="midnightblue" stroke="midnightblue" points="269.72,-25.56 264.34,-26.61 267.28,-24.99 264.85,-24.42 264.85,-24.42 264.85,-24.42 267.28,-24.99 265.36,-22.23 269.72,-25.56 269.72,-25.56"/>
</g>
<!-- Node3 -->
<g id="node3" class="node">
<title>Node3</title>
<g id="a_node3"><a xlink:href="$group__CPP11.html#ga840291bc02cba5474a4cb46a9b9566fe" xlink:title=" ">
<text text-anchor="middle" x="109" y="-46.4" font-family="Helvetica,Arial,sans-serif" font-size="12.00">main</text>
</a>
</g>
</g>
<!-- Node2&#45;&gt;Node3 -->
<g id="edge2" class="edge">
<title>Node2&#45;&gt;Node3</title>
<path fill="none" stroke="midnightblue" d="M174.31,-49.5C160.1,-49.5 143.35,-49.5 130.51,-49.5"/>
<polygon fill="midnightblue" stroke="midnightblue" points="179.42,-49.5 174.42,-51.75 176.92,-49.5 174.42,-49.5 174.42,-49.5 174.42,-49.5 176.92,-49.5 174.42,-47.25 179.42,-49.5 179.42,-49.5"/>
</g>
<!-- Node5 -->
<g id="node5" class="node">
<title>Node5</title>
<g id="a_node5"><a xlink:href="$group__lang17.html#ga511a3c761f5be8bf3c9bb7db27a91696" xlink:title="language">
<text text-anchor="middle" x="109" y="-7.4" font-family="Helvetica,Arial,sans-serif" font-size="12.00">lang_17</text>
</a>
</g>
</g>
<!-- Node4&#45;&gt;Node5 -->
<g id="edge4" class="edge">
<title>Node4&#45;&gt;Node5</title>
<path fill="none" stroke="midnightblue" d="M169.77,-10.5C159.7,-10.5 148.77,-10.5 139.03,-10.5"/>
<polygon fill="midnightblue" stroke="midnightblue" points="174.94,-10.5 169.94,-12.75 172.44,-10.5 169.94,-10.5 169.94,-10.5 169.94,-10.5 172.44,-10.5 169.94,-8.25 174.94,-10.5 174.94,-10.5"/>
</g>
<!-- Node6 -->
<g id="node6" class="node">
<title>Node6</title>
<g id="a_node6"><a xlink:href="$group__CPP17.html#gae66f6b31b5ad750f1fe042a706a4e3d4" xlink:title=" ">
<text text-anchor="middle" x="21.5" y="-7.4" font-family="Helvetica,Arial,sans-serif" font-size="12.00">main</text>
</a>
</g>
</g>
<!-- Node5&#45;&gt;Node6 -->
<g id="edge5" class="edge">
<title>Node5&#45;&gt;Node6</title>
<path fill="none" stroke="midnightblue" d="M73.57,-10.5C63.23,-10.5 52.22,-10.5 43.08,-10.5"/>
<polygon fill="midnightblue" stroke="midnightblue" points="78.58,-10.5 73.58,-12.75 76.08,-10.5 73.58,-10.5 73.58,-10.5 73.58,-10.5 76.08,-10.5 73.58,-8.25 78.58,-10.5 78.58,-10.5"/>
</g>
</g>
</svg>
