<?xml version="1.0" encoding="UTF-8" standalone="no"?>
<!DOCTYPE svg PUBLIC "-//W3C//DTD SVG 1.1//EN"
 "http://www.w3.org/Graphics/SVG/1.1/DTD/svg11.dtd">
<!-- Generated by graphviz version 2.43.0 (0)
 -->
<!-- Title: vvv Pages: 1 -->
<svg width="292pt" height="29pt"
 viewBox="0.00 0.00 292.00 29.00" xmlns="http://www.w3.org/2000/svg" xmlns:xlink="http://www.w3.org/1999/xlink">
<g id="graph0" class="graph" transform="scale(1 1) rotate(0) translate(4 25)">
<title>vvv</title>
<!-- Node1 -->
<g id="node1" class="node">
<title>Node1</title>
<g id="a_node1"><a xlink:title=" ">
<polygon fill="#bfbfbf" stroke="transparent" points="284,-21 247,-21 247,0 284,0 284,-21"/>
<text text-anchor="start" x="255" y="-8.4" font-family="Helvetica,Arial,sans-serif" font-weight="bold" font-size="12.00">vvv</text>
</a>
</g>
</g>
<!-- Node2 -->
<g id="node2" class="node">
<title>Node2</title>
<g id="a_node2"><a xlink:href="$group__lib17.html#gab5fcfaf82b4a2f9f162cb824e42a6dc7" xlink:title=" ">
<text text-anchor="middle" x="145" y="-7.4" font-family="Helvetica,Arial,sans-serif" font-size="12.00">dynamic_memory_17</text>
</a>
</g>
</g>
<!-- Node1&#45;&gt;Node2 -->
<g id="edge1" class="edge">
<title>Node1&#45;&gt;Node2</title>
<path fill="none" stroke="midnightblue" d="M241.73,-10.5C232.81,-10.5 222.09,-10.5 211.1,-10.5"/>
<polygon fill="midnightblue" stroke="midnightblue" points="246.76,-10.5 241.76,-12.75 244.26,-10.5 241.76,-10.5 241.76,-10.5 241.76,-10.5 244.26,-10.5 241.76,-8.25 246.76,-10.5 246.76,-10.5"/>
</g>
<!-- Node3 -->
<g id="node3" class="node">
<title>Node3</title>
<g id="a_node3"><a xlink:href="$group__CPP17.html#gae66f6b31b5ad750f1fe042a706a4e3d4" xlink:title=" ">
<text text-anchor="middle" x="21.5" y="-7.4" font-family="Helvetica,Arial,sans-serif" font-size="12.00">main</text>
</a>
</g>
</g>
<!-- Node2&#45;&gt;Node3 -->
<g id="edge2" class="edge">
<title>Node2&#45;&gt;Node3</title>
<path fill="none" stroke="midnightblue" d="M73.83,-10.5C62.67,-10.5 51.95,-10.5 43.22,-10.5"/>
<polygon fill="midnightblue" stroke="midnightblue" points="78.98,-10.5 73.98,-12.75 76.48,-10.5 73.98,-10.5 73.98,-10.5 73.98,-10.5 76.48,-10.5 73.98,-8.25 78.98,-10.5 78.98,-10.5"/>
</g>
</g>
</svg>
