<?xml version="1.0" encoding="UTF-8" standalone="no"?>
<!DOCTYPE svg PUBLIC "-//W3C//DTD SVG 1.1//EN"
 "http://www.w3.org/Graphics/SVG/1.1/DTD/svg11.dtd">
<!-- Generated by graphviz version 2.43.0 (0)
 -->
<!-- Title: copy_elision_demo Pages: 1 -->
<svg width="433pt" height="29pt"
 viewBox="0.00 0.00 433.00 29.00" xmlns="http://www.w3.org/2000/svg" xmlns:xlink="http://www.w3.org/1999/xlink">
<g id="graph0" class="graph" transform="scale(1 1) rotate(0) translate(4 25)">
<title>copy_elision_demo</title>
<!-- Node1 -->
<g id="node1" class="node">
<title>Node1</title>
<g id="a_node1"><a xlink:title="copy_elision">
<polygon fill="#bfbfbf" stroke="transparent" points="425,-21 297,-21 297,0 425,0 425,-21"/>
<text text-anchor="start" x="305" y="-8.4" font-family="Helvetica,Arial,sans-serif" font-weight="bold" font-size="12.00">copy_elision_demo</text>
</a>
</g>
</g>
<!-- Node2 -->
<g id="node2" class="node">
<title>Node2</title>
<g id="a_node2"><a xlink:href="$group__lang11.html#ga36919d7669c19a0f73874e91af90d0d4" xlink:title=" ">
<text text-anchor="middle" x="231.5" y="-7.4" font-family="Helvetica,Arial,sans-serif" font-size="12.00">func_11</text>
</a>
</g>
</g>
<!-- Node1&#45;&gt;Node2 -->
<g id="edge1" class="edge">
<title>Node1&#45;&gt;Node2</title>
<path fill="none" stroke="midnightblue" d="M291.71,-10.5C280.95,-10.5 270.36,-10.5 261.18,-10.5"/>
<polygon fill="midnightblue" stroke="midnightblue" points="297,-10.5 292,-12.75 294.5,-10.5 292,-10.5 292,-10.5 292,-10.5 294.5,-10.5 292,-8.25 297,-10.5 297,-10.5"/>
</g>
<!-- Node3 -->
<g id="node3" class="node">
<title>Node3</title>
<g id="a_node3"><a xlink:href="$group__lang11.html#gaa2d7b19a78d91914e735ea5a16767df4" xlink:title=" ">
<text text-anchor="middle" x="122.5" y="-7.4" font-family="Helvetica,Arial,sans-serif" font-size="12.00">language_11</text>
</a>
</g>
</g>
<!-- Node2&#45;&gt;Node3 -->
<g id="edge2" class="edge">
<title>Node2&#45;&gt;Node3</title>
<path fill="none" stroke="midnightblue" d="M196.6,-10.5C186.99,-10.5 176.41,-10.5 166.35,-10.5"/>
<polygon fill="midnightblue" stroke="midnightblue" points="201.83,-10.5 196.83,-12.75 199.33,-10.5 196.83,-10.5 196.83,-10.5 196.83,-10.5 199.33,-10.5 196.83,-8.25 201.83,-10.5 201.83,-10.5"/>
</g>
<!-- Node4 -->
<g id="node4" class="node">
<title>Node4</title>
<g id="a_node4"><a xlink:href="$group__CPP11.html#ga840291bc02cba5474a4cb46a9b9566fe" xlink:title=" ">
<text text-anchor="middle" x="21.5" y="-7.4" font-family="Helvetica,Arial,sans-serif" font-size="12.00">main</text>
</a>
</g>
</g>
<!-- Node3&#45;&gt;Node4 -->
<g id="edge3" class="edge">
<title>Node3&#45;&gt;Node4</title>
<path fill="none" stroke="midnightblue" d="M73.7,-10.5C62.98,-10.5 52.16,-10.5 43.24,-10.5"/>
<polygon fill="midnightblue" stroke="midnightblue" points="78.94,-10.5 73.94,-12.75 76.44,-10.5 73.94,-10.5 73.94,-10.5 73.94,-10.5 76.44,-10.5 73.94,-8.25 78.94,-10.5 78.94,-10.5"/>
</g>
</g>
</svg>
