<?xml version="1.0" encoding="UTF-8" standalone="no"?>
<!DOCTYPE svg PUBLIC "-//W3C//DTD SVG 1.1//EN"
 "http://www.w3.org/Graphics/SVG/1.1/DTD/svg11.dtd">
<!-- Generated by graphviz version 2.43.0 (0)
 -->
<!-- Title: coroutine_demo Pages: 1 -->
<svg width="231pt" height="68pt"
 viewBox="0.00 0.00 231.00 68.00" xmlns="http://www.w3.org/2000/svg" xmlns:xlink="http://www.w3.org/1999/xlink">
<g id="graph0" class="graph" transform="scale(1 1) rotate(0) translate(4 64)">
<title>coroutine_demo</title>
<!-- Node1 -->
<g id="node1" class="node">
<title>Node1</title>
<g id="a_node1"><a xlink:title=" ">
<polygon fill="#bfbfbf" stroke="transparent" points="223,-40 113,-40 113,-19 223,-19 223,-40"/>
<text text-anchor="start" x="121" y="-27.4" font-family="Helvetica,Arial,sans-serif" font-weight="bold" font-size="12.00">coroutine_demo</text>
</a>
</g>
</g>
<!-- Node2 -->
<g id="node2" class="node">
<title>Node2</title>
<g id="a_node2"><a xlink:href="$20_8cpp.html#ae66f6b31b5ad750f1fe042a706a4e3d4" xlink:title=" ">
<text text-anchor="middle" x="38.5" y="-46.4" font-family="Helvetica,Arial,sans-serif" font-size="12.00">main</text>
</a>
</g>
</g>
<!-- Node1&#45;&gt;Node2 -->
<g id="edge1" class="edge">
<title>Node1&#45;&gt;Node2</title>
<path fill="none" stroke="midnightblue" d="M107.67,-38.81C90.68,-41.47 73.27,-44.2 60.29,-46.24"/>
<polygon fill="midnightblue" stroke="midnightblue" points="112.93,-37.98 108.34,-40.98 110.46,-38.37 107.99,-38.76 107.99,-38.76 107.99,-38.76 110.46,-38.37 107.64,-36.53 112.93,-37.98 112.93,-37.98"/>
</g>
<!-- Node3 -->
<g id="node3" class="node">
<title>Node3</title>
<g id="a_node3"><a xlink:href="$group__templ20.html#ga6f1ec42b20316ffa0491cd89dfb66a8c" xlink:title=" ">
<text text-anchor="middle" x="38.5" y="-7.4" font-family="Helvetica,Arial,sans-serif" font-size="12.00">threads_20</text>
</a>
</g>
</g>
<!-- Node1&#45;&gt;Node3 -->
<g id="edge2" class="edge">
<title>Node1&#45;&gt;Node3</title>
<path fill="none" stroke="midnightblue" d="M107.81,-20.68C97.34,-19.12 86.71,-17.54 77.05,-16.1"/>
<polygon fill="midnightblue" stroke="midnightblue" points="112.93,-21.44 107.65,-22.93 110.46,-21.07 107.98,-20.71 107.98,-20.71 107.98,-20.71 110.46,-21.07 108.31,-18.48 112.93,-21.44 112.93,-21.44"/>
</g>
</g>
</svg>
