<?xml version="1.0" encoding="UTF-8" standalone="no"?>
<!DOCTYPE svg PUBLIC "-//W3C//DTD SVG 1.1//EN"
 "http://www.w3.org/Graphics/SVG/1.1/DTD/svg11.dtd">
<!-- Generated by graphviz version 2.43.0 (0)
 -->
<!-- Title: Concepts Pages: 1 -->
<svg width="354pt" height="82pt"
 viewBox="0.00 0.00 354.00 81.50" xmlns="http://www.w3.org/2000/svg" xmlns:xlink="http://www.w3.org/1999/xlink">
<g id="graph0" class="graph" transform="scale(1 1) rotate(0) translate(4 77.5)">
<title>Concepts</title>
<!-- Node1 -->
<g id="node1" class="node">
<title>Node1</title>
<g id="a_node1"><a xlink:title=" ">
<polygon fill="#bfbfbf" stroke="transparent" points="179,-50.5 107,-50.5 107,-29.5 179,-29.5 179,-50.5"/>
<text text-anchor="start" x="115" y="-37.9" font-family="Helvetica,Arial,sans-serif" font-weight="bold" font-size="12.00">Concepts</text>
</a>
</g>
</g>
<!-- Node4 -->
<g id="node2" class="node">
<title>Node4</title>
<g id="a_node2"><a xlink:href="$group__conc__def__20.html" xlink:title=" ">
<text text-anchor="middle" x="280.5" y="-59.9" font-family="Helvetica,Arial,sans-serif" font-size="12.00">Concept definitions</text>
</a>
</g>
</g>
<!-- Node1&#45;&gt;Node4 -->
<g id="edge3" class="edge">
<title>Node1&#45;&gt;Node4</title>
<path fill="none" stroke="black" d="M184.41,-46.86C195.85,-48.8 208.53,-50.95 220.81,-53.04"/>
<polygon fill="black" stroke="black" points="179.25,-45.98 184.55,-44.6 181.71,-46.4 184.18,-46.82 184.18,-46.82 184.18,-46.82 181.71,-46.4 183.8,-49.04 179.25,-45.98 179.25,-45.98"/>
</g>
<!-- Node3 -->
<g id="node3" class="node">
<title>Node3</title>
<g id="a_node3"><a xlink:href="$group__req20.html" xlink:title=" ">
<text text-anchor="start" x="223" y="-20.4" font-family="Helvetica,Arial,sans-serif" font-size="12.00">&#39;Requires&#39; clause and</text>
<text text-anchor="middle" x="280.5" y="-7.4" font-family="Helvetica,Arial,sans-serif" font-size="12.00"> expression</text>
</a>
</g>
</g>
<!-- Node1&#45;&gt;Node3 -->
<g id="edge2" class="edge">
<title>Node1&#45;&gt;Node3</title>
<path fill="none" stroke="black" d="M184.19,-33.18C193.82,-31.54 204.33,-29.76 214.76,-27.99"/>
<polygon fill="black" stroke="black" points="179.25,-34.02 183.8,-30.96 181.71,-33.6 184.18,-33.18 184.18,-33.18 184.18,-33.18 181.71,-33.6 184.55,-35.4 179.25,-34.02 179.25,-34.02"/>
</g>
<!-- Node2 -->
<g id="node4" class="node">
<title>Node2</title>
<g id="a_node4"><a xlink:href="$group__templ20.html" xlink:title=" ">
<text text-anchor="middle" x="35.5" y="-36.9" font-family="Helvetica,Arial,sans-serif" font-size="12.00">Templates</text>
</a>
</g>
</g>
<!-- Node2&#45;&gt;Node1 -->
<g id="edge1" class="edge">
<title>Node2&#45;&gt;Node1</title>
<path fill="none" stroke="black" d="M76.21,-40C86.21,-40 96.88,-40 106.65,-40"/>
<polygon fill="black" stroke="black" points="71.04,-40 76.04,-37.75 73.54,-40 76.04,-40 76.04,-40 76.04,-40 73.54,-40 76.04,-42.25 71.04,-40 71.04,-40"/>
</g>
</g>
</svg>
