<?xml version="1.0" encoding="UTF-8" standalone="no"?>
<!DOCTYPE svg PUBLIC "-//W3C//DTD SVG 1.1//EN"
 "http://www.w3.org/Graphics/SVG/1.1/DTD/svg11.dtd">
<!-- Generated by graphviz version 2.43.0 (0)
 -->
<!-- Title: C++03 examples Pages: 1 -->
<svg width="412pt" height="29pt"
 viewBox="0.00 0.00 412.00 29.00" xmlns="http://www.w3.org/2000/svg" xmlns:xlink="http://www.w3.org/1999/xlink">
<g id="graph0" class="graph" transform="scale(1 1) rotate(0) translate(4 25)">
<title>C++03 examples</title>
<!-- Node2 -->
<g id="node1" class="node">
<title>Node2</title>
<g id="a_node1"><a xlink:href="$group__CPP.html" xlink:title="from recent to oldest">
<text text-anchor="middle" x="75.5" y="-7.4" font-family="Helvetica,Arial,sans-serif" font-size="12.00">C++ examples by version</text>
</a>
</g>
</g>
<!-- Node1 -->
<g id="node2" class="node">
<title>Node1</title>
<g id="a_node2"><a xlink:title="C++03 / C++98.">
<polygon fill="#bfbfbf" stroke="transparent" points="297,-21 187,-21 187,0 297,0 297,-21"/>
<text text-anchor="start" x="195" y="-8.4" font-family="Helvetica,Arial,sans-serif" font-weight="bold" font-size="12.00">C++03 examples</text>
</a>
</g>
</g>
<!-- Node2&#45;&gt;Node1 -->
<g id="edge1" class="edge">
<title>Node2&#45;&gt;Node1</title>
<path fill="none" stroke="black" d="M156.15,-10.5C166.56,-10.5 177.03,-10.5 186.88,-10.5"/>
<polygon fill="black" stroke="black" points="151.05,-10.5 156.05,-8.25 153.55,-10.5 156.05,-10.5 156.05,-10.5 156.05,-10.5 153.55,-10.5 156.05,-12.75 151.05,-10.5 151.05,-10.5"/>
</g>
<!-- Node3 -->
<g id="node3" class="node">
<title>Node3</title>
<g id="a_node3"><a xlink:href="$group__lang03.html" xlink:title=" ">
<text text-anchor="middle" x="368.5" y="-7.4" font-family="Helvetica,Arial,sans-serif" font-size="12.00">Language</text>
</a>
</g>
</g>
<!-- Node1&#45;&gt;Node3 -->
<g id="edge2" class="edge">
<title>Node1&#45;&gt;Node3</title>
<path fill="none" stroke="black" d="M302.35,-10.5C312.78,-10.5 323.32,-10.5 332.79,-10.5"/>
<polygon fill="black" stroke="black" points="297.25,-10.5 302.25,-8.25 299.75,-10.5 302.25,-10.5 302.25,-10.5 302.25,-10.5 299.75,-10.5 302.25,-12.75 297.25,-10.5 297.25,-10.5"/>
</g>
</g>
</svg>
