<?xml version="1.0" encoding="UTF-8" standalone="no"?>
<!DOCTYPE svg PUBLIC "-//W3C//DTD SVG 1.1//EN"
 "http://www.w3.org/Graphics/SVG/1.1/DTD/svg11.dtd">
<!-- Generated by graphviz version 2.43.0 (0)
 -->
<!-- Title: synchronized_encapsulated_value Pages: 1 -->
<svg width="418pt" height="107pt"
 viewBox="0.00 0.00 418.00 107.00" xmlns="http://www.w3.org/2000/svg" xmlns:xlink="http://www.w3.org/1999/xlink">
<g id="graph0" class="graph" transform="scale(1 1) rotate(0) translate(4 103)">
<title>synchronized_encapsulated_value</title>
<!-- Node1 -->
<g id="node1" class="node">
<title>Node1</title>
<g id="a_node1"><a xlink:title=" ">
<polygon fill="#bfbfbf" stroke="transparent" points="216,-60 0,-60 0,-39 216,-39 216,-60"/>
<text text-anchor="start" x="8" y="-47.4" font-family="Helvetica,Arial,sans-serif" font-weight="bold" font-size="12.00">synchronized_encapsulated_value</text>
</a>
</g>
</g>
<!-- Node2 -->
<g id="node2" class="node">
<title>Node2</title>
<g id="a_node2"><a xlink:href="$structChange__interface.html#a71adc7f53712cb951427c71f7a3f25fe" xlink:title=" ">
<text text-anchor="middle" x="331" y="-85.4" font-family="Helvetica,Arial,sans-serif" font-size="12.00">Change_interface::change</text>
</a>
</g>
</g>
<!-- Node1&#45;&gt;Node2 -->
<g id="edge1" class="edge">
<title>Node1&#45;&gt;Node2</title>
<path fill="none" stroke="midnightblue" d="M168.51,-60C198.37,-65.27 234.57,-71.66 265.13,-77.05"/>
<polygon fill="midnightblue" stroke="midnightblue" points="270.38,-77.98 265.06,-79.33 267.92,-77.54 265.46,-77.11 265.46,-77.11 265.46,-77.11 267.92,-77.54 265.85,-74.89 270.38,-77.98 270.38,-77.98"/>
</g>
<!-- Node3 -->
<g id="node3" class="node">
<title>Node3</title>
<g id="a_node3"><a xlink:href="$structGetter__interface.html#a7f0e42eb2b4dfbd8b4d4e05e63c99bed" xlink:title=" ">
<text text-anchor="middle" x="331" y="-46.4" font-family="Helvetica,Arial,sans-serif" font-size="12.00">Getter_interface::get</text>
</a>
</g>
</g>
<!-- Node1&#45;&gt;Node3 -->
<g id="edge2" class="edge">
<title>Node1&#45;&gt;Node3</title>
<path fill="none" stroke="midnightblue" d="M216.26,-49.5C232.37,-49.5 248.57,-49.5 263.48,-49.5"/>
<polygon fill="midnightblue" stroke="midnightblue" points="268.49,-49.5 263.49,-51.75 265.99,-49.5 263.49,-49.5 263.49,-49.5 263.49,-49.5 265.99,-49.5 263.49,-47.25 268.49,-49.5 268.49,-49.5"/>
</g>
<!-- Node4 -->
<g id="node4" class="node">
<title>Node4</title>
<g id="a_node4"><a xlink:href="$structSetter__interface.html#af56ff578654b5d2fec5e3626da71673c" xlink:title=" ">
<text text-anchor="middle" x="331" y="-7.4" font-family="Helvetica,Arial,sans-serif" font-size="12.00">Setter_interface::set</text>
</a>
</g>
</g>
<!-- Node1&#45;&gt;Node4 -->
<g id="edge3" class="edge">
<title>Node1&#45;&gt;Node4</title>
<path fill="none" stroke="midnightblue" d="M168.51,-39C198.37,-33.73 234.57,-27.34 265.13,-21.95"/>
<polygon fill="midnightblue" stroke="midnightblue" points="270.38,-21.02 265.85,-24.11 267.92,-21.46 265.46,-21.89 265.46,-21.89 265.46,-21.89 267.92,-21.46 265.06,-19.67 270.38,-21.02 270.38,-21.02"/>
</g>
</g>
</svg>
