<?xml version="1.0" encoding="UTF-8" standalone="no"?>
<!DOCTYPE svg PUBLIC "-//W3C//DTD SVG 1.1//EN"
 "http://www.w3.org/Graphics/SVG/1.1/DTD/svg11.dtd">
<!-- Generated by graphviz version 2.43.0 (0)
 -->
<!-- Title: mediator_demo Pages: 1 -->
<svg width="409pt" height="82pt"
 viewBox="0.00 0.00 409.00 81.50" xmlns="http://www.w3.org/2000/svg" xmlns:xlink="http://www.w3.org/1999/xlink">
<g id="graph0" class="graph" transform="scale(1 1) rotate(0) translate(4 77.5)">
<title>mediator_demo</title>
<!-- Node1 -->
<g id="node1" class="node">
<title>Node1</title>
<g id="a_node1"><a xlink:title=" ">
<polygon fill="#bfbfbf" stroke="transparent" points="106,-44 0,-44 0,-23 106,-23 106,-44"/>
<text text-anchor="start" x="8" y="-31.4" font-family="Helvetica,Arial,sans-serif" font-weight="bold" font-size="12.00">mediator_demo</text>
</a>
</g>
</g>
<!-- Node2 -->
<g id="node2" class="node">
<title>Node2</title>
<g id="a_node2"><a xlink:href="$structMediator.html#abc7fd67c96301b2975f830550ab5713c" xlink:title=" ">
<text text-anchor="start" x="150" y="-59.9" font-family="Helvetica,Arial,sans-serif" font-size="12.00">Mediator::register</text>
<text text-anchor="middle" x="196.5" y="-46.9" font-family="Helvetica,Arial,sans-serif" font-size="12.00">_member</text>
</a>
</g>
</g>
<!-- Node1&#45;&gt;Node2 -->
<g id="edge1" class="edge">
<title>Node1&#45;&gt;Node2</title>
<path fill="none" stroke="midnightblue" d="M106.29,-42C116.08,-43.59 126.37,-45.26 136.35,-46.89"/>
<polygon fill="midnightblue" stroke="midnightblue" points="141.53,-47.73 136.24,-49.15 139.07,-47.33 136.6,-46.93 136.6,-46.93 136.6,-46.93 139.07,-47.33 136.96,-44.7 141.53,-47.73 141.53,-47.73"/>
</g>
<!-- Node3 -->
<g id="node3" class="node">
<title>Node3</title>
<g id="a_node3"><a xlink:href="$group__BP.html#ga0b04b5167d12021f4360b6a66a1b1125" xlink:title=" ">
<text text-anchor="middle" x="196.5" y="-7.4" font-family="Helvetica,Arial,sans-serif" font-size="12.00">Member::send</text>
</a>
</g>
</g>
<!-- Node1&#45;&gt;Node3 -->
<g id="edge2" class="edge">
<title>Node1&#45;&gt;Node3</title>
<path fill="none" stroke="midnightblue" d="M106.29,-25C119.08,-22.92 132.73,-20.7 145.41,-18.64"/>
<polygon fill="midnightblue" stroke="midnightblue" points="150.41,-17.83 145.83,-20.85 147.94,-18.23 145.47,-18.63 145.47,-18.63 145.47,-18.63 147.94,-18.23 145.11,-16.41 150.41,-17.83 150.41,-17.83"/>
</g>
<!-- Node4 -->
<g id="node4" class="node">
<title>Node4</title>
<g id="a_node4"><a xlink:href="$structMediator.html#aa4696f4276eb4646826fa2cd82392496" xlink:title=" ">
<text text-anchor="middle" x="344" y="-7.4" font-family="Helvetica,Arial,sans-serif" font-size="12.00">Mediator::dispatch</text>
</a>
</g>
</g>
<!-- Node3&#45;&gt;Node4 -->
<g id="edge3" class="edge">
<title>Node3&#45;&gt;Node4</title>
<path fill="none" stroke="midnightblue" d="M242.74,-10.5C255.04,-10.5 268.57,-10.5 281.6,-10.5"/>
<polygon fill="midnightblue" stroke="midnightblue" points="286.76,-10.5 281.76,-12.75 284.26,-10.5 281.76,-10.5 281.76,-10.5 281.76,-10.5 284.26,-10.5 281.76,-8.25 286.76,-10.5 286.76,-10.5"/>
</g>
</g>
</svg>
