<?xml version="1.0" encoding="UTF-8" standalone="no"?>
<!DOCTYPE svg PUBLIC "-//W3C//DTD SVG 1.1//EN"
 "http://www.w3.org/Graphics/SVG/1.1/DTD/svg11.dtd">
<!-- Generated by graphviz version 2.43.0 (0)
 -->
<!-- Title: main2 Pages: 1 -->
<svg width="129pt" height="68pt"
 viewBox="0.00 0.00 129.00 68.00" xmlns="http://www.w3.org/2000/svg" xmlns:xlink="http://www.w3.org/1999/xlink">
<g id="graph0" class="graph" transform="scale(1 1) rotate(0) translate(4 64)">
<title>main2</title>
<!-- Node1 -->
<g id="node1" class="node">
<title>Node1</title>
<g id="a_node1"><a xlink:title=" ">
<polygon fill="#bfbfbf" stroke="transparent" points="51,-40 0,-40 0,-19 51,-19 51,-40"/>
<text text-anchor="start" x="8" y="-27.4" font-family="Helvetica,Arial,sans-serif" font-weight="bold" font-size="12.00">main2</text>
</a>
</g>
</g>
<!-- Node2 -->
<g id="node2" class="node">
<title>Node2</title>
<g id="a_node2"><a xlink:href="$group__lang11.html#ga6defcb4927d317b45de974b8e102070e" xlink:title=" ">
<text text-anchor="middle" x="104" y="-46.4" font-family="Helvetica,Arial,sans-serif" font-size="12.00">bar</text>
</a>
</g>
</g>
<!-- Node1&#45;&gt;Node2 -->
<g id="edge1" class="edge">
<title>Node1&#45;&gt;Node2</title>
<path fill="none" stroke="midnightblue" d="M51.13,-35.94C61,-38.52 72.27,-41.47 81.78,-43.95"/>
<polygon fill="midnightblue" stroke="midnightblue" points="86.86,-45.28 81.45,-46.19 84.44,-44.65 82.02,-44.02 82.02,-44.02 82.02,-44.02 84.44,-44.65 82.59,-41.84 86.86,-45.28 86.86,-45.28"/>
</g>
<!-- Node3 -->
<g id="node3" class="node">
<title>Node3</title>
<g id="a_node3"><a xlink:href="$group__attr.html#ga14bcd2d544b22300bba3863251393e0f" xlink:title=" ">
<text text-anchor="middle" x="104" y="-7.4" font-family="Helvetica,Arial,sans-serif" font-size="12.00">foo</text>
</a>
</g>
</g>
<!-- Node1&#45;&gt;Node3 -->
<g id="edge2" class="edge">
<title>Node1&#45;&gt;Node3</title>
<path fill="none" stroke="midnightblue" d="M51.13,-23.38C61.15,-20.89 72.61,-18.05 82.21,-15.66"/>
<polygon fill="midnightblue" stroke="midnightblue" points="87.32,-14.39 83.01,-17.78 84.9,-15 82.47,-15.6 82.47,-15.6 82.47,-15.6 84.9,-15 81.93,-13.42 87.32,-14.39 87.32,-14.39"/>
</g>
</g>
</svg>
