<?xml version="1.0" encoding="UTF-8" standalone="no"?>
<!DOCTYPE svg PUBLIC "-//W3C//DTD SVG 1.1//EN"
 "http://www.w3.org/Graphics/SVG/1.1/DTD/svg11.dtd">
<!-- Generated by graphviz version 2.43.0 (0)
 -->
<!-- Title: language_11 Pages: 1 -->
<svg width="529pt" height="302pt"
 viewBox="0.00 0.00 529.00 302.00" xmlns="http://www.w3.org/2000/svg" xmlns:xlink="http://www.w3.org/1999/xlink">
<g id="graph0" class="graph" transform="scale(1 1) rotate(0) translate(4 298)">
<title>language_11</title>
<!-- Node1 -->
<g id="node1" class="node">
<title>Node1</title>
<g id="a_node1"><a xlink:title=" ">
<polygon fill="#bfbfbf" stroke="transparent" points="90,-118 0,-118 0,-97 90,-97 90,-118"/>
<text text-anchor="start" x="8" y="-105.4" font-family="Helvetica,Arial,sans-serif" font-weight="bold" font-size="12.00">language_11</text>
</a>
</g>
</g>
<!-- Node2 -->
<g id="node2" class="node">
<title>Node2</title>
<g id="a_node2"><a xlink:href="$group__lang11.html#ga90b35e01fc69af078797f15afe3cd85c" xlink:title=" ">
<text text-anchor="middle" x="192" y="-221.4" font-family="Helvetica,Arial,sans-serif" font-size="12.00">dynamic_memory_11</text>
</a>
</g>
</g>
<!-- Node1&#45;&gt;Node2 -->
<g id="edge1" class="edge">
<title>Node1&#45;&gt;Node2</title>
<path fill="none" stroke="midnightblue" d="M55.12,-118.07C69.27,-134.08 97.81,-164.89 126,-186.5 138.29,-195.92 153.12,-204.76 165.51,-211.54"/>
<polygon fill="midnightblue" stroke="midnightblue" points="169.96,-213.94 164.49,-213.54 167.76,-212.75 165.56,-211.56 165.56,-211.56 165.56,-211.56 167.76,-212.75 166.63,-209.58 169.96,-213.94 169.96,-213.94"/>
</g>
<!-- Node6 -->
<g id="node6" class="node">
<title>Node6</title>
<g id="a_node6"><a xlink:href="$group__lang11.html#ga36919d7669c19a0f73874e91af90d0d4" xlink:title=" ">
<text text-anchor="middle" x="192" y="-163.4" font-family="Helvetica,Arial,sans-serif" font-size="12.00">func_11</text>
</a>
</g>
</g>
<!-- Node1&#45;&gt;Node6 -->
<g id="edge5" class="edge">
<title>Node1&#45;&gt;Node6</title>
<path fill="none" stroke="midnightblue" d="M64.64,-118.02C80.58,-126.72 104.32,-138.99 126,-147.5 136.06,-151.45 147.28,-155.01 157.53,-157.96"/>
<polygon fill="midnightblue" stroke="midnightblue" points="162.47,-159.35 157.05,-160.16 160.07,-158.67 157.66,-158 157.66,-158 157.66,-158 160.07,-158.67 158.27,-155.83 162.47,-159.35 162.47,-159.35"/>
</g>
<!-- Node8 -->
<g id="node8" class="node">
<title>Node8</title>
<g id="a_node8"><a xlink:href="$group__lang11.html#gab8e1cf21cef29f6a3b8b4d3bf7ae378f" xlink:title=" ">
<text text-anchor="middle" x="192" y="-124.4" font-family="Helvetica,Arial,sans-serif" font-size="12.00">init_11</text>
</a>
</g>
</g>
<!-- Node1&#45;&gt;Node8 -->
<g id="edge7" class="edge">
<title>Node1&#45;&gt;Node8</title>
<path fill="none" stroke="midnightblue" d="M90.29,-113.61C112.87,-116.72 139.76,-120.43 160.08,-123.23"/>
<polygon fill="midnightblue" stroke="midnightblue" points="165.09,-123.93 159.83,-125.47 162.62,-123.58 160.14,-123.24 160.14,-123.24 160.14,-123.24 162.62,-123.58 160.45,-121.01 165.09,-123.93 165.09,-123.93"/>
</g>
<!-- Node10 -->
<g id="node10" class="node">
<title>Node10</title>
<g id="a_node10"><a xlink:href="$group__lang11.html#gab9898ff9bf1dd6f1cb58b481f0b4df79" xlink:title=" ">
<text text-anchor="middle" x="192" y="-85.4" font-family="Helvetica,Arial,sans-serif" font-size="12.00">references_11</text>
</a>
</g>
</g>
<!-- Node1&#45;&gt;Node10 -->
<g id="edge9" class="edge">
<title>Node1&#45;&gt;Node10</title>
<path fill="none" stroke="midnightblue" d="M90.29,-101.7C106.14,-99.62 124.12,-97.26 140.46,-95.12"/>
<polygon fill="midnightblue" stroke="midnightblue" points="145.48,-94.47 140.81,-97.35 143,-94.79 140.52,-95.11 140.52,-95.11 140.52,-95.11 143,-94.79 140.23,-92.88 145.48,-94.47 145.48,-94.47"/>
</g>
<!-- Node13 -->
<g id="node13" class="node">
<title>Node13</title>
<g id="a_node13"><a xlink:href="$group__lang11.html#gabb96757f5b32d1f595edf657b71b9e75" xlink:title=" ">
<text text-anchor="middle" x="192" y="-46.4" font-family="Helvetica,Arial,sans-serif" font-size="12.00">trailing_return_type</text>
</a>
</g>
</g>
<!-- Node1&#45;&gt;Node13 -->
<g id="edge13" class="edge">
<title>Node1&#45;&gt;Node13</title>
<path fill="none" stroke="midnightblue" d="M65.31,-96.94C81.27,-88.49 104.67,-76.75 126,-68.5 132.38,-66.03 139.22,-63.71 145.97,-61.58"/>
<polygon fill="midnightblue" stroke="midnightblue" points="151.11,-60 147,-63.62 148.72,-60.74 146.33,-61.47 146.33,-61.47 146.33,-61.47 148.72,-60.74 145.67,-59.32 151.11,-60 151.11,-60"/>
</g>
<!-- Node14 -->
<g id="node14" class="node">
<title>Node14</title>
<g id="a_node14"><a xlink:href="$group__lang11.html#ga3cb9732a3d759a659a91f013a3763158" xlink:title=" ">
<text text-anchor="middle" x="192" y="-7.4" font-family="Helvetica,Arial,sans-serif" font-size="12.00">types_11</text>
</a>
</g>
</g>
<!-- Node1&#45;&gt;Node14 -->
<g id="edge14" class="edge">
<title>Node1&#45;&gt;Node14</title>
<path fill="none" stroke="midnightblue" d="M54.11,-96.73C67.33,-79.92 95.18,-47.5 126,-29.5 134.56,-24.5 144.53,-20.73 154.05,-17.93"/>
<polygon fill="midnightblue" stroke="midnightblue" points="158.99,-16.55 154.78,-20.06 156.58,-17.22 154.17,-17.9 154.17,-17.9 154.17,-17.9 156.58,-17.22 153.56,-15.73 158.99,-16.55 158.99,-16.55"/>
</g>
<!-- Node3 -->
<g id="node3" class="node">
<title>Node3</title>
<g id="a_node3"><a xlink:href="$group__lang11.html#ga95c258fd50767b68c2ac27f647a812a0" xlink:title="shared_ptr">
<text text-anchor="middle" x="355" y="-280.4" font-family="Helvetica,Arial,sans-serif" font-size="12.00">shared_pointer</text>
</a>
</g>
</g>
<!-- Node2&#45;&gt;Node3 -->
<g id="edge2" class="edge">
<title>Node2&#45;&gt;Node3</title>
<path fill="none" stroke="midnightblue" d="M218.13,-235.02C238.46,-243.4 267.88,-255.21 294,-264.5 300.48,-266.81 307.4,-269.13 314.16,-271.32"/>
<polygon fill="midnightblue" stroke="midnightblue" points="319.28,-272.96 313.83,-273.57 316.9,-272.2 314.52,-271.43 314.52,-271.43 314.52,-271.43 316.9,-272.2 315.21,-269.29 319.28,-272.96 319.28,-272.96"/>
</g>
<!-- Node4 -->
<g id="node4" class="node">
<title>Node4</title>
<g id="a_node4"><a xlink:href="$group__lang11.html#gad910833c04a752d3997e1e0fcc6598c8" xlink:title="unique_ptr">
<text text-anchor="middle" x="355" y="-241.4" font-family="Helvetica,Arial,sans-serif" font-size="12.00">unique_pounter</text>
</a>
</g>
</g>
<!-- Node2&#45;&gt;Node4 -->
<g id="edge3" class="edge">
<title>Node2&#45;&gt;Node4</title>
<path fill="none" stroke="midnightblue" d="M258.02,-232.58C271.58,-234.26 285.75,-236.02 298.91,-237.66"/>
<polygon fill="midnightblue" stroke="midnightblue" points="304.09,-238.3 298.85,-239.92 301.61,-237.99 299.13,-237.68 299.13,-237.68 299.13,-237.68 301.61,-237.99 299.41,-235.45 304.09,-238.3 304.09,-238.3"/>
</g>
<!-- Node5 -->
<g id="node5" class="node">
<title>Node5</title>
<g id="a_node5"><a xlink:href="$group__lang11.html#gac1a6e29326944fa42f80879e157048ae" xlink:title="weak_ptr">
<text text-anchor="middle" x="355" y="-202.4" font-family="Helvetica,Arial,sans-serif" font-size="12.00">weak_pointer</text>
</a>
</g>
</g>
<!-- Node2&#45;&gt;Node5 -->
<g id="edge4" class="edge">
<title>Node2&#45;&gt;Node5</title>
<path fill="none" stroke="midnightblue" d="M258.02,-216.83C274.02,-214.94 290.86,-212.95 305.89,-211.18"/>
<polygon fill="midnightblue" stroke="midnightblue" points="310.92,-210.58 306.22,-213.4 308.44,-210.88 305.95,-211.17 305.95,-211.17 305.95,-211.17 308.44,-210.88 305.69,-208.94 310.92,-210.58 310.92,-210.58"/>
</g>
<!-- Node7 -->
<g id="node7" class="node">
<title>Node7</title>
<g id="a_node7"><a xlink:href="$group__lang11.html#ga9c6fa22c842285400a04fcd5633a37c2" xlink:title="copy_elision">
<text text-anchor="middle" x="355" y="-163.4" font-family="Helvetica,Arial,sans-serif" font-size="12.00">copy_elision_demo</text>
</a>
</g>
</g>
<!-- Node6&#45;&gt;Node7 -->
<g id="edge6" class="edge">
<title>Node6&#45;&gt;Node7</title>
<path fill="none" stroke="midnightblue" d="M221.78,-166.5C240.54,-166.5 265.78,-166.5 289.18,-166.5"/>
<polygon fill="midnightblue" stroke="midnightblue" points="294.46,-166.5 289.46,-168.75 291.96,-166.5 289.46,-166.5 289.46,-166.5 289.46,-166.5 291.96,-166.5 289.46,-164.25 294.46,-166.5 294.46,-166.5"/>
</g>
<!-- Node9 -->
<g id="node9" class="node">
<title>Node9</title>
<g id="a_node9"><a xlink:href="$group__test20.html#ga4b60c31eceb860aee728d068d0439d4f" xlink:title=" ">
<text text-anchor="middle" x="355" y="-124.4" font-family="Helvetica,Arial,sans-serif" font-size="12.00">q</text>
</a>
</g>
</g>
<!-- Node8&#45;&gt;Node9 -->
<g id="edge8" class="edge">
<title>Node8&#45;&gt;Node9</title>
<path fill="none" stroke="midnightblue" d="M218.51,-127.5C251.06,-127.5 306.6,-127.5 335.42,-127.5"/>
<polygon fill="midnightblue" stroke="midnightblue" points="340.48,-127.5 335.48,-129.75 337.98,-127.5 335.48,-127.5 335.48,-127.5 335.48,-127.5 337.98,-127.5 335.48,-125.25 340.48,-127.5 340.48,-127.5"/>
</g>
<!-- Node11 -->
<g id="node11" class="node">
<title>Node11</title>
<g id="a_node11"><a xlink:href="$group__lang11.html#ga9592a69bceb833f1011e70b1fee4ef14" xlink:title=" ">
<text text-anchor="middle" x="486.5" y="-65.4" font-family="Helvetica,Arial,sans-serif" font-size="12.00">func_type</text>
</a>
</g>
</g>
<!-- Node10&#45;&gt;Node11 -->
<g id="edge10" class="edge">
<title>Node10&#45;&gt;Node11</title>
<path fill="none" stroke="midnightblue" d="M238.7,-85.38C295.98,-81.46 393.15,-74.81 446.88,-71.14"/>
<polygon fill="midnightblue" stroke="midnightblue" points="451.95,-70.79 447.11,-73.38 449.45,-70.96 446.96,-71.14 446.96,-71.14 446.96,-71.14 449.45,-70.96 446.8,-68.89 451.95,-70.79 451.95,-70.79"/>
</g>
<!-- Node12 -->
<g id="node12" class="node">
<title>Node12</title>
<g id="a_node12"><a xlink:href="$group__lang11.html#gaf2ee1e4cdb9cc5f58628700ccf7a8fd8" xlink:title="Forwarding reference">
<text text-anchor="middle" x="355" y="-46.4" font-family="Helvetica,Arial,sans-serif" font-size="12.00">func_type_template</text>
</a>
</g>
</g>
<!-- Node10&#45;&gt;Node12 -->
<g id="edge11" class="edge">
<title>Node10&#45;&gt;Node12</title>
<path fill="none" stroke="midnightblue" d="M236.57,-77.95C257.87,-72.79 283.57,-66.56 305.49,-61.25"/>
<polygon fill="midnightblue" stroke="midnightblue" points="310.4,-60.06 306.07,-63.43 307.97,-60.65 305.54,-61.24 305.54,-61.24 305.54,-61.24 307.97,-60.65 305.01,-59.05 310.4,-60.06 310.4,-60.06"/>
</g>
<!-- Node12&#45;&gt;Node11 -->
<g id="edge12" class="edge">
<title>Node12&#45;&gt;Node11</title>
<path fill="none" stroke="midnightblue" d="M416.2,-58.33C426.66,-59.87 437.28,-61.43 446.96,-62.85"/>
<polygon fill="midnightblue" stroke="midnightblue" points="451.93,-63.58 446.66,-65.08 449.46,-63.21 446.99,-62.85 446.99,-62.85 446.99,-62.85 449.46,-63.21 447.31,-60.62 451.93,-63.58 451.93,-63.58"/>
</g>
</g>
</svg>
