<?xml version="1.0" encoding="UTF-8" standalone="no"?>
<!DOCTYPE svg PUBLIC "-//W3C//DTD SVG 1.1//EN"
 "http://www.w3.org/Graphics/SVG/1.1/DTD/svg11.dtd">
<!-- Generated by graphviz version 2.43.0 (0)
 -->
<!-- Title: synchronised_encapsulated_value Pages: 1 -->
<svg width="425pt" height="44pt"
 viewBox="0.00 0.00 425.00 44.00" xmlns="http://www.w3.org/2000/svg" xmlns:xlink="http://www.w3.org/1999/xlink">
<g id="graph0" class="graph" transform="scale(1 1) rotate(0) translate(4 40)">
<title>synchronised_encapsulated_value</title>
<!-- Node1 -->
<g id="node1" class="node">
<title>Node1</title>
<g id="a_node1"><a xlink:title=" ">
<text text-anchor="start" x="208" y="-15.9" font-family="Helvetica,Arial,sans-serif" font-weight="bold" font-size="12.00">synchronised_encapsulated_value</text>
</a>
</g>
</g>
<!-- Node2 -->
<g id="node2" class="node">
<title>Node2</title>
<g id="a_node2"><a xlink:href="group__OOP.html#gac98f62660ece957e8cbc4d3ff6ec0cdf" target="_top" xlink:title=" ">
<text text-anchor="middle" x="127" y="-14.9" font-family="Helvetica,Arial,sans-serif" font-size="12.00">oop_demo</text>
</a>
</g>
</g>
<!-- Node1&#45;&gt;Node2 -->
<g id="edge1" class="edge">
<title>Node1&#45;&gt;Node2</title>
<path fill="none" stroke="midnightblue" d="M194.89,-18C183.88,-18 173.37,-18 164.07,-18"/>
<polygon fill="midnightblue" stroke="midnightblue" points="199.98,-18 194.98,-20.25 197.48,-18 194.98,-18 194.98,-18 194.98,-18 197.48,-18 194.98,-15.75 199.98,-18 199.98,-18"/>
</g>
<!-- Node3 -->
<g id="node3" class="node">
<title>Node3</title>
<g id="a_node3"><a xlink:href="group__DP.html#gae66f6b31b5ad750f1fe042a706a4e3d4" target="_top" xlink:title=" ">
<text text-anchor="middle" x="27" y="-14.9" font-family="Helvetica,Arial,sans-serif" font-size="12.00">main</text>
</a>
</g>
</g>
<!-- Node2&#45;&gt;Node3 -->
<g id="edge2" class="edge">
<title>Node2&#45;&gt;Node3</title>
<path fill="none" stroke="midnightblue" d="M84.76,-18C74.44,-18 63.64,-18 54.27,-18"/>
<polygon fill="midnightblue" stroke="midnightblue" points="89.79,-18 84.79,-20.25 87.29,-18 84.79,-18 84.79,-18 84.79,-18 87.29,-18 84.79,-15.75 89.79,-18 89.79,-18"/>
</g>
</g>
</svg>
