<?xml version="1.0" encoding="UTF-8" standalone="no"?>
<!DOCTYPE svg PUBLIC "-//W3C//DTD SVG 1.1//EN"
 "http://www.w3.org/Graphics/SVG/1.1/DTD/svg11.dtd">
<!-- Generated by graphviz version 2.43.0 (0)
 -->
<!-- Title: Lambda Pages: 1 -->
<svg width="375pt" height="82pt"
 viewBox="0.00 0.00 375.00 81.50" xmlns="http://www.w3.org/2000/svg" xmlns:xlink="http://www.w3.org/1999/xlink">
<g id="graph0" class="graph" transform="scale(1 1) rotate(0) translate(4 77.5)">
<title>Lambda</title>
<!-- Node2 -->
<g id="node1" class="node">
<title>Node2</title>
<g id="a_node1"><a xlink:href="$group__CPP17.html" xlink:title=" ">
<text text-anchor="middle" x="53.5" y="-36.9" font-family="Helvetica,Arial,sans-serif" font-size="12.00">C++17 examples</text>
</a>
</g>
</g>
<!-- Node1 -->
<g id="node3" class="node">
<title>Node1</title>
<g id="a_node3"><a xlink:title=" ">
<polygon fill="#bfbfbf" stroke="transparent" points="206,-50.5 143,-50.5 143,-29.5 206,-29.5 206,-50.5"/>
<text text-anchor="start" x="151" y="-37.9" font-family="Helvetica,Arial,sans-serif" font-weight="bold" font-size="12.00">Lambda</text>
</a>
</g>
</g>
<!-- Node2&#45;&gt;Node1 -->
<g id="edge1" class="edge">
<title>Node2&#45;&gt;Node1</title>
<path fill="none" stroke="black" d="M112.21,-40C122.76,-40 133.38,-40 142.75,-40"/>
<polygon fill="black" stroke="black" points="107.04,-40 112.04,-37.75 109.54,-40 112.04,-40 112.04,-40 112.04,-40 109.54,-40 112.04,-42.25 107.04,-40 107.04,-40"/>
</g>
<!-- Node3 -->
<g id="node2" class="node">
<title>Node3</title>
<g id="a_node2"><a xlink:href="$group__constexpr__lambda.html" xlink:title=" ">
<text text-anchor="middle" x="304.5" y="-59.9" font-family="Helvetica,Arial,sans-serif" font-size="12.00">Constexpr lambda</text>
</a>
</g>
</g>
<!-- Node1&#45;&gt;Node3 -->
<g id="edge2" class="edge">
<title>Node1&#45;&gt;Node3</title>
<path fill="none" stroke="black" d="M211.26,-46.43C222.59,-48.46 235.41,-50.77 247.8,-52.99"/>
<polygon fill="black" stroke="black" points="206.16,-45.51 211.48,-44.18 208.62,-45.95 211.08,-46.39 211.08,-46.39 211.08,-46.39 208.62,-45.95 210.68,-48.61 206.16,-45.51 206.16,-45.51"/>
</g>
<!-- Node4 -->
<g id="node4" class="node">
<title>Node4</title>
<g id="a_node4"><a xlink:href="$group__lcbv.html" xlink:title=" ">
<text text-anchor="start" x="250" y="-20.4" font-family="Helvetica,Arial,sans-serif" font-size="12.00">Lambda capture this</text>
<text text-anchor="middle" x="304.5" y="-7.4" font-family="Helvetica,Arial,sans-serif" font-size="12.00"> by value</text>
</a>
</g>
</g>
<!-- Node1&#45;&gt;Node4 -->
<g id="edge3" class="edge">
<title>Node1&#45;&gt;Node4</title>
<path fill="none" stroke="black" d="M211.34,-33.56C220.88,-31.85 231.45,-29.95 241.94,-28.06"/>
<polygon fill="black" stroke="black" points="206.16,-34.49 210.68,-31.39 208.62,-34.05 211.08,-33.61 211.08,-33.61 211.08,-33.61 208.62,-34.05 211.48,-35.82 206.16,-34.49 206.16,-34.49"/>
</g>
</g>
</svg>
