<?xml version="1.0" encoding="UTF-8" standalone="no"?>
<!DOCTYPE svg PUBLIC "-//W3C//DTD SVG 1.1//EN"
 "http://www.w3.org/Graphics/SVG/1.1/DTD/svg11.dtd">
<!-- Generated by graphviz version 2.43.0 (0)
 -->
<!-- Title: creational_patterns_demo Pages: 1 -->
<svg width="320pt" height="146pt"
 viewBox="0.00 0.00 320.00 146.00" xmlns="http://www.w3.org/2000/svg" xmlns:xlink="http://www.w3.org/1999/xlink">
<g id="graph0" class="graph" transform="scale(1 1) rotate(0) translate(4 142)">
<title>creational_patterns_demo</title>
<!-- Node1 -->
<g id="node1" class="node">
<title>Node1</title>
<g id="a_node1"><a xlink:title=" ">
<polygon fill="#bfbfbf" stroke="transparent" points="167,-79 0,-79 0,-58 167,-58 167,-79"/>
<text text-anchor="start" x="8" y="-66.4" font-family="Helvetica,Arial,sans-serif" font-weight="bold" font-size="12.00">creational_patterns_demo</text>
</a>
</g>
</g>
<!-- Node2 -->
<g id="node2" class="node">
<title>Node2</title>
<g id="a_node2"><a xlink:href="$structBuilder.html#a0490ca9df304a27fa0bd61e25f71a3f1" xlink:title=" ">
<text text-anchor="middle" x="257.5" y="-124.4" font-family="Helvetica,Arial,sans-serif" font-size="12.00">Builder::add</text>
</a>
</g>
</g>
<!-- Node1&#45;&gt;Node2 -->
<g id="edge1" class="edge">
<title>Node1&#45;&gt;Node2</title>
<path fill="none" stroke="midnightblue" d="M115.25,-79.05C144.88,-89.21 189.67,-104.58 220.84,-115.27"/>
<polygon fill="midnightblue" stroke="midnightblue" points="225.73,-116.94 220.27,-117.45 223.36,-116.13 221,-115.32 221,-115.32 221,-115.32 223.36,-116.13 221.73,-113.19 225.73,-116.94 225.73,-116.94"/>
</g>
<!-- Node3 -->
<g id="node3" class="node">
<title>Node3</title>
<g id="a_node3"><a xlink:href="$structPrototype.html#ac457723ab2c827423afd9215811b5b03" xlink:title=" ">
<text text-anchor="middle" x="257.5" y="-85.4" font-family="Helvetica,Arial,sans-serif" font-size="12.00">Prototype::create</text>
</a>
</g>
</g>
<!-- Node1&#45;&gt;Node3 -->
<g id="edge2" class="edge">
<title>Node1&#45;&gt;Node3</title>
<path fill="none" stroke="midnightblue" d="M167.23,-78.12C177.78,-79.35 188.4,-80.58 198.45,-81.75"/>
<polygon fill="midnightblue" stroke="midnightblue" points="203.64,-82.35 198.42,-84.01 201.16,-82.07 198.68,-81.78 198.68,-81.78 198.68,-81.78 201.16,-82.07 198.94,-79.54 203.64,-82.35 203.64,-82.35"/>
</g>
<!-- Node4 -->
<g id="node4" class="node">
<title>Node4</title>
<g id="a_node4"><a xlink:href="$structInterface.html#a73306300ba88073a31d86d9e282ff5ca" xlink:title=" ">
<text text-anchor="middle" x="257.5" y="-46.4" font-family="Helvetica,Arial,sans-serif" font-size="12.00">Interface::method</text>
</a>
</g>
</g>
<!-- Node1&#45;&gt;Node4 -->
<g id="edge3" class="edge">
<title>Node1&#45;&gt;Node4</title>
<path fill="none" stroke="midnightblue" d="M167.23,-59.36C177.49,-58.23 187.81,-57.09 197.61,-56.01"/>
<polygon fill="midnightblue" stroke="midnightblue" points="202.68,-55.45 197.96,-58.23 200.2,-55.72 197.71,-55.99 197.71,-55.99 197.71,-55.99 200.2,-55.72 197.46,-53.76 202.68,-55.45 202.68,-55.45"/>
</g>
<!-- Node5 -->
<g id="node5" class="node">
<title>Node5</title>
<g id="a_node5"><a xlink:href="$group__CP.html#ga99f9c29c513d027b13580a5e30506fc8" xlink:title=" ">
<text text-anchor="middle" x="257.5" y="-7.4" font-family="Helvetica,Arial,sans-serif" font-size="12.00">sss</text>
</a>
</g>
</g>
<!-- Node1&#45;&gt;Node5 -->
<g id="edge4" class="edge">
<title>Node1&#45;&gt;Node5</title>
<path fill="none" stroke="midnightblue" d="M115.65,-58C150.06,-46.39 204.57,-28.01 234.7,-17.85"/>
<polygon fill="midnightblue" stroke="midnightblue" points="239.67,-16.18 235.65,-19.9 237.3,-16.97 234.93,-17.77 234.93,-17.77 234.93,-17.77 237.3,-16.97 234.21,-15.64 239.67,-16.18 239.67,-16.18"/>
</g>
</g>
</svg>
