<?xml version="1.0" encoding="UTF-8" standalone="no"?>
<!DOCTYPE svg PUBLIC "-//W3C//DTD SVG 1.1//EN"
 "http://www.w3.org/Graphics/SVG/1.1/DTD/svg11.dtd">
<!-- Generated by graphviz version 2.43.0 (0)
 -->
<!-- Title: sort_03 Pages: 1 -->
<svg width="243pt" height="29pt"
 viewBox="0.00 0.00 243.00 29.00" xmlns="http://www.w3.org/2000/svg" xmlns:xlink="http://www.w3.org/1999/xlink">
<g id="graph0" class="graph" transform="scale(1 1) rotate(0) translate(4 25)">
<title>sort_03</title>
<!-- Node1 -->
<g id="node1" class="node">
<title>Node1</title>
<g id="a_node1"><a xlink:title=" ">
<polygon fill="#bfbfbf" stroke="transparent" points="235,-21 175,-21 175,0 235,0 235,-21"/>
<text text-anchor="start" x="183" y="-8.4" font-family="Helvetica,Arial,sans-serif" font-weight="bold" font-size="12.00">sort_03</text>
</a>
</g>
</g>
<!-- Node2 -->
<g id="node2" class="node">
<title>Node2</title>
<g id="a_node2"><a xlink:href="$group__lang03.html#ga1e0f4bce79948999d38ed78a86d51522" xlink:title="algorithm">
<text text-anchor="middle" x="109" y="-7.4" font-family="Helvetica,Arial,sans-serif" font-size="12.00">algo_03</text>
</a>
</g>
</g>
<!-- Node1&#45;&gt;Node2 -->
<g id="edge1" class="edge">
<title>Node1&#45;&gt;Node2</title>
<path fill="none" stroke="midnightblue" d="M169.64,-10.5C159.65,-10.5 148.85,-10.5 139.21,-10.5"/>
<polygon fill="midnightblue" stroke="midnightblue" points="174.77,-10.5 169.77,-12.75 172.27,-10.5 169.77,-10.5 169.77,-10.5 169.77,-10.5 172.27,-10.5 169.77,-8.25 174.77,-10.5 174.77,-10.5"/>
</g>
<!-- Node3 -->
<g id="node3" class="node">
<title>Node3</title>
<g id="a_node3"><a xlink:href="$group__CPP03.html#ga840291bc02cba5474a4cb46a9b9566fe" xlink:title=" ">
<text text-anchor="middle" x="21.5" y="-7.4" font-family="Helvetica,Arial,sans-serif" font-size="12.00">main</text>
</a>
</g>
</g>
<!-- Node2&#45;&gt;Node3 -->
<g id="edge2" class="edge">
<title>Node2&#45;&gt;Node3</title>
<path fill="none" stroke="midnightblue" d="M73.57,-10.5C63.23,-10.5 52.22,-10.5 43.08,-10.5"/>
<polygon fill="midnightblue" stroke="midnightblue" points="78.58,-10.5 73.58,-12.75 76.08,-10.5 73.58,-10.5 73.58,-10.5 73.58,-10.5 76.08,-10.5 73.58,-8.25 78.58,-10.5 78.58,-10.5"/>
</g>
</g>
</svg>
