<?xml version="1.0" encoding="UTF-8" standalone="no"?>
<!DOCTYPE svg PUBLIC "-//W3C//DTD SVG 1.1//EN"
 "http://www.w3.org/Graphics/SVG/1.1/DTD/svg11.dtd">
<!-- Generated by graphviz version 2.43.0 (0)
 -->
<!-- Title: container_03 Pages: 1 -->
<svg width="294pt" height="146pt"
 viewBox="0.00 0.00 294.00 146.00" xmlns="http://www.w3.org/2000/svg" xmlns:xlink="http://www.w3.org/1999/xlink">
<g id="graph0" class="graph" transform="scale(1 1) rotate(0) translate(4 142)">
<title>container_03</title>
<!-- Node1 -->
<g id="node1" class="node">
<title>Node1</title>
<g id="a_node1"><a xlink:title="container">
<polygon fill="#bfbfbf" stroke="transparent" points="91,-79 0,-79 0,-58 91,-58 91,-79"/>
<text text-anchor="start" x="8" y="-66.4" font-family="Helvetica,Arial,sans-serif" font-weight="bold" font-size="12.00">container_03</text>
</a>
</g>
</g>
<!-- Node2 -->
<g id="node2" class="node">
<title>Node2</title>
<g id="a_node2"><a xlink:href="$group__lang03.html#gae73b2e50993103adde4a55c65f358396" xlink:title=" ">
<text text-anchor="middle" x="206.5" y="-124.4" font-family="Helvetica,Arial,sans-serif" font-size="12.00">associative_containers_03</text>
</a>
</g>
</g>
<!-- Node1&#45;&gt;Node2 -->
<g id="edge1" class="edge">
<title>Node1&#45;&gt;Node2</title>
<path fill="none" stroke="midnightblue" d="M64.84,-79.1C80.83,-87.97 104.86,-100.43 127,-108.5 134.31,-111.16 142.14,-113.56 149.92,-115.69"/>
<polygon fill="midnightblue" stroke="midnightblue" points="154.75,-116.98 149.34,-117.87 152.34,-116.34 149.92,-115.69 149.92,-115.69 149.92,-115.69 152.34,-116.34 150.5,-113.52 154.75,-116.98 154.75,-116.98"/>
</g>
<!-- Node3 -->
<g id="node3" class="node">
<title>Node3</title>
<g id="a_node3"><a xlink:href="$group__test20.html#ga4b60c31eceb860aee728d068d0439d4f" xlink:title=" ">
<text text-anchor="middle" x="206.5" y="-85.4" font-family="Helvetica,Arial,sans-serif" font-size="12.00">q</text>
</a>
</g>
</g>
<!-- Node1&#45;&gt;Node3 -->
<g id="edge2" class="edge">
<title>Node1&#45;&gt;Node3</title>
<path fill="none" stroke="midnightblue" d="M91.21,-74.12C122.81,-78.1 163.54,-83.22 186.86,-86.16"/>
<polygon fill="midnightblue" stroke="midnightblue" points="191.85,-86.78 186.6,-88.39 189.37,-86.47 186.89,-86.16 186.89,-86.16 186.89,-86.16 189.37,-86.47 187.17,-83.93 191.85,-86.78 191.85,-86.78"/>
</g>
<!-- Node4 -->
<g id="node4" class="node">
<title>Node4</title>
<g id="a_node4"><a xlink:href="$group__lang03.html#ga82fa6c134edb8fee184e1ab554edbd44" xlink:title=" ">
<text text-anchor="middle" x="206.5" y="-46.4" font-family="Helvetica,Arial,sans-serif" font-size="12.00">test_generic_container</text>
</a>
</g>
</g>
<!-- Node1&#45;&gt;Node4 -->
<g id="edge3" class="edge">
<title>Node1&#45;&gt;Node4</title>
<path fill="none" stroke="midnightblue" d="M91.21,-63.16C103.98,-61.63 118.23,-59.93 132.22,-58.26"/>
<polygon fill="midnightblue" stroke="midnightblue" points="137.36,-57.64 132.66,-60.47 134.88,-57.94 132.4,-58.24 132.4,-58.24 132.4,-58.24 134.88,-57.94 132.13,-56 137.36,-57.64 137.36,-57.64"/>
</g>
<!-- Node5 -->
<g id="node5" class="node">
<title>Node5</title>
<g id="a_node5"><a xlink:href="$group__lang03.html#ga44970e48eb3cf351a9199d4c43b4ab52" xlink:title=" ">
<text text-anchor="middle" x="206.5" y="-7.4" font-family="Helvetica,Arial,sans-serif" font-size="12.00">test_vector_container</text>
</a>
</g>
</g>
<!-- Node1&#45;&gt;Node5 -->
<g id="edge4" class="edge">
<title>Node1&#45;&gt;Node5</title>
<path fill="none" stroke="midnightblue" d="M66.23,-57.88C82.25,-49.58 105.62,-38.19 127,-30.5 135.37,-27.49 144.41,-24.74 153.26,-22.32"/>
<polygon fill="midnightblue" stroke="midnightblue" points="158.15,-21 153.91,-24.47 155.74,-21.65 153.32,-22.3 153.32,-22.3 153.32,-22.3 155.74,-21.65 152.74,-20.13 158.15,-21 158.15,-21"/>
</g>
</g>
</svg>
