<?xml version="1.0" encoding="UTF-8" standalone="no"?>
<!DOCTYPE svg PUBLIC "-//W3C//DTD SVG 1.1//EN"
 "http://www.w3.org/Graphics/SVG/1.1/DTD/svg11.dtd">
<!-- Generated by graphviz version 2.43.0 (0)
 -->
<!-- Title: main Pages: 1 -->
<svg width="438pt" height="185pt"
 viewBox="0.00 0.00 438.00 185.00" xmlns="http://www.w3.org/2000/svg" xmlns:xlink="http://www.w3.org/1999/xlink">
<g id="graph0" class="graph" transform="scale(1 1) rotate(0) translate(4 181)">
<title>main</title>
<!-- Node1 -->
<g id="node1" class="node">
<title>Node1</title>
<g id="a_node1"><a xlink:title=" ">
<polygon fill="#bfbfbf" stroke="transparent" points="44,-99 0,-99 0,-78 44,-78 44,-99"/>
<text text-anchor="start" x="8" y="-86.4" font-family="Helvetica,Arial,sans-serif" font-weight="bold" font-size="12.00">main</text>
</a>
</g>
</g>
<!-- Node2 -->
<g id="node2" class="node">
<title>Node2</title>
<g id="a_node2"><a xlink:href="$group__other14.html#ga0d265fbf974505991bc348b57d90b902" xlink:title=" ">
<text text-anchor="middle" x="166.5" y="-163.4" font-family="Helvetica,Arial,sans-serif" font-size="12.00">demo</text>
</a>
</g>
</g>
<!-- Node1&#45;&gt;Node2 -->
<g id="edge1" class="edge">
<title>Node1&#45;&gt;Node2</title>
<path fill="none" stroke="midnightblue" d="M30.14,-99.05C39.82,-112.48 58.38,-135.39 80,-147.5 97.67,-157.4 120.11,-162.14 137.56,-164.41"/>
<polygon fill="midnightblue" stroke="midnightblue" points="142.8,-165.04 137.57,-166.68 140.32,-164.74 137.84,-164.45 137.84,-164.45 137.84,-164.45 140.32,-164.74 138.11,-162.21 142.8,-165.04 142.8,-165.04"/>
</g>
<!-- Node3 -->
<g id="node3" class="node">
<title>Node3</title>
<g id="a_node3"><a xlink:href="$group__lambda14.html#ga04c4d6278baa1eacb65a29ede090bf4f" xlink:title=" ">
<text text-anchor="middle" x="166.5" y="-124.4" font-family="Helvetica,Arial,sans-serif" font-size="12.00">lambda_14</text>
</a>
</g>
</g>
<!-- Node1&#45;&gt;Node3 -->
<g id="edge2" class="edge">
<title>Node1&#45;&gt;Node3</title>
<path fill="none" stroke="midnightblue" d="M44.19,-96.61C54.84,-100.51 68,-105.07 80,-108.5 93.8,-112.44 109.05,-116.06 122.81,-119.06"/>
<polygon fill="midnightblue" stroke="midnightblue" points="127.8,-120.13 122.44,-121.28 125.36,-119.61 122.91,-119.08 122.91,-119.08 122.91,-119.08 125.36,-119.61 123.39,-116.88 127.8,-120.13 127.8,-120.13"/>
</g>
<!-- Node4 -->
<g id="node4" class="node">
<title>Node4</title>
<g id="a_node4"><a xlink:href="$group__ded14.html#gadab80778f14ac2a08f4c5acb72f2412c" xlink:title=" ">
<text text-anchor="middle" x="166.5" y="-85.4" font-family="Helvetica,Arial,sans-serif" font-size="12.00">return_type_deduction_demo</text>
</a>
</g>
</g>
<!-- Node1&#45;&gt;Node4 -->
<g id="edge3" class="edge">
<title>Node1&#45;&gt;Node4</title>
<path fill="none" stroke="midnightblue" d="M44.03,-88.5C52.62,-88.5 63.2,-88.5 74.49,-88.5"/>
<polygon fill="midnightblue" stroke="midnightblue" points="79.73,-88.5 74.73,-90.75 77.23,-88.5 74.73,-88.5 74.73,-88.5 74.73,-88.5 77.23,-88.5 74.73,-86.25 79.73,-88.5 79.73,-88.5"/>
</g>
<!-- Node7 -->
<g id="node7" class="node">
<title>Node7</title>
<g id="a_node7"><a xlink:href="$group__lambda14.html#ga4852036968c1c2ba7170f88a2939e821" xlink:title="Compare with lambda::sort_11.">
<text text-anchor="middle" x="166.5" y="-46.4" font-family="Helvetica,Arial,sans-serif" font-size="12.00">sort_14</text>
</a>
</g>
</g>
<!-- Node1&#45;&gt;Node7 -->
<g id="edge6" class="edge">
<title>Node1&#45;&gt;Node7</title>
<path fill="none" stroke="midnightblue" d="M44.24,-80.9C54.9,-77.22 68.06,-72.88 80,-69.5 97.26,-64.61 116.73,-59.99 132.72,-56.43"/>
<polygon fill="midnightblue" stroke="midnightblue" points="138,-55.26 133.6,-58.54 135.56,-55.8 133.11,-56.34 133.11,-56.34 133.11,-56.34 135.56,-55.8 132.63,-54.14 138,-55.26 138,-55.26"/>
</g>
<!-- Node8 -->
<g id="node8" class="node">
<title>Node8</title>
<g id="a_node8"><a xlink:href="$group__other14.html#gac02a1801a1d9a8ec9f3d1d81a8bd4fac" xlink:title=" ">
<text text-anchor="middle" x="166.5" y="-7.4" font-family="Helvetica,Arial,sans-serif" font-size="12.00">types_14</text>
</a>
</g>
</g>
<!-- Node1&#45;&gt;Node8 -->
<g id="edge7" class="edge">
<title>Node1&#45;&gt;Node8</title>
<path fill="none" stroke="midnightblue" d="M30.55,-77.71C40.38,-64.49 58.83,-42.4 80,-30.5 94.69,-22.25 112.63,-17.39 128.27,-14.54"/>
<polygon fill="midnightblue" stroke="midnightblue" points="133.48,-13.65 128.93,-16.71 131.02,-14.07 128.55,-14.49 128.55,-14.49 128.55,-14.49 131.02,-14.07 128.17,-12.27 133.48,-13.65 133.48,-13.65"/>
</g>
<!-- Node5 -->
<g id="node5" class="node">
<title>Node5</title>
<g id="a_node5"><a xlink:href="$group__ded14.html#ga128fc82d5af06d52f686f2a3321db66f" xlink:title=" ">
<text text-anchor="middle" x="359.5" y="-104.4" font-family="Helvetica,Arial,sans-serif" font-size="12.00">deduced_return_type</text>
</a>
</g>
</g>
<!-- Node4&#45;&gt;Node5 -->
<g id="edge4" class="edge">
<title>Node4&#45;&gt;Node5</title>
<path fill="none" stroke="midnightblue" d="M253.22,-97.03C265.09,-98.21 277.16,-99.41 288.69,-100.56"/>
<polygon fill="midnightblue" stroke="midnightblue" points="293.95,-101.08 288.75,-102.82 291.46,-100.83 288.98,-100.58 288.98,-100.58 288.98,-100.58 291.46,-100.83 289.2,-98.34 293.95,-101.08 293.95,-101.08"/>
</g>
<!-- Node6 -->
<g id="node6" class="node">
<title>Node6</title>
<g id="a_node6"><a xlink:href="$group__ded14.html#ga67b4fbaf10174d06711192e9a44942ba" xlink:title=" ">
<text text-anchor="middle" x="359.5" y="-65.4" font-family="Helvetica,Arial,sans-serif" font-size="12.00">implicit_int_return_type</text>
</a>
</g>
</g>
<!-- Node4&#45;&gt;Node6 -->
<g id="edge5" class="edge">
<title>Node4&#45;&gt;Node6</title>
<path fill="none" stroke="midnightblue" d="M253.22,-79.52C263.36,-78.46 273.64,-77.39 283.61,-76.34"/>
<polygon fill="midnightblue" stroke="midnightblue" points="288.79,-75.8 284.05,-78.56 286.3,-76.06 283.82,-76.32 283.82,-76.32 283.82,-76.32 286.3,-76.06 283.58,-74.08 288.79,-75.8 288.79,-75.8"/>
</g>
<!-- Node9 -->
<g id="node9" class="node">
<title>Node9</title>
<g id="a_node9"><a xlink:href="$group__lang03.html#ga5831d31381cbf4ac7a42c4cc3d54904c" xlink:title="reference">
<text text-anchor="middle" x="359.5" y="-7.4" font-family="Helvetica,Arial,sans-serif" font-size="12.00">a_ref</text>
</a>
</g>
</g>
<!-- Node8&#45;&gt;Node9 -->
<g id="edge8" class="edge">
<title>Node8&#45;&gt;Node9</title>
<path fill="none" stroke="midnightblue" d="M199.9,-10.5C237.18,-10.5 297.68,-10.5 332.18,-10.5"/>
<polygon fill="midnightblue" stroke="midnightblue" points="337.49,-10.5 332.49,-12.75 334.99,-10.5 332.49,-10.5 332.49,-10.5 332.49,-10.5 334.99,-10.5 332.49,-8.25 337.49,-10.5 337.49,-10.5"/>
</g>
</g>
</svg>
