<?xml version="1.0" encoding="UTF-8" standalone="no"?>
<!DOCTYPE svg PUBLIC "-//W3C//DTD SVG 1.1//EN"
 "http://www.w3.org/Graphics/SVG/1.1/DTD/svg11.dtd">
<!-- Generated by graphviz version 2.43.0 (0)
 -->
<!-- Title: dynamic_memory_11 Pages: 1 -->
<svg width="285pt" height="107pt"
 viewBox="0.00 0.00 285.00 107.00" xmlns="http://www.w3.org/2000/svg" xmlns:xlink="http://www.w3.org/1999/xlink">
<g id="graph0" class="graph" transform="scale(1 1) rotate(0) translate(4 103)">
<title>dynamic_memory_11</title>
<!-- Node1 -->
<g id="node1" class="node">
<title>Node1</title>
<g id="a_node1"><a xlink:title=" ">
<polygon fill="#bfbfbf" stroke="transparent" points="140,-60 0,-60 0,-39 140,-39 140,-60"/>
<text text-anchor="start" x="8" y="-47.4" font-family="Helvetica,Arial,sans-serif" font-weight="bold" font-size="12.00">dynamic_memory_11</text>
</a>
</g>
</g>
<!-- Node2 -->
<g id="node2" class="node">
<title>Node2</title>
<g id="a_node2"><a xlink:href="$group__lang11.html#ga95c258fd50767b68c2ac27f647a812a0" xlink:title="shared_ptr">
<text text-anchor="middle" x="226.5" y="-85.4" font-family="Helvetica,Arial,sans-serif" font-size="12.00">shared_pointer</text>
</a>
</g>
</g>
<!-- Node1&#45;&gt;Node2 -->
<g id="edge1" class="edge">
<title>Node1&#45;&gt;Node2</title>
<path fill="none" stroke="midnightblue" d="M112.81,-60.05C133.16,-65.19 157.71,-71.39 178.68,-76.68"/>
<polygon fill="midnightblue" stroke="midnightblue" points="183.66,-77.94 178.26,-78.9 181.23,-77.33 178.81,-76.71 178.81,-76.71 178.81,-76.71 181.23,-77.33 179.36,-74.53 183.66,-77.94 183.66,-77.94"/>
</g>
<!-- Node3 -->
<g id="node3" class="node">
<title>Node3</title>
<g id="a_node3"><a xlink:href="$group__lang11.html#gad910833c04a752d3997e1e0fcc6598c8" xlink:title="unique_ptr">
<text text-anchor="middle" x="226.5" y="-46.4" font-family="Helvetica,Arial,sans-serif" font-size="12.00">unique_pounter</text>
</a>
</g>
</g>
<!-- Node1&#45;&gt;Node3 -->
<g id="edge2" class="edge">
<title>Node1&#45;&gt;Node3</title>
<path fill="none" stroke="midnightblue" d="M140.12,-49.5C150.38,-49.5 160.84,-49.5 170.75,-49.5"/>
<polygon fill="midnightblue" stroke="midnightblue" points="175.88,-49.5 170.88,-51.75 173.38,-49.5 170.88,-49.5 170.88,-49.5 170.88,-49.5 173.38,-49.5 170.88,-47.25 175.88,-49.5 175.88,-49.5"/>
</g>
<!-- Node4 -->
<g id="node4" class="node">
<title>Node4</title>
<g id="a_node4"><a xlink:href="$group__lang11.html#gac1a6e29326944fa42f80879e157048ae" xlink:title="weak_ptr">
<text text-anchor="middle" x="226.5" y="-7.4" font-family="Helvetica,Arial,sans-serif" font-size="12.00">weak_pointer</text>
</a>
</g>
</g>
<!-- Node1&#45;&gt;Node4 -->
<g id="edge3" class="edge">
<title>Node1&#45;&gt;Node4</title>
<path fill="none" stroke="midnightblue" d="M112.81,-38.95C133.16,-33.81 157.71,-27.61 178.68,-22.32"/>
<polygon fill="midnightblue" stroke="midnightblue" points="183.66,-21.06 179.36,-24.47 181.23,-21.67 178.81,-22.29 178.81,-22.29 178.81,-22.29 181.23,-21.67 178.26,-20.1 183.66,-21.06 183.66,-21.06"/>
</g>
</g>
</svg>
