<?xml version="1.0" encoding="UTF-8" standalone="no"?>
<!DOCTYPE svg PUBLIC "-//W3C//DTD SVG 1.1//EN"
 "http://www.w3.org/Graphics/SVG/1.1/DTD/svg11.dtd">
<!-- Generated by graphviz version 2.43.0 (0)
 -->
<!-- Title: main Pages: 1 -->
<svg width="527pt" height="458pt"
 viewBox="0.00 0.00 527.00 458.00" xmlns="http://www.w3.org/2000/svg" xmlns:xlink="http://www.w3.org/1999/xlink">
<g id="graph0" class="graph" transform="scale(1 1) rotate(0) translate(4 454)">
<title>main</title>
<!-- Node1 -->
<g id="node1" class="node">
<title>Node1</title>
<g id="a_node1"><a xlink:title=" ">
<polygon fill="#bfbfbf" stroke="transparent" points="44,-235 0,-235 0,-214 44,-214 44,-235"/>
<text text-anchor="start" x="8" y="-222.4" font-family="Helvetica,Arial,sans-serif" font-weight="bold" font-size="12.00">main</text>
</a>
</g>
</g>
<!-- Node2 -->
<g id="node2" class="node">
<title>Node2</title>
<g id="a_node2"><a xlink:href="$group__lib17.html#ga8cb7163083f1f0a3f822ba830593e2f8" xlink:title=" ">
<text text-anchor="middle" x="146" y="-436.4" font-family="Helvetica,Arial,sans-serif" font-size="12.00">clamp_demo</text>
</a>
</g>
</g>
<!-- Node1&#45;&gt;Node2 -->
<g id="edge1" class="edge">
<title>Node1&#45;&gt;Node2</title>
<path fill="none" stroke="midnightblue" d="M22.77,-235.17C22.66,-267.81 26.91,-367.34 80,-420.5 85.06,-425.57 91.4,-429.3 98.11,-432.05"/>
<polygon fill="midnightblue" stroke="midnightblue" points="102.81,-433.79 97.34,-434.16 100.47,-432.92 98.13,-432.05 98.13,-432.05 98.13,-432.05 100.47,-432.92 98.91,-429.94 102.81,-433.79 102.81,-433.79"/>
</g>
<!-- Node3 -->
<g id="node3" class="node">
<title>Node3</title>
<g id="a_node3"><a xlink:href="$group__templ17.html#gaecacde754dfb67194507339730e3f4cf" xlink:title=" ">
<text text-anchor="middle" x="146" y="-397.4" font-family="Helvetica,Arial,sans-serif" font-size="12.00">deduction_guides_17</text>
</a>
</g>
</g>
<!-- Node1&#45;&gt;Node3 -->
<g id="edge2" class="edge">
<title>Node1&#45;&gt;Node3</title>
<path fill="none" stroke="midnightblue" d="M23.65,-235.04C25.97,-263.13 36.22,-340.43 80,-381.5 82.36,-383.72 84.97,-385.68 87.74,-387.41"/>
<polygon fill="midnightblue" stroke="midnightblue" points="92.22,-389.95 86.77,-389.44 90.05,-388.72 87.87,-387.48 87.87,-387.48 87.87,-387.48 90.05,-388.72 88.98,-385.53 92.22,-389.95 92.22,-389.95"/>
</g>
<!-- Node6 -->
<g id="node6" class="node">
<title>Node6</title>
<g id="a_node6"><a xlink:href="$group__lib17.html#gab5fcfaf82b4a2f9f162cb824e42a6dc7" xlink:title=" ">
<text text-anchor="middle" x="146" y="-358.4" font-family="Helvetica,Arial,sans-serif" font-size="12.00">dynamic_memory_17</text>
</a>
</g>
</g>
<!-- Node1&#45;&gt;Node6 -->
<g id="edge5" class="edge">
<title>Node1&#45;&gt;Node6</title>
<path fill="none" stroke="midnightblue" d="M25.08,-235.09C30.17,-258.17 45.45,-313.24 80,-342.5 82.59,-344.69 85.42,-346.63 88.41,-348.35"/>
<polygon fill="midnightblue" stroke="midnightblue" points="93.22,-350.87 87.75,-350.54 91.01,-349.71 88.79,-348.55 88.79,-348.55 88.79,-348.55 91.01,-349.71 89.84,-346.56 93.22,-350.87 93.22,-350.87"/>
</g>
<!-- Node8 -->
<g id="node8" class="node">
<title>Node8</title>
<g id="a_node8"><a xlink:href="$group__template__parameters.html#ga45dd86ef0b6d0a6d264bb9fd216470c8" xlink:title=" ">
<text text-anchor="middle" x="146" y="-319.4" font-family="Helvetica,Arial,sans-serif" font-size="12.00">foo_tuple</text>
</a>
</g>
</g>
<!-- Node1&#45;&gt;Node8 -->
<g id="edge7" class="edge">
<title>Node1&#45;&gt;Node8</title>
<path fill="none" stroke="midnightblue" d="M27.82,-235.19C36.06,-252.23 54.45,-285.45 80,-303.5 88.18,-309.28 98.11,-313.31 107.72,-316.13"/>
<polygon fill="midnightblue" stroke="midnightblue" points="112.7,-317.49 107.29,-318.34 110.29,-316.83 107.88,-316.17 107.88,-316.17 107.88,-316.17 110.29,-316.83 108.47,-314 112.7,-317.49 112.7,-317.49"/>
</g>
<!-- Node9 -->
<g id="node9" class="node">
<title>Node9</title>
<g id="a_node9"><a xlink:href="$group__lcbv.html#ga09d6ec7e96d1419fa2eb7b467b45262d" xlink:title=" ">
<text text-anchor="middle" x="146" y="-280.4" font-family="Helvetica,Arial,sans-serif" font-size="12.00">lambda_17</text>
</a>
</g>
</g>
<!-- Node1&#45;&gt;Node9 -->
<g id="edge8" class="edge">
<title>Node1&#45;&gt;Node9</title>
<path fill="none" stroke="midnightblue" d="M35.82,-235.35C46.9,-244.26 63.66,-256.64 80,-264.5 86.97,-267.85 94.66,-270.74 102.23,-273.17"/>
<polygon fill="midnightblue" stroke="midnightblue" points="107.44,-274.79 101.99,-275.46 105.05,-274.05 102.66,-273.31 102.66,-273.31 102.66,-273.31 105.05,-274.05 103.33,-271.16 107.44,-274.79 107.44,-274.79"/>
</g>
<!-- Node11 -->
<g id="node11" class="node">
<title>Node11</title>
<g id="a_node11"><a xlink:href="$group__lang17.html#ga511a3c761f5be8bf3c9bb7db27a91696" xlink:title="language">
<text text-anchor="middle" x="146" y="-241.4" font-family="Helvetica,Arial,sans-serif" font-size="12.00">lang_17</text>
</a>
</g>
</g>
<!-- Node1&#45;&gt;Node11 -->
<g id="edge10" class="edge">
<title>Node1&#45;&gt;Node11</title>
<path fill="none" stroke="midnightblue" d="M44.25,-227.98C62.58,-230.99 89.39,-235.38 110.74,-238.88"/>
<polygon fill="midnightblue" stroke="midnightblue" points="115.77,-239.71 110.47,-241.12 113.3,-239.3 110.83,-238.9 110.83,-238.9 110.83,-238.9 113.3,-239.3 111.2,-236.68 115.77,-239.71 115.77,-239.71"/>
</g>
<!-- Node17 -->
<g id="node17" class="node">
<title>Node17</title>
<g id="a_node17"><a xlink:href="$group__sb.html#gaebfb65cd7aee50939e09908e5185a5cf" xlink:title=" ">
<text text-anchor="middle" x="324.5" y="-67.4" font-family="Helvetica,Arial,sans-serif" font-size="12.00">structured_bindings</text>
</a>
</g>
</g>
<!-- Node1&#45;&gt;Node17 -->
<g id="edge24" class="edge">
<title>Node1&#45;&gt;Node17</title>
<path fill="none" stroke="midnightblue" d="M44.16,-222.82C88.02,-218.93 186.87,-207.97 212,-186.5 246.97,-156.63 213.76,-120.2 248,-89.5 251.25,-86.58 254.89,-84.1 258.76,-81.98"/>
<polygon fill="midnightblue" stroke="midnightblue" points="263.41,-79.67 259.94,-83.91 261.17,-80.78 258.93,-81.9 258.93,-81.9 258.93,-81.9 261.17,-80.78 257.93,-79.89 263.41,-79.67 263.41,-79.67"/>
</g>
<!-- Node21 -->
<g id="node21" class="node">
<title>Node21</title>
<g id="a_node21"><a xlink:href="$group__lib17.html#ga504931ae26977f44fc2ba6e6f916a544" xlink:title=" ">
<text text-anchor="middle" x="146" y="-163.4" font-family="Helvetica,Arial,sans-serif" font-size="12.00">map_demo</text>
</a>
</g>
</g>
<!-- Node1&#45;&gt;Node21 -->
<g id="edge21" class="edge">
<title>Node1&#45;&gt;Node21</title>
<path fill="none" stroke="midnightblue" d="M39.58,-213.97C50.76,-207.1 65.97,-198.21 80,-191.5 89.47,-186.97 99.99,-182.64 109.76,-178.89"/>
<polygon fill="midnightblue" stroke="midnightblue" points="114.49,-177.1 110.61,-180.98 112.15,-177.99 109.81,-178.87 109.81,-178.87 109.81,-178.87 112.15,-177.99 109.01,-176.77 114.49,-177.1 114.49,-177.1"/>
</g>
<!-- Node22 -->
<g id="node22" class="node">
<title>Node22</title>
<g id="a_node22"><a xlink:href="$group__lib17.html#ga6e1e63d56c250ad12c63bd5bb77b3027" xlink:title=" ">
<text text-anchor="middle" x="146" y="-124.4" font-family="Helvetica,Arial,sans-serif" font-size="12.00">optional_demo</text>
</a>
</g>
</g>
<!-- Node1&#45;&gt;Node22 -->
<g id="edge22" class="edge">
<title>Node1&#45;&gt;Node22</title>
<path fill="none" stroke="midnightblue" d="M28.06,-213.85C36.5,-197.22 55.02,-165.18 80,-147.5 84.05,-144.63 88.52,-142.17 93.16,-140.06"/>
<polygon fill="midnightblue" stroke="midnightblue" points="97.85,-138.05 94.14,-142.08 95.55,-139.03 93.25,-140.02 93.25,-140.02 93.25,-140.02 95.55,-139.03 92.37,-137.95 97.85,-138.05 97.85,-138.05"/>
</g>
<!-- Node23 -->
<g id="node23" class="node">
<title>Node23</title>
<g id="a_node23"><a xlink:href="$group__lib17.html#gab6d97155e76d78c5c2e7281a7c682f3d" xlink:title=" ">
<text text-anchor="middle" x="146" y="-85.4" font-family="Helvetica,Arial,sans-serif" font-size="12.00">string_view_demo</text>
</a>
</g>
</g>
<!-- Node1&#45;&gt;Node23 -->
<g id="edge23" class="edge">
<title>Node1&#45;&gt;Node23</title>
<path fill="none" stroke="midnightblue" d="M25.25,-213.78C30.59,-190.96 46.2,-137.33 80,-108.5 83.23,-105.75 86.83,-103.37 90.64,-101.32"/>
<polygon fill="midnightblue" stroke="midnightblue" points="95.19,-99.07 91.71,-103.3 92.95,-100.18 90.71,-101.29 90.71,-101.29 90.71,-101.29 92.95,-100.18 89.72,-99.27 95.19,-99.07 95.19,-99.07"/>
</g>
<!-- Node24 -->
<g id="node24" class="node">
<title>Node24</title>
<g id="a_node24"><a xlink:href="$group__threads17.html#ga9f411b8b9bb88cfcb7e7f80487003b09" xlink:title=" ">
<text text-anchor="middle" x="146" y="-46.4" font-family="Helvetica,Arial,sans-serif" font-size="12.00">threads_17</text>
</a>
</g>
</g>
<!-- Node1&#45;&gt;Node24 -->
<g id="edge25" class="edge">
<title>Node1&#45;&gt;Node24</title>
<path fill="none" stroke="midnightblue" d="M23.71,-213.62C26.15,-185.37 36.64,-109.09 80,-68.5 86.18,-62.71 94.04,-58.68 102.13,-55.87"/>
<polygon fill="midnightblue" stroke="midnightblue" points="107.18,-54.27 103.09,-57.92 104.8,-55.02 102.41,-55.77 102.41,-55.77 102.41,-55.77 104.8,-55.02 101.74,-53.63 107.18,-54.27 107.18,-54.27"/>
</g>
<!-- Node25 -->
<g id="node25" class="node">
<title>Node25</title>
<g id="a_node25"><a xlink:href="$group__lib17.html#gacee9f90ef33d8839e801b81f2c2deaab" xlink:title=" ">
<text text-anchor="middle" x="146" y="-7.4" font-family="Helvetica,Arial,sans-serif" font-size="12.00">variant_demo</text>
</a>
</g>
</g>
<!-- Node1&#45;&gt;Node25 -->
<g id="edge26" class="edge">
<title>Node1&#45;&gt;Node25</title>
<path fill="none" stroke="midnightblue" d="M22.79,-213.88C22.73,-181.4 27.13,-82.37 80,-29.5 84.7,-24.8 90.5,-21.24 96.68,-18.56"/>
<polygon fill="midnightblue" stroke="midnightblue" points="101.47,-16.68 97.64,-20.6 99.15,-17.59 96.82,-18.51 96.82,-18.51 96.82,-18.51 99.15,-17.59 96,-16.42 101.47,-16.68 101.47,-16.68"/>
</g>
<!-- Node4 -->
<g id="node4" class="node">
<title>Node4</title>
<g id="a_node4"><a xlink:href="$group__template__argument__deduction.html#gae06ba048fd02e30fe785cab65d195937" xlink:title="deduction_guides">
<text text-anchor="middle" x="324.5" y="-436.4" font-family="Helvetica,Arial,sans-serif" font-size="12.00">deduction_guide1_queue</text>
</a>
</g>
</g>
<!-- Node3&#45;&gt;Node4 -->
<g id="edge3" class="edge">
<title>Node3&#45;&gt;Node4</title>
<path fill="none" stroke="midnightblue" d="M194.76,-411.05C218.21,-416.23 246.53,-422.49 270.62,-427.82"/>
<polygon fill="midnightblue" stroke="midnightblue" points="275.7,-428.94 270.33,-430.06 273.26,-428.4 270.82,-427.86 270.82,-427.86 270.82,-427.86 273.26,-428.4 271.3,-425.66 275.7,-428.94 275.7,-428.94"/>
</g>
<!-- Node5 -->
<g id="node5" class="node">
<title>Node5</title>
<g id="a_node5"><a xlink:href="$group__template__argument__deduction.html#gae3567664597330506936b8cf45b526e9" xlink:title="deduced vector&lt;int&gt;">
<text text-anchor="middle" x="324.5" y="-397.4" font-family="Helvetica,Arial,sans-serif" font-size="12.00">deduction_guide1_vector</text>
</a>
</g>
</g>
<!-- Node3&#45;&gt;Node5 -->
<g id="edge4" class="edge">
<title>Node3&#45;&gt;Node5</title>
<path fill="none" stroke="midnightblue" d="M212.22,-400.5C222.35,-400.5 232.91,-400.5 243.32,-400.5"/>
<polygon fill="midnightblue" stroke="midnightblue" points="248.42,-400.5 243.42,-402.75 245.92,-400.5 243.42,-400.5 243.42,-400.5 243.42,-400.5 245.92,-400.5 243.42,-398.25 248.42,-400.5 248.42,-400.5"/>
</g>
<!-- Node7 -->
<g id="node7" class="node">
<title>Node7</title>
<g id="a_node7"><a xlink:href="$group__lib17.html#ga89c2c9169d55c2ccdfbf0dbf08471287" xlink:title=" ">
<text text-anchor="middle" x="324.5" y="-358.4" font-family="Helvetica,Arial,sans-serif" font-size="12.00">vvv</text>
</a>
</g>
</g>
<!-- Node6&#45;&gt;Node7 -->
<g id="edge6" class="edge">
<title>Node6&#45;&gt;Node7</title>
<path fill="none" stroke="midnightblue" d="M212.22,-361.5C243.68,-361.5 279.33,-361.5 301.61,-361.5"/>
<polygon fill="midnightblue" stroke="midnightblue" points="306.71,-361.5 301.71,-363.75 304.21,-361.5 301.71,-361.5 301.71,-361.5 301.71,-361.5 304.21,-361.5 301.71,-359.25 306.71,-361.5 306.71,-361.5"/>
</g>
<!-- Node10 -->
<g id="node10" class="node">
<title>Node10</title>
<g id="a_node10"><a xlink:href="$group__lcbv.html#gae6783fe92992c7c898941542b211b2d5" xlink:title=" ">
<text text-anchor="middle" x="324.5" y="-319.4" font-family="Helvetica,Arial,sans-serif" font-size="12.00">capture_this_by_value</text>
</a>
</g>
</g>
<!-- Node9&#45;&gt;Node10 -->
<g id="edge9" class="edge">
<title>Node9&#45;&gt;Node10</title>
<path fill="none" stroke="midnightblue" d="M184.86,-291.87C209.94,-297.41 243.19,-304.75 270.83,-310.86"/>
<polygon fill="midnightblue" stroke="midnightblue" points="275.93,-311.99 270.56,-313.11 273.49,-311.45 271.04,-310.91 271.04,-310.91 271.04,-310.91 273.49,-311.45 271.53,-308.71 275.93,-311.99 275.93,-311.99"/>
</g>
<!-- Node12 -->
<g id="node12" class="node">
<title>Node12</title>
<g id="a_node12"><a xlink:href="$group__lang17.html#gaf0da28619ff28ebe68320c987137d214" xlink:title=" ">
<text text-anchor="middle" x="324.5" y="-280.4" font-family="Helvetica,Arial,sans-serif" font-size="12.00">conditional_with_init</text>
</a>
</g>
</g>
<!-- Node11&#45;&gt;Node12 -->
<g id="edge11" class="edge">
<title>Node11&#45;&gt;Node12</title>
<path fill="none" stroke="midnightblue" d="M176.15,-250.94C201.8,-256.61 239.78,-265 270.76,-271.85"/>
<polygon fill="midnightblue" stroke="midnightblue" points="275.66,-272.93 270.3,-274.05 273.22,-272.39 270.78,-271.85 270.78,-271.85 270.78,-271.85 273.22,-272.39 271.27,-269.65 275.66,-272.93 275.66,-272.93"/>
</g>
<!-- Node13 -->
<g id="node13" class="node">
<title>Node13</title>
<g id="a_node13"><a xlink:href="$group__folding.html#ga24fef2e3a7adf434ab68772454c869d4" xlink:title=" ">
<text text-anchor="middle" x="324.5" y="-241.4" font-family="Helvetica,Arial,sans-serif" font-size="12.00">folding_demo</text>
</a>
</g>
</g>
<!-- Node11&#45;&gt;Node13 -->
<g id="edge12" class="edge">
<title>Node11&#45;&gt;Node13</title>
<path fill="none" stroke="midnightblue" d="M176.15,-244.5C202.91,-244.5 243.1,-244.5 274.75,-244.5"/>
<polygon fill="midnightblue" stroke="midnightblue" points="279.76,-244.5 274.76,-246.75 277.26,-244.5 274.76,-244.5 274.76,-244.5 274.76,-244.5 277.26,-244.5 274.76,-242.25 279.76,-244.5 279.76,-244.5"/>
</g>
<!-- Node16 -->
<g id="node16" class="node">
<title>Node16</title>
<g id="a_node16"><a xlink:href="$group__lang17.html#ga48cd9a2d84b26f672344c61dbc566073" xlink:title=" ">
<text text-anchor="middle" x="324.5" y="-202.4" font-family="Helvetica,Arial,sans-serif" font-size="12.00">references_17</text>
</a>
</g>
</g>
<!-- Node11&#45;&gt;Node16 -->
<g id="edge15" class="edge">
<title>Node11&#45;&gt;Node16</title>
<path fill="none" stroke="midnightblue" d="M176.15,-238.06C202.35,-232.27 241.44,-223.63 272.77,-216.71"/>
<polygon fill="midnightblue" stroke="midnightblue" points="277.72,-215.61 273.33,-218.89 275.28,-216.15 272.84,-216.69 272.84,-216.69 272.84,-216.69 275.28,-216.15 272.36,-214.5 277.72,-215.61 277.72,-215.61"/>
</g>
<!-- Node11&#45;&gt;Node17 -->
<g id="edge16" class="edge">
<title>Node11&#45;&gt;Node17</title>
<path fill="none" stroke="midnightblue" d="M176.26,-239.38C188.84,-235.78 202.74,-229.71 212,-219.5 252.29,-175.1 205.11,-131.39 248,-89.5 251.2,-86.38 254.83,-83.74 258.73,-81.53"/>
<polygon fill="midnightblue" stroke="midnightblue" points="263.42,-79.11 260,-83.4 261.19,-80.26 258.97,-81.4 258.97,-81.4 258.97,-81.4 261.19,-80.26 257.94,-79.4 263.42,-79.11 263.42,-79.11"/>
</g>
<!-- Node18 -->
<g id="node18" class="node">
<title>Node18</title>
<g id="a_node18"><a xlink:href="$group__attr.html#ga3f48aea4a68337f783ea488f5c8f0e6a" xlink:title=" ">
<text text-anchor="middle" x="324.5" y="-163.4" font-family="Helvetica,Arial,sans-serif" font-size="12.00">test_attr</text>
</a>
</g>
</g>
<!-- Node11&#45;&gt;Node18 -->
<g id="edge17" class="edge">
<title>Node11&#45;&gt;Node18</title>
<path fill="none" stroke="midnightblue" d="M176.25,-235.87C187.84,-231.8 201,-226.31 212,-219.5 230.45,-208.07 228.96,-196.91 248,-186.5 260.82,-179.49 276.23,-174.84 289.77,-171.8"/>
<polygon fill="midnightblue" stroke="midnightblue" points="294.67,-170.75 290.25,-174 292.22,-171.27 289.78,-171.8 289.78,-171.8 289.78,-171.8 292.22,-171.27 289.31,-169.6 294.67,-170.75 294.67,-170.75"/>
</g>
<!-- Node20 -->
<g id="node20" class="node">
<title>Node20</title>
<g id="a_node20"><a xlink:href="$group__lang17.html#gaf33143c73fe6d2c858b64736f7e8fdc0" xlink:title=" ">
<text text-anchor="middle" x="324.5" y="-106.4" font-family="Helvetica,Arial,sans-serif" font-size="12.00">types_17</text>
</a>
</g>
</g>
<!-- Node11&#45;&gt;Node20 -->
<g id="edge19" class="edge">
<title>Node11&#45;&gt;Node20</title>
<path fill="none" stroke="midnightblue" d="M176.05,-238.31C188.28,-234.53 201.97,-228.6 212,-219.5 238.49,-195.45 222.74,-172.83 248,-147.5 258.89,-136.58 273.56,-128.22 287.08,-122.16"/>
<polygon fill="midnightblue" stroke="midnightblue" points="291.99,-120.03 288.3,-124.09 289.7,-121.03 287.41,-122.02 287.41,-122.02 287.41,-122.02 289.7,-121.03 286.51,-119.96 291.99,-120.03 291.99,-120.03"/>
</g>
<!-- Node14 -->
<g id="node14" class="node">
<title>Node14</title>
<g id="a_node14"><a xlink:href="$group__folding.html#ga8bac0f4d13844b654a90512a2fed713c" xlink:title=" ">
<text text-anchor="middle" x="478" y="-260.4" font-family="Helvetica,Arial,sans-serif" font-size="12.00">folding_and</text>
</a>
</g>
</g>
<!-- Node13&#45;&gt;Node14 -->
<g id="edge13" class="edge">
<title>Node13&#45;&gt;Node14</title>
<path fill="none" stroke="midnightblue" d="M369.32,-250C389.3,-252.5 412.91,-255.46 432.92,-257.97"/>
<polygon fill="midnightblue" stroke="midnightblue" points="437.92,-258.6 432.68,-260.21 435.44,-258.29 432.96,-257.98 432.96,-257.98 432.96,-257.98 435.44,-258.29 433.24,-255.74 437.92,-258.6 437.92,-258.6"/>
</g>
<!-- Node15 -->
<g id="node15" class="node">
<title>Node15</title>
<g id="a_node15"><a xlink:href="$group__folding.html#ga9b51138a3ead047d2bd4c2076d494687" xlink:title=" ">
<text text-anchor="middle" x="478" y="-221.4" font-family="Helvetica,Arial,sans-serif" font-size="12.00">folding_sum</text>
</a>
</g>
</g>
<!-- Node13&#45;&gt;Node15 -->
<g id="edge14" class="edge">
<title>Node13&#45;&gt;Node15</title>
<path fill="none" stroke="midnightblue" d="M369.32,-238.72C388.98,-236.12 412.15,-233.06 431.95,-230.45"/>
<polygon fill="midnightblue" stroke="midnightblue" points="436.9,-229.79 432.24,-232.68 434.43,-230.12 431.95,-230.45 431.95,-230.45 431.95,-230.45 434.43,-230.12 431.65,-228.22 436.9,-229.79 436.9,-229.79"/>
</g>
<!-- Node19 -->
<g id="node19" class="node">
<title>Node19</title>
<g id="a_node19"><a xlink:href="$group__attr.html#ga14bcd2d544b22300bba3863251393e0f" xlink:title=" ">
<text text-anchor="middle" x="478" y="-163.4" font-family="Helvetica,Arial,sans-serif" font-size="12.00">foo</text>
</a>
</g>
</g>
<!-- Node18&#45;&gt;Node19 -->
<g id="edge18" class="edge">
<title>Node18&#45;&gt;Node19</title>
<path fill="none" stroke="midnightblue" d="M354.35,-166.5C384.13,-166.5 429.86,-166.5 456.25,-166.5"/>
<polygon fill="midnightblue" stroke="midnightblue" points="461.26,-166.5 456.26,-168.75 458.76,-166.5 456.26,-166.5 456.26,-166.5 456.26,-166.5 458.76,-166.5 456.26,-164.25 461.26,-166.5 461.26,-166.5"/>
</g>
<!-- Node20&#45;&gt;Node20 -->
<g id="edge20" class="edge">
<title>Node20&#45;&gt;Node20</title>
<path fill="none" stroke="midnightblue" d="M300.35,-120.02C290.03,-128.81 298.08,-138 324.5,-138 346.79,-138 356.01,-131.46 352.14,-124.14"/>
<polygon fill="midnightblue" stroke="midnightblue" points="348.65,-120.02 353.6,-122.38 350.27,-121.93 351.89,-123.83 351.89,-123.83 351.89,-123.83 350.27,-121.93 350.17,-125.29 348.65,-120.02 348.65,-120.02"/>
</g>
</g>
</svg>
