<?xml version="1.0" encoding="UTF-8" standalone="no"?>
<!DOCTYPE svg PUBLIC "-//W3C//DTD SVG 1.1//EN"
 "http://www.w3.org/Graphics/SVG/1.1/DTD/svg11.dtd">
<!-- Generated by graphviz version 2.43.0 (0)
 -->
<!-- Title: lang_17 Pages: 1 -->
<svg width="350pt" height="242pt"
 viewBox="0.00 0.00 350.00 242.00" xmlns="http://www.w3.org/2000/svg" xmlns:xlink="http://www.w3.org/1999/xlink">
<g id="graph0" class="graph" transform="scale(1 1) rotate(0) translate(4 238)">
<title>lang_17</title>
<!-- Node1 -->
<g id="node1" class="node">
<title>Node1</title>
<g id="a_node1"><a xlink:title="language">
<polygon fill="#bfbfbf" stroke="transparent" points="62,-136 0,-136 0,-115 62,-115 62,-136"/>
<text text-anchor="start" x="8" y="-123.4" font-family="Helvetica,Arial,sans-serif" font-weight="bold" font-size="12.00">lang_17</text>
</a>
</g>
</g>
<!-- Node2 -->
<g id="node2" class="node">
<title>Node2</title>
<g id="a_node2"><a xlink:href="$group__lang17.html#gaf0da28619ff28ebe68320c987137d214" xlink:title=" ">
<text text-anchor="middle" x="161" y="-220.4" font-family="Helvetica,Arial,sans-serif" font-size="12.00">conditional_with_init</text>
</a>
</g>
</g>
<!-- Node1&#45;&gt;Node2 -->
<g id="edge1" class="edge">
<title>Node1&#45;&gt;Node2</title>
<path fill="none" stroke="midnightblue" d="M38.06,-136.14C48.25,-153.1 70.45,-186.21 98,-204.5 101.64,-206.92 105.6,-209.04 109.7,-210.9"/>
<polygon fill="midnightblue" stroke="midnightblue" points="114.57,-212.96 109.09,-213.08 112.27,-211.98 109.97,-211.01 109.97,-211.01 109.97,-211.01 112.27,-211.98 110.85,-208.94 114.57,-212.96 114.57,-212.96"/>
</g>
<!-- Node3 -->
<g id="node3" class="node">
<title>Node3</title>
<g id="a_node3"><a xlink:href="$group__folding.html#ga24fef2e3a7adf434ab68772454c869d4" xlink:title=" ">
<text text-anchor="middle" x="161" y="-181.4" font-family="Helvetica,Arial,sans-serif" font-size="12.00">folding_demo</text>
</a>
</g>
</g>
<!-- Node1&#45;&gt;Node3 -->
<g id="edge2" class="edge">
<title>Node1&#45;&gt;Node3</title>
<path fill="none" stroke="midnightblue" d="M47.14,-136.17C60.15,-144.96 79.66,-157.28 98,-165.5 103.54,-167.98 109.49,-170.26 115.44,-172.31"/>
<polygon fill="midnightblue" stroke="midnightblue" points="120.43,-173.98 114.98,-174.53 118.06,-173.19 115.69,-172.39 115.69,-172.39 115.69,-172.39 118.06,-173.19 116.41,-170.26 120.43,-173.98 120.43,-173.98"/>
</g>
<!-- Node6 -->
<g id="node6" class="node">
<title>Node6</title>
<g id="a_node6"><a xlink:href="$group__lang17.html#ga48cd9a2d84b26f672344c61dbc566073" xlink:title=" ">
<text text-anchor="middle" x="161" y="-142.4" font-family="Helvetica,Arial,sans-serif" font-size="12.00">references_17</text>
</a>
</g>
</g>
<!-- Node1&#45;&gt;Node6 -->
<g id="edge5" class="edge">
<title>Node1&#45;&gt;Node6</title>
<path fill="none" stroke="midnightblue" d="M62.01,-130.19C75.95,-132.37 92.92,-135.02 108.8,-137.5"/>
<polygon fill="midnightblue" stroke="midnightblue" points="114.14,-138.33 108.85,-139.79 111.67,-137.95 109.2,-137.56 109.2,-137.56 109.2,-137.56 111.67,-137.95 109.55,-135.34 114.14,-138.33 114.14,-138.33"/>
</g>
<!-- Node7 -->
<g id="node7" class="node">
<title>Node7</title>
<g id="a_node7"><a xlink:href="$group__sb.html#gaebfb65cd7aee50939e09908e5185a5cf" xlink:title=" ">
<text text-anchor="middle" x="161" y="-103.4" font-family="Helvetica,Arial,sans-serif" font-size="12.00">structured_bindings</text>
</a>
</g>
</g>
<!-- Node1&#45;&gt;Node7 -->
<g id="edge6" class="edge">
<title>Node1&#45;&gt;Node7</title>
<path fill="none" stroke="midnightblue" d="M62.01,-121.05C71.97,-119.57 83.47,-117.86 95.02,-116.15"/>
<polygon fill="midnightblue" stroke="midnightblue" points="99.96,-115.41 95.35,-118.37 97.49,-115.78 95.02,-116.15 95.02,-116.15 95.02,-116.15 97.49,-115.78 94.69,-113.92 99.96,-115.41 99.96,-115.41"/>
</g>
<!-- Node8 -->
<g id="node8" class="node">
<title>Node8</title>
<g id="a_node8"><a xlink:href="$group__attr.html#ga3f48aea4a68337f783ea488f5c8f0e6a" xlink:title=" ">
<text text-anchor="middle" x="161" y="-64.4" font-family="Helvetica,Arial,sans-serif" font-size="12.00">test_attr</text>
</a>
</g>
</g>
<!-- Node1&#45;&gt;Node8 -->
<g id="edge7" class="edge">
<title>Node1&#45;&gt;Node8</title>
<path fill="none" stroke="midnightblue" d="M48.04,-114.98C61.11,-106.74 80.23,-95.38 98,-87.5 107.07,-83.48 117.2,-79.87 126.6,-76.85"/>
<polygon fill="midnightblue" stroke="midnightblue" points="131.45,-75.33 127.35,-78.98 129.06,-76.08 126.68,-76.83 126.68,-76.83 126.68,-76.83 129.06,-76.08 126,-74.69 131.45,-75.33 131.45,-75.33"/>
</g>
<!-- Node10 -->
<g id="node10" class="node">
<title>Node10</title>
<g id="a_node10"><a xlink:href="$group__lang17.html#gaf33143c73fe6d2c858b64736f7e8fdc0" xlink:title=" ">
<text text-anchor="middle" x="161" y="-7.4" font-family="Helvetica,Arial,sans-serif" font-size="12.00">types_17</text>
</a>
</g>
</g>
<!-- Node1&#45;&gt;Node10 -->
<g id="edge9" class="edge">
<title>Node1&#45;&gt;Node10</title>
<path fill="none" stroke="midnightblue" d="M39.43,-114.87C50.8,-99.11 73.75,-69.18 98,-48.5 109.11,-39.03 122.84,-30.36 134.55,-23.7"/>
<polygon fill="midnightblue" stroke="midnightblue" points="139.09,-21.16 135.83,-25.56 136.91,-22.38 134.73,-23.6 134.73,-23.6 134.73,-23.6 136.91,-22.38 133.63,-21.63 139.09,-21.16 139.09,-21.16"/>
</g>
<!-- Node4 -->
<g id="node4" class="node">
<title>Node4</title>
<g id="a_node4"><a xlink:href="$group__folding.html#ga8bac0f4d13844b654a90512a2fed713c" xlink:title=" ">
<text text-anchor="middle" x="301" y="-200.4" font-family="Helvetica,Arial,sans-serif" font-size="12.00">folding_and</text>
</a>
</g>
</g>
<!-- Node3&#45;&gt;Node4 -->
<g id="edge3" class="edge">
<title>Node3&#45;&gt;Node4</title>
<path fill="none" stroke="midnightblue" d="M205.66,-190.51C221.56,-192.7 239.53,-195.17 255.49,-197.37"/>
<polygon fill="midnightblue" stroke="midnightblue" points="260.82,-198.11 255.56,-199.65 258.35,-197.77 255.87,-197.42 255.87,-197.42 255.87,-197.42 258.35,-197.77 256.18,-195.2 260.82,-198.11 260.82,-198.11"/>
</g>
<!-- Node5 -->
<g id="node5" class="node">
<title>Node5</title>
<g id="a_node5"><a xlink:href="$group__folding.html#ga9b51138a3ead047d2bd4c2076d494687" xlink:title=" ">
<text text-anchor="middle" x="301" y="-161.4" font-family="Helvetica,Arial,sans-serif" font-size="12.00">folding_sum</text>
</a>
</g>
</g>
<!-- Node3&#45;&gt;Node5 -->
<g id="edge4" class="edge">
<title>Node3&#45;&gt;Node5</title>
<path fill="none" stroke="midnightblue" d="M205.66,-178.17C221.27,-175.91 238.89,-173.36 254.64,-171.07"/>
<polygon fill="midnightblue" stroke="midnightblue" points="259.9,-170.31 255.27,-173.26 257.43,-170.67 254.95,-171.03 254.95,-171.03 254.95,-171.03 257.43,-170.67 254.63,-168.8 259.9,-170.31 259.9,-170.31"/>
</g>
<!-- Node9 -->
<g id="node9" class="node">
<title>Node9</title>
<g id="a_node9"><a xlink:href="$group__attr.html#ga14bcd2d544b22300bba3863251393e0f" xlink:title=" ">
<text text-anchor="middle" x="301" y="-64.4" font-family="Helvetica,Arial,sans-serif" font-size="12.00">foo</text>
</a>
</g>
</g>
<!-- Node8&#45;&gt;Node9 -->
<g id="edge8" class="edge">
<title>Node8&#45;&gt;Node9</title>
<path fill="none" stroke="midnightblue" d="M190.59,-67.5C217.02,-67.5 255.64,-67.5 279.23,-67.5"/>
<polygon fill="midnightblue" stroke="midnightblue" points="284.31,-67.5 279.31,-69.75 281.81,-67.5 279.31,-67.5 279.31,-67.5 279.31,-67.5 281.81,-67.5 279.31,-65.25 284.31,-67.5 284.31,-67.5"/>
</g>
<!-- Node10&#45;&gt;Node10 -->
<g id="edge10" class="edge">
<title>Node10&#45;&gt;Node10</title>
<path fill="none" stroke="midnightblue" d="M140.34,-21.02C131.52,-29.81 138.4,-39 161,-39 180.07,-39 187.95,-32.46 184.64,-25.14"/>
<polygon fill="midnightblue" stroke="midnightblue" points="181.66,-21.02 186.41,-23.75 183.12,-23.05 184.59,-25.07 184.59,-25.07 184.59,-25.07 183.12,-23.05 182.77,-26.39 181.66,-21.02 181.66,-21.02"/>
</g>
</g>
</svg>
