<?xml version="1.0" encoding="UTF-8" standalone="no"?>
<!DOCTYPE svg PUBLIC "-//W3C//DTD SVG 1.1//EN"
 "http://www.w3.org/Graphics/SVG/1.1/DTD/svg11.dtd">
<!-- Generated by graphviz version 2.43.0 (0)
 -->
<!-- Title: structural_patterns_demo Pages: 1 -->
<svg width="503pt" height="153pt"
 viewBox="0.00 0.00 503.00 152.50" xmlns="http://www.w3.org/2000/svg" xmlns:xlink="http://www.w3.org/1999/xlink">
<g id="graph0" class="graph" transform="scale(1 1) rotate(0) translate(4 148.5)">
<title>structural_patterns_demo</title>
<!-- Node1 -->
<g id="node1" class="node">
<title>Node1</title>
<g id="a_node1"><a xlink:title=" ">
<polygon fill="#bfbfbf" stroke="transparent" points="165,-79 0,-79 0,-58 165,-58 165,-79"/>
<text text-anchor="start" x="8" y="-66.4" font-family="Helvetica,Arial,sans-serif" font-weight="bold" font-size="12.00">structural_patterns_demo</text>
</a>
</g>
</g>
<!-- Node2 -->
<g id="node2" class="node">
<title>Node2</title>
<g id="a_node2"><a xlink:href="$structBridge.html#a68cba3a3e983eaf7521a6cea23ef1b7c" xlink:title=" ">
<text text-anchor="middle" x="258.5" y="-124.4" font-family="Helvetica,Arial,sans-serif" font-size="12.00">Bridge::method</text>
</a>
</g>
</g>
<!-- Node1&#45;&gt;Node2 -->
<g id="edge1" class="edge">
<title>Node1&#45;&gt;Node2</title>
<path fill="none" stroke="midnightblue" d="M114.41,-79.06C138.1,-87.14 171.61,-98.55 201,-108.5 207.48,-110.69 214.39,-113.02 221.06,-115.27"/>
<polygon fill="midnightblue" stroke="midnightblue" points="226.11,-116.97 220.66,-117.51 223.74,-116.17 221.37,-115.37 221.37,-115.37 221.37,-115.37 223.74,-116.17 222.09,-113.24 226.11,-116.97 226.11,-116.97"/>
</g>
<!-- Node4 -->
<g id="node4" class="node">
<title>Node4</title>
<g id="a_node4"><a xlink:href="$structProxy.html#a1c58aa9104f2537aae0f75b59130ce32" xlink:title=" ">
<text text-anchor="middle" x="258.5" y="-85.4" font-family="Helvetica,Arial,sans-serif" font-size="12.00">Proxy::method</text>
</a>
</g>
</g>
<!-- Node1&#45;&gt;Node4 -->
<g id="edge3" class="edge">
<title>Node1&#45;&gt;Node4</title>
<path fill="none" stroke="midnightblue" d="M165.15,-77.89C179.49,-79.53 194.03,-81.2 207.2,-82.72"/>
<polygon fill="midnightblue" stroke="midnightblue" points="212.36,-83.31 207.14,-84.98 209.88,-83.03 207.39,-82.74 207.39,-82.74 207.39,-82.74 209.88,-83.03 207.65,-80.51 212.36,-83.31 212.36,-83.31"/>
</g>
<!-- Node5 -->
<g id="node5" class="node">
<title>Node5</title>
<g id="a_node5"><a xlink:href="$structInterface.html#a73306300ba88073a31d86d9e282ff5ca" xlink:title=" ">
<text text-anchor="middle" x="423.5" y="-46.4" font-family="Helvetica,Arial,sans-serif" font-size="12.00">Interface::method</text>
</a>
</g>
</g>
<!-- Node1&#45;&gt;Node5 -->
<g id="edge7" class="edge">
<title>Node1&#45;&gt;Node5</title>
<path fill="none" stroke="midnightblue" d="M165.13,-63.92C226.34,-60.49 308.68,-55.88 363.57,-52.8"/>
<polygon fill="midnightblue" stroke="midnightblue" points="368.8,-52.51 363.93,-55.04 366.3,-52.65 363.8,-52.79 363.8,-52.79 363.8,-52.79 366.3,-52.65 363.68,-50.54 368.8,-52.51 368.8,-52.51"/>
</g>
<!-- Node6 -->
<g id="node6" class="node">
<title>Node6</title>
<g id="a_node6"><a xlink:href="$structDecorator.html#a49123c88d6088bbd5573b98bccd1d8bf" xlink:title=" ">
<text text-anchor="middle" x="258.5" y="-7.4" font-family="Helvetica,Arial,sans-serif" font-size="12.00">Decorator::method</text>
</a>
</g>
</g>
<!-- Node1&#45;&gt;Node6 -->
<g id="edge5" class="edge">
<title>Node1&#45;&gt;Node6</title>
<path fill="none" stroke="midnightblue" d="M115.01,-58C144.85,-48.05 189.64,-33.12 221.01,-22.66"/>
<polygon fill="midnightblue" stroke="midnightblue" points="225.93,-21.02 221.9,-24.74 223.56,-21.81 221.19,-22.6 221.19,-22.6 221.19,-22.6 223.56,-21.81 220.48,-20.47 225.93,-21.02 225.93,-21.02"/>
</g>
<!-- Node3 -->
<g id="node3" class="node">
<title>Node3</title>
<g id="a_node3"><a xlink:href="$structStandalone.html#ab576b209f7db533a9d9a5ada760f6db5" xlink:title=" ">
<text text-anchor="start" x="360" y="-130.9" font-family="Helvetica,Arial,sans-serif" font-size="12.00">Standalone::standalone</text>
<text text-anchor="middle" x="423.5" y="-117.9" font-family="Helvetica,Arial,sans-serif" font-size="12.00">_method</text>
</a>
</g>
</g>
<!-- Node2&#45;&gt;Node3 -->
<g id="edge2" class="edge">
<title>Node2&#45;&gt;Node3</title>
<path fill="none" stroke="midnightblue" d="M307.52,-127.5C319.79,-127.5 333.29,-127.5 346.58,-127.5"/>
<polygon fill="midnightblue" stroke="midnightblue" points="351.87,-127.5 346.87,-129.75 349.37,-127.5 346.87,-127.5 346.87,-127.5 346.87,-127.5 349.37,-127.5 346.86,-125.25 351.87,-127.5 351.87,-127.5"/>
</g>
<!-- Node4&#45;&gt;Node5 -->
<g id="edge4" class="edge">
<title>Node4&#45;&gt;Node5</title>
<path fill="none" stroke="midnightblue" d="M303.61,-77.95C325.17,-72.79 351.19,-66.56 373.39,-61.25"/>
<polygon fill="midnightblue" stroke="midnightblue" points="378.35,-60.06 374.02,-63.41 375.92,-60.64 373.49,-61.23 373.49,-61.23 373.49,-61.23 375.92,-60.64 372.97,-59.04 378.35,-60.06 378.35,-60.06"/>
</g>
<!-- Node6&#45;&gt;Node5 -->
<g id="edge6" class="edge">
<title>Node6&#45;&gt;Node5</title>
<path fill="none" stroke="midnightblue" d="M303.61,-21.05C325.17,-26.21 351.19,-32.44 373.39,-37.75"/>
<polygon fill="midnightblue" stroke="midnightblue" points="378.35,-38.94 372.97,-39.96 375.92,-38.36 373.49,-37.77 373.49,-37.77 373.49,-37.77 375.92,-38.36 374.02,-35.59 378.35,-38.94 378.35,-38.94"/>
</g>
</g>
</svg>
