<?xml version="1.0" encoding="UTF-8" standalone="no"?>
<!DOCTYPE svg PUBLIC "-//W3C//DTD SVG 1.1//EN"
 "http://www.w3.org/Graphics/SVG/1.1/DTD/svg11.dtd">
<!-- Generated by graphviz version 2.43.0 (0)
 -->
<!-- Title: behavioral_patterns_demo Pages: 1 -->
<svg width="805pt" height="368pt"
 viewBox="0.00 0.00 805.00 368.00" xmlns="http://www.w3.org/2000/svg" xmlns:xlink="http://www.w3.org/1999/xlink">
<g id="graph0" class="graph" transform="scale(1 1) rotate(0) translate(4 364)">
<title>behavioral_patterns_demo</title>
<!-- Node1 -->
<g id="node1" class="node">
<title>Node1</title>
<g id="a_node1"><a xlink:title=" ">
<text text-anchor="start" x="8" y="-204.9" font-family="UbuntuXX" font-weight="bold" font-size="12.00">behavioral_patterns_demo</text>
</a>
</g>
</g>
<!-- Node2 -->
<g id="node2" class="node">
<title>Node2</title>
<g id="a_node2"><a xlink:href="structChain__of__responsibility.html#a1e86b7bc1e9472af2b85e7322a4cc5c1" target="_top" xlink:title="Specific handler can process a command and return non&#45;negative.">
<text text-anchor="start" x="253" y="-345.4" font-family="UbuntuXX" font-size="12.00">Chain_of_responsibility</text>
<text text-anchor="middle" x="321" y="-332.4" font-family="UbuntuXX" font-size="12.00">::handle</text>
</a>
</g>
</g>
<!-- Node1&#45;&gt;Node2 -->
<g id="edge1" class="edge">
<title>Node1&#45;&gt;Node2</title>
<path fill="none" stroke="midnightblue" d="M116.13,-225.26C140.07,-249.09 185.16,-290.59 231,-315 235.8,-317.56 240.88,-319.91 246.08,-322.06"/>
<polygon fill="midnightblue" stroke="midnightblue" points="250.89,-323.99 245.41,-324.22 248.57,-323.06 246.24,-322.13 246.24,-322.13 246.24,-322.13 248.57,-323.06 247.08,-320.04 250.89,-323.99 250.89,-323.99"/>
</g>
<!-- Node3 -->
<g id="node3" class="node">
<title>Node3</title>
<g id="a_node3"><a xlink:href="group__BP.html#ga49d579b8340b92f6ceb51cb6d57d4b2d" target="_top" xlink:title=" ">
<text text-anchor="middle" x="321" y="-284.9" font-family="UbuntuXX" font-size="12.00">mediator_demo</text>
</a>
</g>
</g>
<!-- Node1&#45;&gt;Node3 -->
<g id="edge2" class="edge">
<title>Node1&#45;&gt;Node3</title>
<path fill="none" stroke="midnightblue" d="M139.89,-225.02C165.83,-236.03 200.1,-250.04 231,-261 240.2,-264.26 250.02,-267.49 259.65,-270.52"/>
<polygon fill="midnightblue" stroke="midnightblue" points="264.67,-272.08 259.23,-272.74 262.28,-271.34 259.89,-270.59 259.89,-270.59 259.89,-270.59 262.28,-271.34 260.56,-268.44 264.67,-272.08 264.67,-272.08"/>
</g>
<!-- Node7 -->
<g id="node7" class="node">
<title>Node7</title>
<g id="a_node7"><a xlink:href="group__BP.html#ga39dd63f04a9c36bb6cde09c53024a21d" target="_top" xlink:title=" ">
<text text-anchor="middle" x="321" y="-230.9" font-family="UbuntuXX" font-size="12.00">observer_demo</text>
</a>
</g>
</g>
<!-- Node1&#45;&gt;Node7 -->
<g id="edge6" class="edge">
<title>Node1&#45;&gt;Node7</title>
<path fill="none" stroke="midnightblue" d="M195.01,-218.76C217.36,-221.49 240.5,-224.31 260.71,-226.77"/>
<polygon fill="midnightblue" stroke="midnightblue" points="265.78,-227.39 260.54,-229.02 263.3,-227.09 260.82,-226.79 260.82,-226.79 260.82,-226.79 263.3,-227.09 261.09,-224.55 265.78,-227.39 265.78,-227.39"/>
</g>
<!-- Node9 -->
<g id="node9" class="node">
<title>Node9</title>
<g id="a_node9"><a xlink:href="group__PS.html#gae0de20d55f2eb979eb20dcef9abde9bd" target="_top" xlink:title=" ">
<text text-anchor="middle" x="321" y="-176.9" font-family="UbuntuXX" font-size="12.00">publisher_subscriber_demo</text>
</a>
</g>
</g>
<!-- Node1&#45;&gt;Node9 -->
<g id="edge8" class="edge">
<title>Node1&#45;&gt;Node9</title>
<path fill="none" stroke="midnightblue" d="M195.01,-195.24C205.23,-193.99 215.61,-192.72 225.8,-191.48"/>
<polygon fill="midnightblue" stroke="midnightblue" points="230.79,-190.87 226.1,-193.71 228.31,-191.18 225.83,-191.48 225.83,-191.48 225.83,-191.48 228.31,-191.18 225.55,-189.25 230.79,-190.87 230.79,-190.87"/>
</g>
<!-- Node11 -->
<g id="node11" class="node">
<title>Node11</title>
<g id="a_node11"><a xlink:href="structChain__of__responsibility.html#ac125b4b1aa689aa72daa30d0785a0c6e" target="_top" xlink:title=" ">
<text text-anchor="start" x="253" y="-129.4" font-family="UbuntuXX" font-size="12.00">Chain_of_responsibility</text>
<text text-anchor="middle" x="321" y="-116.4" font-family="UbuntuXX" font-size="12.00">::register_handler</text>
</a>
</g>
</g>
<!-- Node1&#45;&gt;Node11 -->
<g id="edge10" class="edge">
<title>Node1&#45;&gt;Node11</title>
<path fill="none" stroke="midnightblue" d="M139.89,-188.98C165.83,-177.97 200.1,-163.96 231,-153 238.05,-150.5 245.46,-148.02 252.87,-145.64"/>
<polygon fill="midnightblue" stroke="midnightblue" points="258,-144 253.92,-147.67 255.61,-144.76 253.23,-145.52 253.23,-145.52 253.23,-145.52 255.61,-144.76 252.55,-143.38 258,-144 258,-144"/>
</g>
<!-- Node12 -->
<g id="node12" class="node">
<title>Node12</title>
<g id="a_node12"><a xlink:href="group__visitor.html#ga11584cf836c2520c14cc5827ce453f8f" target="_top" xlink:title=" ">
<text text-anchor="middle" x="321" y="-68.9" font-family="UbuntuXX" font-size="12.00">visitor_demo</text>
</a>
</g>
</g>
<!-- Node1&#45;&gt;Node12 -->
<g id="edge11" class="edge">
<title>Node1&#45;&gt;Node12</title>
<path fill="none" stroke="midnightblue" d="M116.13,-188.74C140.07,-164.91 185.16,-123.41 231,-99 242.83,-92.7 256.34,-87.65 269.2,-83.7"/>
<polygon fill="midnightblue" stroke="midnightblue" points="274.28,-82.18 270.13,-85.77 271.89,-82.9 269.49,-83.61 269.49,-83.61 269.49,-83.61 271.89,-82.9 268.85,-81.46 274.28,-82.18 274.28,-82.18"/>
</g>
<!-- Node4 -->
<g id="node4" class="node">
<title>Node4</title>
<g id="a_node4"><a xlink:href="structMediator.html#abc7fd67c96301b2975f830550ab5713c" target="_top" xlink:title=" ">
<text text-anchor="start" x="487.5" y="-345.4" font-family="UbuntuXX" font-size="12.00">Mediator::register</text>
<text text-anchor="middle" x="540.5" y="-332.4" font-family="UbuntuXX" font-size="12.00">_member</text>
</a>
</g>
</g>
<!-- Node3&#45;&gt;Node4 -->
<g id="edge3" class="edge">
<title>Node3&#45;&gt;Node4</title>
<path fill="none" stroke="midnightblue" d="M377.17,-301.7C406.79,-309.05 443.49,-318.16 474.5,-325.86"/>
<polygon fill="midnightblue" stroke="midnightblue" points="479.42,-327.08 474.03,-328.06 477,-326.48 474.57,-325.88 474.57,-325.88 474.57,-325.88 477,-326.48 475.11,-323.7 479.42,-327.08 479.42,-327.08"/>
</g>
<!-- Node5 -->
<g id="node5" class="node">
<title>Node5</title>
<g id="a_node5"><a xlink:href="group__BP.html#ga0b04b5167d12021f4360b6a66a1b1125" target="_top" xlink:title=" ">
<text text-anchor="middle" x="540.5" y="-284.9" font-family="UbuntuXX" font-size="12.00">Member::send</text>
</a>
</g>
</g>
<!-- Node3&#45;&gt;Node5 -->
<g id="edge4" class="edge">
<title>Node3&#45;&gt;Node5</title>
<path fill="none" stroke="midnightblue" d="M377.17,-288C409.9,-288 451.27,-288 484.05,-288"/>
<polygon fill="midnightblue" stroke="midnightblue" points="489.23,-288 484.23,-290.25 486.73,-288 484.23,-288 484.23,-288 484.23,-288 486.73,-288 484.23,-285.75 489.23,-288 489.23,-288"/>
</g>
<!-- Node6 -->
<g id="node6" class="node">
<title>Node6</title>
<g id="a_node6"><a xlink:href="structMediator.html#aa4696f4276eb4646826fa2cd82392496" target="_top" xlink:title=" ">
<text text-anchor="middle" x="733.5" y="-284.9" font-family="UbuntuXX" font-size="12.00">Mediator::dispatch</text>
</a>
</g>
</g>
<!-- Node5&#45;&gt;Node6 -->
<g id="edge5" class="edge">
<title>Node5&#45;&gt;Node6</title>
<path fill="none" stroke="midnightblue" d="M591.68,-288C613.97,-288 640.55,-288 664.58,-288"/>
<polygon fill="midnightblue" stroke="midnightblue" points="669.66,-288 664.66,-290.25 667.16,-288 664.66,-288 664.66,-288 664.66,-288 667.16,-288 664.66,-285.75 669.66,-288 669.66,-288"/>
</g>
<!-- Node8 -->
<g id="node8" class="node">
<title>Node8</title>
<g id="a_node8"><a xlink:href="structSubject.html#a156c54b0ef570d0439f2347643192dc3" target="_top" xlink:title=" ">
<text text-anchor="middle" x="540.5" y="-230.9" font-family="UbuntuXX" font-size="12.00">Subject::notify_observers</text>
</a>
</g>
</g>
<!-- Node7&#45;&gt;Node8 -->
<g id="edge7" class="edge">
<title>Node7&#45;&gt;Node8</title>
<path fill="none" stroke="midnightblue" d="M376.04,-234C398.93,-234 426.18,-234 451.81,-234"/>
<polygon fill="midnightblue" stroke="midnightblue" points="456.91,-234 451.91,-236.25 454.41,-234 451.91,-234 451.91,-234 451.91,-234 454.41,-234 451.91,-231.75 456.91,-234 456.91,-234"/>
</g>
<!-- Node10 -->
<g id="node10" class="node">
<title>Node10</title>
<g id="a_node10"><a xlink:href="structPublisher.html#a9420436a866c0ec19ecf3381a894370f" target="_top" xlink:title=" ">
<text text-anchor="middle" x="540.5" y="-176.9" font-family="UbuntuXX" font-size="12.00">Publisher::publish</text>
</a>
</g>
</g>
<!-- Node9&#45;&gt;Node10 -->
<g id="edge9" class="edge">
<title>Node9&#45;&gt;Node10</title>
<path fill="none" stroke="midnightblue" d="M411.09,-180C432.72,-180 455.43,-180 475.62,-180"/>
<polygon fill="midnightblue" stroke="midnightblue" points="480.7,-180 475.7,-182.25 478.2,-180 475.7,-180 475.7,-180 475.7,-180 478.2,-180 475.7,-177.75 480.7,-180 480.7,-180"/>
</g>
<!-- Node13 -->
<g id="node13" class="node">
<title>Node13</title>
<g id="a_node13"><a xlink:href="group__visitor.html#ga6bf8321e7970a2c4c1f602b1fefb47e7" target="_top" xlink:title="knows only virtual visitor and component">
<text text-anchor="middle" x="540.5" y="-122.9" font-family="UbuntuXX" font-size="12.00">client_visit</text>
</a>
</g>
</g>
<!-- Node12&#45;&gt;Node13 -->
<g id="edge12" class="edge">
<title>Node12&#45;&gt;Node13</title>
<path fill="none" stroke="midnightblue" d="M367.6,-83.32C405.51,-92.73 459.08,-106.03 496.31,-115.28"/>
<polygon fill="midnightblue" stroke="midnightblue" points="501.22,-116.5 495.83,-117.48 498.8,-115.89 496.37,-115.29 496.37,-115.29 496.37,-115.29 498.8,-115.89 496.91,-113.11 501.22,-116.5 501.22,-116.5"/>
</g>
<!-- Node14 -->
<g id="node14" class="node">
<title>Node14</title>
<g id="a_node14"><a xlink:href="structSample__component.html#ad9d2146df037c428eff9b9b816a6aebe" target="_top" xlink:title="is not virtual">
<text text-anchor="start" x="455" y="-75.4" font-family="UbuntuXX" font-size="12.00">Sample_component::sample</text>
<text text-anchor="middle" x="540.5" y="-62.4" font-family="UbuntuXX" font-size="12.00">_component_method</text>
</a>
</g>
</g>
<!-- Node12&#45;&gt;Node14 -->
<g id="edge13" class="edge">
<title>Node12&#45;&gt;Node14</title>
<path fill="none" stroke="midnightblue" d="M367.6,-72C389.2,-72 415.89,-72 441.75,-72"/>
<polygon fill="midnightblue" stroke="midnightblue" points="446.91,-72 441.91,-74.25 444.41,-72 441.91,-72 441.91,-72 441.91,-72 444.41,-72 441.91,-69.75 446.91,-72 446.91,-72"/>
</g>
<!-- Node15 -->
<g id="node15" class="node">
<title>Node15</title>
<g id="a_node15"><a xlink:href="structVisitor.html#afe22ef50ffb60aa3d0291f55d0b7fc5e" target="_top" xlink:title="overloaded function for each component">
<text text-anchor="middle" x="540.5" y="-14.9" font-family="UbuntuXX" font-size="12.00">Visitor::visit</text>
</a>
</g>
</g>
<!-- Node12&#45;&gt;Node15 -->
<g id="edge14" class="edge">
<title>Node12&#45;&gt;Node15</title>
<path fill="none" stroke="midnightblue" d="M367.6,-60.68C404.55,-51.5 456.4,-38.63 493.47,-29.43"/>
<polygon fill="midnightblue" stroke="midnightblue" points="498.37,-28.21 494.06,-31.6 495.95,-28.81 493.52,-29.42 493.52,-29.42 493.52,-29.42 495.95,-28.81 492.98,-27.23 498.37,-28.21 498.37,-28.21"/>
</g>
</g>
</svg>
