<?xml version="1.0" encoding="UTF-8" standalone="no"?>
<!DOCTYPE svg PUBLIC "-//W3C//DTD SVG 1.1//EN"
 "http://www.w3.org/Graphics/SVG/1.1/DTD/svg11.dtd">
<!-- Generated by graphviz version 2.43.0 (0)
 -->
<!-- Title: a_ref Pages: 1 -->
<svg width="234pt" height="68pt"
 viewBox="0.00 0.00 234.00 68.00" xmlns="http://www.w3.org/2000/svg" xmlns:xlink="http://www.w3.org/1999/xlink">
<g id="graph0" class="graph" transform="scale(1 1) rotate(0) translate(4 64)">
<title>a_ref</title>
<!-- Node1 -->
<g id="node1" class="node">
<title>Node1</title>
<g id="a_node1"><a xlink:title="reference">
<polygon fill="#bfbfbf" stroke="transparent" points="226,-40 181,-40 181,-19 226,-19 226,-40"/>
<text text-anchor="start" x="189" y="-27.4" font-family="Helvetica,Arial,sans-serif" font-weight="bold" font-size="12.00">a_ref</text>
</a>
</g>
</g>
<!-- Node2 -->
<g id="node2" class="node">
<title>Node2</title>
<g id="a_node2"><a xlink:href="$group__lang03.html#ga1d825ed882a640849aca92a60411a85e" xlink:title=" ">
<text text-anchor="middle" x="112" y="-46.4" font-family="Helvetica,Arial,sans-serif" font-size="12.00">types_03</text>
</a>
</g>
</g>
<!-- Node1&#45;&gt;Node2 -->
<g id="edge1" class="edge">
<title>Node1&#45;&gt;Node2</title>
<path fill="none" stroke="midnightblue" d="M175.94,-35.43C166.33,-37.58 155.36,-40.03 145.31,-42.28"/>
<polygon fill="midnightblue" stroke="midnightblue" points="180.83,-34.34 176.45,-37.63 178.39,-34.89 175.95,-35.43 175.95,-35.43 175.95,-35.43 178.39,-34.89 175.46,-33.24 180.83,-34.34 180.83,-34.34"/>
</g>
<!-- Node4 -->
<g id="node4" class="node">
<title>Node4</title>
<g id="a_node4"><a xlink:href="$group__other14.html#gac02a1801a1d9a8ec9f3d1d81a8bd4fac" xlink:title=" ">
<text text-anchor="middle" x="112" y="-7.4" font-family="Helvetica,Arial,sans-serif" font-size="12.00">types_14</text>
</a>
</g>
</g>
<!-- Node1&#45;&gt;Node4 -->
<g id="edge3" class="edge">
<title>Node1&#45;&gt;Node4</title>
<path fill="none" stroke="midnightblue" d="M175.94,-23.86C166.33,-21.82 155.36,-19.49 145.31,-17.36"/>
<polygon fill="midnightblue" stroke="midnightblue" points="180.83,-24.9 175.48,-26.06 178.39,-24.38 175.94,-23.86 175.94,-23.86 175.94,-23.86 178.39,-24.38 176.41,-21.66 180.83,-24.9 180.83,-24.9"/>
</g>
<!-- Node3 -->
<g id="node3" class="node">
<title>Node3</title>
<g id="a_node3"><a xlink:href="$group__CPP03.html#ga840291bc02cba5474a4cb46a9b9566fe" xlink:title=" ">
<text text-anchor="middle" x="21.5" y="-46.4" font-family="Helvetica,Arial,sans-serif" font-size="12.00">main</text>
</a>
</g>
</g>
<!-- Node2&#45;&gt;Node3 -->
<g id="edge2" class="edge">
<title>Node2&#45;&gt;Node3</title>
<path fill="none" stroke="midnightblue" d="M73.73,-49.5C63.3,-49.5 52.34,-49.5 43.24,-49.5"/>
<polygon fill="midnightblue" stroke="midnightblue" points="78.8,-49.5 73.8,-51.75 76.3,-49.5 73.8,-49.5 73.8,-49.5 73.8,-49.5 76.3,-49.5 73.8,-47.25 78.8,-49.5 78.8,-49.5"/>
</g>
<!-- Node5 -->
<g id="node5" class="node">
<title>Node5</title>
<g id="a_node5"><a xlink:href="$group__CPP14.html#ga840291bc02cba5474a4cb46a9b9566fe" xlink:title=" ">
<text text-anchor="middle" x="21.5" y="-7.4" font-family="Helvetica,Arial,sans-serif" font-size="12.00">main</text>
</a>
</g>
</g>
<!-- Node4&#45;&gt;Node5 -->
<g id="edge4" class="edge">
<title>Node4&#45;&gt;Node5</title>
<path fill="none" stroke="midnightblue" d="M73.73,-10.5C63.3,-10.5 52.34,-10.5 43.24,-10.5"/>
<polygon fill="midnightblue" stroke="midnightblue" points="78.8,-10.5 73.8,-12.75 76.3,-10.5 73.8,-10.5 73.8,-10.5 73.8,-10.5 76.3,-10.5 73.8,-8.25 78.8,-10.5 78.8,-10.5"/>
</g>
</g>
</svg>
