<?xml version="1.0" encoding="UTF-8" standalone="no"?>
<!DOCTYPE svg PUBLIC "-//W3C//DTD SVG 1.1//EN"
 "http://www.w3.org/Graphics/SVG/1.1/DTD/svg11.dtd">
<!-- Generated by graphviz version 2.43.0 (0)
 -->
<!-- Title: synchronised_encapsulated_value Pages: 1 -->
<svg width="419pt" height="152pt"
 viewBox="0.00 0.00 419.00 152.00" xmlns="http://www.w3.org/2000/svg" xmlns:xlink="http://www.w3.org/1999/xlink">
<g id="graph0" class="graph" transform="scale(1 1) rotate(0) translate(4 148)">
<title>synchronised_encapsulated_value</title>
<!-- Node1 -->
<g id="node1" class="node">
<title>Node1</title>
<g id="a_node1"><a xlink:title=" ">
<text text-anchor="start" x="8" y="-69.9" font-family="Helvetica,Arial,sans-serif" font-weight="bold" font-size="12.00">synchronised_encapsulated_value</text>
</a>
</g>
</g>
<!-- Node2 -->
<g id="node2" class="node">
<title>Node2</title>
<g id="a_node2"><a xlink:href="structChange__interface.html#a71adc7f53712cb951427c71f7a3f25fe" target="_top" xlink:title=" ">
<text text-anchor="middle" x="332" y="-122.9" font-family="Helvetica,Arial,sans-serif" font-size="12.00">Change_interface::change</text>
</a>
</g>
</g>
<!-- Node1&#45;&gt;Node2 -->
<g id="edge1" class="edge">
<title>Node1&#45;&gt;Node2</title>
<path fill="none" stroke="midnightblue" d="M183.56,-90.06C205.55,-95.42 229.7,-101.3 251.98,-106.74"/>
<polygon fill="midnightblue" stroke="midnightblue" points="257.01,-107.96 251.61,-108.96 254.58,-107.37 252.15,-106.78 252.15,-106.78 252.15,-106.78 254.58,-107.37 252.68,-104.59 257.01,-107.96 257.01,-107.96"/>
</g>
<!-- Node3 -->
<g id="node3" class="node">
<title>Node3</title>
<g id="a_node3"><a xlink:href="structGetter__interface.html#a7f0e42eb2b4dfbd8b4d4e05e63c99bed" target="_top" xlink:title=" ">
<text text-anchor="middle" x="332" y="-68.9" font-family="Helvetica,Arial,sans-serif" font-size="12.00">Getter_interface::get</text>
</a>
</g>
</g>
<!-- Node1&#45;&gt;Node3 -->
<g id="edge2" class="edge">
<title>Node1&#45;&gt;Node3</title>
<path fill="none" stroke="midnightblue" d="M217.01,-72C233.15,-72 249.38,-72 264.33,-72"/>
<polygon fill="midnightblue" stroke="midnightblue" points="269.35,-72 264.35,-74.25 266.85,-72 264.35,-72 264.35,-72 264.35,-72 266.85,-72 264.35,-69.75 269.35,-72 269.35,-72"/>
</g>
<!-- Node4 -->
<g id="node4" class="node">
<title>Node4</title>
<g id="a_node4"><a xlink:href="structSetter__interface.html#af56ff578654b5d2fec5e3626da71673c" target="_top" xlink:title=" ">
<text text-anchor="middle" x="332" y="-14.9" font-family="Helvetica,Arial,sans-serif" font-size="12.00">Setter_interface::set</text>
</a>
</g>
</g>
<!-- Node1&#45;&gt;Node4 -->
<g id="edge3" class="edge">
<title>Node1&#45;&gt;Node4</title>
<path fill="none" stroke="midnightblue" d="M183.56,-53.94C209.86,-47.53 239.26,-40.37 264.85,-34.13"/>
<polygon fill="midnightblue" stroke="midnightblue" points="269.91,-32.89 265.59,-36.26 267.48,-33.48 265.06,-34.08 265.06,-34.08 265.06,-34.08 267.48,-33.48 264.52,-31.89 269.91,-32.89 269.91,-32.89"/>
</g>
</g>
</svg>
