<?xml version="1.0" encoding="UTF-8" standalone="no"?>
<!DOCTYPE svg PUBLIC "-//W3C//DTD SVG 1.1//EN"
 "http://www.w3.org/Graphics/SVG/1.1/DTD/svg11.dtd">
<!-- Generated by graphviz version 2.43.0 (0)
 -->
<!-- Title: foo Pages: 1 -->
<svg width="238pt" height="34pt"
 viewBox="0.00 0.00 238.00 34.00" xmlns="http://www.w3.org/2000/svg" xmlns:xlink="http://www.w3.org/1999/xlink">
<g id="graph0" class="graph" transform="scale(1 1) rotate(0) translate(4 30)">
<title>foo</title>
<!-- Node1 -->
<g id="node1" class="node">
<title>Node1</title>
<g id="a_node1"><a xlink:title=" ">
<polygon fill="#bfbfbf" stroke="black" points="190,-0.5 190,-25.5 230,-25.5 230,-0.5 190,-0.5"/>
<text text-anchor="middle" x="210" y="-9.5" font-family="Helvetica,sans-Serif" font-size="15.00">foo</text>
</a>
</g>
</g>
<!-- Node2 -->
<g id="node2" class="node">
<title>Node2</title>
<g id="a_node2"><a xlink:href="group__lang11.html#ga0e663f52efbc8593793d628b4259ce9b" target="_top" xlink:title=" ">
<polygon fill="none" stroke="black" points="90,-0.5 90,-25.5 154,-25.5 154,-0.5 90,-0.5"/>
<text text-anchor="middle" x="122" y="-9.5" font-family="Helvetica,sans-Serif" font-size="15.00">main2</text>
</a>
</g>
</g>
<!-- Node1&#45;&gt;Node2 -->
<g id="edge1" class="edge">
<title>Node1&#45;&gt;Node2</title>
<path fill="none" stroke="midnightblue" d="M179.67,-13C171.46,-13 162.51,-13 154.19,-13"/>
<polygon fill="midnightblue" stroke="midnightblue" points="179.91,-16.5 189.91,-13 179.91,-9.5 179.91,-16.5"/>
</g>
<!-- Node3 -->
<g id="node3" class="node">
<title>Node3</title>
<g id="a_node3"><a xlink:href="group__CPP11.html#ga840291bc02cba5474a4cb46a9b9566fe" target="_top" xlink:title=" ">
<polygon fill="none" stroke="black" points="0,-0.5 0,-25.5 54,-25.5 54,-0.5 0,-0.5"/>
<text text-anchor="middle" x="27" y="-9.5" font-family="Helvetica,sans-Serif" font-size="15.00">main</text>
</a>
</g>
</g>
<!-- Node2&#45;&gt;Node3 -->
<g id="edge2" class="edge">
<title>Node2&#45;&gt;Node3</title>
<path fill="none" stroke="midnightblue" d="M79.71,-13C70.98,-13 62.01,-13 54.03,-13"/>
<polygon fill="midnightblue" stroke="midnightblue" points="79.77,-16.5 89.77,-13 79.77,-9.5 79.77,-16.5"/>
</g>
</g>
</svg>
