<?xml version="1.0" encoding="UTF-8" standalone="no"?>
<!DOCTYPE svg PUBLIC "-//W3C//DTD SVG 1.1//EN"
 "http://www.w3.org/Graphics/SVG/1.1/DTD/svg11.dtd">
<!-- Generated by graphviz version 2.43.0 (0)
 -->
<!-- Title: return_type_deduction_demo Pages: 1 -->
<svg width="372pt" height="68pt"
 viewBox="0.00 0.00 372.00 68.00" xmlns="http://www.w3.org/2000/svg" xmlns:xlink="http://www.w3.org/1999/xlink">
<g id="graph0" class="graph" transform="scale(1 1) rotate(0) translate(4 64)">
<title>return_type_deduction_demo</title>
<!-- Node1 -->
<g id="node1" class="node">
<title>Node1</title>
<g id="a_node1"><a xlink:title=" ">
<polygon fill="#bfbfbf" stroke="transparent" points="187,-40 0,-40 0,-19 187,-19 187,-40"/>
<text text-anchor="start" x="8" y="-27.4" font-family="Helvetica,Arial,sans-serif" font-weight="bold" font-size="12.00">return_type_deduction_demo</text>
</a>
</g>
</g>
<!-- Node2 -->
<g id="node2" class="node">
<title>Node2</title>
<g id="a_node2"><a xlink:href="$group__ded14.html#ga128fc82d5af06d52f686f2a3321db66f" xlink:title=" ">
<text text-anchor="middle" x="293.5" y="-46.4" font-family="Helvetica,Arial,sans-serif" font-size="12.00">deduced_return_type</text>
</a>
</g>
</g>
<!-- Node1&#45;&gt;Node2 -->
<g id="edge1" class="edge">
<title>Node1&#45;&gt;Node2</title>
<path fill="none" stroke="midnightblue" d="M187.12,-38.86C199.08,-40.06 211.16,-41.28 222.67,-42.45"/>
<polygon fill="midnightblue" stroke="midnightblue" points="227.91,-42.98 222.71,-44.71 225.42,-42.72 222.94,-42.47 222.94,-42.47 222.94,-42.47 225.42,-42.72 223.16,-40.23 227.91,-42.98 227.91,-42.98"/>
</g>
<!-- Node3 -->
<g id="node3" class="node">
<title>Node3</title>
<g id="a_node3"><a xlink:href="$group__ded14.html#ga67b4fbaf10174d06711192e9a44942ba" xlink:title=" ">
<text text-anchor="middle" x="293.5" y="-7.4" font-family="Helvetica,Arial,sans-serif" font-size="12.00">implicit_int_return_type</text>
</a>
</g>
</g>
<!-- Node1&#45;&gt;Node3 -->
<g id="edge2" class="edge">
<title>Node1&#45;&gt;Node3</title>
<path fill="none" stroke="midnightblue" d="M187.12,-20.61C197.32,-19.63 207.61,-18.65 217.56,-17.69"/>
<polygon fill="midnightblue" stroke="midnightblue" points="222.72,-17.2 217.96,-19.91 220.24,-17.43 217.75,-17.67 217.75,-17.67 217.75,-17.67 220.24,-17.43 217.53,-15.43 222.72,-17.2 222.72,-17.2"/>
</g>
</g>
</svg>
