<?xml version="1.0" encoding="UTF-8" standalone="no"?>
<!DOCTYPE svg PUBLIC "-//W3C//DTD SVG 1.1//EN"
 "http://www.w3.org/Graphics/SVG/1.1/DTD/svg11.dtd">
<!-- Generated by graphviz version 2.43.0 (0)
 -->
<!-- Title: client_visit Pages: 1 -->
<svg width="492pt" height="44pt"
 viewBox="0.00 0.00 492.00 44.00" xmlns="http://www.w3.org/2000/svg" xmlns:xlink="http://www.w3.org/1999/xlink">
<g id="graph0" class="graph" transform="scale(1 1) rotate(0) translate(4 40)">
<title>client_visit</title>
<!-- Node1 -->
<g id="node1" class="node">
<title>Node1</title>
<g id="a_node1"><a xlink:title="knows only virtual visitor and component">
<text text-anchor="start" x="415" y="-15.9" font-family="Helvetica,Arial,sans-serif" font-weight="bold" font-size="12.00">client_visit</text>
</a>
</g>
</g>
<!-- Node2 -->
<g id="node2" class="node">
<title>Node2</title>
<g id="a_node2"><a xlink:href="group__visitor.html#ga11584cf836c2520c14cc5827ce453f8f" target="_top" xlink:title=" ">
<text text-anchor="middle" x="328.5" y="-14.9" font-family="Helvetica,Arial,sans-serif" font-size="12.00">visitor_demo</text>
</a>
</g>
</g>
<!-- Node1&#45;&gt;Node2 -->
<g id="edge1" class="edge">
<title>Node1&#45;&gt;Node2</title>
<path fill="none" stroke="midnightblue" d="M401.7,-18C391.73,-18 381.13,-18 371.22,-18"/>
<polygon fill="midnightblue" stroke="midnightblue" points="406.84,-18 401.84,-20.25 404.34,-18 401.84,-18 401.84,-18 401.84,-18 404.34,-18 401.84,-15.75 406.84,-18 406.84,-18"/>
</g>
<!-- Node3 -->
<g id="node3" class="node">
<title>Node3</title>
<g id="a_node3"><a xlink:href="group__BP.html#ga608cf93d9bef165bc7e5690ac3b46a03" target="_top" xlink:title=" ">
<text text-anchor="middle" x="170" y="-14.9" font-family="Helvetica,Arial,sans-serif" font-size="12.00">behavioral_patterns_demo</text>
</a>
</g>
</g>
<!-- Node2&#45;&gt;Node3 -->
<g id="edge2" class="edge">
<title>Node2&#45;&gt;Node3</title>
<path fill="none" stroke="midnightblue" d="M280.71,-18C271.08,-18 260.68,-18 250.27,-18"/>
<polygon fill="midnightblue" stroke="midnightblue" points="285.97,-18 280.97,-20.25 283.47,-18 280.97,-18 280.97,-18 280.97,-18 283.47,-18 280.97,-15.75 285.97,-18 285.97,-18"/>
</g>
<!-- Node4 -->
<g id="node4" class="node">
<title>Node4</title>
<g id="a_node4"><a xlink:href="group__DP.html#gae66f6b31b5ad750f1fe042a706a4e3d4" target="_top" xlink:title=" ">
<text text-anchor="middle" x="27" y="-14.9" font-family="Helvetica,Arial,sans-serif" font-size="12.00">main</text>
</a>
</g>
</g>
<!-- Node3&#45;&gt;Node4 -->
<g id="edge3" class="edge">
<title>Node3&#45;&gt;Node4</title>
<path fill="none" stroke="midnightblue" d="M84.72,-18C73.62,-18 63,-18 54.01,-18"/>
<polygon fill="midnightblue" stroke="midnightblue" points="89.84,-18 84.84,-20.25 87.34,-18 84.84,-18 84.84,-18 84.84,-18 87.34,-18 84.84,-15.75 89.84,-18 89.84,-18"/>
</g>
</g>
</svg>
