<?xml version="1.0" encoding="UTF-8" standalone="no"?>
<!DOCTYPE svg PUBLIC "-//W3C//DTD SVG 1.1//EN"
 "http://www.w3.org/Graphics/SVG/1.1/DTD/svg11.dtd">
<!-- Generated by graphviz version 2.43.0 (0)
 -->
<!-- Title: C++20 examples Pages: 1 -->
<svg width="412pt" height="68pt"
 viewBox="0.00 0.00 412.00 68.00" xmlns="http://www.w3.org/2000/svg" xmlns:xlink="http://www.w3.org/1999/xlink">
<g id="graph0" class="graph" transform="scale(1 1) rotate(0) translate(4 64)">
<title>C++20 examples</title>
<!-- Node2 -->
<g id="node1" class="node">
<title>Node2</title>
<g id="a_node1"><a xlink:href="$group__CPP.html" xlink:title="from recent to oldest">
<text text-anchor="middle" x="75.5" y="-26.4" font-family="Helvetica,Arial,sans-serif" font-size="12.00">C++ examples by version</text>
</a>
</g>
</g>
<!-- Node1 -->
<g id="node2" class="node">
<title>Node1</title>
<g id="a_node2"><a xlink:title=" ">
<polygon fill="#bfbfbf" stroke="transparent" points="297,-40 187,-40 187,-19 297,-19 297,-40"/>
<text text-anchor="start" x="195" y="-27.4" font-family="Helvetica,Arial,sans-serif" font-weight="bold" font-size="12.00">C++20 examples</text>
</a>
</g>
</g>
<!-- Node2&#45;&gt;Node1 -->
<g id="edge1" class="edge">
<title>Node2&#45;&gt;Node1</title>
<path fill="none" stroke="black" d="M156.15,-29.5C166.56,-29.5 177.03,-29.5 186.88,-29.5"/>
<polygon fill="black" stroke="black" points="151.05,-29.5 156.05,-27.25 153.55,-29.5 156.05,-29.5 156.05,-29.5 156.05,-29.5 153.55,-29.5 156.05,-31.75 151.05,-29.5 151.05,-29.5"/>
</g>
<!-- Node3 -->
<g id="node3" class="node">
<title>Node3</title>
<g id="a_node3"><a xlink:href="$group__lang20.html" xlink:title=" ">
<text text-anchor="middle" x="368.5" y="-46.4" font-family="Helvetica,Arial,sans-serif" font-size="12.00">Language</text>
</a>
</g>
</g>
<!-- Node1&#45;&gt;Node3 -->
<g id="edge2" class="edge">
<title>Node1&#45;&gt;Node3</title>
<path fill="none" stroke="black" d="M302.35,-39.03C312.78,-40.71 323.32,-42.4 332.79,-43.92"/>
<polygon fill="black" stroke="black" points="297.25,-38.21 302.54,-36.79 299.71,-38.61 302.18,-39.01 302.18,-39.01 302.18,-39.01 299.71,-38.61 301.83,-41.23 297.25,-38.21 297.25,-38.21"/>
</g>
<!-- Node4 -->
<g id="node4" class="node">
<title>Node4</title>
<g id="a_node4"><a xlink:href="$group__templ20.html" xlink:title=" ">
<text text-anchor="middle" x="368.5" y="-7.4" font-family="Helvetica,Arial,sans-serif" font-size="12.00">Templates</text>
</a>
</g>
</g>
<!-- Node1&#45;&gt;Node4 -->
<g id="edge3" class="edge">
<title>Node1&#45;&gt;Node4</title>
<path fill="none" stroke="black" d="M302.35,-20.44C312.78,-18.85 323.32,-17.24 332.79,-15.8"/>
<polygon fill="black" stroke="black" points="297.25,-21.22 301.85,-18.24 299.72,-20.84 302.19,-20.47 302.19,-20.47 302.19,-20.47 299.72,-20.84 302.53,-22.69 297.25,-21.22 297.25,-21.22"/>
</g>
</g>
</svg>
