<?xml version="1.0" encoding="UTF-8" standalone="no"?>
<!DOCTYPE svg PUBLIC "-//W3C//DTD SVG 1.1//EN"
 "http://www.w3.org/Graphics/SVG/1.1/DTD/svg11.dtd">
<!-- Generated by graphviz version 2.43.0 (0)
 -->
<!-- Title: concurrency_patterns_demo Pages: 1 -->
<svg width="576pt" height="98pt"
 viewBox="0.00 0.00 576.00 98.00" xmlns="http://www.w3.org/2000/svg" xmlns:xlink="http://www.w3.org/1999/xlink">
<g id="graph0" class="graph" transform="scale(1 1) rotate(0) translate(4 94)">
<title>concurrency_patterns_demo</title>
<!-- Node1 -->
<g id="node1" class="node">
<title>Node1</title>
<g id="a_node1"><a xlink:title=" ">
<text text-anchor="start" x="8" y="-42.9" font-family="UbuntuXX" font-weight="bold" font-size="12.00">concurrency_patterns_demo</text>
</a>
</g>
</g>
<!-- Node2 -->
<g id="node2" class="node">
<title>Node2</title>
<g id="a_node2"><a xlink:href="structActive__object.html#ac125fd7860055c3a289b68ae39488714" target="_top" xlink:title=" ">
<text text-anchor="middle" x="317" y="-41.9" font-family="UbuntuXX" font-size="12.00">Active_object::method</text>
</a>
</g>
</g>
<!-- Node1&#45;&gt;Node2 -->
<g id="edge1" class="edge">
<title>Node1&#45;&gt;Node2</title>
<path fill="none" stroke="midnightblue" d="M206.27,-45C216.46,-45 226.7,-45 236.6,-45"/>
<polygon fill="midnightblue" stroke="midnightblue" points="241.75,-45 236.75,-47.25 239.25,-45 236.75,-45 236.75,-45 236.75,-45 239.25,-45 236.75,-42.75 241.75,-45 241.75,-45"/>
</g>
<!-- Node3 -->
<g id="node3" class="node">
<title>Node3</title>
<g id="a_node3"><a xlink:href="structInterface.html#a73306300ba88073a31d86d9e282ff5ca" target="_top" xlink:title=" ">
<text text-anchor="middle" x="498" y="-68.9" font-family="UbuntuXX" font-size="12.00">Interface::method</text>
</a>
</g>
</g>
<!-- Node2&#45;&gt;Node3 -->
<g id="edge2" class="edge">
<title>Node2&#45;&gt;Node3</title>
<path fill="none" stroke="midnightblue" d="M392.1,-56.18C404.83,-58.1 418,-60.08 430.52,-61.97"/>
<polygon fill="midnightblue" stroke="midnightblue" points="435.47,-62.72 430.19,-64.2 433,-62.35 430.53,-61.97 430.53,-61.97 430.53,-61.97 433,-62.35 430.86,-59.75 435.47,-62.72 435.47,-62.72"/>
</g>
<!-- Node4 -->
<g id="node4" class="node">
<title>Node4</title>
<g id="a_node4"><a xlink:href="classSynchronized__queue.html#a3e165aa3522a31aa3845a8a7833678b1" target="_top" xlink:title=" ">
<text text-anchor="start" x="436" y="-21.4" font-family="UbuntuXX" font-size="12.00">Synchronized_queue</text>
<text text-anchor="middle" x="498" y="-8.4" font-family="UbuntuXX" font-size="12.00">::push</text>
</a>
</g>
</g>
<!-- Node2&#45;&gt;Node4 -->
<g id="edge3" class="edge">
<title>Node2&#45;&gt;Node4</title>
<path fill="none" stroke="midnightblue" d="M392.1,-33.82C402.26,-32.29 412.7,-30.71 422.87,-29.18"/>
<polygon fill="midnightblue" stroke="midnightblue" points="427.84,-28.43 423.23,-31.4 425.37,-28.81 422.89,-29.18 422.89,-29.18 422.89,-29.18 425.37,-28.81 422.56,-26.95 427.84,-28.43 427.84,-28.43"/>
</g>
</g>
</svg>
