<?xml version="1.0" encoding="UTF-8" standalone="no"?>
<!DOCTYPE svg PUBLIC "-//W3C//DTD SVG 1.1//EN"
 "http://www.w3.org/Graphics/SVG/1.1/DTD/svg11.dtd">
<!-- Generated by graphviz version 2.43.0 (0)
 -->
<!-- Title: folding_demo Pages: 1 -->
<svg width="221pt" height="68pt"
 viewBox="0.00 0.00 221.00 68.00" xmlns="http://www.w3.org/2000/svg" xmlns:xlink="http://www.w3.org/1999/xlink">
<g id="graph0" class="graph" transform="scale(1 1) rotate(0) translate(4 64)">
<title>folding_demo</title>
<!-- Node1 -->
<g id="node1" class="node">
<title>Node1</title>
<g id="a_node1"><a xlink:title=" ">
<polygon fill="#bfbfbf" stroke="transparent" points="95,-40 0,-40 0,-19 95,-19 95,-40"/>
<text text-anchor="start" x="8" y="-27.4" font-family="Helvetica,Arial,sans-serif" font-weight="bold" font-size="12.00">folding_demo</text>
</a>
</g>
</g>
<!-- Node2 -->
<g id="node2" class="node">
<title>Node2</title>
<g id="a_node2"><a xlink:href="$group__folding.html#ga8bac0f4d13844b654a90512a2fed713c" xlink:title=" ">
<text text-anchor="middle" x="172" y="-46.4" font-family="Helvetica,Arial,sans-serif" font-size="12.00">folding_and</text>
</a>
</g>
</g>
<!-- Node1&#45;&gt;Node2 -->
<g id="edge1" class="edge">
<title>Node1&#45;&gt;Node2</title>
<path fill="none" stroke="midnightblue" d="M95.16,-37.12C105.5,-38.81 116.44,-40.59 126.68,-42.26"/>
<polygon fill="midnightblue" stroke="midnightblue" points="131.65,-43.08 126.35,-44.49 129.18,-42.67 126.72,-42.27 126.72,-42.27 126.72,-42.27 129.18,-42.67 127.08,-40.05 131.65,-43.08 131.65,-43.08"/>
</g>
<!-- Node3 -->
<g id="node3" class="node">
<title>Node3</title>
<g id="a_node3"><a xlink:href="$group__folding.html#ga9b51138a3ead047d2bd4c2076d494687" xlink:title=" ">
<text text-anchor="middle" x="172" y="-7.4" font-family="Helvetica,Arial,sans-serif" font-size="12.00">folding_sum</text>
</a>
</g>
</g>
<!-- Node1&#45;&gt;Node3 -->
<g id="edge2" class="edge">
<title>Node1&#45;&gt;Node3</title>
<path fill="none" stroke="midnightblue" d="M95.16,-22.26C105.18,-20.71 115.75,-19.07 125.72,-17.52"/>
<polygon fill="midnightblue" stroke="midnightblue" points="130.87,-16.72 126.27,-19.71 128.4,-17.11 125.93,-17.49 125.93,-17.49 125.93,-17.49 128.4,-17.11 125.58,-15.27 130.87,-16.72 130.87,-16.72"/>
</g>
</g>
</svg>
