<?xml version="1.0" encoding="UTF-8" standalone="no"?>
<!DOCTYPE svg PUBLIC "-//W3C//DTD SVG 1.1//EN"
 "http://www.w3.org/Graphics/SVG/1.1/DTD/svg11.dtd">
<!-- Generated by graphviz version 2.43.0 (0)
 -->
<!-- Title: C++17 examples Pages: 1 -->
<svg width="412pt" height="224pt"
 viewBox="0.00 0.00 412.00 224.00" xmlns="http://www.w3.org/2000/svg" xmlns:xlink="http://www.w3.org/1999/xlink">
<g id="graph0" class="graph" transform="scale(1 1) rotate(0) translate(4 220)">
<title>C++17 examples</title>
<!-- Node2 -->
<g id="node1" class="node">
<title>Node2</title>
<g id="a_node1"><a xlink:href="$group__CPP.html" xlink:title="from recent to oldest">
<text text-anchor="middle" x="75.5" y="-104.4" font-family="Helvetica,Arial,sans-serif" font-size="12.00">C++ examples by version</text>
</a>
</g>
</g>
<!-- Node1 -->
<g id="node2" class="node">
<title>Node1</title>
<g id="a_node2"><a xlink:title=" ">
<polygon fill="#bfbfbf" stroke="transparent" points="297,-118 187,-118 187,-97 297,-97 297,-118"/>
<text text-anchor="start" x="195" y="-105.4" font-family="Helvetica,Arial,sans-serif" font-weight="bold" font-size="12.00">C++17 examples</text>
</a>
</g>
</g>
<!-- Node2&#45;&gt;Node1 -->
<g id="edge1" class="edge">
<title>Node2&#45;&gt;Node1</title>
<path fill="none" stroke="black" d="M156.15,-107.5C166.56,-107.5 177.03,-107.5 186.88,-107.5"/>
<polygon fill="black" stroke="black" points="151.05,-107.5 156.05,-105.25 153.55,-107.5 156.05,-107.5 156.05,-107.5 156.05,-107.5 153.55,-107.5 156.05,-109.75 151.05,-107.5 151.05,-107.5"/>
</g>
<!-- Node4 -->
<g id="node3" class="node">
<title>Node4</title>
<g id="a_node3"><a xlink:href="$group__lambda17.html" xlink:title=" ">
<text text-anchor="middle" x="368.5" y="-202.4" font-family="Helvetica,Arial,sans-serif" font-size="12.00">Lambda</text>
</a>
</g>
</g>
<!-- Node1&#45;&gt;Node4 -->
<g id="edge3" class="edge">
<title>Node1&#45;&gt;Node4</title>
<path fill="none" stroke="black" d="M257.09,-121.62C274.16,-138.29 304.2,-166.29 333,-186.5 337.25,-189.49 342.02,-192.37 346.63,-194.96"/>
<polygon fill="black" stroke="black" points="253.45,-118.04 258.59,-119.94 255.23,-119.79 257.02,-121.54 257.02,-121.54 257.02,-121.54 255.23,-119.79 255.44,-123.15 253.45,-118.04 253.45,-118.04"/>
</g>
<!-- Node6 -->
<g id="node4" class="node">
<title>Node6</title>
<g id="a_node4"><a xlink:href="$group__lang17.html" xlink:title="language">
<text text-anchor="middle" x="368.5" y="-163.4" font-family="Helvetica,Arial,sans-serif" font-size="12.00">Language</text>
</a>
</g>
</g>
<!-- Node1&#45;&gt;Node6 -->
<g id="edge5" class="edge">
<title>Node1&#45;&gt;Node6</title>
<path fill="none" stroke="black" d="M269.9,-120.25C292.33,-130.88 323.91,-145.84 345.01,-155.84"/>
<polygon fill="black" stroke="black" points="265.26,-118.05 270.74,-118.16 267.52,-119.12 269.78,-120.19 269.78,-120.19 269.78,-120.19 267.52,-119.12 268.81,-122.22 265.26,-118.05 265.26,-118.05"/>
</g>
<!-- Node7 -->
<g id="node5" class="node">
<title>Node7</title>
<g id="a_node5"><a xlink:href="$group__lib17.html" xlink:title=" ">
<text text-anchor="middle" x="368.5" y="-124.4" font-family="Helvetica,Arial,sans-serif" font-size="12.00">Library</text>
</a>
</g>
</g>
<!-- Node1&#45;&gt;Node7 -->
<g id="edge6" class="edge">
<title>Node1&#45;&gt;Node7</title>
<path fill="none" stroke="black" d="M302.3,-117.03C316.04,-119.23 329.98,-121.47 341.42,-123.31"/>
<polygon fill="black" stroke="black" points="297.25,-116.21 302.54,-114.79 299.71,-116.61 302.18,-117.01 302.18,-117.01 302.18,-117.01 299.71,-116.61 301.83,-119.23 297.25,-116.21 297.25,-116.21"/>
</g>
<!-- Node8 -->
<g id="node6" class="node">
<title>Node8</title>
<g id="a_node6"><a xlink:href="$group__other17.html" xlink:title=" ">
<text text-anchor="middle" x="368.5" y="-85.4" font-family="Helvetica,Arial,sans-serif" font-size="12.00">Other</text>
</a>
</g>
</g>
<!-- Node1&#45;&gt;Node8 -->
<g id="edge7" class="edge">
<title>Node1&#45;&gt;Node8</title>
<path fill="none" stroke="black" d="M302.42,-98.43C317.7,-96.1 333.22,-93.73 345.27,-91.89"/>
<polygon fill="black" stroke="black" points="297.25,-99.22 301.85,-96.24 299.72,-98.84 302.19,-98.47 302.19,-98.47 302.19,-98.47 299.72,-98.84 302.53,-100.69 297.25,-99.22 297.25,-99.22"/>
</g>
<!-- Node3 -->
<g id="node7" class="node">
<title>Node3</title>
<g id="a_node7"><a xlink:href="$group__templ17.html" xlink:title=" ">
<text text-anchor="middle" x="368.5" y="-46.4" font-family="Helvetica,Arial,sans-serif" font-size="12.00">Template</text>
</a>
</g>
</g>
<!-- Node1&#45;&gt;Node3 -->
<g id="edge2" class="edge">
<title>Node1&#45;&gt;Node3</title>
<path fill="none" stroke="black" d="M270.16,-94.85C292.46,-84.46 323.68,-69.91 344.7,-60.12"/>
<polygon fill="black" stroke="black" points="265.55,-97 269.13,-92.85 267.81,-95.94 270.08,-94.89 270.08,-94.89 270.08,-94.89 267.81,-95.94 271.03,-96.92 265.55,-97 265.55,-97"/>
</g>
<!-- Node5 -->
<g id="node8" class="node">
<title>Node5</title>
<g id="a_node8"><a xlink:href="$group__threads17.html" xlink:title=" ">
<text text-anchor="middle" x="368.5" y="-7.4" font-family="Helvetica,Arial,sans-serif" font-size="12.00">Threads</text>
</a>
</g>
</g>
<!-- Node1&#45;&gt;Node5 -->
<g id="edge4" class="edge">
<title>Node1&#45;&gt;Node5</title>
<path fill="none" stroke="black" d="M257.8,-93.35C275.1,-77.18 304.92,-50.4 333,-30.5 337.63,-27.22 342.84,-23.99 347.77,-21.11"/>
<polygon fill="black" stroke="black" points="254.1,-96.83 256.21,-91.77 255.92,-95.12 257.75,-93.41 257.75,-93.41 257.75,-93.41 255.92,-95.12 259.29,-95.05 254.1,-96.83 254.1,-96.83"/>
</g>
</g>
</svg>
