<?xml version="1.0" encoding="UTF-8" standalone="no"?>
<!DOCTYPE svg PUBLIC "-//W3C//DTD SVG 1.1//EN"
 "http://www.w3.org/Graphics/SVG/1.1/DTD/svg11.dtd">
<!-- Generated by graphviz version 2.43.0 (0)
 -->
<!-- Title: C++14 examples Pages: 1 -->
<svg width="412pt" height="107pt"
 viewBox="0.00 0.00 412.00 107.00" xmlns="http://www.w3.org/2000/svg" xmlns:xlink="http://www.w3.org/1999/xlink">
<g id="graph0" class="graph" transform="scale(1 1) rotate(0) translate(4 103)">
<title>C++14 examples</title>
<!-- Node2 -->
<g id="node1" class="node">
<title>Node2</title>
<g id="a_node1"><a xlink:href="$group__CPP.html" xlink:title="from recent to oldest">
<text text-anchor="middle" x="75.5" y="-46.4" font-family="Helvetica,Arial,sans-serif" font-size="12.00">C++ examples by version</text>
</a>
</g>
</g>
<!-- Node1 -->
<g id="node2" class="node">
<title>Node1</title>
<g id="a_node2"><a xlink:title=" ">
<polygon fill="#bfbfbf" stroke="transparent" points="297,-60 187,-60 187,-39 297,-39 297,-60"/>
<text text-anchor="start" x="195" y="-47.4" font-family="Helvetica,Arial,sans-serif" font-weight="bold" font-size="12.00">C++14 examples</text>
</a>
</g>
</g>
<!-- Node2&#45;&gt;Node1 -->
<g id="edge1" class="edge">
<title>Node2&#45;&gt;Node1</title>
<path fill="none" stroke="black" d="M156.15,-49.5C166.56,-49.5 177.03,-49.5 186.88,-49.5"/>
<polygon fill="black" stroke="black" points="151.05,-49.5 156.05,-47.25 153.55,-49.5 156.05,-49.5 156.05,-49.5 156.05,-49.5 153.55,-49.5 156.05,-51.75 151.05,-49.5 151.05,-49.5"/>
</g>
<!-- Node3 -->
<g id="node3" class="node">
<title>Node3</title>
<g id="a_node3"><a xlink:href="$group__ded14.html" xlink:title=" ">
<text text-anchor="middle" x="368.5" y="-85.4" font-family="Helvetica,Arial,sans-serif" font-size="12.00">Deduction</text>
</a>
</g>
</g>
<!-- Node1&#45;&gt;Node3 -->
<g id="edge2" class="edge">
<title>Node1&#45;&gt;Node3</title>
<path fill="none" stroke="black" d="M281.77,-61.65C298.43,-66.86 317.72,-72.91 333.78,-77.94"/>
<polygon fill="black" stroke="black" points="276.69,-60.05 282.14,-59.4 279.08,-60.8 281.46,-61.55 281.46,-61.55 281.46,-61.55 279.08,-60.8 280.79,-63.7 276.69,-60.05 276.69,-60.05"/>
</g>
<!-- Node5 -->
<g id="node4" class="node">
<title>Node5</title>
<g id="a_node4"><a xlink:href="$group__lambda14.html" xlink:title=" ">
<text text-anchor="middle" x="368.5" y="-46.4" font-family="Helvetica,Arial,sans-serif" font-size="12.00">Lambda</text>
</a>
</g>
</g>
<!-- Node1&#45;&gt;Node5 -->
<g id="edge4" class="edge">
<title>Node1&#45;&gt;Node5</title>
<path fill="none" stroke="black" d="M302.57,-49.5C315.04,-49.5 327.65,-49.5 338.4,-49.5"/>
<polygon fill="black" stroke="black" points="297.25,-49.5 302.25,-47.25 299.75,-49.5 302.25,-49.5 302.25,-49.5 302.25,-49.5 299.75,-49.5 302.25,-51.75 297.25,-49.5 297.25,-49.5"/>
</g>
<!-- Node4 -->
<g id="node5" class="node">
<title>Node4</title>
<g id="a_node5"><a xlink:href="$group__other14.html" xlink:title=" ">
<text text-anchor="middle" x="368.5" y="-7.4" font-family="Helvetica,Arial,sans-serif" font-size="12.00">Other</text>
</a>
</g>
</g>
<!-- Node1&#45;&gt;Node4 -->
<g id="edge3" class="edge">
<title>Node1&#45;&gt;Node4</title>
<path fill="none" stroke="black" d="M281.63,-37.4C302.5,-30.86 327.54,-23.02 345.18,-17.49"/>
<polygon fill="black" stroke="black" points="276.69,-38.95 280.79,-35.3 279.08,-38.2 281.46,-37.45 281.46,-37.45 281.46,-37.45 279.08,-38.2 282.14,-39.6 276.69,-38.95 276.69,-38.95"/>
</g>
</g>
</svg>
