<?xml version="1.0" encoding="UTF-8" standalone="no"?>
<!DOCTYPE svg PUBLIC "-//W3C//DTD SVG 1.1//EN"
 "http://www.w3.org/Graphics/SVG/1.1/DTD/svg11.dtd">
<!-- Generated by graphviz version 2.43.0 (0)
 -->
<!-- Title: references_11 Pages: 1 -->
<svg width="369pt" height="48pt"
 viewBox="0.00 0.00 369.00 48.00" xmlns="http://www.w3.org/2000/svg" xmlns:xlink="http://www.w3.org/1999/xlink">
<g id="graph0" class="graph" transform="scale(1 1) rotate(0) translate(4 44)">
<title>references_11</title>
<!-- Node1 -->
<g id="node1" class="node">
<title>Node1</title>
<g id="a_node1"><a xlink:title=" ">
<polygon fill="#bfbfbf" stroke="transparent" points="98,-40 0,-40 0,-19 98,-19 98,-40"/>
<text text-anchor="start" x="8" y="-27.4" font-family="Helvetica,Arial,sans-serif" font-weight="bold" font-size="12.00">references_11</text>
</a>
</g>
</g>
<!-- Node2 -->
<g id="node2" class="node">
<title>Node2</title>
<g id="a_node2"><a xlink:href="$group__lang11.html#ga9592a69bceb833f1011e70b1fee4ef14" xlink:title=" ">
<text text-anchor="middle" x="326.5" y="-26.4" font-family="Helvetica,Arial,sans-serif" font-size="12.00">func_type</text>
</a>
</g>
</g>
<!-- Node1&#45;&gt;Node2 -->
<g id="edge1" class="edge">
<title>Node1&#45;&gt;Node2</title>
<path fill="none" stroke="midnightblue" d="M98.42,-30.17C110.07,-30.31 122.48,-30.43 134,-30.5 188.22,-30.82 201.78,-30.89 256,-30.5 265.97,-30.43 276.74,-30.3 286.76,-30.16"/>
<polygon fill="midnightblue" stroke="midnightblue" points="291.92,-30.08 286.95,-32.4 289.42,-30.12 286.92,-30.15 286.92,-30.15 286.92,-30.15 289.42,-30.12 286.89,-27.9 291.92,-30.08 291.92,-30.08"/>
</g>
<!-- Node3 -->
<g id="node3" class="node">
<title>Node3</title>
<g id="a_node3"><a xlink:href="$group__lang11.html#gaf2ee1e4cdb9cc5f58628700ccf7a8fd8" xlink:title="Forwarding reference">
<text text-anchor="middle" x="195" y="-7.4" font-family="Helvetica,Arial,sans-serif" font-size="12.00">func_type_template</text>
</a>
</g>
</g>
<!-- Node1&#45;&gt;Node3 -->
<g id="edge2" class="edge">
<title>Node1&#45;&gt;Node3</title>
<path fill="none" stroke="midnightblue" d="M98.35,-23.12C108.11,-21.83 118.52,-20.46 128.75,-19.11"/>
<polygon fill="midnightblue" stroke="midnightblue" points="133.75,-18.45 129.09,-21.33 131.28,-18.78 128.8,-19.1 128.8,-19.1 128.8,-19.1 131.28,-18.78 128.5,-16.87 133.75,-18.45 133.75,-18.45"/>
</g>
<!-- Node3&#45;&gt;Node2 -->
<g id="edge3" class="edge">
<title>Node3&#45;&gt;Node2</title>
<path fill="none" stroke="midnightblue" d="M256.2,-19.33C266.66,-20.87 277.28,-22.43 286.96,-23.85"/>
<polygon fill="midnightblue" stroke="midnightblue" points="291.93,-24.58 286.66,-26.08 289.46,-24.21 286.99,-23.85 286.99,-23.85 286.99,-23.85 289.46,-24.21 287.31,-21.62 291.93,-24.58 291.93,-24.58"/>
</g>
</g>
</svg>
