<?xml version="1.0" encoding="UTF-8" standalone="no"?>
<!DOCTYPE svg PUBLIC "-//W3C//DTD SVG 1.1//EN"
 "http://www.w3.org/Graphics/SVG/1.1/DTD/svg11.dtd">
<!-- Generated by graphviz version 2.43.0 (0)
 -->
<!-- Title: Behavioral Pages: 1 -->
<svg width="423pt" height="82pt"
 viewBox="0.00 0.00 423.00 81.50" xmlns="http://www.w3.org/2000/svg" xmlns:xlink="http://www.w3.org/1999/xlink">
<g id="graph0" class="graph" transform="scale(1 1) rotate(0) translate(4 77.5)">
<title>Behavioral</title>
<!-- Node1 -->
<g id="node1" class="node">
<title>Node1</title>
<g id="a_node1"><a xlink:title="Behavioral patterns">
<polygon fill="#bfbfbf" stroke="transparent" points="263,-44 185,-44 185,-23 263,-23 263,-44"/>
<text text-anchor="start" x="193" y="-31.4" font-family="Helvetica,Arial,sans-serif" font-weight="bold" font-size="12.00">Behavioral</text>
</a>
</g>
</g>
<!-- Node3 -->
<g id="node3" class="node">
<title>Node3</title>
<g id="a_node3"><a xlink:href="$group__PS.html" xlink:title="Publish–subscribe pattern">
<text text-anchor="start" x="307" y="-59.9" font-family="Helvetica,Arial,sans-serif" font-size="12.00">Publish–subscribe</text>
<text text-anchor="middle" x="357" y="-46.9" font-family="Helvetica,Arial,sans-serif" font-size="12.00"> pattern</text>
</a>
</g>
</g>
<!-- Node1&#45;&gt;Node3 -->
<g id="edge2" class="edge">
<title>Node1&#45;&gt;Node3</title>
<path fill="none" stroke="black" d="M268.3,-41.1C278.11,-42.83 288.68,-44.68 298.96,-46.49"/>
<polygon fill="black" stroke="black" points="263.24,-40.21 268.56,-38.86 265.71,-40.65 268.17,-41.08 268.17,-41.08 268.17,-41.08 265.71,-40.65 267.78,-43.3 263.24,-40.21 263.24,-40.21"/>
</g>
<!-- Node4 -->
<g id="node4" class="node">
<title>Node4</title>
<g id="a_node4"><a xlink:href="$group__visitor.html" xlink:title="Visitor pattern">
<text text-anchor="middle" x="357" y="-7.4" font-family="Helvetica,Arial,sans-serif" font-size="12.00">Visitor</text>
</a>
</g>
</g>
<!-- Node1&#45;&gt;Node4 -->
<g id="edge3" class="edge">
<title>Node1&#45;&gt;Node4</title>
<path fill="none" stroke="black" d="M268.27,-25.9C289.45,-22.18 314.16,-17.85 331.95,-14.72"/>
<polygon fill="black" stroke="black" points="263.24,-26.79 267.78,-23.7 265.71,-26.35 268.17,-25.92 268.17,-25.92 268.17,-25.92 265.71,-26.35 268.56,-28.14 263.24,-26.79 263.24,-26.79"/>
</g>
<!-- Node2 -->
<g id="node2" class="node">
<title>Node2</title>
<g id="a_node2"><a xlink:href="$group__DP.html" xlink:title="Software design patterns">
<text text-anchor="start" x="8" y="-36.9" font-family="Helvetica,Arial,sans-serif" font-size="12.00">Design patterns skeleton</text>
<text text-anchor="middle" x="74.5" y="-23.9" font-family="Helvetica,Arial,sans-serif" font-size="12.00"> examples</text>
</a>
</g>
</g>
<!-- Node2&#45;&gt;Node1 -->
<g id="edge1" class="edge">
<title>Node2&#45;&gt;Node1</title>
<path fill="none" stroke="black" d="M154.41,-33.5C164.91,-33.5 175.27,-33.5 184.63,-33.5"/>
<polygon fill="black" stroke="black" points="149.25,-33.5 154.25,-31.25 151.75,-33.5 154.25,-33.5 154.25,-33.5 154.25,-33.5 151.75,-33.5 154.25,-35.75 149.25,-33.5 149.25,-33.5"/>
</g>
</g>
</svg>
