<?xml version="1.0" encoding="UTF-8" standalone="no"?>
<!DOCTYPE svg PUBLIC "-//W3C//DTD SVG 1.1//EN"
 "http://www.w3.org/Graphics/SVG/1.1/DTD/svg11.dtd">
<!-- Generated by graphviz version 2.43.0 (0)
 -->
<!-- Title: concurrency_patterns_demo Pages: 1 -->
<svg width="527pt" height="121pt"
 viewBox="0.00 0.00 527.00 120.50" xmlns="http://www.w3.org/2000/svg" xmlns:xlink="http://www.w3.org/1999/xlink">
<g id="graph0" class="graph" transform="scale(1 1) rotate(0) translate(4 116.5)">
<title>concurrency_patterns_demo</title>
<!-- Node1 -->
<g id="node1" class="node">
<title>Node1</title>
<g id="a_node1"><a xlink:title=" ">
<polygon fill="#bfbfbf" stroke="transparent" points="183,-73.5 0,-73.5 0,-52.5 183,-52.5 183,-73.5"/>
<text text-anchor="start" x="8" y="-60.9" font-family="Helvetica,Arial,sans-serif" font-weight="bold" font-size="12.00">concurrency_patterns_demo</text>
</a>
</g>
</g>
<!-- Node2 -->
<g id="node2" class="node">
<title>Node2</title>
<g id="a_node2"><a xlink:href="$structActive__object.html#ac125fd7860055c3a289b68ae39488714" xlink:title=" ">
<text text-anchor="middle" x="286" y="-59.9" font-family="Helvetica,Arial,sans-serif" font-size="12.00">Active_object::method</text>
</a>
</g>
</g>
<!-- Node1&#45;&gt;Node2 -->
<g id="edge1" class="edge">
<title>Node1&#45;&gt;Node2</title>
<path fill="none" stroke="midnightblue" d="M183.11,-63C193.41,-63 203.79,-63 213.79,-63"/>
<polygon fill="midnightblue" stroke="midnightblue" points="218.98,-63 213.98,-65.25 216.48,-63 213.98,-63 213.98,-63 213.98,-63 216.48,-63 213.98,-60.75 218.98,-63 218.98,-63"/>
</g>
<!-- Node3 -->
<g id="node3" class="node">
<title>Node3</title>
<g id="a_node3"><a xlink:href="$group__test20.html#ga3ee6c71848d9e06fcc000cf4cc8f70a7" xlink:title=" ">
<text text-anchor="middle" x="454" y="-98.9" font-family="Helvetica,Arial,sans-serif" font-size="12.00">f</text>
</a>
</g>
</g>
<!-- Node2&#45;&gt;Node3 -->
<g id="edge2" class="edge">
<title>Node2&#45;&gt;Node3</title>
<path fill="none" stroke="midnightblue" d="M331.92,-73.55C365.45,-81.43 409.56,-91.79 434.22,-97.59"/>
<polygon fill="midnightblue" stroke="midnightblue" points="439.18,-98.75 433.8,-99.8 436.75,-98.18 434.31,-97.61 434.31,-97.61 434.31,-97.61 436.75,-98.18 434.83,-95.42 439.18,-98.75 439.18,-98.75"/>
</g>
<!-- Node4 -->
<g id="node4" class="node">
<title>Node4</title>
<g id="a_node4"><a xlink:href="$structInterface.html#a73306300ba88073a31d86d9e282ff5ca" xlink:title=" ">
<text text-anchor="middle" x="454" y="-59.9" font-family="Helvetica,Arial,sans-serif" font-size="12.00">Interface::method</text>
</a>
</g>
</g>
<!-- Node2&#45;&gt;Node4 -->
<g id="edge3" class="edge">
<title>Node2&#45;&gt;Node4</title>
<path fill="none" stroke="midnightblue" d="M353.08,-63C366.65,-63 380.85,-63 394.15,-63"/>
<polygon fill="midnightblue" stroke="midnightblue" points="399.39,-63 394.39,-65.25 396.89,-63 394.39,-63 394.39,-63 394.39,-63 396.89,-63 394.39,-60.75 399.39,-63 399.39,-63"/>
</g>
<!-- Node5 -->
<g id="node5" class="node">
<title>Node5</title>
<g id="a_node5"><a xlink:href="$classSynchronized__queue.html#a3e165aa3522a31aa3845a8a7833678b1" xlink:title=" ">
<text text-anchor="start" x="397" y="-20.4" font-family="Helvetica,Arial,sans-serif" font-size="12.00">Synchronized_queue</text>
<text text-anchor="middle" x="454" y="-7.4" font-family="Helvetica,Arial,sans-serif" font-size="12.00">::push</text>
</a>
</g>
</g>
<!-- Node2&#45;&gt;Node5 -->
<g id="edge4" class="edge">
<title>Node2&#45;&gt;Node5</title>
<path fill="none" stroke="midnightblue" d="M325.08,-52.45C343.25,-47.41 365.52,-41.24 386.37,-35.47"/>
<polygon fill="midnightblue" stroke="midnightblue" points="391.35,-34.08 387.13,-37.59 388.94,-34.75 386.53,-35.42 386.53,-35.42 386.53,-35.42 388.94,-34.75 385.93,-33.25 391.35,-34.08 391.35,-34.08"/>
</g>
</g>
</svg>
