<?xml version="1.0" encoding="UTF-8" standalone="no"?>
<!DOCTYPE svg PUBLIC "-//W3C//DTD SVG 1.1//EN"
 "http://www.w3.org/Graphics/SVG/1.1/DTD/svg11.dtd">
<!-- Generated by graphviz version 2.43.0 (0)
 -->
<!-- Title: C++ examples by version Pages: 1 -->
<svg width="310pt" height="185pt"
 viewBox="0.00 0.00 310.00 185.00" xmlns="http://www.w3.org/2000/svg" xmlns:xlink="http://www.w3.org/1999/xlink">
<g id="graph0" class="graph" transform="scale(1 1) rotate(0) translate(4 181)">
<title>C++ examples by version</title>
<!-- Node1 -->
<g id="node1" class="node">
<title>Node1</title>
<g id="a_node1"><a xlink:title="from recent to oldest">
<polygon fill="#bfbfbf" stroke="transparent" points="159,-99 0,-99 0,-78 159,-78 159,-99"/>
<text text-anchor="start" x="8" y="-86.4" font-family="Helvetica,Arial,sans-serif" font-weight="bold" font-size="12.00">C++ examples by version</text>
</a>
</g>
</g>
<!-- Node6 -->
<g id="node2" class="node">
<title>Node6</title>
<g id="a_node2"><a xlink:href="$group__CPP03.html" xlink:title="C++03 / C++98.">
<text text-anchor="middle" x="248.5" y="-163.4" font-family="Helvetica,Arial,sans-serif" font-size="12.00">C++03 examples</text>
</a>
</g>
</g>
<!-- Node1&#45;&gt;Node6 -->
<g id="edge5" class="edge">
<title>Node1&#45;&gt;Node6</title>
<path fill="none" stroke="black" d="M103.57,-101.5C126.39,-114.1 162.53,-133.33 195,-147.5 201.75,-150.45 209.12,-153.32 216.15,-155.9"/>
<polygon fill="black" stroke="black" points="99.18,-99.07 104.65,-99.53 101.37,-100.28 103.56,-101.5 103.56,-101.5 103.56,-101.5 101.37,-100.28 102.47,-103.46 99.18,-99.07 99.18,-99.07"/>
</g>
<!-- Node5 -->
<g id="node3" class="node">
<title>Node5</title>
<g id="a_node3"><a xlink:href="$group__CPP11.html" xlink:title=" ">
<text text-anchor="middle" x="248.5" y="-124.4" font-family="Helvetica,Arial,sans-serif" font-size="12.00">C++11 examples</text>
</a>
</g>
</g>
<!-- Node1&#45;&gt;Node5 -->
<g id="edge4" class="edge">
<title>Node1&#45;&gt;Node5</title>
<path fill="none" stroke="black" d="M130.78,-100.24C153.51,-105.55 180.17,-111.78 202.27,-116.94"/>
<polygon fill="black" stroke="black" points="125.69,-99.05 131.07,-98 128.13,-99.62 130.56,-100.19 130.56,-100.19 130.56,-100.19 128.13,-99.62 130.05,-102.38 125.69,-99.05 125.69,-99.05"/>
</g>
<!-- Node4 -->
<g id="node4" class="node">
<title>Node4</title>
<g id="a_node4"><a xlink:href="$group__CPP14.html" xlink:title=" ">
<text text-anchor="middle" x="248.5" y="-85.4" font-family="Helvetica,Arial,sans-serif" font-size="12.00">C++14 examples</text>
</a>
</g>
</g>
<!-- Node1&#45;&gt;Node4 -->
<g id="edge3" class="edge">
<title>Node1&#45;&gt;Node4</title>
<path fill="none" stroke="black" d="M164.18,-88.5C174.52,-88.5 184.86,-88.5 194.56,-88.5"/>
<polygon fill="black" stroke="black" points="159.11,-88.5 164.11,-86.25 161.61,-88.5 164.11,-88.5 164.11,-88.5 164.11,-88.5 161.61,-88.5 164.11,-90.75 159.11,-88.5 159.11,-88.5"/>
</g>
<!-- Node3 -->
<g id="node5" class="node">
<title>Node3</title>
<g id="a_node5"><a xlink:href="$group__CPP17.html" xlink:title=" ">
<text text-anchor="middle" x="248.5" y="-46.4" font-family="Helvetica,Arial,sans-serif" font-size="12.00">C++17 examples</text>
</a>
</g>
</g>
<!-- Node1&#45;&gt;Node3 -->
<g id="edge2" class="edge">
<title>Node1&#45;&gt;Node3</title>
<path fill="none" stroke="black" d="M130.78,-76.76C153.51,-71.45 180.17,-65.22 202.27,-60.06"/>
<polygon fill="black" stroke="black" points="125.69,-77.95 130.05,-74.62 128.13,-77.38 130.56,-76.81 130.56,-76.81 130.56,-76.81 128.13,-77.38 131.07,-79 125.69,-77.95 125.69,-77.95"/>
</g>
<!-- Node2 -->
<g id="node6" class="node">
<title>Node2</title>
<g id="a_node6"><a xlink:href="$group__CPP20.html" xlink:title=" ">
<text text-anchor="middle" x="248.5" y="-7.4" font-family="Helvetica,Arial,sans-serif" font-size="12.00">C++20 examples</text>
</a>
</g>
</g>
<!-- Node1&#45;&gt;Node2 -->
<g id="edge1" class="edge">
<title>Node1&#45;&gt;Node2</title>
<path fill="none" stroke="black" d="M104.46,-75.43C127.39,-63.16 163.09,-44.61 195,-30.5 202.4,-27.23 210.53,-23.97 218.12,-21.07"/>
<polygon fill="black" stroke="black" points="100.05,-77.8 103.39,-73.45 102.26,-76.62 104.46,-75.44 104.46,-75.44 104.46,-75.44 102.26,-76.62 105.52,-77.42 100.05,-77.8 100.05,-77.8"/>
</g>
</g>
</svg>
