<?xml version="1.0" encoding="UTF-8" standalone="no"?>
<!DOCTYPE svg PUBLIC "-//W3C//DTD SVG 1.1//EN"
 "http://www.w3.org/Graphics/SVG/1.1/DTD/svg11.dtd">
<!-- Generated by graphviz version 2.43.0 (0)
 -->
<!-- Title: func_type_template Pages: 1 -->
<svg width="469pt" height="29pt"
 viewBox="0.00 0.00 469.00 29.00" xmlns="http://www.w3.org/2000/svg" xmlns:xlink="http://www.w3.org/1999/xlink">
<g id="graph0" class="graph" transform="scale(1 1) rotate(0) translate(4 25)">
<title>func_type_template</title>
<!-- Node1 -->
<g id="node1" class="node">
<title>Node1</title>
<g id="a_node1"><a xlink:title="Forwarding reference">
<polygon fill="#bfbfbf" stroke="transparent" points="461,-21 331,-21 331,0 461,0 461,-21"/>
<text text-anchor="start" x="339" y="-8.4" font-family="Helvetica,Arial,sans-serif" font-weight="bold" font-size="12.00">func_type_template</text>
</a>
</g>
</g>
<!-- Node2 -->
<g id="node2" class="node">
<title>Node2</title>
<g id="a_node2"><a xlink:href="$group__lang11.html#gab9898ff9bf1dd6f1cb58b481f0b4df79" xlink:title=" ">
<text text-anchor="middle" x="248.5" y="-7.4" font-family="Helvetica,Arial,sans-serif" font-size="12.00">references_11</text>
</a>
</g>
</g>
<!-- Node1&#45;&gt;Node2 -->
<g id="edge1" class="edge">
<title>Node1&#45;&gt;Node2</title>
<path fill="none" stroke="midnightblue" d="M325.67,-10.5C315.28,-10.5 304.8,-10.5 295.07,-10.5"/>
<polygon fill="midnightblue" stroke="midnightblue" points="330.76,-10.5 325.76,-12.75 328.26,-10.5 325.76,-10.5 325.76,-10.5 325.76,-10.5 328.26,-10.5 325.76,-8.25 330.76,-10.5 330.76,-10.5"/>
</g>
<!-- Node3 -->
<g id="node3" class="node">
<title>Node3</title>
<g id="a_node3"><a xlink:href="$group__lang11.html#gaa2d7b19a78d91914e735ea5a16767df4" xlink:title=" ">
<text text-anchor="middle" x="122.5" y="-7.4" font-family="Helvetica,Arial,sans-serif" font-size="12.00">language_11</text>
</a>
</g>
</g>
<!-- Node2&#45;&gt;Node3 -->
<g id="edge2" class="edge">
<title>Node2&#45;&gt;Node3</title>
<path fill="none" stroke="midnightblue" d="M196.47,-10.5C186.43,-10.5 175.99,-10.5 166.26,-10.5"/>
<polygon fill="midnightblue" stroke="midnightblue" points="201.68,-10.5 196.68,-12.75 199.18,-10.5 196.68,-10.5 196.68,-10.5 196.68,-10.5 199.18,-10.5 196.68,-8.25 201.68,-10.5 201.68,-10.5"/>
</g>
<!-- Node4 -->
<g id="node4" class="node">
<title>Node4</title>
<g id="a_node4"><a xlink:href="$group__CPP11.html#ga840291bc02cba5474a4cb46a9b9566fe" xlink:title=" ">
<text text-anchor="middle" x="21.5" y="-7.4" font-family="Helvetica,Arial,sans-serif" font-size="12.00">main</text>
</a>
</g>
</g>
<!-- Node3&#45;&gt;Node4 -->
<g id="edge3" class="edge">
<title>Node3&#45;&gt;Node4</title>
<path fill="none" stroke="midnightblue" d="M73.7,-10.5C62.98,-10.5 52.16,-10.5 43.24,-10.5"/>
<polygon fill="midnightblue" stroke="midnightblue" points="78.94,-10.5 73.94,-12.75 76.44,-10.5 73.94,-10.5 73.94,-10.5 73.94,-10.5 76.44,-10.5 73.94,-8.25 78.94,-10.5 78.94,-10.5"/>
</g>
</g>
</svg>
