<?xml version="1.0" encoding="UTF-8" standalone="no"?>
<!DOCTYPE svg PUBLIC "-//W3C//DTD SVG 1.1//EN"
 "http://www.w3.org/Graphics/SVG/1.1/DTD/svg11.dtd">
<!-- Generated by graphviz version 2.43.0 (0)
 -->
<!-- Title: main Pages: 1 -->
<svg width="447pt" height="602pt"
 viewBox="0.00 0.00 447.00 602.00" xmlns="http://www.w3.org/2000/svg" xmlns:xlink="http://www.w3.org/1999/xlink">
<g id="graph0" class="graph" transform="scale(1 1) rotate(0) translate(4 598)">
<title>main</title>
<!-- Node1 -->
<g id="node1" class="node">
<title>Node1</title>
<g id="a_node1"><a xlink:title=" ">
<text text-anchor="start" x="10" y="-303.9" font-family="UbuntuXX" font-weight="bold" font-size="12.00">main</text>
</a>
</g>
</g>
<!-- Node2 -->
<g id="node2" class="node">
<title>Node2</title>
<g id="a_node2"><a xlink:href="group__lib17.html#ga8cb7163083f1f0a3f822ba830593e2f8" target="_top" xlink:title=" ">
<text text-anchor="middle" x="163" y="-572.9" font-family="UbuntuXX" font-size="12.00">clamp_demo</text>
</a>
</g>
</g>
<!-- Node1&#45;&gt;Node2 -->
<g id="edge1" class="edge">
<title>Node1&#45;&gt;Node2</title>
<path fill="none" stroke="midnightblue" d="M27.29,-324.14C26.56,-368.39 30.85,-483.03 90,-549 95.68,-555.34 103,-560.19 110.79,-563.91"/>
<polygon fill="midnightblue" stroke="midnightblue" points="115.69,-566.08 110.2,-566.12 113.4,-565.07 111.12,-564.06 111.12,-564.06 111.12,-564.06 113.4,-565.07 112.03,-562 115.69,-566.08 115.69,-566.08"/>
</g>
<!-- Node3 -->
<g id="node3" class="node">
<title>Node3</title>
<g id="a_node3"><a xlink:href="group__templ17.html#gaecacde754dfb67194507339730e3f4cf" target="_top" xlink:title=" ">
<text text-anchor="middle" x="163" y="-518.9" font-family="UbuntuXX" font-size="12.00">deduction_guides_17</text>
</a>
</g>
</g>
<!-- Node1&#45;&gt;Node3 -->
<g id="edge2" class="edge">
<title>Node1&#45;&gt;Node3</title>
<path fill="none" stroke="midnightblue" d="M28.9,-324.23C31.7,-361.31 43.15,-446.15 90,-495 92.02,-497.11 94.22,-499.05 96.56,-500.85"/>
<polygon fill="midnightblue" stroke="midnightblue" points="100.9,-503.92 95.52,-502.87 98.86,-502.47 96.82,-501.03 96.82,-501.03 96.82,-501.03 98.86,-502.47 98.12,-499.19 100.9,-503.92 100.9,-503.92"/>
</g>
<!-- Node6 -->
<g id="node6" class="node">
<title>Node6</title>
<g id="a_node6"><a xlink:href="group__lib17.html#gab5fcfaf82b4a2f9f162cb824e42a6dc7" target="_top" xlink:title=" ">
<text text-anchor="middle" x="163" y="-464.9" font-family="UbuntuXX" font-size="12.00">dynamic_memory_17</text>
</a>
</g>
</g>
<!-- Node1&#45;&gt;Node6 -->
<g id="edge5" class="edge">
<title>Node1&#45;&gt;Node6</title>
<path fill="none" stroke="midnightblue" d="M31.71,-324.36C38.43,-353.07 55.26,-408.67 90,-441 92.37,-443.21 94.94,-445.24 97.65,-447.11"/>
<polygon fill="midnightblue" stroke="midnightblue" points="102.02,-449.92 96.59,-449.1 99.91,-448.56 97.81,-447.21 97.81,-447.21 97.81,-447.21 99.91,-448.56 99.03,-445.32 102.02,-449.92 102.02,-449.92"/>
</g>
<!-- Node7 -->
<g id="node7" class="node">
<title>Node7</title>
<g id="a_node7"><a xlink:href="group__folding.html#ga24fef2e3a7adf434ab68772454c869d4" target="_top" xlink:title=" ">
<text text-anchor="middle" x="163" y="-410.9" font-family="UbuntuXX" font-size="12.00">folding_demo</text>
</a>
</g>
</g>
<!-- Node1&#45;&gt;Node7 -->
<g id="edge6" class="edge">
<title>Node1&#45;&gt;Node7</title>
<path fill="none" stroke="midnightblue" d="M37.82,-324.17C48.48,-342.36 67.1,-370.02 90,-387 95.84,-391.33 102.45,-395.04 109.24,-398.19"/>
<polygon fill="midnightblue" stroke="midnightblue" points="113.96,-400.29 108.48,-400.32 111.68,-399.28 109.39,-398.26 109.39,-398.26 109.39,-398.26 111.68,-399.28 110.31,-396.21 113.96,-400.29 113.96,-400.29"/>
</g>
<!-- Node10 -->
<g id="node10" class="node">
<title>Node10</title>
<g id="a_node10"><a xlink:href="group__lcbv.html#ga09d6ec7e96d1419fa2eb7b467b45262d" target="_top" xlink:title=" ">
<text text-anchor="middle" x="163" y="-356.9" font-family="UbuntuXX" font-size="12.00">lambda_17</text>
</a>
</g>
</g>
<!-- Node1&#45;&gt;Node10 -->
<g id="edge9" class="edge">
<title>Node1&#45;&gt;Node10</title>
<path fill="none" stroke="midnightblue" d="M54.12,-317.73C65.14,-322.59 78.14,-328.2 90,-333 98.56,-336.47 107.75,-340.03 116.61,-343.39"/>
<polygon fill="midnightblue" stroke="midnightblue" points="121.49,-345.23 116.02,-345.57 119.15,-344.35 116.81,-343.46 116.81,-343.46 116.81,-343.46 119.15,-344.35 117.61,-341.36 121.49,-345.23 121.49,-345.23"/>
</g>
<!-- Node12 -->
<g id="node12" class="node">
<title>Node12</title>
<g id="a_node12"><a xlink:href="group__lib17.html#ga504931ae26977f44fc2ba6e6f916a544" target="_top" xlink:title=" ">
<text text-anchor="middle" x="163" y="-302.9" font-family="UbuntuXX" font-size="12.00">map_demo</text>
</a>
</g>
</g>
<!-- Node1&#45;&gt;Node12 -->
<g id="edge11" class="edge">
<title>Node1&#45;&gt;Node12</title>
<path fill="none" stroke="midnightblue" d="M54.15,-306C71.64,-306 95.12,-306 115.71,-306"/>
<polygon fill="midnightblue" stroke="midnightblue" points="120.88,-306 115.88,-308.25 118.38,-306 115.88,-306 115.88,-306 115.88,-306 118.38,-306 115.88,-303.75 120.88,-306 120.88,-306"/>
</g>
<!-- Node13 -->
<g id="node13" class="node">
<title>Node13</title>
<g id="a_node13"><a xlink:href="group__lang17.html#ga48cd9a2d84b26f672344c61dbc566073" target="_top" xlink:title=" ">
<text text-anchor="middle" x="163" y="-248.9" font-family="UbuntuXX" font-size="12.00">references_17</text>
</a>
</g>
</g>
<!-- Node1&#45;&gt;Node13 -->
<g id="edge12" class="edge">
<title>Node1&#45;&gt;Node13</title>
<path fill="none" stroke="midnightblue" d="M54.12,-294.27C65.14,-289.41 78.14,-283.8 90,-279 95.7,-276.69 101.69,-274.34 107.67,-272.03"/>
<polygon fill="midnightblue" stroke="midnightblue" points="112.68,-270.11 108.82,-274 110.35,-271 108.01,-271.9 108.01,-271.9 108.01,-271.9 110.35,-271 107.21,-269.8 112.68,-270.11 112.68,-270.11"/>
</g>
<!-- Node14 -->
<g id="node14" class="node">
<title>Node14</title>
<g id="a_node14"><a xlink:href="group__lib17.html#gab6d97155e76d78c5c2e7281a7c682f3d" target="_top" xlink:title=" ">
<text text-anchor="middle" x="163" y="-194.9" font-family="UbuntuXX" font-size="12.00">string_view_demo</text>
</a>
</g>
</g>
<!-- Node1&#45;&gt;Node14 -->
<g id="edge13" class="edge">
<title>Node1&#45;&gt;Node14</title>
<path fill="none" stroke="midnightblue" d="M37.82,-287.83C48.48,-269.64 67.1,-241.98 90,-225 93.1,-222.7 96.41,-220.58 99.85,-218.62"/>
<polygon fill="midnightblue" stroke="midnightblue" points="104.62,-216.06 101.28,-220.41 102.42,-217.24 100.22,-218.43 100.22,-218.43 100.22,-218.43 102.42,-217.24 99.15,-216.45 104.62,-216.06 104.62,-216.06"/>
</g>
<!-- Node15 -->
<g id="node15" class="node">
<title>Node15</title>
<g id="a_node15"><a xlink:href="group__threads17.html#ga9f411b8b9bb88cfcb7e7f80487003b09" target="_top" xlink:title=" ">
<text text-anchor="middle" x="163" y="-140.9" font-family="UbuntuXX" font-size="12.00">threads_17</text>
</a>
</g>
</g>
<!-- Node1&#45;&gt;Node15 -->
<g id="edge14" class="edge">
<title>Node1&#45;&gt;Node15</title>
<path fill="none" stroke="midnightblue" d="M31.71,-287.64C38.43,-258.93 55.26,-203.33 90,-171 97.47,-164.04 106.91,-158.83 116.47,-154.95"/>
<polygon fill="midnightblue" stroke="midnightblue" points="121.16,-153.14 117.3,-157.04 118.83,-154.04 116.49,-154.94 116.49,-154.94 116.49,-154.94 118.83,-154.04 115.69,-152.84 121.16,-153.14 121.16,-153.14"/>
</g>
<!-- Node16 -->
<g id="node16" class="node">
<title>Node16</title>
<g id="a_node16"><a xlink:href="group__lang17.html#gaf33143c73fe6d2c858b64736f7e8fdc0" target="_top" xlink:title=" ">
<text text-anchor="middle" x="163" y="-68.9" font-family="UbuntuXX" font-size="12.00">types_17</text>
</a>
</g>
</g>
<!-- Node1&#45;&gt;Node16 -->
<g id="edge15" class="edge">
<title>Node1&#45;&gt;Node16</title>
<path fill="none" stroke="midnightblue" d="M29.81,-287.95C34.23,-251.92 48.47,-170.01 90,-117 98.83,-105.74 111.31,-96.54 123.41,-89.47"/>
<polygon fill="midnightblue" stroke="midnightblue" points="127.85,-86.96 124.6,-91.38 125.67,-88.19 123.49,-89.43 123.49,-89.43 123.49,-89.43 125.67,-88.19 122.39,-87.47 127.85,-86.96 127.85,-86.96"/>
</g>
<!-- Node17 -->
<g id="node17" class="node">
<title>Node17</title>
<g id="a_node17"><a xlink:href="group__lib17.html#gacee9f90ef33d8839e801b81f2c2deaab" target="_top" xlink:title=" ">
<text text-anchor="middle" x="163" y="-14.9" font-family="UbuntuXX" font-size="12.00">variant_demo</text>
</a>
</g>
</g>
<!-- Node1&#45;&gt;Node17 -->
<g id="edge17" class="edge">
<title>Node1&#45;&gt;Node17</title>
<path fill="none" stroke="midnightblue" d="M30.11,-287.68C36.56,-234.54 57.58,-81.77 90,-45 95.09,-39.22 101.55,-34.68 108.49,-31.11"/>
<polygon fill="midnightblue" stroke="midnightblue" points="113.36,-28.78 109.82,-32.97 111.11,-29.86 108.85,-30.93 108.85,-30.93 108.85,-30.93 111.11,-29.86 107.88,-28.9 113.36,-28.78 113.36,-28.78"/>
</g>
<!-- Node4 -->
<g id="node4" class="node">
<title>Node4</title>
<g id="a_node4"><a xlink:href="group__template__argument__deduction.html#gae06ba048fd02e30fe785cab65d195937" target="_top" xlink:title="deduction_guides">
<text text-anchor="middle" x="355.5" y="-572.9" font-family="UbuntuXX" font-size="12.00">deduction_guide1_queue</text>
</a>
</g>
</g>
<!-- Node3&#45;&gt;Node4 -->
<g id="edge3" class="edge">
<title>Node3&#45;&gt;Node4</title>
<path fill="none" stroke="midnightblue" d="M227.7,-540.06C246.29,-545.33 266.68,-551.11 285.57,-556.46"/>
<polygon fill="midnightblue" stroke="midnightblue" points="290.86,-557.96 285.44,-558.76 288.46,-557.28 286.05,-556.6 286.05,-556.6 286.05,-556.6 288.46,-557.28 286.66,-554.43 290.86,-557.96 290.86,-557.96"/>
</g>
<!-- Node5 -->
<g id="node5" class="node">
<title>Node5</title>
<g id="a_node5"><a xlink:href="group__template__argument__deduction.html#gae3567664597330506936b8cf45b526e9" target="_top" xlink:title="deduced vector&lt;int&gt;">
<text text-anchor="middle" x="355.5" y="-518.9" font-family="UbuntuXX" font-size="12.00">deduction_guide1_vector</text>
</a>
</g>
</g>
<!-- Node3&#45;&gt;Node5 -->
<g id="edge4" class="edge">
<title>Node3&#45;&gt;Node5</title>
<path fill="none" stroke="midnightblue" d="M234.12,-522C244.8,-522 255.92,-522 266.91,-522"/>
<polygon fill="midnightblue" stroke="midnightblue" points="271.95,-522 266.95,-524.25 269.45,-522 266.95,-522 266.95,-522 266.95,-522 269.45,-522 266.95,-519.75 271.95,-522 271.95,-522"/>
</g>
<!-- Node8 -->
<g id="node8" class="node">
<title>Node8</title>
<g id="a_node8"><a xlink:href="group__folding.html#ga8bac0f4d13844b654a90512a2fed713c" target="_top" xlink:title=" ">
<text text-anchor="middle" x="355.5" y="-464.9" font-family="UbuntuXX" font-size="12.00">folding_and</text>
</a>
</g>
</g>
<!-- Node7&#45;&gt;Node8 -->
<g id="edge7" class="edge">
<title>Node7&#45;&gt;Node8</title>
<path fill="none" stroke="midnightblue" d="M212.07,-427.63C241.25,-435.9 278.32,-446.41 307.33,-454.63"/>
<polygon fill="midnightblue" stroke="midnightblue" points="312.28,-456.03 306.86,-456.83 309.88,-455.35 307.47,-454.67 307.47,-454.67 307.47,-454.67 309.88,-455.35 308.08,-452.5 312.28,-456.03 312.28,-456.03"/>
</g>
<!-- Node9 -->
<g id="node9" class="node">
<title>Node9</title>
<g id="a_node9"><a xlink:href="group__folding.html#ga9b51138a3ead047d2bd4c2076d494687" target="_top" xlink:title=" ">
<text text-anchor="middle" x="355.5" y="-410.9" font-family="UbuntuXX" font-size="12.00">folding_sum</text>
</a>
</g>
</g>
<!-- Node7&#45;&gt;Node9 -->
<g id="edge8" class="edge">
<title>Node7&#45;&gt;Node9</title>
<path fill="none" stroke="midnightblue" d="M212.07,-414C240.61,-414 276.7,-414 305.41,-414"/>
<polygon fill="midnightblue" stroke="midnightblue" points="310.68,-414 305.68,-416.25 308.18,-414 305.68,-414 305.68,-414 305.68,-414 308.18,-414 305.68,-411.75 310.68,-414 310.68,-414"/>
</g>
<!-- Node11 -->
<g id="node11" class="node">
<title>Node11</title>
<g id="a_node11"><a xlink:href="group__lcbv.html#gae6783fe92992c7c898941542b211b2d5" target="_top" xlink:title=" ">
<text text-anchor="middle" x="355.5" y="-356.9" font-family="UbuntuXX" font-size="12.00">capture_this_by_value</text>
</a>
</g>
</g>
<!-- Node10&#45;&gt;Node11 -->
<g id="edge10" class="edge">
<title>Node10&#45;&gt;Node11</title>
<path fill="none" stroke="midnightblue" d="M204.87,-360C225.69,-360 251.72,-360 276.21,-360"/>
<polygon fill="midnightblue" stroke="midnightblue" points="281.41,-360 276.41,-362.25 278.91,-360 276.41,-360 276.41,-360 276.41,-360 278.91,-360 276.41,-357.75 281.41,-360 281.41,-360"/>
</g>
<!-- Node16&#45;&gt;Node16 -->
<g id="edge16" class="edge">
<title>Node16&#45;&gt;Node16</title>
<path fill="none" stroke="midnightblue" d="M138.4,-90.15C134.61,-99.54 142.81,-108 163,-108 179.4,-108 187.89,-102.41 188.47,-95.29"/>
<polygon fill="midnightblue" stroke="midnightblue" points="187.6,-90.15 190.65,-94.71 188.02,-92.62 188.43,-95.08 188.43,-95.08 188.43,-95.08 188.02,-92.62 186.22,-95.46 187.6,-90.15 187.6,-90.15"/>
</g>
</g>
</svg>
