<?xml version="1.0" encoding="UTF-8" standalone="no"?>
<!DOCTYPE svg PUBLIC "-//W3C//DTD SVG 1.1//EN"
 "http://www.w3.org/Graphics/SVG/1.1/DTD/svg11.dtd">
<!-- Generated by graphviz version 2.43.0 (0)
 -->
<!-- Title: main Pages: 1 -->
<svg width="638pt" height="554pt"
 viewBox="0.00 0.00 638.00 554.00" xmlns="http://www.w3.org/2000/svg" xmlns:xlink="http://www.w3.org/1999/xlink">
<g id="graph0" class="graph" transform="scale(1 1) rotate(0) translate(4 550)">
<title>main</title>
<!-- Node1 -->
<g id="node1" class="node">
<title>Node1</title>
<g id="a_node1"><a xlink:title=" ">
<polygon fill="#bfbfbf" stroke="transparent" points="44,-274 0,-274 0,-253 44,-253 44,-274"/>
<text text-anchor="start" x="8" y="-261.4" font-family="Helvetica,Arial,sans-serif" font-weight="bold" font-size="12.00">main</text>
</a>
</g>
</g>
<!-- Node2 -->
<g id="node2" class="node">
<title>Node2</title>
<g id="a_node2"><a xlink:href="$group__lambda11.html#ga45ebf498b5a919e101ec20f30edf8670" xlink:title="algorithm">
<text text-anchor="middle" x="138" y="-532.4" font-family="Helvetica,Arial,sans-serif" font-size="12.00">algo_11</text>
</a>
</g>
</g>
<!-- Node1&#45;&gt;Node2 -->
<g id="edge1" class="edge">
<title>Node1&#45;&gt;Node2</title>
<path fill="none" stroke="midnightblue" d="M24,-274.03C28.31,-317.13 46.55,-479.52 80,-516.5 85.97,-523.1 94.29,-527.41 102.73,-530.22"/>
<polygon fill="midnightblue" stroke="midnightblue" points="107.98,-531.79 102.55,-532.52 105.58,-531.08 103.19,-530.36 103.19,-530.36 103.19,-530.36 105.58,-531.08 103.83,-528.21 107.98,-531.79 107.98,-531.79"/>
</g>
<!-- Node3 -->
<g id="node3" class="node">
<title>Node3</title>
<g id="a_node3"><a xlink:href="$group__lang11.html#gab68bb32a6031780e75cef0a1ded4cdb9" xlink:title="https://en.cppreference.com/w/cpp/language/constexpr">
<text text-anchor="middle" x="138" y="-475.4" font-family="Helvetica,Arial,sans-serif" font-size="12.00">constexpr_factorial</text>
</a>
</g>
</g>
<!-- Node1&#45;&gt;Node3 -->
<g id="edge2" class="edge">
<title>Node1&#45;&gt;Node3</title>
<path fill="none" stroke="midnightblue" d="M22.86,-274.08C23.01,-306.47 27.92,-405.36 80,-459.5 82.03,-461.61 84.31,-463.49 86.75,-465.16"/>
<polygon fill="midnightblue" stroke="midnightblue" points="91.3,-467.95 85.86,-467.26 89.16,-466.64 87.03,-465.34 87.03,-465.34 87.03,-465.34 89.16,-466.64 88.21,-463.42 91.3,-467.95 91.3,-467.95"/>
</g>
<!-- Node4 -->
<g id="node4" class="node">
<title>Node4</title>
<g id="a_node4"><a xlink:href="$group__lambda11.html#ga72e4d10e6c0223462fb8e5cbb6a647dc" xlink:title=" ">
<text text-anchor="middle" x="138" y="-436.4" font-family="Helvetica,Arial,sans-serif" font-size="12.00">container_11</text>
</a>
</g>
</g>
<!-- Node1&#45;&gt;Node4 -->
<g id="edge4" class="edge">
<title>Node1&#45;&gt;Node4</title>
<path fill="none" stroke="midnightblue" d="M23.78,-274.36C26.37,-302.56 37.2,-378.82 80,-420.5 83.06,-423.48 86.6,-426 90.39,-428.11"/>
<polygon fill="midnightblue" stroke="midnightblue" points="94.94,-430.43 89.46,-430.17 92.71,-429.29 90.48,-428.16 90.48,-428.16 90.48,-428.16 92.71,-429.29 91.5,-426.16 94.94,-430.43 94.94,-430.43"/>
</g>
<!-- Node6 -->
<g id="node6" class="node">
<title>Node6</title>
<g id="a_node6"><a xlink:href="$group__lambda11.html#ga3b7b316884496ec679ce597d3500ec4b" xlink:title=" ">
<text text-anchor="middle" x="138" y="-397.4" font-family="Helvetica,Arial,sans-serif" font-size="12.00">lambda_basics</text>
</a>
</g>
</g>
<!-- Node1&#45;&gt;Node6 -->
<g id="edge6" class="edge">
<title>Node1&#45;&gt;Node6</title>
<path fill="none" stroke="midnightblue" d="M25.24,-274.35C30.57,-297.43 46.17,-351.75 80,-381.5 82.52,-383.71 85.3,-385.67 88.25,-387.4"/>
<polygon fill="midnightblue" stroke="midnightblue" points="92.99,-389.94 87.52,-389.57 90.79,-388.76 88.59,-387.58 88.59,-387.58 88.59,-387.58 90.79,-388.76 89.65,-385.6 92.99,-389.94 92.99,-389.94"/>
</g>
<!-- Node7 -->
<g id="node7" class="node">
<title>Node7</title>
<g id="a_node7"><a xlink:href="$group__lambda11.html#ga98e0b31385bc6cf20a3b6b69efd918de" xlink:title=" ">
<text text-anchor="middle" x="138" y="-358.4" font-family="Helvetica,Arial,sans-serif" font-size="12.00">lambda_capture</text>
</a>
</g>
</g>
<!-- Node1&#45;&gt;Node7 -->
<g id="edge7" class="edge">
<title>Node1&#45;&gt;Node7</title>
<path fill="none" stroke="midnightblue" d="M27.9,-274.08C36.25,-290.97 54.79,-323.97 80,-342.5 83.12,-344.79 86.53,-346.82 90.09,-348.61"/>
<polygon fill="midnightblue" stroke="midnightblue" points="95.02,-350.91 89.53,-350.83 92.75,-349.85 90.49,-348.8 90.49,-348.8 90.49,-348.8 92.75,-349.85 91.44,-346.76 95.02,-350.91 95.02,-350.91"/>
</g>
<!-- Node8 -->
<g id="node8" class="node">
<title>Node8</title>
<g id="a_node8"><a xlink:href="$group__lambda11__complex.html#ga1fad3951c3da909abe5f91ebbff9f433" xlink:title=" ">
<text text-anchor="middle" x="138" y="-319.4" font-family="Helvetica,Arial,sans-serif" font-size="12.00">lambda_complex</text>
</a>
</g>
</g>
<!-- Node1&#45;&gt;Node8 -->
<g id="edge8" class="edge">
<title>Node1&#45;&gt;Node8</title>
<path fill="none" stroke="midnightblue" d="M35.9,-274.2C47.02,-283.01 63.81,-295.34 80,-303.5 84.85,-305.94 90.08,-308.18 95.35,-310.19"/>
<polygon fill="midnightblue" stroke="midnightblue" points="100.18,-311.97 94.71,-312.35 97.83,-311.11 95.49,-310.24 95.49,-310.24 95.49,-310.24 97.83,-311.11 96.27,-308.13 100.18,-311.97 100.18,-311.97"/>
</g>
<!-- Node9 -->
<g id="node9" class="node">
<title>Node9</title>
<g id="a_node9"><a xlink:href="$group__lang11.html#gaa2d7b19a78d91914e735ea5a16767df4" xlink:title=" ">
<text text-anchor="middle" x="138" y="-280.4" font-family="Helvetica,Arial,sans-serif" font-size="12.00">language_11</text>
</a>
</g>
</g>
<!-- Node1&#45;&gt;Node9 -->
<g id="edge9" class="edge">
<title>Node1&#45;&gt;Node9</title>
<path fill="none" stroke="midnightblue" d="M44.18,-267.21C56.79,-269.43 73.33,-272.33 88.96,-275.07"/>
<polygon fill="midnightblue" stroke="midnightblue" points="94.21,-275.99 88.9,-277.35 91.75,-275.56 89.29,-275.13 89.29,-275.13 89.29,-275.13 91.75,-275.56 89.68,-272.91 94.21,-275.99 94.21,-275.99"/>
</g>
<!-- Node23 -->
<g id="node23" class="node">
<title>Node23</title>
<g id="a_node23"><a xlink:href="$group__lang11.html#ga0e663f52efbc8593793d628b4259ce9b" xlink:title=" ">
<text text-anchor="middle" x="138" y="-241.4" font-family="Helvetica,Arial,sans-serif" font-size="12.00">main2</text>
</a>
</g>
</g>
<!-- Node1&#45;&gt;Node23 -->
<g id="edge24" class="edge">
<title>Node1&#45;&gt;Node23</title>
<path fill="none" stroke="midnightblue" d="M44.18,-259.97C62.03,-257 87.76,-252.71 107.61,-249.4"/>
<polygon fill="midnightblue" stroke="midnightblue" points="112.78,-248.54 108.21,-251.58 110.31,-248.95 107.84,-249.36 107.84,-249.36 107.84,-249.36 110.31,-248.95 107.47,-247.14 112.78,-248.54 112.78,-248.54"/>
</g>
<!-- Node26 -->
<g id="node26" class="node">
<title>Node26</title>
<g id="a_node26"><a xlink:href="$group__threads11.html#gac4fde02280b76afc0dfd63f3bd0b05b7" xlink:title=" ">
<text text-anchor="middle" x="138" y="-202.4" font-family="Helvetica,Arial,sans-serif" font-size="12.00">mutex_11</text>
</a>
</g>
</g>
<!-- Node1&#45;&gt;Node26 -->
<g id="edge27" class="edge">
<title>Node1&#45;&gt;Node26</title>
<path fill="none" stroke="midnightblue" d="M36.92,-252.77C48.11,-244.52 64.46,-233.25 80,-225.5 85.98,-222.52 92.52,-219.78 98.97,-217.35"/>
<polygon fill="midnightblue" stroke="midnightblue" points="103.87,-215.55 99.95,-219.38 101.52,-216.41 99.17,-217.27 99.17,-217.27 99.17,-217.27 101.52,-216.41 98.4,-215.16 103.87,-215.55 103.87,-215.55"/>
</g>
<!-- Node27 -->
<g id="node27" class="node">
<title>Node27</title>
<g id="a_node27"><a xlink:href="$group__CPP11.html#gaef02a2dc71a157f55b95950288d742d9" xlink:title=" ">
<text text-anchor="middle" x="138" y="-163.4" font-family="Helvetica,Arial,sans-serif" font-size="12.00">obj_test</text>
</a>
</g>
</g>
<!-- Node1&#45;&gt;Node27 -->
<g id="edge28" class="edge">
<title>Node1&#45;&gt;Node27</title>
<path fill="none" stroke="midnightblue" d="M28.15,-252.96C36.7,-236.5 55.37,-204.67 80,-186.5 86.92,-181.4 95.25,-177.51 103.39,-174.59"/>
<polygon fill="midnightblue" stroke="midnightblue" points="108.41,-172.89 104.39,-176.62 106.04,-173.69 103.67,-174.49 103.67,-174.49 103.67,-174.49 106.04,-173.69 102.95,-172.36 108.41,-172.89 108.41,-172.89"/>
</g>
<!-- Node28 -->
<g id="node28" class="node">
<title>Node28</title>
<g id="a_node28"><a xlink:href="$group__CPP11.html#ga87fd521792c9ebaccfb225d672c68a5b" xlink:title=" ">
<text text-anchor="middle" x="138" y="-124.4" font-family="Helvetica,Arial,sans-serif" font-size="12.00">sig</text>
</a>
</g>
</g>
<!-- Node1&#45;&gt;Node28 -->
<g id="edge29" class="edge">
<title>Node1&#45;&gt;Node28</title>
<path fill="none" stroke="midnightblue" d="M25.33,-252.88C30.84,-230.25 46.77,-176.99 80,-147.5 90.3,-138.36 105.02,-133.34 116.92,-130.61"/>
<polygon fill="midnightblue" stroke="midnightblue" points="121.83,-129.58 117.4,-132.81 119.38,-130.09 116.93,-130.61 116.93,-130.61 116.93,-130.61 119.38,-130.09 116.47,-128.41 121.83,-129.58 121.83,-129.58"/>
</g>
<!-- Node29 -->
<g id="node29" class="node">
<title>Node29</title>
<g id="a_node29"><a xlink:href="$group__lambda11.html#gabe717f6f0e9decfb4dc2c1600341bfea" xlink:title=" ">
<text text-anchor="middle" x="138" y="-85.4" font-family="Helvetica,Arial,sans-serif" font-size="12.00">sort_11</text>
</a>
</g>
</g>
<!-- Node1&#45;&gt;Node29 -->
<g id="edge30" class="edge">
<title>Node1&#45;&gt;Node29</title>
<path fill="none" stroke="midnightblue" d="M23.86,-252.82C26.66,-225.06 37.93,-149.95 80,-108.5 86.68,-101.92 95.65,-97.49 104.5,-94.52"/>
<polygon fill="midnightblue" stroke="midnightblue" points="109.38,-93.02 105.27,-96.64 106.99,-93.75 104.6,-94.49 104.6,-94.49 104.6,-94.49 106.99,-93.75 103.94,-92.34 109.38,-93.02 109.38,-93.02"/>
</g>
<!-- Node30 -->
<g id="node30" class="node">
<title>Node30</title>
<g id="a_node30"><a xlink:href="$group__threads11.html#ga6d132ee45948dcf65ae3ecd9177f6725" xlink:title=" ">
<text text-anchor="middle" x="138" y="-46.4" font-family="Helvetica,Arial,sans-serif" font-size="12.00">threads_11</text>
</a>
</g>
</g>
<!-- Node1&#45;&gt;Node30 -->
<g id="edge31" class="edge">
<title>Node1&#45;&gt;Node30</title>
<path fill="none" stroke="midnightblue" d="M22.94,-252.6C23.35,-220.17 29,-123.21 80,-69.5 84.12,-65.16 89.23,-61.77 94.69,-59.1"/>
<polygon fill="midnightblue" stroke="midnightblue" points="99.34,-57.04 95.69,-61.12 97.06,-58.05 94.77,-59.07 94.77,-59.07 94.77,-59.07 97.06,-58.05 93.86,-57.01 99.34,-57.04 99.34,-57.04"/>
</g>
<!-- Node33 -->
<g id="node33" class="node">
<title>Node33</title>
<g id="a_node33"><a xlink:href="$group__lambda11.html#gacb4c74f6f85e5371e7b162f8df1cdbf8" xlink:title="utility">
<text text-anchor="middle" x="138" y="-7.4" font-family="Helvetica,Arial,sans-serif" font-size="12.00">utils_11</text>
</a>
</g>
</g>
<!-- Node1&#45;&gt;Node33 -->
<g id="edge34" class="edge">
<title>Node1&#45;&gt;Node33</title>
<path fill="none" stroke="midnightblue" d="M24.24,-252.99C29.25,-212.12 49.23,-64.43 80,-30.5 86.18,-23.68 94.82,-19.19 103.51,-16.23"/>
<polygon fill="midnightblue" stroke="midnightblue" points="108.33,-14.73 104.22,-18.36 105.94,-15.48 103.55,-16.22 103.55,-16.22 103.55,-16.22 105.94,-15.48 102.89,-14.07 108.33,-14.73 108.33,-14.73"/>
</g>
<!-- Node3&#45;&gt;Node3 -->
<g id="edge3" class="edge">
<title>Node3&#45;&gt;Node3</title>
<path fill="none" stroke="midnightblue" d="M119.57,-489.02C111.69,-497.81 117.84,-507 138,-507 154.7,-507 161.78,-500.7 159.25,-493.54"/>
<polygon fill="midnightblue" stroke="midnightblue" points="156.43,-489.02 160.99,-492.07 157.75,-491.14 159.08,-493.27 159.08,-493.27 159.08,-493.27 157.75,-491.14 157.17,-494.46 156.43,-489.02 156.43,-489.02"/>
</g>
<!-- Node5 -->
<g id="node5" class="node">
<title>Node5</title>
<g id="a_node5"><a xlink:href="$group__lambda11.html#ga0d880f8b29e2b4378efeeb49eadfc08b" xlink:title="container">
<text text-anchor="middle" x="299.5" y="-436.4" font-family="Helvetica,Arial,sans-serif" font-size="12.00">test_list_container</text>
</a>
</g>
</g>
<!-- Node4&#45;&gt;Node5 -->
<g id="edge5" class="edge">
<title>Node4&#45;&gt;Node5</title>
<path fill="none" stroke="midnightblue" d="M181.32,-439.5C198.53,-439.5 218.75,-439.5 237.5,-439.5"/>
<polygon fill="midnightblue" stroke="midnightblue" points="242.75,-439.5 237.75,-441.75 240.25,-439.5 237.75,-439.5 237.75,-439.5 237.75,-439.5 240.25,-439.5 237.75,-437.25 242.75,-439.5 242.75,-439.5"/>
</g>
<!-- Node10 -->
<g id="node10" class="node">
<title>Node10</title>
<g id="a_node10"><a xlink:href="$group__lang11.html#ga90b35e01fc69af078797f15afe3cd85c" xlink:title=" ">
<text text-anchor="middle" x="299.5" y="-397.4" font-family="Helvetica,Arial,sans-serif" font-size="12.00">dynamic_memory_11</text>
</a>
</g>
</g>
<!-- Node9&#45;&gt;Node10 -->
<g id="edge10" class="edge">
<title>Node9&#45;&gt;Node10</title>
<path fill="none" stroke="midnightblue" d="M181.64,-294.09C186.85,-296.6 191.81,-299.69 196,-303.5 224.25,-329.19 203,-356.66 232,-381.5 234.57,-383.7 237.39,-385.65 240.36,-387.38"/>
<polygon fill="midnightblue" stroke="midnightblue" points="245.14,-389.9 239.67,-389.56 242.93,-388.74 240.72,-387.57 240.72,-387.57 240.72,-387.57 242.93,-388.74 241.77,-385.58 245.14,-389.9 245.14,-389.9"/>
</g>
<!-- Node14 -->
<g id="node14" class="node">
<title>Node14</title>
<g id="a_node14"><a xlink:href="$group__lang11.html#ga36919d7669c19a0f73874e91af90d0d4" xlink:title=" ">
<text text-anchor="middle" x="299.5" y="-358.4" font-family="Helvetica,Arial,sans-serif" font-size="12.00">func_11</text>
</a>
</g>
</g>
<!-- Node9&#45;&gt;Node14 -->
<g id="edge14" class="edge">
<title>Node9&#45;&gt;Node14</title>
<path fill="none" stroke="midnightblue" d="M177.33,-294.03C183.82,-296.62 190.3,-299.76 196,-303.5 215.71,-316.46 211.91,-330.13 232,-342.5 241.93,-348.61 253.9,-352.82 264.93,-355.69"/>
<polygon fill="midnightblue" stroke="midnightblue" points="269.92,-356.92 264.53,-357.91 267.49,-356.32 265.06,-355.73 265.06,-355.73 265.06,-355.73 267.49,-356.32 265.6,-353.54 269.92,-356.92 269.92,-356.92"/>
</g>
<!-- Node16 -->
<g id="node16" class="node">
<title>Node16</title>
<g id="a_node16"><a xlink:href="$group__lang11.html#gab8e1cf21cef29f6a3b8b4d3bf7ae378f" xlink:title=" ">
<text text-anchor="middle" x="299.5" y="-319.4" font-family="Helvetica,Arial,sans-serif" font-size="12.00">init_11</text>
</a>
</g>
</g>
<!-- Node9&#45;&gt;Node16 -->
<g id="edge16" class="edge">
<title>Node9&#45;&gt;Node16</title>
<path fill="none" stroke="midnightblue" d="M181.74,-293.95C208.79,-300.57 243.14,-308.96 267.57,-314.94"/>
<polygon fill="midnightblue" stroke="midnightblue" points="272.62,-316.17 267.23,-317.17 270.19,-315.58 267.76,-314.98 267.76,-314.98 267.76,-314.98 270.19,-315.58 268.3,-312.8 272.62,-316.17 272.62,-316.17"/>
</g>
<!-- Node18 -->
<g id="node18" class="node">
<title>Node18</title>
<g id="a_node18"><a xlink:href="$group__lang11.html#gab9898ff9bf1dd6f1cb58b481f0b4df79" xlink:title=" ">
<text text-anchor="middle" x="299.5" y="-280.4" font-family="Helvetica,Arial,sans-serif" font-size="12.00">references_11</text>
</a>
</g>
</g>
<!-- Node9&#45;&gt;Node18 -->
<g id="edge18" class="edge">
<title>Node9&#45;&gt;Node18</title>
<path fill="none" stroke="midnightblue" d="M181.74,-283.5C202.08,-283.5 226.53,-283.5 247.79,-283.5"/>
<polygon fill="midnightblue" stroke="midnightblue" points="252.84,-283.5 247.84,-285.75 250.34,-283.5 247.84,-283.5 247.84,-283.5 247.84,-283.5 250.34,-283.5 247.84,-281.25 252.84,-283.5 252.84,-283.5"/>
</g>
<!-- Node21 -->
<g id="node21" class="node">
<title>Node21</title>
<g id="a_node21"><a xlink:href="$group__lang11.html#gabb96757f5b32d1f595edf657b71b9e75" xlink:title=" ">
<text text-anchor="middle" x="299.5" y="-241.4" font-family="Helvetica,Arial,sans-serif" font-size="12.00">trailing_return_type</text>
</a>
</g>
</g>
<!-- Node9&#45;&gt;Node21 -->
<g id="edge22" class="edge">
<title>Node9&#45;&gt;Node21</title>
<path fill="none" stroke="midnightblue" d="M181.74,-273.05C202.93,-267.87 228.6,-261.59 250.47,-256.24"/>
<polygon fill="midnightblue" stroke="midnightblue" points="255.36,-255.05 251.04,-258.42 252.93,-255.64 250.5,-256.24 250.5,-256.24 250.5,-256.24 252.93,-255.64 249.97,-254.05 255.36,-255.05 255.36,-255.05"/>
</g>
<!-- Node22 -->
<g id="node22" class="node">
<title>Node22</title>
<g id="a_node22"><a xlink:href="$group__lang11.html#ga3cb9732a3d759a659a91f013a3763158" xlink:title=" ">
<text text-anchor="middle" x="299.5" y="-202.4" font-family="Helvetica,Arial,sans-serif" font-size="12.00">types_11</text>
</a>
</g>
</g>
<!-- Node9&#45;&gt;Node22 -->
<g id="edge23" class="edge">
<title>Node9&#45;&gt;Node22</title>
<path fill="none" stroke="midnightblue" d="M179.13,-273C185.02,-270.65 190.83,-267.84 196,-264.5 215.81,-251.7 212,-238.01 232,-225.5 240.87,-219.95 251.37,-215.87 261.38,-212.89"/>
<polygon fill="midnightblue" stroke="midnightblue" points="266.24,-211.52 262.04,-215.04 263.83,-212.2 261.43,-212.88 261.43,-212.88 261.43,-212.88 263.83,-212.2 260.82,-210.71 266.24,-211.52 266.24,-211.52"/>
</g>
<!-- Node11 -->
<g id="node11" class="node">
<title>Node11</title>
<g id="a_node11"><a xlink:href="$group__lang11.html#ga95c258fd50767b68c2ac27f647a812a0" xlink:title="shared_ptr">
<text text-anchor="middle" x="464" y="-475.4" font-family="Helvetica,Arial,sans-serif" font-size="12.00">shared_pointer</text>
</a>
</g>
</g>
<!-- Node10&#45;&gt;Node11 -->
<g id="edge11" class="edge">
<title>Node10&#45;&gt;Node11</title>
<path fill="none" stroke="midnightblue" d="M347.32,-411.1C354.19,-413.63 360.97,-416.73 367,-420.5 387,-433.01 383.09,-446.85 403,-459.5 406.86,-461.95 411.06,-464.11 415.39,-466.01"/>
<polygon fill="midnightblue" stroke="midnightblue" points="420.13,-467.96 414.65,-468.13 417.82,-467.01 415.51,-466.05 415.51,-466.05 415.51,-466.05 417.82,-467.01 416.36,-463.97 420.13,-467.96 420.13,-467.96"/>
</g>
<!-- Node12 -->
<g id="node12" class="node">
<title>Node12</title>
<g id="a_node12"><a xlink:href="$group__lang11.html#gad910833c04a752d3997e1e0fcc6598c8" xlink:title="unique_ptr">
<text text-anchor="middle" x="464" y="-436.4" font-family="Helvetica,Arial,sans-serif" font-size="12.00">unique_pounter</text>
</a>
</g>
</g>
<!-- Node10&#45;&gt;Node12 -->
<g id="edge12" class="edge">
<title>Node10&#45;&gt;Node12</title>
<path fill="none" stroke="midnightblue" d="M344.47,-411.05C365.97,-416.21 391.91,-422.44 414.04,-427.75"/>
<polygon fill="midnightblue" stroke="midnightblue" points="418.99,-428.94 413.6,-429.96 416.56,-428.35 414.13,-427.77 414.13,-427.77 414.13,-427.77 416.56,-428.35 414.65,-425.58 418.99,-428.94 418.99,-428.94"/>
</g>
<!-- Node13 -->
<g id="node13" class="node">
<title>Node13</title>
<g id="a_node13"><a xlink:href="$group__lang11.html#gac1a6e29326944fa42f80879e157048ae" xlink:title="weak_ptr">
<text text-anchor="middle" x="464" y="-397.4" font-family="Helvetica,Arial,sans-serif" font-size="12.00">weak_pointer</text>
</a>
</g>
</g>
<!-- Node10&#45;&gt;Node13 -->
<g id="edge13" class="edge">
<title>Node10&#45;&gt;Node13</title>
<path fill="none" stroke="midnightblue" d="M365.66,-400.5C382,-400.5 399.25,-400.5 414.61,-400.5"/>
<polygon fill="midnightblue" stroke="midnightblue" points="419.74,-400.5 414.74,-402.75 417.24,-400.5 414.74,-400.5 414.74,-400.5 414.74,-400.5 417.24,-400.5 414.74,-398.25 419.74,-400.5 419.74,-400.5"/>
</g>
<!-- Node15 -->
<g id="node15" class="node">
<title>Node15</title>
<g id="a_node15"><a xlink:href="$group__lang11.html#ga9c6fa22c842285400a04fcd5633a37c2" xlink:title="copy_elision">
<text text-anchor="middle" x="464" y="-358.4" font-family="Helvetica,Arial,sans-serif" font-size="12.00">copy_elision_demo</text>
</a>
</g>
</g>
<!-- Node14&#45;&gt;Node15 -->
<g id="edge15" class="edge">
<title>Node14&#45;&gt;Node15</title>
<path fill="none" stroke="midnightblue" d="M329.18,-361.5C348.32,-361.5 374.28,-361.5 398.24,-361.5"/>
<polygon fill="midnightblue" stroke="midnightblue" points="403.32,-361.5 398.32,-363.75 400.82,-361.5 398.32,-361.5 398.32,-361.5 398.32,-361.5 400.82,-361.5 398.32,-359.25 403.32,-361.5 403.32,-361.5"/>
</g>
<!-- Node17 -->
<g id="node17" class="node">
<title>Node17</title>
<g id="a_node17"><a xlink:href="$group__test20.html#ga4b60c31eceb860aee728d068d0439d4f" xlink:title=" ">
<text text-anchor="middle" x="464" y="-319.4" font-family="Helvetica,Arial,sans-serif" font-size="12.00">q</text>
</a>
</g>
</g>
<!-- Node16&#45;&gt;Node17 -->
<g id="edge17" class="edge">
<title>Node16&#45;&gt;Node17</title>
<path fill="none" stroke="midnightblue" d="M326.25,-322.5C359.11,-322.5 415.16,-322.5 444.25,-322.5"/>
<polygon fill="midnightblue" stroke="midnightblue" points="449.35,-322.5 444.35,-324.75 446.85,-322.5 444.35,-322.5 444.35,-322.5 444.35,-322.5 446.85,-322.5 444.35,-320.25 449.35,-322.5 449.35,-322.5"/>
</g>
<!-- Node19 -->
<g id="node19" class="node">
<title>Node19</title>
<g id="a_node19"><a xlink:href="$group__lang11.html#ga9592a69bceb833f1011e70b1fee4ef14" xlink:title=" ">
<text text-anchor="middle" x="595.5" y="-260.4" font-family="Helvetica,Arial,sans-serif" font-size="12.00">func_type</text>
</a>
</g>
</g>
<!-- Node18&#45;&gt;Node19 -->
<g id="edge19" class="edge">
<title>Node18&#45;&gt;Node19</title>
<path fill="none" stroke="midnightblue" d="M346.11,-280.4C403.61,-276.49 501.46,-269.83 555.59,-266.15"/>
<polygon fill="midnightblue" stroke="midnightblue" points="560.69,-265.8 555.86,-268.38 558.2,-265.97 555.71,-266.14 555.71,-266.14 555.71,-266.14 558.2,-265.97 555.55,-263.89 560.69,-265.8 560.69,-265.8"/>
</g>
<!-- Node20 -->
<g id="node20" class="node">
<title>Node20</title>
<g id="a_node20"><a xlink:href="$group__lang11.html#gaf2ee1e4cdb9cc5f58628700ccf7a8fd8" xlink:title="Forwarding reference">
<text text-anchor="middle" x="464" y="-241.4" font-family="Helvetica,Arial,sans-serif" font-size="12.00">func_type_template</text>
</a>
</g>
</g>
<!-- Node18&#45;&gt;Node20 -->
<g id="edge20" class="edge">
<title>Node18&#45;&gt;Node20</title>
<path fill="none" stroke="midnightblue" d="M344.47,-272.95C365.97,-267.79 391.91,-261.56 414.04,-256.25"/>
<polygon fill="midnightblue" stroke="midnightblue" points="418.99,-255.06 414.65,-258.42 416.56,-255.65 414.13,-256.23 414.13,-256.23 414.13,-256.23 416.56,-255.65 413.6,-254.04 418.99,-255.06 418.99,-255.06"/>
</g>
<!-- Node20&#45;&gt;Node19 -->
<g id="edge21" class="edge">
<title>Node20&#45;&gt;Node19</title>
<path fill="none" stroke="midnightblue" d="M525.2,-253.33C535.66,-254.87 546.28,-256.43 555.96,-257.85"/>
<polygon fill="midnightblue" stroke="midnightblue" points="560.93,-258.58 555.66,-260.08 558.46,-258.21 555.99,-257.85 555.99,-257.85 555.99,-257.85 558.46,-258.21 556.31,-255.62 560.93,-258.58 560.93,-258.58"/>
</g>
<!-- Node24 -->
<g id="node24" class="node">
<title>Node24</title>
<g id="a_node24"><a xlink:href="$group__lang11.html#ga6defcb4927d317b45de974b8e102070e" xlink:title=" ">
<text text-anchor="middle" x="299.5" y="-163.4" font-family="Helvetica,Arial,sans-serif" font-size="12.00">bar</text>
</a>
</g>
</g>
<!-- Node23&#45;&gt;Node24 -->
<g id="edge25" class="edge">
<title>Node23&#45;&gt;Node24</title>
<path fill="none" stroke="midnightblue" d="M163.22,-239.32C173.83,-236.35 186.1,-231.9 196,-225.5 215.81,-212.7 212,-199.01 232,-186.5 245.81,-177.87 263.56,-172.78 277.25,-169.89"/>
<polygon fill="midnightblue" stroke="midnightblue" points="282.46,-168.86 278,-172.04 280.01,-169.34 277.56,-169.83 277.56,-169.83 277.56,-169.83 280.01,-169.34 277.12,-167.62 282.46,-168.86 282.46,-168.86"/>
</g>
<!-- Node25 -->
<g id="node25" class="node">
<title>Node25</title>
<g id="a_node25"><a xlink:href="$group__attr.html#ga14bcd2d544b22300bba3863251393e0f" xlink:title=" ">
<text text-anchor="middle" x="299.5" y="-124.4" font-family="Helvetica,Arial,sans-serif" font-size="12.00">foo</text>
</a>
</g>
</g>
<!-- Node23&#45;&gt;Node25 -->
<g id="edge26" class="edge">
<title>Node23&#45;&gt;Node25</title>
<path fill="none" stroke="midnightblue" d="M163.12,-240.98C174.22,-238.31 186.91,-233.64 196,-225.5 224.45,-200.04 203.18,-172.54 232,-147.5 244.73,-136.44 263.39,-131.5 277.71,-129.29"/>
<polygon fill="midnightblue" stroke="midnightblue" points="282.77,-128.59 278.12,-131.5 280.29,-128.93 277.81,-129.27 277.81,-129.27 277.81,-129.27 280.29,-128.93 277.51,-127.04 282.77,-128.59 282.77,-128.59"/>
</g>
<!-- Node31 -->
<g id="node31" class="node">
<title>Node31</title>
<g id="a_node31"><a xlink:href="$group__threads11.html#gac92f23ee7b1928560e7a2f3b3a4fc61d" xlink:title=" ">
<text text-anchor="middle" x="299.5" y="-66.4" font-family="Helvetica,Arial,sans-serif" font-size="12.00">condition_variable_11</text>
</a>
</g>
</g>
<!-- Node30&#45;&gt;Node31 -->
<g id="edge32" class="edge">
<title>Node30&#45;&gt;Node31</title>
<path fill="none" stroke="midnightblue" d="M176.8,-54.24C191.74,-56.11 209.43,-58.33 226.63,-60.49"/>
<polygon fill="midnightblue" stroke="midnightblue" points="231.95,-61.16 226.71,-62.77 229.47,-60.84 226.99,-60.53 226.99,-60.53 226.99,-60.53 229.47,-60.84 227.27,-58.3 231.95,-61.16 231.95,-61.16"/>
</g>
<!-- Node32 -->
<g id="node32" class="node">
<title>Node32</title>
<g id="a_node32"><a xlink:href="$group__test20.html#ga3ee6c71848d9e06fcc000cf4cc8f70a7" xlink:title=" ">
<text text-anchor="middle" x="299.5" y="-27.4" font-family="Helvetica,Arial,sans-serif" font-size="12.00">f</text>
</a>
</g>
</g>
<!-- Node30&#45;&gt;Node32 -->
<g id="edge33" class="edge">
<title>Node30&#45;&gt;Node32</title>
<path fill="none" stroke="midnightblue" d="M176.8,-45C209.14,-41.15 254.34,-35.76 279.57,-32.76"/>
<polygon fill="midnightblue" stroke="midnightblue" points="284.63,-32.15 279.93,-34.98 282.15,-32.45 279.67,-32.74 279.67,-32.74 279.67,-32.74 282.15,-32.45 279.4,-30.51 284.63,-32.15 284.63,-32.15"/>
</g>
</g>
</svg>
