<?xml version="1.0" encoding="UTF-8" standalone="no"?>
<!DOCTYPE svg PUBLIC "-//W3C//DTD SVG 1.1//EN"
 "http://www.w3.org/Graphics/SVG/1.1/DTD/svg11.dtd">
<!-- Generated by graphviz version 2.43.0 (0)
 -->
<!-- Title: implicit_int_return_type Pages: 1 -->
<svg width="448pt" height="29pt"
 viewBox="0.00 0.00 448.00 29.00" xmlns="http://www.w3.org/2000/svg" xmlns:xlink="http://www.w3.org/1999/xlink">
<g id="graph0" class="graph" transform="scale(1 1) rotate(0) translate(4 25)">
<title>implicit_int_return_type</title>
<!-- Node1 -->
<g id="node1" class="node">
<title>Node1</title>
<g id="a_node1"><a xlink:title=" ">
<polygon fill="#bfbfbf" stroke="transparent" points="440,-21 288,-21 288,0 440,0 440,-21"/>
<text text-anchor="start" x="296" y="-8.4" font-family="Helvetica,Arial,sans-serif" font-weight="bold" font-size="12.00">implicit_int_return_type</text>
</a>
</g>
</g>
<!-- Node2 -->
<g id="node2" class="node">
<title>Node2</title>
<g id="a_node2"><a xlink:href="$group__ded14.html#gadab80778f14ac2a08f4c5acb72f2412c" xlink:title=" ">
<text text-anchor="middle" x="165.5" y="-7.4" font-family="Helvetica,Arial,sans-serif" font-size="12.00">return_type_deduction_demo</text>
</a>
</g>
</g>
<!-- Node1&#45;&gt;Node2 -->
<g id="edge1" class="edge">
<title>Node1&#45;&gt;Node2</title>
<path fill="none" stroke="midnightblue" d="M282.63,-10.5C272.56,-10.5 262.24,-10.5 252.09,-10.5"/>
<polygon fill="midnightblue" stroke="midnightblue" points="287.87,-10.5 282.87,-12.75 285.37,-10.5 282.87,-10.5 282.87,-10.5 282.87,-10.5 285.37,-10.5 282.87,-8.25 287.87,-10.5 287.87,-10.5"/>
</g>
<!-- Node3 -->
<g id="node3" class="node">
<title>Node3</title>
<g id="a_node3"><a xlink:href="$group__CPP14.html#ga840291bc02cba5474a4cb46a9b9566fe" xlink:title=" ">
<text text-anchor="middle" x="21.5" y="-7.4" font-family="Helvetica,Arial,sans-serif" font-size="12.00">main</text>
</a>
</g>
</g>
<!-- Node2&#45;&gt;Node3 -->
<g id="edge2" class="edge">
<title>Node2&#45;&gt;Node3</title>
<path fill="none" stroke="midnightblue" d="M73.41,-10.5C62.15,-10.5 51.64,-10.5 43.11,-10.5"/>
<polygon fill="midnightblue" stroke="midnightblue" points="78.62,-10.5 73.62,-12.75 76.12,-10.5 73.62,-10.5 73.62,-10.5 73.62,-10.5 76.12,-10.5 73.62,-8.25 78.62,-10.5 78.62,-10.5"/>
</g>
</g>
</svg>
