<?xml version="1.0" encoding="UTF-8" standalone="no"?>
<!DOCTYPE svg PUBLIC "-//W3C//DTD SVG 1.1//EN"
 "http://www.w3.org/Graphics/SVG/1.1/DTD/svg11.dtd">
<!-- Generated by graphviz version 2.43.0 (0)
 -->
<!-- Title: func_type Pages: 1 -->
<svg width="571pt" height="49pt"
 viewBox="0.00 0.00 571.00 49.00" xmlns="http://www.w3.org/2000/svg" xmlns:xlink="http://www.w3.org/1999/xlink">
<g id="graph0" class="graph" transform="scale(1 1) rotate(0) translate(4 45)">
<title>func_type</title>
<!-- Node1 -->
<g id="node1" class="node">
<title>Node1</title>
<g id="a_node1"><a xlink:title=" ">
<polygon fill="#bfbfbf" stroke="transparent" points="563,-21 489,-21 489,0 563,0 563,-21"/>
<text text-anchor="start" x="497" y="-8.4" font-family="Helvetica,Arial,sans-serif" font-weight="bold" font-size="12.00">func_type</text>
</a>
</g>
</g>
<!-- Node2 -->
<g id="node2" class="node">
<title>Node2</title>
<g id="a_node2"><a xlink:href="$group__lang11.html#gaf2ee1e4cdb9cc5f58628700ccf7a8fd8" xlink:title="Forwarding reference">
<text text-anchor="middle" x="392" y="-27.4" font-family="Helvetica,Arial,sans-serif" font-size="12.00">func_type_template</text>
</a>
</g>
</g>
<!-- Node1&#45;&gt;Node2 -->
<g id="edge1" class="edge">
<title>Node1&#45;&gt;Node2</title>
<path fill="none" stroke="midnightblue" d="M483.91,-16.73C474.16,-18.2 463.55,-19.81 453.15,-21.39"/>
<polygon fill="midnightblue" stroke="midnightblue" points="488.93,-15.97 484.32,-18.94 486.46,-16.34 483.99,-16.71 483.99,-16.71 483.99,-16.71 486.46,-16.34 483.65,-14.49 488.93,-15.97 488.93,-15.97"/>
</g>
<!-- Node3 -->
<g id="node3" class="node">
<title>Node3</title>
<g id="a_node3"><a xlink:href="$group__lang11.html#gab9898ff9bf1dd6f1cb58b481f0b4df79" xlink:title=" ">
<text text-anchor="middle" x="248.5" y="-7.4" font-family="Helvetica,Arial,sans-serif" font-size="12.00">references_11</text>
</a>
</g>
</g>
<!-- Node1&#45;&gt;Node3 -->
<g id="edge5" class="edge">
<title>Node1&#45;&gt;Node3</title>
<path fill="none" stroke="midnightblue" d="M483.9,-10.5C433.33,-10.5 347.73,-10.5 295.15,-10.5"/>
<polygon fill="midnightblue" stroke="midnightblue" points="488.98,-10.5 483.98,-12.75 486.48,-10.5 483.98,-10.5 483.98,-10.5 483.98,-10.5 486.48,-10.5 483.98,-8.25 488.98,-10.5 488.98,-10.5"/>
</g>
<!-- Node2&#45;&gt;Node3 -->
<g id="edge2" class="edge">
<title>Node2&#45;&gt;Node3</title>
<path fill="none" stroke="midnightblue" d="M325.89,-21.3C315.45,-19.82 304.85,-18.32 295,-16.93"/>
<polygon fill="midnightblue" stroke="midnightblue" points="330.99,-22.02 325.73,-23.55 328.52,-21.67 326.04,-21.32 326.04,-21.32 326.04,-21.32 328.52,-21.67 326.36,-19.09 330.99,-22.02 330.99,-22.02"/>
</g>
<!-- Node4 -->
<g id="node4" class="node">
<title>Node4</title>
<g id="a_node4"><a xlink:href="$group__lang11.html#gaa2d7b19a78d91914e735ea5a16767df4" xlink:title=" ">
<text text-anchor="middle" x="122.5" y="-7.4" font-family="Helvetica,Arial,sans-serif" font-size="12.00">language_11</text>
</a>
</g>
</g>
<!-- Node3&#45;&gt;Node4 -->
<g id="edge3" class="edge">
<title>Node3&#45;&gt;Node4</title>
<path fill="none" stroke="midnightblue" d="M196.47,-10.5C186.43,-10.5 175.99,-10.5 166.26,-10.5"/>
<polygon fill="midnightblue" stroke="midnightblue" points="201.68,-10.5 196.68,-12.75 199.18,-10.5 196.68,-10.5 196.68,-10.5 196.68,-10.5 199.18,-10.5 196.68,-8.25 201.68,-10.5 201.68,-10.5"/>
</g>
<!-- Node5 -->
<g id="node5" class="node">
<title>Node5</title>
<g id="a_node5"><a xlink:href="$group__CPP11.html#ga840291bc02cba5474a4cb46a9b9566fe" xlink:title=" ">
<text text-anchor="middle" x="21.5" y="-7.4" font-family="Helvetica,Arial,sans-serif" font-size="12.00">main</text>
</a>
</g>
</g>
<!-- Node4&#45;&gt;Node5 -->
<g id="edge4" class="edge">
<title>Node4&#45;&gt;Node5</title>
<path fill="none" stroke="midnightblue" d="M73.7,-10.5C62.98,-10.5 52.16,-10.5 43.24,-10.5"/>
<polygon fill="midnightblue" stroke="midnightblue" points="78.94,-10.5 73.94,-12.75 76.44,-10.5 73.94,-10.5 73.94,-10.5 73.94,-10.5 76.44,-10.5 73.94,-8.25 78.94,-10.5 78.94,-10.5"/>
</g>
</g>
</svg>
