<?xml version="1.0" encoding="UTF-8" standalone="no"?>
<!DOCTYPE svg PUBLIC "-//W3C//DTD SVG 1.1//EN"
 "http://www.w3.org/Graphics/SVG/1.1/DTD/svg11.dtd">
<!-- Generated by graphviz version 2.43.0 (0)
 -->
<!-- Title: creational_patterns_demo Pages: 1 -->
<svg width="580pt" height="206pt"
 viewBox="0.00 0.00 580.00 206.00" xmlns="http://www.w3.org/2000/svg" xmlns:xlink="http://www.w3.org/1999/xlink">
<g id="graph0" class="graph" transform="scale(1 1) rotate(0) translate(4 202)">
<title>creational_patterns_demo</title>
<!-- Node1 -->
<g id="node1" class="node">
<title>Node1</title>
<g id="a_node1"><a xlink:title=" ">
<text text-anchor="start" x="8" y="-96.9" font-family="UbuntuXX" font-weight="bold" font-size="12.00">creational_patterns_demo</text>
</a>
</g>
</g>
<!-- Node2 -->
<g id="node2" class="node">
<title>Node2</title>
<g id="a_node2"><a xlink:href="structBuilder.html#a0490ca9df304a27fa0bd61e25f71a3f1" target="_top" xlink:title=" ">
<text text-anchor="middle" x="305" y="-176.9" font-family="UbuntuXX" font-size="12.00">Builder::add</text>
</a>
</g>
</g>
<!-- Node1&#45;&gt;Node2 -->
<g id="edge1" class="edge">
<title>Node1&#45;&gt;Node2</title>
<path fill="none" stroke="midnightblue" d="M139.26,-117.05C164.83,-127.8 198.14,-141.55 228,-153 237.02,-156.46 246.69,-160.01 256.02,-163.36"/>
<polygon fill="midnightblue" stroke="midnightblue" points="260.86,-165.09 255.39,-165.53 258.5,-164.25 256.15,-163.41 256.15,-163.41 256.15,-163.41 258.5,-164.25 256.91,-161.29 260.86,-165.09 260.86,-165.09"/>
</g>
<!-- Node3 -->
<g id="node3" class="node">
<title>Node3</title>
<g id="a_node3"><a xlink:href="structFactory__method__demo.html#a06046828f550a6e72b4798906d1e3466" target="_top" xlink:title=" ">
<text text-anchor="start" x="236" y="-129.4" font-family="UbuntuXX" font-size="12.00">Factory_method_demo</text>
<text text-anchor="middle" x="305" y="-116.4" font-family="UbuntuXX" font-size="12.00">::client</text>
</a>
</g>
</g>
<!-- Node1&#45;&gt;Node3 -->
<g id="edge2" class="edge">
<title>Node1&#45;&gt;Node3</title>
<path fill="none" stroke="midnightblue" d="M192.02,-111.39C202.25,-112.73 212.58,-114.08 222.63,-115.39"/>
<polygon fill="midnightblue" stroke="midnightblue" points="227.86,-116.07 222.61,-117.65 225.38,-115.74 222.9,-115.42 222.9,-115.42 222.9,-115.42 225.38,-115.74 223.19,-113.19 227.86,-116.07 227.86,-116.07"/>
</g>
<!-- Node5 -->
<g id="node5" class="node">
<title>Node5</title>
<g id="a_node5"><a xlink:href="structPrototype.html#ac457723ab2c827423afd9215811b5b03" target="_top" xlink:title=" ">
<text text-anchor="middle" x="305" y="-68.9" font-family="UbuntuXX" font-size="12.00">Prototype::create</text>
</a>
</g>
</g>
<!-- Node1&#45;&gt;Node5 -->
<g id="edge4" class="edge">
<title>Node1&#45;&gt;Node5</title>
<path fill="none" stroke="midnightblue" d="M192.02,-86.61C208.35,-84.48 224.96,-82.31 240.21,-80.32"/>
<polygon fill="midnightblue" stroke="midnightblue" points="245.33,-79.65 240.67,-82.53 242.85,-79.98 240.37,-80.3 240.37,-80.3 240.37,-80.3 242.85,-79.98 240.08,-78.07 245.33,-79.65 245.33,-79.65"/>
</g>
<!-- Node6 -->
<g id="node6" class="node">
<title>Node6</title>
<g id="a_node6"><a xlink:href="structInterface.html#a73306300ba88073a31d86d9e282ff5ca" target="_top" xlink:title=" ">
<text text-anchor="middle" x="305" y="-14.9" font-family="UbuntuXX" font-size="12.00">Interface::method</text>
</a>
</g>
</g>
<!-- Node1&#45;&gt;Node6 -->
<g id="edge5" class="edge">
<title>Node1&#45;&gt;Node6</title>
<path fill="none" stroke="midnightblue" d="M139.26,-80.95C164.83,-70.2 198.14,-56.45 228,-45 234.15,-42.64 240.6,-40.24 247.04,-37.89"/>
<polygon fill="midnightblue" stroke="midnightblue" points="251.95,-36.1 248.02,-39.93 249.6,-36.96 247.25,-37.81 247.25,-37.81 247.25,-37.81 249.6,-36.96 246.49,-35.7 251.95,-36.1 251.95,-36.1"/>
</g>
<!-- Node4 -->
<g id="node4" class="node">
<title>Node4</title>
<g id="a_node4"><a xlink:href="structFactory__method__demo.html#a8746eb954f21cbee4f733567fe11934e" target="_top" xlink:title=" ">
<text text-anchor="start" x="426" y="-129.4" font-family="UbuntuXX" font-size="12.00">Factory_method_demo</text>
<text text-anchor="middle" x="495" y="-116.4" font-family="UbuntuXX" font-size="12.00">::factory_method</text>
</a>
</g>
</g>
<!-- Node3&#45;&gt;Node4 -->
<g id="edge3" class="edge">
<title>Node3&#45;&gt;Node4</title>
<path fill="none" stroke="midnightblue" d="M382.2,-126C392.16,-126 402.41,-126 412.46,-126"/>
<polygon fill="midnightblue" stroke="midnightblue" points="417.7,-126 412.7,-128.25 415.2,-126 412.7,-126 412.7,-126 412.7,-126 415.2,-126 412.7,-123.75 417.7,-126 417.7,-126"/>
</g>
</g>
</svg>
