<?xml version="1.0" encoding="UTF-8" standalone="no"?>
<!DOCTYPE svg PUBLIC "-//W3C//DTD SVG 1.1//EN"
 "http://www.w3.org/Graphics/SVG/1.1/DTD/svg11.dtd">
<!-- Generated by graphviz version 2.43.0 (0)
 -->
<!-- Title: types_17 Pages: 1 -->
<svg width="252pt" height="47pt"
 viewBox="0.00 0.00 252.00 47.00" xmlns="http://www.w3.org/2000/svg" xmlns:xlink="http://www.w3.org/1999/xlink">
<g id="graph0" class="graph" transform="scale(1 1) rotate(0) translate(4 43)">
<title>types_17</title>
<!-- Node1 -->
<g id="node1" class="node">
<title>Node1</title>
<g id="a_node1"><a xlink:title=" ">
<polygon fill="#bfbfbf" stroke="transparent" points="244,-21 175,-21 175,0 244,0 244,-21"/>
<text text-anchor="start" x="183" y="-8.4" font-family="Helvetica,Arial,sans-serif" font-weight="bold" font-size="12.00">types_17</text>
</a>
</g>
</g>
<!-- Node1&#45;&gt;Node1 -->
<g id="edge3" class="edge">
<title>Node1&#45;&gt;Node1</title>
<path fill="none" stroke="midnightblue" d="M227.82,-25.54C230,-32.7 223.9,-39 209.5,-39 192.12,-39 186.82,-29.81 193.61,-21.02"/>
<polygon fill="midnightblue" stroke="midnightblue" points="225.39,-21.02 229.74,-24.36 226.57,-23.23 227.76,-25.43 227.76,-25.43 227.76,-25.43 226.57,-23.23 225.78,-26.49 225.39,-21.02 225.39,-21.02"/>
</g>
<!-- Node2 -->
<g id="node2" class="node">
<title>Node2</title>
<g id="a_node2"><a xlink:href="$group__lang17.html#ga511a3c761f5be8bf3c9bb7db27a91696" xlink:title="language">
<text text-anchor="middle" x="109" y="-7.4" font-family="Helvetica,Arial,sans-serif" font-size="12.00">lang_17</text>
</a>
</g>
</g>
<!-- Node1&#45;&gt;Node2 -->
<g id="edge1" class="edge">
<title>Node1&#45;&gt;Node2</title>
<path fill="none" stroke="midnightblue" d="M169.64,-10.5C159.5,-10.5 148.74,-10.5 139.2,-10.5"/>
<polygon fill="midnightblue" stroke="midnightblue" points="174.88,-10.5 169.88,-12.75 172.38,-10.5 169.88,-10.5 169.88,-10.5 169.88,-10.5 172.38,-10.5 169.88,-8.25 174.88,-10.5 174.88,-10.5"/>
</g>
<!-- Node3 -->
<g id="node3" class="node">
<title>Node3</title>
<g id="a_node3"><a xlink:href="$group__CPP17.html#gae66f6b31b5ad750f1fe042a706a4e3d4" xlink:title=" ">
<text text-anchor="middle" x="21.5" y="-7.4" font-family="Helvetica,Arial,sans-serif" font-size="12.00">main</text>
</a>
</g>
</g>
<!-- Node2&#45;&gt;Node3 -->
<g id="edge2" class="edge">
<title>Node2&#45;&gt;Node3</title>
<path fill="none" stroke="midnightblue" d="M73.57,-10.5C63.23,-10.5 52.22,-10.5 43.08,-10.5"/>
<polygon fill="midnightblue" stroke="midnightblue" points="78.58,-10.5 73.58,-12.75 76.08,-10.5 73.58,-10.5 73.58,-10.5 73.58,-10.5 76.08,-10.5 73.58,-8.25 78.58,-10.5 78.58,-10.5"/>
</g>
</g>
</svg>
