<?xml version="1.0" encoding="UTF-8" standalone="no"?>
<!DOCTYPE svg PUBLIC "-//W3C//DTD SVG 1.1//EN"
 "http://www.w3.org/Graphics/SVG/1.1/DTD/svg11.dtd">
<!-- Generated by graphviz version 2.43.0 (0)
 -->
<!-- Title: folding_sum Pages: 1 -->
<svg width="396pt" height="29pt"
 viewBox="0.00 0.00 396.00 29.00" xmlns="http://www.w3.org/2000/svg" xmlns:xlink="http://www.w3.org/1999/xlink">
<g id="graph0" class="graph" transform="scale(1 1) rotate(0) translate(4 25)">
<title>folding_sum</title>
<!-- Node1 -->
<g id="node1" class="node">
<title>Node1</title>
<g id="a_node1"><a xlink:title=" ">
<polygon fill="#bfbfbf" stroke="transparent" points="388,-21 300,-21 300,0 388,0 388,-21"/>
<text text-anchor="start" x="308" y="-8.4" font-family="Helvetica,Arial,sans-serif" font-weight="bold" font-size="12.00">folding_sum</text>
</a>
</g>
</g>
<!-- Node2 -->
<g id="node2" class="node">
<title>Node2</title>
<g id="a_node2"><a xlink:href="$group__folding.html#ga24fef2e3a7adf434ab68772454c869d4" xlink:title=" ">
<text text-anchor="middle" x="219.5" y="-7.4" font-family="Helvetica,Arial,sans-serif" font-size="12.00">folding_demo</text>
</a>
</g>
</g>
<!-- Node1&#45;&gt;Node2 -->
<g id="edge1" class="edge">
<title>Node1&#45;&gt;Node2</title>
<path fill="none" stroke="midnightblue" d="M294.6,-10.5C284.54,-10.5 274,-10.5 264.13,-10.5"/>
<polygon fill="midnightblue" stroke="midnightblue" points="299.81,-10.5 294.81,-12.75 297.31,-10.5 294.81,-10.5 294.81,-10.5 294.81,-10.5 297.31,-10.5 294.81,-8.25 299.81,-10.5 299.81,-10.5"/>
</g>
<!-- Node3 -->
<g id="node3" class="node">
<title>Node3</title>
<g id="a_node3"><a xlink:href="$group__lang17.html#ga511a3c761f5be8bf3c9bb7db27a91696" xlink:title="language">
<text text-anchor="middle" x="109" y="-7.4" font-family="Helvetica,Arial,sans-serif" font-size="12.00">lang_17</text>
</a>
</g>
</g>
<!-- Node2&#45;&gt;Node3 -->
<g id="edge2" class="edge">
<title>Node2&#45;&gt;Node3</title>
<path fill="none" stroke="midnightblue" d="M169.88,-10.5C159.41,-10.5 148.66,-10.5 139.21,-10.5"/>
<polygon fill="midnightblue" stroke="midnightblue" points="174.99,-10.5 169.99,-12.75 172.49,-10.5 169.99,-10.5 169.99,-10.5 169.99,-10.5 172.49,-10.5 169.99,-8.25 174.99,-10.5 174.99,-10.5"/>
</g>
<!-- Node4 -->
<g id="node4" class="node">
<title>Node4</title>
<g id="a_node4"><a xlink:href="$group__CPP17.html#gae66f6b31b5ad750f1fe042a706a4e3d4" xlink:title=" ">
<text text-anchor="middle" x="21.5" y="-7.4" font-family="Helvetica,Arial,sans-serif" font-size="12.00">main</text>
</a>
</g>
</g>
<!-- Node3&#45;&gt;Node4 -->
<g id="edge3" class="edge">
<title>Node3&#45;&gt;Node4</title>
<path fill="none" stroke="midnightblue" d="M73.57,-10.5C63.23,-10.5 52.22,-10.5 43.08,-10.5"/>
<polygon fill="midnightblue" stroke="midnightblue" points="78.58,-10.5 73.58,-12.75 76.08,-10.5 73.58,-10.5 73.58,-10.5 73.58,-10.5 76.08,-10.5 73.58,-8.25 78.58,-10.5 78.58,-10.5"/>
</g>
</g>
</svg>
