<?xml version="1.0" encoding="UTF-8" standalone="no"?>
<!DOCTYPE svg PUBLIC "-//W3C//DTD SVG 1.1//EN"
 "http://www.w3.org/Graphics/SVG/1.1/DTD/svg11.dtd">
<!-- Generated by graphviz version 2.43.0 (0)
 -->
<!-- Title: associative_containers_03 Pages: 1 -->
<svg width="378pt" height="29pt"
 viewBox="0.00 0.00 378.00 29.00" xmlns="http://www.w3.org/2000/svg" xmlns:xlink="http://www.w3.org/1999/xlink">
<g id="graph0" class="graph" transform="scale(1 1) rotate(0) translate(4 25)">
<title>associative_containers_03</title>
<!-- Node1 -->
<g id="node1" class="node">
<title>Node1</title>
<g id="a_node1"><a xlink:title=" ">
<polygon fill="#bfbfbf" stroke="transparent" points="370,-21 201,-21 201,0 370,0 370,-21"/>
<text text-anchor="start" x="209" y="-8.4" font-family="Helvetica,Arial,sans-serif" font-weight="bold" font-size="12.00">associative_containers_03</text>
</a>
</g>
</g>
<!-- Node2 -->
<g id="node2" class="node">
<title>Node2</title>
<g id="a_node2"><a xlink:href="$group__lang03.html#ga83f53ac8c07000ae6975d0b96cded5da" xlink:title="container">
<text text-anchor="middle" x="122" y="-7.4" font-family="Helvetica,Arial,sans-serif" font-size="12.00">container_03</text>
</a>
</g>
</g>
<!-- Node1&#45;&gt;Node2 -->
<g id="edge1" class="edge">
<title>Node1&#45;&gt;Node2</title>
<path fill="none" stroke="midnightblue" d="M195.72,-10.5C185.18,-10.5 174.82,-10.5 165.38,-10.5"/>
<polygon fill="midnightblue" stroke="midnightblue" points="200.91,-10.5 195.91,-12.75 198.41,-10.5 195.91,-10.5 195.91,-10.5 195.91,-10.5 198.41,-10.5 195.91,-8.25 200.91,-10.5 200.91,-10.5"/>
</g>
<!-- Node3 -->
<g id="node3" class="node">
<title>Node3</title>
<g id="a_node3"><a xlink:href="$group__CPP03.html#ga840291bc02cba5474a4cb46a9b9566fe" xlink:title=" ">
<text text-anchor="middle" x="21.5" y="-7.4" font-family="Helvetica,Arial,sans-serif" font-size="12.00">main</text>
</a>
</g>
</g>
<!-- Node2&#45;&gt;Node3 -->
<g id="edge2" class="edge">
<title>Node2&#45;&gt;Node3</title>
<path fill="none" stroke="midnightblue" d="M73.71,-10.5C63.01,-10.5 52.19,-10.5 43.26,-10.5"/>
<polygon fill="midnightblue" stroke="midnightblue" points="78.94,-10.5 73.94,-12.75 76.44,-10.5 73.94,-10.5 73.94,-10.5 73.94,-10.5 76.44,-10.5 73.94,-8.25 78.94,-10.5 78.94,-10.5"/>
</g>
</g>
</svg>
