<?xml version="1.0" encoding="UTF-8" standalone="no"?>
<!DOCTYPE svg PUBLIC "-//W3C//DTD SVG 1.1//EN"
 "http://www.w3.org/Graphics/SVG/1.1/DTD/svg11.dtd">
<!-- Generated by graphviz version 2.43.0 (0)
 -->
<!-- Title: main Pages: 1 -->
<svg width="537pt" height="872pt"
 viewBox="0.00 0.00 537.00 872.00" xmlns="http://www.w3.org/2000/svg" xmlns:xlink="http://www.w3.org/1999/xlink">
<g id="graph0" class="graph" transform="scale(1 1) rotate(0) translate(4 868)">
<title>main</title>
<!-- Node1 -->
<g id="node1" class="node">
<title>Node1</title>
<g id="a_node1"><a xlink:title=" ">
<text text-anchor="start" x="10" y="-420.9" font-family="UbuntuXX" font-weight="bold" font-size="12.00">main</text>
</a>
</g>
</g>
<!-- Node2 -->
<g id="node2" class="node">
<title>Node2</title>
<g id="a_node2"><a xlink:href="group__lambda11.html#ga85615049e1a60b40caa291f055769c5c" target="_top" xlink:title="algorithm">
<text text-anchor="middle" x="163" y="-842.9" font-family="UbuntuXX" font-size="12.00">algorithm_11</text>
</a>
</g>
</g>
<!-- Node1&#45;&gt;Node2 -->
<g id="edge1" class="edge">
<title>Node1&#45;&gt;Node2</title>
<path fill="none" stroke="midnightblue" d="M28.48,-441.24C30.66,-510.99 41.76,-759.79 90,-819 95.38,-825.6 102.54,-830.59 110.27,-834.35"/>
<polygon fill="midnightblue" stroke="midnightblue" points="115.15,-836.55 109.66,-836.55 112.87,-835.52 110.59,-834.5 110.59,-834.5 110.59,-834.5 112.87,-835.52 111.51,-832.44 115.15,-836.55 115.15,-836.55"/>
</g>
<!-- Node3 -->
<g id="node3" class="node">
<title>Node3</title>
<g id="a_node3"><a xlink:href="group__lang11.html#gab68bb32a6031780e75cef0a1ded4cdb9" target="_top" xlink:title="https://en.cppreference.com/w/cpp/language/constexpr">
<text text-anchor="middle" x="163" y="-770.9" font-family="UbuntuXX" font-size="12.00">constexpr_factorial</text>
</a>
</g>
</g>
<!-- Node1&#45;&gt;Node3 -->
<g id="edge2" class="edge">
<title>Node1&#45;&gt;Node3</title>
<path fill="none" stroke="midnightblue" d="M29.18,-441.22C33.48,-502.48 50.22,-699.82 90,-747 91.69,-749 93.54,-750.85 95.51,-752.57"/>
<polygon fill="midnightblue" stroke="midnightblue" points="99.75,-755.9 94.43,-754.57 97.78,-754.35 95.82,-752.8 95.82,-752.8 95.82,-752.8 97.78,-754.35 97.21,-751.04 99.75,-755.9 99.75,-755.9"/>
</g>
<!-- Node4 -->
<g id="node4" class="node">
<title>Node4</title>
<g id="a_node4"><a xlink:href="group__lambda11.html#ga72e4d10e6c0223462fb8e5cbb6a647dc" target="_top" xlink:title="container">
<text text-anchor="middle" x="163" y="-716.9" font-family="UbuntuXX" font-size="12.00">container_11</text>
</a>
</g>
</g>
<!-- Node1&#45;&gt;Node4 -->
<g id="edge4" class="edge">
<title>Node1&#45;&gt;Node4</title>
<path fill="none" stroke="midnightblue" d="M29.93,-441.17C36.04,-495.4 56.51,-654.72 90,-693 95.53,-699.32 102.7,-704.17 110.36,-707.88"/>
<polygon fill="midnightblue" stroke="midnightblue" points="115.18,-710.05 109.7,-710.05 112.9,-709.03 110.62,-708 110.62,-708 110.62,-708 112.9,-709.03 111.54,-705.95 115.18,-710.05 115.18,-710.05"/>
</g>
<!-- Node5 -->
<g id="node5" class="node">
<title>Node5</title>
<g id="a_node5"><a xlink:href="group__lang11.html#ga90b35e01fc69af078797f15afe3cd85c" target="_top" xlink:title=" ">
<text text-anchor="middle" x="163" y="-662.9" font-family="UbuntuXX" font-size="12.00">dynamic_memory_11</text>
</a>
</g>
</g>
<!-- Node1&#45;&gt;Node5 -->
<g id="edge5" class="edge">
<title>Node1&#45;&gt;Node5</title>
<path fill="none" stroke="midnightblue" d="M28,-441.26C28.99,-482.09 37.05,-581.68 90,-639 91.92,-641.08 94.03,-643.01 96.26,-644.78"/>
<polygon fill="midnightblue" stroke="midnightblue" points="100.42,-647.82 95.06,-646.69 98.4,-646.35 96.38,-644.87 96.38,-644.87 96.38,-644.87 98.4,-646.35 97.71,-643.06 100.42,-647.82 100.42,-647.82"/>
</g>
<!-- Node9 -->
<g id="node9" class="node">
<title>Node9</title>
<g id="a_node9"><a xlink:href="group__lang11.html#ga36919d7669c19a0f73874e91af90d0d4" target="_top" xlink:title=" ">
<text text-anchor="middle" x="163" y="-608.9" font-family="UbuntuXX" font-size="12.00">func_11</text>
</a>
</g>
</g>
<!-- Node1&#45;&gt;Node9 -->
<g id="edge9" class="edge">
<title>Node1&#45;&gt;Node9</title>
<path fill="none" stroke="midnightblue" d="M30.07,-441.19C34.76,-474.24 49.19,-544.47 90,-585 99.7,-594.63 113.16,-600.88 125.82,-604.91"/>
<polygon fill="midnightblue" stroke="midnightblue" points="130.81,-606.4 125.38,-607.12 128.41,-605.68 126.02,-604.97 126.02,-604.97 126.02,-604.97 128.41,-605.68 126.66,-602.81 130.81,-606.4 130.81,-606.4"/>
</g>
<!-- Node10 -->
<g id="node10" class="node">
<title>Node10</title>
<g id="a_node10"><a xlink:href="group__lang11.html#gab8e1cf21cef29f6a3b8b4d3bf7ae378f" target="_top" xlink:title=" ">
<text text-anchor="middle" x="163" y="-554.9" font-family="UbuntuXX" font-size="12.00">init_11</text>
</a>
</g>
</g>
<!-- Node1&#45;&gt;Node10 -->
<g id="edge10" class="edge">
<title>Node1&#45;&gt;Node10</title>
<path fill="none" stroke="midnightblue" d="M34.03,-441.24C42.78,-465.03 61.17,-506.5 90,-531 101.33,-540.62 116.42,-546.98 129.86,-551.1"/>
<polygon fill="midnightblue" stroke="midnightblue" points="134.73,-552.51 129.3,-553.28 132.32,-551.81 129.92,-551.12 129.92,-551.12 129.92,-551.12 132.32,-551.81 130.55,-548.96 134.73,-552.51 134.73,-552.51"/>
</g>
<!-- Node11 -->
<g id="node11" class="node">
<title>Node11</title>
<g id="a_node11"><a xlink:href="group__lambda11.html#ga3b7b316884496ec679ce597d3500ec4b" target="_top" xlink:title=" ">
<text text-anchor="middle" x="163" y="-500.9" font-family="UbuntuXX" font-size="12.00">lambda_basics</text>
</a>
</g>
</g>
<!-- Node1&#45;&gt;Node11 -->
<g id="edge11" class="edge">
<title>Node1&#45;&gt;Node11</title>
<path fill="none" stroke="midnightblue" d="M45.37,-441.17C57.11,-452.65 73.45,-467.13 90,-477 95.11,-480.04 100.61,-482.85 106.23,-485.4"/>
<polygon fill="midnightblue" stroke="midnightblue" points="110.97,-487.48 105.48,-487.53 108.68,-486.48 106.39,-485.47 106.39,-485.47 106.39,-485.47 108.68,-486.48 107.3,-483.41 110.97,-487.48 110.97,-487.48"/>
</g>
<!-- Node12 -->
<g id="node12" class="node">
<title>Node12</title>
<g id="a_node12"><a xlink:href="group__lambda11.html#ga98e0b31385bc6cf20a3b6b69efd918de" target="_top" xlink:title=" ">
<text text-anchor="middle" x="163" y="-446.9" font-family="UbuntuXX" font-size="12.00">lambda_capture</text>
</a>
</g>
</g>
<!-- Node1&#45;&gt;Node12 -->
<g id="edge12" class="edge">
<title>Node1&#45;&gt;Node12</title>
<path fill="none" stroke="midnightblue" d="M54.15,-428.27C67.61,-430.98 84.63,-434.41 101.14,-437.74"/>
<polygon fill="midnightblue" stroke="midnightblue" points="106.25,-438.77 100.9,-439.98 103.8,-438.27 101.35,-437.78 101.35,-437.78 101.35,-437.78 103.8,-438.27 101.79,-435.57 106.25,-438.77 106.25,-438.77"/>
</g>
<!-- Node13 -->
<g id="node13" class="node">
<title>Node13</title>
<g id="a_node13"><a xlink:href="group__lambda11__complex.html#ga1fad3951c3da909abe5f91ebbff9f433" target="_top" xlink:title=" ">
<text text-anchor="middle" x="163" y="-392.9" font-family="UbuntuXX" font-size="12.00">lambda_complex</text>
</a>
</g>
</g>
<!-- Node1&#45;&gt;Node13 -->
<g id="edge13" class="edge">
<title>Node1&#45;&gt;Node13</title>
<path fill="none" stroke="midnightblue" d="M54.15,-417.73C66.81,-415.18 82.62,-411.99 98.19,-408.86"/>
<polygon fill="midnightblue" stroke="midnightblue" points="103.46,-407.79 99.01,-410.99 101.01,-408.29 98.56,-408.78 98.56,-408.78 98.56,-408.78 101.01,-408.29 98.12,-406.58 103.46,-407.79 103.46,-407.79"/>
</g>
<!-- Node14 -->
<g id="node14" class="node">
<title>Node14</title>
<g id="a_node14"><a xlink:href="group__threads11.html#gac4fde02280b76afc0dfd63f3bd0b05b7" target="_top" xlink:title=" ">
<text text-anchor="middle" x="163" y="-338.9" font-family="UbuntuXX" font-size="12.00">mutex_11</text>
</a>
</g>
</g>
<!-- Node1&#45;&gt;Node14 -->
<g id="edge14" class="edge">
<title>Node1&#45;&gt;Node14</title>
<path fill="none" stroke="midnightblue" d="M45.37,-404.83C57.11,-393.35 73.45,-378.87 90,-369 99.26,-363.48 109.85,-358.75 120,-354.87"/>
<polygon fill="midnightblue" stroke="midnightblue" points="124.94,-353.03 121.04,-356.88 122.6,-353.9 120.26,-354.77 120.26,-354.77 120.26,-354.77 122.6,-353.9 119.47,-352.67 124.94,-353.03 124.94,-353.03"/>
</g>
<!-- Node15 -->
<g id="node15" class="node">
<title>Node15</title>
<g id="a_node15"><a xlink:href="group__lang11.html#gab9898ff9bf1dd6f1cb58b481f0b4df79" target="_top" xlink:title=" ">
<text text-anchor="middle" x="163" y="-284.9" font-family="UbuntuXX" font-size="12.00">references_11</text>
</a>
</g>
</g>
<!-- Node1&#45;&gt;Node15 -->
<g id="edge15" class="edge">
<title>Node1&#45;&gt;Node15</title>
<path fill="none" stroke="midnightblue" d="M34.03,-404.76C42.78,-380.97 61.17,-339.5 90,-315 95.19,-310.59 101.17,-306.87 107.42,-303.73"/>
<polygon fill="midnightblue" stroke="midnightblue" points="112.24,-301.45 108.68,-305.62 109.98,-302.52 107.72,-303.59 107.72,-303.59 107.72,-303.59 109.98,-302.52 106.76,-301.56 112.24,-301.45 112.24,-301.45"/>
</g>
<!-- Node18 -->
<g id="node18" class="node">
<title>Node18</title>
<g id="a_node18"><a xlink:href="group__CPP11.html#ga87fd521792c9ebaccfb225d672c68a5b" target="_top" xlink:title=" ">
<text text-anchor="middle" x="163" y="-230.9" font-family="UbuntuXX" font-size="12.00">sig</text>
</a>
</g>
</g>
<!-- Node1&#45;&gt;Node18 -->
<g id="edge19" class="edge">
<title>Node1&#45;&gt;Node18</title>
<path fill="none" stroke="midnightblue" d="M30.07,-404.81C34.76,-371.76 49.19,-301.53 90,-261 100.97,-250.11 116.74,-243.54 130.73,-239.62"/>
<polygon fill="midnightblue" stroke="midnightblue" points="135.79,-238.3 131.53,-241.74 133.37,-238.93 130.96,-239.56 130.96,-239.56 130.96,-239.56 133.37,-238.93 130.38,-237.39 135.79,-238.3 135.79,-238.3"/>
</g>
<!-- Node19 -->
<g id="node19" class="node">
<title>Node19</title>
<g id="a_node19"><a xlink:href="group__lambda11.html#gabe717f6f0e9decfb4dc2c1600341bfea" target="_top" xlink:title="Compare with sort_03.">
<text text-anchor="middle" x="163" y="-176.9" font-family="UbuntuXX" font-size="12.00">sort_11</text>
</a>
</g>
</g>
<!-- Node1&#45;&gt;Node19 -->
<g id="edge20" class="edge">
<title>Node1&#45;&gt;Node19</title>
<path fill="none" stroke="midnightblue" d="M28,-404.74C28.99,-363.91 37.05,-264.32 90,-207 99.76,-196.43 114.06,-189.98 127.35,-186.04"/>
<polygon fill="midnightblue" stroke="midnightblue" points="132.19,-184.71 127.97,-188.21 129.78,-185.37 127.37,-186.04 127.37,-186.04 127.37,-186.04 129.78,-185.37 126.78,-183.87 132.19,-184.71 132.19,-184.71"/>
</g>
<!-- Node20 -->
<g id="node20" class="node">
<title>Node20</title>
<g id="a_node20"><a xlink:href="group__threads11.html#ga6d132ee45948dcf65ae3ecd9177f6725" target="_top" xlink:title=" ">
<text text-anchor="middle" x="163" y="-122.9" font-family="UbuntuXX" font-size="12.00">threads_11</text>
</a>
</g>
</g>
<!-- Node1&#45;&gt;Node20 -->
<g id="edge21" class="edge">
<title>Node1&#45;&gt;Node20</title>
<path fill="none" stroke="midnightblue" d="M29.93,-404.83C36.04,-350.6 56.51,-191.28 90,-153 96.95,-145.06 106.48,-139.44 116.32,-135.48"/>
<polygon fill="midnightblue" stroke="midnightblue" points="121.17,-133.67 117.28,-137.53 118.83,-134.54 116.49,-135.42 116.49,-135.42 116.49,-135.42 118.83,-134.54 115.7,-133.31 121.17,-133.67 121.17,-133.67"/>
</g>
<!-- Node22 -->
<g id="node22" class="node">
<title>Node22</title>
<g id="a_node22"><a xlink:href="group__lang11.html#gabb96757f5b32d1f595edf657b71b9e75" target="_top" xlink:title=" ">
<text text-anchor="middle" x="163" y="-68.9" font-family="UbuntuXX" font-size="12.00">trailing_return_type</text>
</a>
</g>
</g>
<!-- Node1&#45;&gt;Node22 -->
<g id="edge23" class="edge">
<title>Node1&#45;&gt;Node22</title>
<path fill="none" stroke="midnightblue" d="M29.18,-404.78C33.48,-343.52 50.22,-146.18 90,-99 91.69,-97 93.54,-95.15 95.51,-93.43"/>
<polygon fill="midnightblue" stroke="midnightblue" points="99.75,-90.1 97.21,-94.96 97.78,-91.65 95.82,-93.2 95.82,-93.2 95.82,-93.2 97.78,-91.65 94.43,-91.43 99.75,-90.1 99.75,-90.1"/>
</g>
<!-- Node23 -->
<g id="node23" class="node">
<title>Node23</title>
<g id="a_node23"><a xlink:href="group__lang11.html#ga3cb9732a3d759a659a91f013a3763158" target="_top" xlink:title=" ">
<text text-anchor="middle" x="163" y="-14.9" font-family="UbuntuXX" font-size="12.00">types_11</text>
</a>
</g>
</g>
<!-- Node1&#45;&gt;Node23 -->
<g id="edge24" class="edge">
<title>Node1&#45;&gt;Node23</title>
<path fill="none" stroke="midnightblue" d="M28.63,-404.66C31.33,-336.82 43.9,-101.16 90,-45 98.3,-34.89 110.8,-28.56 123.06,-24.6"/>
<polygon fill="midnightblue" stroke="midnightblue" points="127.92,-23.15 123.77,-26.74 125.52,-23.87 123.13,-24.58 123.13,-24.58 123.13,-24.58 125.52,-23.87 122.48,-22.43 127.92,-23.15 127.92,-23.15"/>
</g>
<!-- Node3&#45;&gt;Node3 -->
<g id="edge3" class="edge">
<title>Node3&#45;&gt;Node3</title>
<path fill="none" stroke="midnightblue" d="M138.4,-792.15C134.61,-801.54 142.81,-810 163,-810 179.4,-810 187.89,-804.41 188.47,-797.29"/>
<polygon fill="midnightblue" stroke="midnightblue" points="187.6,-792.15 190.65,-796.71 188.02,-794.62 188.43,-797.08 188.43,-797.08 188.43,-797.08 188.02,-794.62 186.22,-797.46 187.6,-792.15 187.6,-792.15"/>
</g>
<!-- Node6 -->
<g id="node6" class="node">
<title>Node6</title>
<g id="a_node6"><a xlink:href="group__lang11.html#ga95c258fd50767b68c2ac27f647a812a0" target="_top" xlink:title="shared_ptr">
<text text-anchor="middle" x="345" y="-716.9" font-family="UbuntuXX" font-size="12.00">shared_pointer</text>
</a>
</g>
</g>
<!-- Node5&#45;&gt;Node6 -->
<g id="edge6" class="edge">
<title>Node5&#45;&gt;Node6</title>
<path fill="none" stroke="midnightblue" d="M224.19,-684.06C244.35,-690.11 266.76,-696.83 286.7,-702.81"/>
<polygon fill="midnightblue" stroke="midnightblue" points="291.71,-704.31 286.28,-705.03 289.32,-703.59 286.92,-702.88 286.92,-702.88 286.92,-702.88 289.32,-703.59 287.57,-700.72 291.71,-704.31 291.71,-704.31"/>
</g>
<!-- Node7 -->
<g id="node7" class="node">
<title>Node7</title>
<g id="a_node7"><a xlink:href="group__lang11.html#gad910833c04a752d3997e1e0fcc6598c8" target="_top" xlink:title="unique_ptr">
<text text-anchor="middle" x="345" y="-662.9" font-family="UbuntuXX" font-size="12.00">unique_pounter</text>
</a>
</g>
</g>
<!-- Node5&#45;&gt;Node7 -->
<g id="edge7" class="edge">
<title>Node5&#45;&gt;Node7</title>
<path fill="none" stroke="midnightblue" d="M236.18,-666C252.26,-666 269.13,-666 284.62,-666"/>
<polygon fill="midnightblue" stroke="midnightblue" points="289.82,-666 284.82,-668.25 287.32,-666 284.82,-666 284.82,-666 284.82,-666 287.32,-666 284.82,-663.75 289.82,-666 289.82,-666"/>
</g>
<!-- Node8 -->
<g id="node8" class="node">
<title>Node8</title>
<g id="a_node8"><a xlink:href="group__lang11.html#gac1a6e29326944fa42f80879e157048ae" target="_top" xlink:title="weak_ptr">
<text text-anchor="middle" x="345" y="-608.9" font-family="UbuntuXX" font-size="12.00">weak_pointer</text>
</a>
</g>
</g>
<!-- Node5&#45;&gt;Node8 -->
<g id="edge8" class="edge">
<title>Node5&#45;&gt;Node8</title>
<path fill="none" stroke="midnightblue" d="M224.19,-647.94C245.95,-641.42 270.33,-634.1 291.39,-627.78"/>
<polygon fill="midnightblue" stroke="midnightblue" points="296.39,-626.28 292.25,-629.87 294,-627 291.6,-627.72 291.6,-627.72 291.6,-627.72 294,-627 290.96,-625.56 296.39,-626.28 296.39,-626.28"/>
</g>
<!-- Node16 -->
<g id="node16" class="node">
<title>Node16</title>
<g id="a_node16"><a xlink:href="group__lang11.html#ga9592a69bceb833f1011e70b1fee4ef14" target="_top" xlink:title=" ">
<text text-anchor="middle" x="491.5" y="-284.9" font-family="UbuntuXX" font-size="12.00">func_type</text>
</a>
</g>
</g>
<!-- Node15&#45;&gt;Node16 -->
<g id="edge16" class="edge">
<title>Node15&#45;&gt;Node16</title>
<path fill="none" stroke="midnightblue" d="M213.72,-290.23C232.04,-290.95 252.96,-291.65 272,-292 336.88,-293.2 353.14,-293.79 418,-292 427.87,-291.73 438.49,-291.25 448.48,-290.71"/>
<polygon fill="midnightblue" stroke="midnightblue" points="453.63,-290.43 448.77,-292.95 451.14,-290.57 448.64,-290.7 448.64,-290.7 448.64,-290.7 451.14,-290.57 448.52,-288.46 453.63,-290.43 453.63,-290.43"/>
</g>
<!-- Node17 -->
<g id="node17" class="node">
<title>Node17</title>
<g id="a_node17"><a xlink:href="group__lang11.html#gaf2ee1e4cdb9cc5f58628700ccf7a8fd8" target="_top" xlink:title="Forwarding reference">
<text text-anchor="middle" x="345" y="-261.9" font-family="UbuntuXX" font-size="12.00">func_type_template</text>
</a>
</g>
</g>
<!-- Node15&#45;&gt;Node17 -->
<g id="edge17" class="edge">
<title>Node15&#45;&gt;Node17</title>
<path fill="none" stroke="midnightblue" d="M213.66,-281.65C231.79,-279.34 252.68,-276.67 272.34,-274.16"/>
<polygon fill="midnightblue" stroke="midnightblue" points="277.31,-273.52 272.64,-276.39 274.83,-273.84 272.35,-274.15 272.35,-274.15 272.35,-274.15 274.83,-273.84 272.07,-271.92 277.31,-273.52 277.31,-273.52"/>
</g>
<!-- Node17&#45;&gt;Node16 -->
<g id="edge18" class="edge">
<title>Node17&#45;&gt;Node16</title>
<path fill="none" stroke="midnightblue" d="M412.75,-275.62C425.06,-277.58 437.59,-279.58 448.89,-281.38"/>
<polygon fill="midnightblue" stroke="midnightblue" points="453.99,-282.19 448.7,-283.62 451.52,-281.8 449.05,-281.4 449.05,-281.4 449.05,-281.4 451.52,-281.8 449.41,-279.18 453.99,-282.19 453.99,-282.19"/>
</g>
<!-- Node21 -->
<g id="node21" class="node">
<title>Node21</title>
<g id="a_node21"><a xlink:href="group__threads11.html#gac92f23ee7b1928560e7a2f3b3a4fc61d" target="_top" xlink:title=" ">
<text text-anchor="middle" x="345" y="-122.9" font-family="UbuntuXX" font-size="12.00">condition_variable_11</text>
</a>
</g>
</g>
<!-- Node20&#45;&gt;Node21 -->
<g id="edge22" class="edge">
<title>Node20&#45;&gt;Node21</title>
<path fill="none" stroke="midnightblue" d="M204.84,-126C223.19,-126 245.46,-126 266.75,-126"/>
<polygon fill="midnightblue" stroke="midnightblue" points="271.85,-126 266.85,-128.25 269.35,-126 266.85,-126 266.85,-126 266.85,-126 269.35,-126 266.85,-123.75 271.85,-126 271.85,-126"/>
</g>
</g>
</svg>
