<?xml version="1.0" encoding="UTF-8" standalone="no"?>
<!DOCTYPE svg PUBLIC "-//W3C//DTD SVG 1.1//EN"
 "http://www.w3.org/Graphics/SVG/1.1/DTD/svg11.dtd">
<!-- Generated by graphviz version 2.43.0 (0)
 -->
<!-- Title: Templates Pages: 1 -->
<svg width="330pt" height="29pt"
 viewBox="0.00 0.00 330.00 29.00" xmlns="http://www.w3.org/2000/svg" xmlns:xlink="http://www.w3.org/1999/xlink">
<g id="graph0" class="graph" transform="scale(1 1) rotate(0) translate(4 25)">
<title>Templates</title>
<!-- Node2 -->
<g id="node1" class="node">
<title>Node2</title>
<g id="a_node1"><a xlink:href="$group__CPP20.html" xlink:title=" ">
<text text-anchor="middle" x="53.5" y="-7.4" font-family="Helvetica,Arial,sans-serif" font-size="12.00">C++20 examples</text>
</a>
</g>
</g>
<!-- Node1 -->
<g id="node3" class="node">
<title>Node1</title>
<g id="a_node3"><a xlink:title=" ">
<polygon fill="#bfbfbf" stroke="transparent" points="218,-21 143,-21 143,0 218,0 218,-21"/>
<text text-anchor="start" x="151" y="-8.4" font-family="Helvetica,Arial,sans-serif" font-weight="bold" font-size="12.00">Templates</text>
</a>
</g>
</g>
<!-- Node2&#45;&gt;Node1 -->
<g id="edge1" class="edge">
<title>Node2&#45;&gt;Node1</title>
<path fill="none" stroke="black" d="M112.24,-10.5C122.65,-10.5 133.24,-10.5 142.84,-10.5"/>
<polygon fill="black" stroke="black" points="107.15,-10.5 112.15,-8.25 109.65,-10.5 112.15,-10.5 112.15,-10.5 112.15,-10.5 109.65,-10.5 112.15,-12.75 107.15,-10.5 107.15,-10.5"/>
</g>
<!-- Node3 -->
<g id="node2" class="node">
<title>Node3</title>
<g id="a_node2"><a xlink:href="$group__conc20.html" xlink:title=" ">
<text text-anchor="middle" x="288" y="-7.4" font-family="Helvetica,Arial,sans-serif" font-size="12.00">Concepts</text>
</a>
</g>
</g>
<!-- Node1&#45;&gt;Node3 -->
<g id="edge2" class="edge">
<title>Node1&#45;&gt;Node3</title>
<path fill="none" stroke="black" d="M223.37,-10.5C233.54,-10.5 244.29,-10.5 253.99,-10.5"/>
<polygon fill="black" stroke="black" points="218.1,-10.5 223.1,-8.25 220.6,-10.5 223.1,-10.5 223.1,-10.5 223.1,-10.5 220.6,-10.5 223.1,-12.75 218.1,-10.5 218.1,-10.5"/>
</g>
</g>
</svg>
