<?xml version="1.0" encoding="UTF-8" standalone="no"?>
<!DOCTYPE svg PUBLIC "-//W3C//DTD SVG 1.1//EN"
 "http://www.w3.org/Graphics/SVG/1.1/DTD/svg11.dtd">
<!-- Generated by graphviz version 2.43.0 (0)
 -->
<!-- Title: Template Pages: 1 -->
<svg width="429pt" height="68pt"
 viewBox="0.00 0.00 429.00 68.00" xmlns="http://www.w3.org/2000/svg" xmlns:xlink="http://www.w3.org/1999/xlink">
<g id="graph0" class="graph" transform="scale(1 1) rotate(0) translate(4 64)">
<title>Template</title>
<!-- Node2 -->
<g id="node1" class="node">
<title>Node2</title>
<g id="a_node1"><a xlink:href="$group__CPP17.html" xlink:title=" ">
<text text-anchor="middle" x="53.5" y="-26.4" font-family="Helvetica,Arial,sans-serif" font-size="12.00">C++17 examples</text>
</a>
</g>
</g>
<!-- Node1 -->
<g id="node2" class="node">
<title>Node1</title>
<g id="a_node2"><a xlink:title=" ">
<polygon fill="#bfbfbf" stroke="transparent" points="211,-40 143,-40 143,-19 211,-19 211,-40"/>
<text text-anchor="start" x="151" y="-27.4" font-family="Helvetica,Arial,sans-serif" font-weight="bold" font-size="12.00">Template</text>
</a>
</g>
</g>
<!-- Node2&#45;&gt;Node1 -->
<g id="edge1" class="edge">
<title>Node2&#45;&gt;Node1</title>
<path fill="none" stroke="black" d="M112.25,-29.5C122.79,-29.5 133.46,-29.5 142.97,-29.5"/>
<polygon fill="black" stroke="black" points="107.09,-29.5 112.09,-27.25 109.59,-29.5 112.09,-29.5 112.09,-29.5 112.09,-29.5 109.59,-29.5 112.08,-31.75 107.09,-29.5 107.09,-29.5"/>
</g>
<!-- Node3 -->
<g id="node3" class="node">
<title>Node3</title>
<g id="a_node3"><a xlink:href="$group__template__argument__deduction.html" xlink:title=" ">
<text text-anchor="middle" x="334" y="-46.4" font-family="Helvetica,Arial,sans-serif" font-size="12.00">Template argument deduction</text>
</a>
</g>
</g>
<!-- Node1&#45;&gt;Node3 -->
<g id="edge2" class="edge">
<title>Node1&#45;&gt;Node3</title>
<path fill="none" stroke="black" d="M216.4,-34.45C227.12,-35.84 239.19,-37.4 251.4,-38.97"/>
<polygon fill="black" stroke="black" points="211.25,-33.79 216.5,-32.2 213.73,-34.11 216.21,-34.43 216.21,-34.43 216.21,-34.43 213.73,-34.11 215.92,-36.66 211.25,-33.79 211.25,-33.79"/>
</g>
<!-- Node4 -->
<g id="node4" class="node">
<title>Node4</title>
<g id="a_node4"><a xlink:href="$group__template__parameters.html" xlink:title=" ">
<text text-anchor="middle" x="334" y="-7.4" font-family="Helvetica,Arial,sans-serif" font-size="12.00">Template parameters</text>
</a>
</g>
</g>
<!-- Node1&#45;&gt;Node4 -->
<g id="edge3" class="edge">
<title>Node1&#45;&gt;Node4</title>
<path fill="none" stroke="black" d="M216.58,-24.77C232.66,-22.8 251.76,-20.46 269.79,-18.25"/>
<polygon fill="black" stroke="black" points="211.25,-25.42 215.94,-22.58 213.73,-25.12 216.21,-24.82 216.21,-24.82 216.21,-24.82 213.73,-25.12 216.49,-27.05 211.25,-25.42 211.25,-25.42"/>
</g>
</g>
</svg>
