<?xml version="1.0" encoding="UTF-8" standalone="no"?>
<!DOCTYPE svg PUBLIC "-//W3C//DTD SVG 1.1//EN"
 "http://www.w3.org/Graphics/SVG/1.1/DTD/svg11.dtd">
<!-- Generated by graphviz version 2.43.0 (0)
 -->
<!-- Title: a_ref Pages: 1 -->
<svg width="272pt" height="78pt"
 viewBox="0.00 0.00 272.00 78.00" xmlns="http://www.w3.org/2000/svg" xmlns:xlink="http://www.w3.org/1999/xlink">
<g id="graph0" class="graph" transform="scale(1 1) rotate(0) translate(4 74)">
<title>a_ref</title>
<!-- Node1 -->
<g id="node1" class="node">
<title>Node1</title>
<g id="a_node1"><a xlink:title="reference">
<polygon fill="#bfbfbf" stroke="black" points="211,-22.5 211,-47.5 264,-47.5 264,-22.5 211,-22.5"/>
<text text-anchor="middle" x="237.5" y="-31.5" font-family="Helvetica,sans-Serif" font-size="15.00">a_ref</text>
</a>
</g>
</g>
<!-- Node2 -->
<g id="node2" class="node">
<title>Node2</title>
<g id="a_node2"><a xlink:href="group__lang03.html#ga1d825ed882a640849aca92a60411a85e" target="_top" xlink:title=" ">
<polygon fill="none" stroke="black" points="90,-44.5 90,-69.5 175,-69.5 175,-44.5 90,-44.5"/>
<text text-anchor="middle" x="132.5" y="-53.5" font-family="Helvetica,sans-Serif" font-size="15.00">types_03</text>
</a>
</g>
</g>
<!-- Node1&#45;&gt;Node2 -->
<g id="edge1" class="edge">
<title>Node1&#45;&gt;Node2</title>
<path fill="none" stroke="midnightblue" d="M200.76,-42.63C192.55,-44.39 183.75,-46.27 175.31,-48.07"/>
<polygon fill="midnightblue" stroke="midnightblue" points="201.73,-46.01 210.77,-40.49 200.26,-39.16 201.73,-46.01"/>
</g>
<!-- Node4 -->
<g id="node4" class="node">
<title>Node4</title>
<g id="a_node4"><a xlink:href="group__other14.html#gac02a1801a1d9a8ec9f3d1d81a8bd4fac" target="_top" xlink:title=" ">
<polygon fill="none" stroke="black" points="90,-0.5 90,-25.5 175,-25.5 175,-0.5 90,-0.5"/>
<text text-anchor="middle" x="132.5" y="-9.5" font-family="Helvetica,sans-Serif" font-size="15.00">types_14</text>
</a>
</g>
</g>
<!-- Node1&#45;&gt;Node4 -->
<g id="edge3" class="edge">
<title>Node1&#45;&gt;Node4</title>
<path fill="none" stroke="midnightblue" d="M200.76,-27.37C192.55,-25.61 183.75,-23.73 175.31,-21.93"/>
<polygon fill="midnightblue" stroke="midnightblue" points="200.26,-30.84 210.77,-29.51 201.73,-23.99 200.26,-30.84"/>
</g>
<!-- Node3 -->
<g id="node3" class="node">
<title>Node3</title>
<g id="a_node3"><a xlink:href="group__CPP03.html#ga840291bc02cba5474a4cb46a9b9566fe" target="_top" xlink:title=" ">
<polygon fill="none" stroke="black" points="0,-44.5 0,-69.5 54,-69.5 54,-44.5 0,-44.5"/>
<text text-anchor="middle" x="27" y="-53.5" font-family="Helvetica,sans-Serif" font-size="15.00">main</text>
</a>
</g>
</g>
<!-- Node2&#45;&gt;Node3 -->
<g id="edge2" class="edge">
<title>Node2&#45;&gt;Node3</title>
<path fill="none" stroke="midnightblue" d="M79.92,-57C70.93,-57 61.94,-57 54.03,-57"/>
<polygon fill="midnightblue" stroke="midnightblue" points="80,-60.5 90,-57 80,-53.5 80,-60.5"/>
</g>
<!-- Node5 -->
<g id="node5" class="node">
<title>Node5</title>
<g id="a_node5"><a xlink:href="group__CPP14.html#ga840291bc02cba5474a4cb46a9b9566fe" target="_top" xlink:title=" ">
<polygon fill="none" stroke="black" points="0,-0.5 0,-25.5 54,-25.5 54,-0.5 0,-0.5"/>
<text text-anchor="middle" x="27" y="-9.5" font-family="Helvetica,sans-Serif" font-size="15.00">main</text>
</a>
</g>
</g>
<!-- Node4&#45;&gt;Node5 -->
<g id="edge4" class="edge">
<title>Node4&#45;&gt;Node5</title>
<path fill="none" stroke="midnightblue" d="M79.92,-13C70.93,-13 61.94,-13 54.03,-13"/>
<polygon fill="midnightblue" stroke="midnightblue" points="80,-16.5 90,-13 80,-9.5 80,-16.5"/>
</g>
</g>
</svg>
