<?xml version="1.0" encoding="UTF-8" standalone="no"?>
<!DOCTYPE svg PUBLIC "-//W3C//DTD SVG 1.1//EN"
 "http://www.w3.org/Graphics/SVG/1.1/DTD/svg11.dtd">
<!-- Generated by graphviz version 2.43.0 (0)
 -->
<!-- Title: main Pages: 1 -->
<svg width="929pt" height="1112pt"
 viewBox="0.00 0.00 929.00 1112.00" xmlns="http://www.w3.org/2000/svg" xmlns:xlink="http://www.w3.org/1999/xlink">
<g id="graph0" class="graph" transform="scale(1 1) rotate(0) translate(4 1108)">
<title>main</title>
<!-- Node1 -->
<g id="node1" class="node">
<title>Node1</title>
<g id="a_node1"><a xlink:title=" ">
<text text-anchor="start" x="10" y="-563.9" font-family="UbuntuXX" font-weight="bold" font-size="12.00">main</text>
</a>
</g>
</g>
<!-- Node2 -->
<g id="node2" class="node">
<title>Node2</title>
<g id="a_node2"><a xlink:href="group__AP.html#gaa52033e9b5a5923880bf57a9afb7e751" target="_top" xlink:title=" ">
<text text-anchor="middle" x="184" y="-1009.9" font-family="UbuntuXX" font-size="12.00">architectural_patterns_demo</text>
</a>
</g>
</g>
<!-- Node1&#45;&gt;Node2 -->
<g id="edge1" class="edge">
<title>Node1&#45;&gt;Node2</title>
<path fill="none" stroke="midnightblue" d="M31.45,-584.01C39.5,-624.75 61.06,-726.87 90,-809 113.89,-876.81 151.72,-952.97 170.94,-990.12"/>
<polygon fill="midnightblue" stroke="midnightblue" points="173.41,-994.89 169.11,-991.49 172.26,-992.67 171.11,-990.45 171.11,-990.45 171.11,-990.45 172.26,-992.67 173.11,-989.42 173.41,-994.89 173.41,-994.89"/>
</g>
<!-- Node8 -->
<g id="node8" class="node">
<title>Node8</title>
<g id="a_node8"><a xlink:href="group__BP.html#ga608cf93d9bef165bc7e5690ac3b46a03" target="_top" xlink:title=" ">
<text text-anchor="middle" x="184" y="-778.9" font-family="UbuntuXX" font-size="12.00">behavioral_patterns_demo</text>
</a>
</g>
</g>
<!-- Node1&#45;&gt;Node8 -->
<g id="edge8" class="edge">
<title>Node1&#45;&gt;Node8</title>
<path fill="none" stroke="midnightblue" d="M40.95,-584.04C69.16,-623.35 136.09,-716.63 166.93,-759.61"/>
<polygon fill="midnightblue" stroke="midnightblue" points="169.98,-763.85 165.24,-761.1 168.52,-761.82 167.06,-759.79 167.06,-759.79 167.06,-759.79 168.52,-761.82 168.89,-758.48 169.98,-763.85 169.98,-763.85"/>
</g>
<!-- Node22 -->
<g id="node22" class="node">
<title>Node22</title>
<g id="a_node22"><a xlink:href="group__CC.html#ga3e57442badb533d55c8d3d3a05465030" target="_top" xlink:title=" ">
<text text-anchor="middle" x="184" y="-589.9" font-family="UbuntuXX" font-size="12.00">concurrency_patterns_demo</text>
</a>
</g>
</g>
<!-- Node1&#45;&gt;Node22 -->
<g id="edge23" class="edge">
<title>Node1&#45;&gt;Node22</title>
<path fill="none" stroke="midnightblue" d="M54.29,-570.58C63.44,-572.17 74.3,-574.07 85.79,-576.07"/>
<polygon fill="midnightblue" stroke="midnightblue" points="90.75,-576.93 85.43,-578.29 88.28,-576.5 85.82,-576.07 85.82,-576.07 85.82,-576.07 88.28,-576.5 86.21,-573.86 90.75,-576.93 90.75,-576.93"/>
</g>
<!-- Node26 -->
<g id="node26" class="node">
<title>Node26</title>
<g id="a_node26"><a xlink:href="group__CP.html#ga50a82bd9d08b9a3b31267eefdf4ebaed" target="_top" xlink:title=" ">
<text text-anchor="middle" x="184" y="-508.9" font-family="UbuntuXX" font-size="12.00">creational_patterns_demo</text>
</a>
</g>
</g>
<!-- Node1&#45;&gt;Node26 -->
<g id="edge27" class="edge">
<title>Node1&#45;&gt;Node26</title>
<path fill="none" stroke="midnightblue" d="M54.29,-556.84C73.97,-549.98 101.62,-540.35 126.25,-531.77"/>
<polygon fill="midnightblue" stroke="midnightblue" points="131.13,-530.07 127.15,-533.84 128.77,-530.89 126.41,-531.72 126.41,-531.72 126.41,-531.72 128.77,-530.89 125.67,-529.59 131.13,-530.07 131.13,-530.07"/>
</g>
<!-- Node31 -->
<g id="node31" class="node">
<title>Node31</title>
<g id="a_node31"><a xlink:href="group__OOP.html#gac98f62660ece957e8cbc4d3ff6ec0cdf" target="_top" xlink:title=" ">
<text text-anchor="middle" x="184" y="-95.9" font-family="UbuntuXX" font-size="12.00">oop_demo</text>
</a>
</g>
</g>
<!-- Node1&#45;&gt;Node31 -->
<g id="edge33" class="edge">
<title>Node1&#45;&gt;Node31</title>
<path fill="none" stroke="midnightblue" d="M30.08,-547.74C35.77,-501.03 53.69,-373.84 90,-274 110.96,-216.37 147.81,-154.16 168.27,-121.68"/>
<polygon fill="midnightblue" stroke="midnightblue" points="171.17,-117.11 170.39,-122.54 169.83,-119.22 168.49,-121.33 168.49,-121.33 168.49,-121.33 169.83,-119.22 166.59,-120.13 171.17,-117.11 171.17,-117.11"/>
</g>
<!-- Node37 -->
<g id="node37" class="node">
<title>Node37</title>
<g id="a_node37"><a xlink:href="group__SP.html#ga3a9c3856221bdc96fcf38f956fc12011" target="_top" xlink:title=" ">
<text text-anchor="middle" x="184" y="-297.9" font-family="UbuntuXX" font-size="12.00">structural_patterns_demo</text>
</a>
</g>
</g>
<!-- Node1&#45;&gt;Node37 -->
<g id="edge39" class="edge">
<title>Node1&#45;&gt;Node37</title>
<path fill="none" stroke="midnightblue" d="M38.65,-547.79C66.14,-500.79 139.41,-375.53 169.65,-323.82"/>
<polygon fill="midnightblue" stroke="midnightblue" points="172.27,-319.34 171.69,-324.79 171.01,-321.5 169.75,-323.66 169.75,-323.66 169.75,-323.66 171.01,-321.5 167.81,-322.52 172.27,-319.34 172.27,-319.34"/>
</g>
<!-- Node3 -->
<g id="node3" class="node">
<title>Node3</title>
<g id="a_node3"><a xlink:href="structController.html#af9531d07a0bf9d651c6830e88b64f0ff" target="_top" xlink:title=" ">
<text text-anchor="middle" x="404.5" y="-1078.9" font-family="UbuntuXX" font-size="12.00">Controller::command</text>
</a>
</g>
</g>
<!-- Node2&#45;&gt;Node3 -->
<g id="edge2" class="edge">
<title>Node2&#45;&gt;Node3</title>
<path fill="none" stroke="midnightblue" d="M242.12,-1031.04C272.61,-1040.67 310.17,-1052.53 341.38,-1062.38"/>
<polygon fill="midnightblue" stroke="midnightblue" points="346.33,-1063.95 340.89,-1064.59 343.95,-1063.19 341.56,-1062.44 341.56,-1062.44 341.56,-1062.44 343.95,-1063.19 342.24,-1060.3 346.33,-1063.95 346.33,-1063.95"/>
</g>
<!-- Node6 -->
<g id="node6" class="node">
<title>Node6</title>
<g id="a_node6"><a xlink:href="structSubject.html#a156c54b0ef570d0439f2347643192dc3" target="_top" xlink:title=" ">
<text text-anchor="middle" x="837.5" y="-1028.9" font-family="UbuntuXX" font-size="12.00">Subject::notify_observers</text>
</a>
</g>
</g>
<!-- Node2&#45;&gt;Node6 -->
<g id="edge6" class="edge">
<title>Node2&#45;&gt;Node6</title>
<path fill="none" stroke="midnightblue" d="M278.01,-1015.91C290.12,-1016.28 302.35,-1016.65 314,-1017 466.76,-1021.56 644.65,-1026.61 748.5,-1029.54"/>
<polygon fill="midnightblue" stroke="midnightblue" points="753.7,-1029.68 748.63,-1031.79 751.2,-1029.61 748.7,-1029.54 748.7,-1029.54 748.7,-1029.54 751.2,-1029.61 748.76,-1027.29 753.7,-1029.68 753.7,-1029.68"/>
</g>
<!-- Node7 -->
<g id="node7" class="node">
<title>Node7</title>
<g id="a_node7"><a xlink:href="structModel.html#a60ccf0ab3d641769ce8663a5c6f811b7" target="_top" xlink:title=" ">
<text text-anchor="middle" x="404.5" y="-986.9" font-family="UbuntuXX" font-size="12.00">Model::register_observer</text>
</a>
</g>
</g>
<!-- Node2&#45;&gt;Node7 -->
<g id="edge7" class="edge">
<title>Node2&#45;&gt;Node7</title>
<path fill="none" stroke="midnightblue" d="M278.3,-1003.18C291.1,-1001.83 304.2,-1000.45 316.87,-999.12"/>
<polygon fill="midnightblue" stroke="midnightblue" points="321.89,-998.59 317.16,-1001.35 319.41,-998.85 316.92,-999.11 316.92,-999.11 316.92,-999.11 319.41,-998.85 316.68,-996.88 321.89,-998.59 321.89,-998.59"/>
</g>
<!-- Node4 -->
<g id="node4" class="node">
<title>Node4</title>
<g id="a_node4"><a xlink:href="structModel.html#a9000558a25601a58c19f903bfb660e64" target="_top" xlink:title=" ">
<text text-anchor="middle" x="624.5" y="-1078.9" font-family="UbuntuXX" font-size="12.00">Model::command</text>
</a>
</g>
</g>
<!-- Node3&#45;&gt;Node4 -->
<g id="edge3" class="edge">
<title>Node3&#45;&gt;Node4</title>
<path fill="none" stroke="midnightblue" d="M476.28,-1082C502.74,-1082 532.63,-1082 558.54,-1082"/>
<polygon fill="midnightblue" stroke="midnightblue" points="563.67,-1082 558.67,-1084.25 561.17,-1082 558.67,-1082 558.67,-1082 558.67,-1082 561.17,-1082 558.67,-1079.75 563.67,-1082 563.67,-1082"/>
</g>
<!-- Node5 -->
<g id="node5" class="node">
<title>Node5</title>
<g id="a_node5"><a xlink:href="structCommand.html#acbc1a7f30a3962728ce2e167a032ac87" target="_top" xlink:title=" ">
<text text-anchor="middle" x="837.5" y="-1082.9" font-family="UbuntuXX" font-size="12.00">Command::execute</text>
</a>
</g>
</g>
<!-- Node4&#45;&gt;Node5 -->
<g id="edge4" class="edge">
<title>Node4&#45;&gt;Node5</title>
<path fill="none" stroke="midnightblue" d="M685.12,-1083.13C710.02,-1083.6 739.17,-1084.15 765.2,-1084.65"/>
<polygon fill="midnightblue" stroke="midnightblue" points="770.36,-1084.75 765.32,-1086.9 767.86,-1084.7 765.36,-1084.65 765.36,-1084.65 765.36,-1084.65 767.86,-1084.7 765.4,-1082.4 770.36,-1084.75 770.36,-1084.75"/>
</g>
<!-- Node4&#45;&gt;Node6 -->
<g id="edge5" class="edge">
<title>Node4&#45;&gt;Node6</title>
<path fill="none" stroke="midnightblue" d="M685.12,-1067.87C706.96,-1062.7 732.07,-1056.75 755.47,-1051.2"/>
<polygon fill="midnightblue" stroke="midnightblue" points="760.44,-1050.02 756.09,-1053.37 758,-1050.6 755.57,-1051.18 755.57,-1051.18 755.57,-1051.18 758,-1050.6 755.05,-1048.99 760.44,-1050.02 760.44,-1050.02"/>
</g>
<!-- Node9 -->
<g id="node9" class="node">
<title>Node9</title>
<g id="a_node9"><a xlink:href="structChain__of__responsibility.html#a1e86b7bc1e9472af2b85e7322a4cc5c1" target="_top" xlink:title="Specific handler can process a command and return non&#45;negative.">
<text text-anchor="start" x="336.5" y="-739.4" font-family="UbuntuXX" font-size="12.00">Chain_of_responsibility</text>
<text text-anchor="middle" x="404.5" y="-726.4" font-family="UbuntuXX" font-size="12.00">::handle</text>
</a>
</g>
</g>
<!-- Node8&#45;&gt;Node9 -->
<g id="edge9" class="edge">
<title>Node8&#45;&gt;Node9</title>
<path fill="none" stroke="midnightblue" d="M270.73,-763.95C287.96,-760.32 306,-756.53 323.04,-752.94"/>
<polygon fill="midnightblue" stroke="midnightblue" points="328.3,-751.83 323.87,-755.06 325.85,-752.35 323.41,-752.86 323.41,-752.86 323.41,-752.86 325.85,-752.35 322.94,-750.66 328.3,-751.83 328.3,-751.83"/>
</g>
<!-- Node10 -->
<g id="node10" class="node">
<title>Node10</title>
<g id="a_node10"><a xlink:href="group__BP.html#ga49d579b8340b92f6ceb51cb6d57d4b2d" target="_top" xlink:title=" ">
<text text-anchor="middle" x="404.5" y="-678.9" font-family="UbuntuXX" font-size="12.00">mediator_demo</text>
</a>
</g>
</g>
<!-- Node8&#45;&gt;Node10 -->
<g id="edge10" class="edge">
<title>Node8&#45;&gt;Node10</title>
<path fill="none" stroke="midnightblue" d="M212.76,-763.89C238.28,-747.83 277.56,-724.58 314,-709 323.36,-705 333.51,-701.34 343.5,-698.09"/>
<polygon fill="midnightblue" stroke="midnightblue" points="348.38,-696.53 344.31,-700.19 346,-697.29 343.62,-698.05 343.62,-698.05 343.62,-698.05 346,-697.29 342.94,-695.9 348.38,-696.53 348.38,-696.53"/>
</g>
<!-- Node14 -->
<g id="node14" class="node">
<title>Node14</title>
<g id="a_node14"><a xlink:href="group__BP.html#ga39dd63f04a9c36bb6cde09c53024a21d" target="_top" xlink:title=" ">
<text text-anchor="middle" x="624.5" y="-770.9" font-family="UbuntuXX" font-size="12.00">observer_demo</text>
</a>
</g>
</g>
<!-- Node8&#45;&gt;Node14 -->
<g id="edge14" class="edge">
<title>Node8&#45;&gt;Node14</title>
<path fill="none" stroke="midnightblue" d="M272.16,-780.41C358.62,-778.83 488.79,-776.46 564.03,-775.08"/>
<polygon fill="midnightblue" stroke="midnightblue" points="569.35,-774.99 564.39,-777.33 566.85,-775.03 564.35,-775.08 564.35,-775.08 564.35,-775.08 566.85,-775.03 564.31,-772.83 569.35,-774.99 569.35,-774.99"/>
</g>
<!-- Node15 -->
<g id="node15" class="node">
<title>Node15</title>
<g id="a_node15"><a xlink:href="group__PS.html#gae0de20d55f2eb979eb20dcef9abde9bd" target="_top" xlink:title=" ">
<text text-anchor="middle" x="404.5" y="-932.9" font-family="UbuntuXX" font-size="12.00">publisher_subscriber_demo</text>
</a>
</g>
</g>
<!-- Node8&#45;&gt;Node15 -->
<g id="edge16" class="edge">
<title>Node8&#45;&gt;Node15</title>
<path fill="none" stroke="midnightblue" d="M198.77,-800.39C220.36,-827.94 264.8,-879.82 314,-909 318.19,-911.48 322.62,-913.76 327.19,-915.83"/>
<polygon fill="midnightblue" stroke="midnightblue" points="331.8,-917.84 326.32,-917.91 329.51,-916.84 327.22,-915.84 327.22,-915.84 327.22,-915.84 329.51,-916.84 328.12,-913.78 331.8,-917.84 331.8,-917.84"/>
</g>
<!-- Node17 -->
<g id="node17" class="node">
<title>Node17</title>
<g id="a_node17"><a xlink:href="structChain__of__responsibility.html#ac125b4b1aa689aa72daa30d0785a0c6e" target="_top" xlink:title=" ">
<text text-anchor="start" x="336.5" y="-885.4" font-family="UbuntuXX" font-size="12.00">Chain_of_responsibility</text>
<text text-anchor="middle" x="404.5" y="-872.4" font-family="UbuntuXX" font-size="12.00">::register_handler</text>
</a>
</g>
</g>
<!-- Node8&#45;&gt;Node17 -->
<g id="edge18" class="edge">
<title>Node8&#45;&gt;Node17</title>
<path fill="none" stroke="midnightblue" d="M212.76,-800.11C238.28,-816.17 277.56,-839.42 314,-855 319.95,-857.54 326.21,-859.95 332.55,-862.2"/>
<polygon fill="midnightblue" stroke="midnightblue" points="337.4,-863.88 331.94,-864.37 335.04,-863.06 332.68,-862.24 332.68,-862.24 332.68,-862.24 335.04,-863.06 333.42,-860.12 337.4,-863.88 337.4,-863.88"/>
</g>
<!-- Node18 -->
<g id="node18" class="node">
<title>Node18</title>
<g id="a_node18"><a xlink:href="group__visitor.html#ga11584cf836c2520c14cc5827ce453f8f" target="_top" xlink:title=" ">
<text text-anchor="middle" x="404.5" y="-824.9" font-family="UbuntuXX" font-size="12.00">visitor_demo</text>
</a>
</g>
</g>
<!-- Node8&#45;&gt;Node18 -->
<g id="edge19" class="edge">
<title>Node8&#45;&gt;Node18</title>
<path fill="none" stroke="midnightblue" d="M270.73,-800.05C298.52,-805.9 328.45,-812.2 352.84,-817.33"/>
<polygon fill="midnightblue" stroke="midnightblue" points="357.96,-818.41 352.6,-819.58 355.51,-817.9 353.07,-817.38 353.07,-817.38 353.07,-817.38 355.51,-817.9 353.53,-815.18 357.96,-818.41 357.96,-818.41"/>
</g>
<!-- Node11 -->
<g id="node11" class="node">
<title>Node11</title>
<g id="a_node11"><a xlink:href="structMediator.html#abc7fd67c96301b2975f830550ab5713c" target="_top" xlink:title=" ">
<text text-anchor="start" x="571.5" y="-723.4" font-family="UbuntuXX" font-size="12.00">Mediator::register</text>
<text text-anchor="middle" x="624.5" y="-710.4" font-family="UbuntuXX" font-size="12.00">_member</text>
</a>
</g>
</g>
<!-- Node10&#45;&gt;Node11 -->
<g id="edge11" class="edge">
<title>Node10&#45;&gt;Node11</title>
<path fill="none" stroke="midnightblue" d="M460.51,-691.59C490.2,-696.76 527.05,-703.19 558.19,-708.62"/>
<polygon fill="midnightblue" stroke="midnightblue" points="563.14,-709.48 557.82,-710.84 560.67,-709.05 558.21,-708.62 558.21,-708.62 558.21,-708.62 560.67,-709.05 558.6,-706.4 563.14,-709.48 563.14,-709.48"/>
</g>
<!-- Node12 -->
<g id="node12" class="node">
<title>Node12</title>
<g id="a_node12"><a xlink:href="group__BP.html#ga0b04b5167d12021f4360b6a66a1b1125" target="_top" xlink:title=" ">
<text text-anchor="middle" x="624.5" y="-662.9" font-family="UbuntuXX" font-size="12.00">Member::send</text>
</a>
</g>
</g>
<!-- Node10&#45;&gt;Node12 -->
<g id="edge12" class="edge">
<title>Node10&#45;&gt;Node12</title>
<path fill="none" stroke="midnightblue" d="M460.51,-677.96C493.44,-675.55 535.15,-672.48 568.14,-670.06"/>
<polygon fill="midnightblue" stroke="midnightblue" points="573.36,-669.68 568.54,-672.29 570.86,-669.86 568.37,-670.05 568.37,-670.05 568.37,-670.05 570.86,-669.86 568.21,-667.8 573.36,-669.68 573.36,-669.68"/>
</g>
<!-- Node13 -->
<g id="node13" class="node">
<title>Node13</title>
<g id="a_node13"><a xlink:href="structMediator.html#aa4696f4276eb4646826fa2cd82392496" target="_top" xlink:title=" ">
<text text-anchor="middle" x="837.5" y="-662.9" font-family="UbuntuXX" font-size="12.00">Mediator::dispatch</text>
</a>
</g>
</g>
<!-- Node12&#45;&gt;Node13 -->
<g id="edge13" class="edge">
<title>Node12&#45;&gt;Node13</title>
<path fill="none" stroke="midnightblue" d="M675.5,-666C703.27,-666 738.2,-666 768.42,-666"/>
<polygon fill="midnightblue" stroke="midnightblue" points="773.62,-666 768.62,-668.25 771.12,-666 768.62,-666 768.62,-666 768.62,-666 771.12,-666 768.62,-663.75 773.62,-666 773.62,-666"/>
</g>
<!-- Node14&#45;&gt;Node6 -->
<g id="edge15" class="edge">
<title>Node14&#45;&gt;Node6</title>
<path fill="none" stroke="midnightblue" d="M679.5,-781.93C693.16,-785.93 707.04,-791.94 718,-801 785.93,-857.11 819.21,-962.21 831.15,-1008.77"/>
<polygon fill="midnightblue" stroke="midnightblue" points="832.44,-1013.89 829.04,-1009.59 831.83,-1011.46 831.22,-1009.04 831.22,-1009.04 831.22,-1009.04 831.83,-1011.46 833.4,-1008.49 832.44,-1013.89 832.44,-1013.89"/>
</g>
<!-- Node16 -->
<g id="node16" class="node">
<title>Node16</title>
<g id="a_node16"><a xlink:href="structPublisher.html#a9420436a866c0ec19ecf3381a894370f" target="_top" xlink:title=" ">
<text text-anchor="middle" x="624.5" y="-986.9" font-family="UbuntuXX" font-size="12.00">Publisher::publish</text>
</a>
</g>
</g>
<!-- Node15&#45;&gt;Node16 -->
<g id="edge17" class="edge">
<title>Node15&#45;&gt;Node16</title>
<path fill="none" stroke="midnightblue" d="M478.39,-954.06C504.74,-960.58 534.25,-967.89 559.75,-974.21"/>
<polygon fill="midnightblue" stroke="midnightblue" points="564.79,-975.46 559.39,-976.44 562.36,-974.86 559.94,-974.25 559.94,-974.25 559.94,-974.25 562.36,-974.86 560.48,-972.07 564.79,-975.46 564.79,-975.46"/>
</g>
<!-- Node19 -->
<g id="node19" class="node">
<title>Node19</title>
<g id="a_node19"><a xlink:href="group__visitor.html#ga6bf8321e7970a2c4c1f602b1fefb47e7" target="_top" xlink:title="knows only virtual visitor and component">
<text text-anchor="middle" x="624.5" y="-878.9" font-family="UbuntuXX" font-size="12.00">client_visit</text>
</a>
</g>
</g>
<!-- Node18&#45;&gt;Node19 -->
<g id="edge20" class="edge">
<title>Node18&#45;&gt;Node19</title>
<path fill="none" stroke="midnightblue" d="M451.2,-839.32C489.32,-848.76 543.24,-862.12 580.56,-871.36"/>
<polygon fill="midnightblue" stroke="midnightblue" points="585.49,-872.58 580.09,-873.57 583.06,-871.98 580.63,-871.38 580.63,-871.38 580.63,-871.38 583.06,-871.98 581.18,-869.2 585.49,-872.58 585.49,-872.58"/>
</g>
<!-- Node20 -->
<g id="node20" class="node">
<title>Node20</title>
<g id="a_node20"><a xlink:href="structSample__component.html#ad9d2146df037c428eff9b9b816a6aebe" target="_top" xlink:title="is not virtual">
<text text-anchor="start" x="539" y="-831.4" font-family="UbuntuXX" font-size="12.00">Sample_component::sample</text>
<text text-anchor="middle" x="624.5" y="-818.4" font-family="UbuntuXX" font-size="12.00">_component_method</text>
</a>
</g>
</g>
<!-- Node18&#45;&gt;Node20 -->
<g id="edge21" class="edge">
<title>Node18&#45;&gt;Node20</title>
<path fill="none" stroke="midnightblue" d="M451.2,-828C472.85,-828 499.61,-828 525.52,-828"/>
<polygon fill="midnightblue" stroke="midnightblue" points="530.69,-828 525.69,-830.25 528.19,-828 525.69,-828 525.69,-828 525.69,-828 528.19,-828 525.69,-825.75 530.69,-828 530.69,-828"/>
</g>
<!-- Node21 -->
<g id="node21" class="node">
<title>Node21</title>
<g id="a_node21"><a xlink:href="structVisitor.html#afe22ef50ffb60aa3d0291f55d0b7fc5e" target="_top" xlink:title="overloaded function for each component">
<text text-anchor="middle" x="624.5" y="-932.9" font-family="UbuntuXX" font-size="12.00">Visitor::visit</text>
</a>
</g>
</g>
<!-- Node18&#45;&gt;Node21 -->
<g id="edge22" class="edge">
<title>Node18&#45;&gt;Node21</title>
<path fill="none" stroke="midnightblue" d="M451.09,-835.34C466.11,-839.35 482.22,-845.53 495,-855 518.17,-872.18 507.75,-891.93 531,-909 544.56,-918.96 561.75,-925.26 577.62,-929.24"/>
<polygon fill="midnightblue" stroke="midnightblue" points="582.5,-930.4 577.11,-931.43 580.06,-929.83 577.63,-929.25 577.63,-929.25 577.63,-929.25 580.06,-929.83 578.15,-927.06 582.5,-930.4 582.5,-930.4"/>
</g>
<!-- Node23 -->
<g id="node23" class="node">
<title>Node23</title>
<g id="a_node23"><a xlink:href="structActive__object.html#ac125fd7860055c3a289b68ae39488714" target="_top" xlink:title=" ">
<text text-anchor="middle" x="404.5" y="-616.9" font-family="UbuntuXX" font-size="12.00">Active_object::method</text>
</a>
</g>
</g>
<!-- Node22&#45;&gt;Node23 -->
<g id="edge24" class="edge">
<title>Node22&#45;&gt;Node23</title>
<path fill="none" stroke="midnightblue" d="M277.03,-604.37C292.75,-606.31 308.95,-608.32 324.3,-610.21"/>
<polygon fill="midnightblue" stroke="midnightblue" points="329.47,-610.85 324.23,-612.47 326.99,-610.55 324.51,-610.24 324.51,-610.24 324.51,-610.24 326.99,-610.55 324.78,-608.01 329.47,-610.85 329.47,-610.85"/>
</g>
<!-- Node24 -->
<g id="node24" class="node">
<title>Node24</title>
<g id="a_node24"><a xlink:href="structInterface.html#a73306300ba88073a31d86d9e282ff5ca" target="_top" xlink:title=" ">
<text text-anchor="middle" x="624.5" y="-370.9" font-family="UbuntuXX" font-size="12.00">Interface::method</text>
</a>
</g>
</g>
<!-- Node23&#45;&gt;Node24 -->
<g id="edge25" class="edge">
<title>Node23&#45;&gt;Node24</title>
<path fill="none" stroke="midnightblue" d="M479.59,-602.7C485.07,-599.94 490.29,-596.72 495,-593 520,-573.24 514.91,-558.5 531,-531 559.01,-483.11 592.05,-427.15 610.09,-396.66"/>
<polygon fill="midnightblue" stroke="midnightblue" points="612.64,-392.35 612.03,-397.8 611.37,-394.5 610.09,-396.65 610.09,-396.65 610.09,-396.65 611.37,-394.5 608.16,-395.51 612.64,-392.35 612.64,-392.35"/>
</g>
<!-- Node25 -->
<g id="node25" class="node">
<title>Node25</title>
<g id="a_node25"><a xlink:href="classSynchronized__queue.html#a3e165aa3522a31aa3845a8a7833678b1" target="_top" xlink:title=" ">
<text text-anchor="start" x="562.5" y="-615.4" font-family="UbuntuXX" font-size="12.00">Synchronized_queue</text>
<text text-anchor="middle" x="624.5" y="-602.4" font-family="UbuntuXX" font-size="12.00">::push</text>
</a>
</g>
</g>
<!-- Node23&#45;&gt;Node25 -->
<g id="edge26" class="edge">
<title>Node23&#45;&gt;Node25</title>
<path fill="none" stroke="midnightblue" d="M479.61,-617.28C502.1,-616.46 526.81,-615.55 549.31,-614.72"/>
<polygon fill="midnightblue" stroke="midnightblue" points="554.37,-614.54 549.46,-616.97 551.87,-614.63 549.37,-614.72 549.37,-614.72 549.37,-614.72 551.87,-614.63 549.29,-612.47 554.37,-614.54 554.37,-614.54"/>
</g>
<!-- Node26&#45;&gt;Node24 -->
<g id="edge32" class="edge">
<title>Node26&#45;&gt;Node24</title>
<path fill="none" stroke="midnightblue" d="M207.8,-493.89C232.52,-475.2 273.83,-446.64 314,-431 393.97,-399.85 492.33,-385.47 556.4,-379"/>
<polygon fill="midnightblue" stroke="midnightblue" points="561.73,-378.48 556.97,-381.21 559.24,-378.72 556.75,-378.97 556.75,-378.97 556.75,-378.97 559.24,-378.72 556.53,-376.73 561.73,-378.48 561.73,-378.48"/>
</g>
<!-- Node27 -->
<g id="node27" class="node">
<title>Node27</title>
<g id="a_node27"><a xlink:href="structBuilder.html#a0490ca9df304a27fa0bd61e25f71a3f1" target="_top" xlink:title=" ">
<text text-anchor="middle" x="404.5" y="-454.9" font-family="UbuntuXX" font-size="12.00">Builder::add</text>
</a>
</g>
</g>
<!-- Node26&#45;&gt;Node27 -->
<g id="edge28" class="edge">
<title>Node26&#45;&gt;Node27</title>
<path fill="none" stroke="midnightblue" d="M258.06,-493.94C290.19,-486 327.04,-476.9 355.6,-469.84"/>
<polygon fill="midnightblue" stroke="midnightblue" points="360.47,-468.63 356.16,-472.02 358.05,-469.23 355.62,-469.83 355.62,-469.83 355.62,-469.83 358.05,-469.23 355.08,-467.65 360.47,-468.63 360.47,-468.63"/>
</g>
<!-- Node28 -->
<g id="node28" class="node">
<title>Node28</title>
<g id="a_node28"><a xlink:href="structFactory__method__demo.html#a06046828f550a6e72b4798906d1e3466" target="_top" xlink:title=" ">
<text text-anchor="start" x="335.5" y="-569.4" font-family="UbuntuXX" font-size="12.00">Factory_method_demo</text>
<text text-anchor="middle" x="404.5" y="-556.4" font-family="UbuntuXX" font-size="12.00">::client</text>
</a>
</g>
</g>
<!-- Node26&#45;&gt;Node28 -->
<g id="edge29" class="edge">
<title>Node26&#45;&gt;Node28</title>
<path fill="none" stroke="midnightblue" d="M258.06,-530.06C279.74,-535.42 303.57,-541.3 325.55,-546.74"/>
<polygon fill="midnightblue" stroke="midnightblue" points="330.51,-547.96 325.11,-548.95 328.08,-547.36 325.65,-546.76 325.65,-546.76 325.65,-546.76 328.08,-547.36 326.19,-544.58 330.51,-547.96 330.51,-547.96"/>
</g>
<!-- Node30 -->
<g id="node30" class="node">
<title>Node30</title>
<g id="a_node30"><a xlink:href="structPrototype.html#ac457723ab2c827423afd9215811b5b03" target="_top" xlink:title=" ">
<text text-anchor="middle" x="404.5" y="-508.9" font-family="UbuntuXX" font-size="12.00">Prototype::create</text>
</a>
</g>
</g>
<!-- Node26&#45;&gt;Node30 -->
<g id="edge31" class="edge">
<title>Node26&#45;&gt;Node30</title>
<path fill="none" stroke="midnightblue" d="M270.1,-512C293.29,-512 318,-512 339.77,-512"/>
<polygon fill="midnightblue" stroke="midnightblue" points="344.95,-512 339.95,-514.25 342.45,-512 339.95,-512 339.95,-512 339.95,-512 342.45,-512 339.95,-509.75 344.95,-512 344.95,-512"/>
</g>
<!-- Node29 -->
<g id="node29" class="node">
<title>Node29</title>
<g id="a_node29"><a xlink:href="structFactory__method__demo.html#a8746eb954f21cbee4f733567fe11934e" target="_top" xlink:title=" ">
<text text-anchor="start" x="555.5" y="-561.4" font-family="UbuntuXX" font-size="12.00">Factory_method_demo</text>
<text text-anchor="middle" x="624.5" y="-548.4" font-family="UbuntuXX" font-size="12.00">::factory_method</text>
</a>
</g>
</g>
<!-- Node28&#45;&gt;Node29 -->
<g id="edge30" class="edge">
<title>Node28&#45;&gt;Node29</title>
<path fill="none" stroke="midnightblue" d="M481.75,-563.2C501.33,-562.48 522.46,-561.71 542.29,-560.98"/>
<polygon fill="midnightblue" stroke="midnightblue" points="547.3,-560.8 542.38,-563.23 544.8,-560.89 542.3,-560.98 542.3,-560.98 542.3,-560.98 544.8,-560.89 542.22,-558.73 547.3,-560.8 547.3,-560.8"/>
</g>
<!-- Node32 -->
<g id="node32" class="node">
<title>Node32</title>
<g id="a_node32"><a xlink:href="group__OOP.html#ga69c1df831a21f7ae760b64f03713680b" target="_top" xlink:title="Associations">
<text text-anchor="middle" x="404.5" y="-41.9" font-family="UbuntuXX" font-size="12.00">associations_demo</text>
</a>
</g>
</g>
<!-- Node31&#45;&gt;Node32 -->
<g id="edge34" class="edge">
<title>Node31&#45;&gt;Node32</title>
<path fill="none" stroke="midnightblue" d="M224.06,-89.35C254.61,-81.8 297.84,-71.11 334.22,-62.12"/>
<polygon fill="midnightblue" stroke="midnightblue" points="339.08,-60.92 334.76,-64.31 336.65,-61.52 334.22,-62.12 334.22,-62.12 334.22,-62.12 336.65,-61.52 333.68,-59.94 339.08,-60.92 339.08,-60.92"/>
</g>
<!-- Node33 -->
<g id="node33" class="node">
<title>Node33</title>
<g id="a_node33"><a xlink:href="group__OOP.html#ga308962b838247466c2bd477240f741f8" target="_top" xlink:title=" ">
<text text-anchor="start" x="322" y="-102.4" font-family="UbuntuXX" font-size="12.00">synchronised_encapsulated</text>
<text text-anchor="middle" x="404.5" y="-89.4" font-family="UbuntuXX" font-size="12.00">_value</text>
</a>
</g>
</g>
<!-- Node31&#45;&gt;Node33 -->
<g id="edge35" class="edge">
<title>Node31&#45;&gt;Node33</title>
<path fill="none" stroke="midnightblue" d="M224.06,-99C247.62,-99 278.72,-99 308.41,-99"/>
<polygon fill="midnightblue" stroke="midnightblue" points="313.55,-99 308.55,-101.25 311.05,-99 308.55,-99 308.55,-99 308.55,-99 311.05,-99 308.55,-96.75 313.55,-99 313.55,-99"/>
</g>
<!-- Node34 -->
<g id="node34" class="node">
<title>Node34</title>
<g id="a_node34"><a xlink:href="structChange__interface.html#a71adc7f53712cb951427c71f7a3f25fe" target="_top" xlink:title=" ">
<text text-anchor="middle" x="624.5" y="-68.9" font-family="UbuntuXX" font-size="12.00">Change_interface::change</text>
</a>
</g>
</g>
<!-- Node33&#45;&gt;Node34 -->
<g id="edge36" class="edge">
<title>Node33&#45;&gt;Node34</title>
<path fill="none" stroke="midnightblue" d="M495.11,-87.9C507.34,-86.39 519.91,-84.83 532.16,-83.31"/>
<polygon fill="midnightblue" stroke="midnightblue" points="537.4,-82.66 532.71,-85.51 534.92,-82.97 532.43,-83.28 532.43,-83.28 532.43,-83.28 534.92,-82.97 532.16,-81.05 537.4,-82.66 537.4,-82.66"/>
</g>
<!-- Node35 -->
<g id="node35" class="node">
<title>Node35</title>
<g id="a_node35"><a xlink:href="structGetter__interface.html#a7f0e42eb2b4dfbd8b4d4e05e63c99bed" target="_top" xlink:title=" ">
<text text-anchor="middle" x="624.5" y="-14.9" font-family="UbuntuXX" font-size="12.00">Getter_interface::get</text>
</a>
</g>
</g>
<!-- Node33&#45;&gt;Node35 -->
<g id="edge37" class="edge">
<title>Node33&#45;&gt;Node35</title>
<path fill="none" stroke="midnightblue" d="M474.39,-80.93C481.49,-78.27 488.48,-75.3 495,-72 512.85,-62.97 513.11,-53.95 531,-45 536.49,-42.25 542.31,-39.74 548.26,-37.44"/>
<polygon fill="midnightblue" stroke="midnightblue" points="553.27,-35.57 549.37,-39.43 550.93,-36.45 548.59,-37.32 548.59,-37.32 548.59,-37.32 550.93,-36.45 547.8,-35.21 553.27,-35.57 553.27,-35.57"/>
</g>
<!-- Node36 -->
<g id="node36" class="node">
<title>Node36</title>
<g id="a_node36"><a xlink:href="structSetter__interface.html#af56ff578654b5d2fec5e3626da71673c" target="_top" xlink:title=" ">
<text text-anchor="middle" x="624.5" y="-122.9" font-family="UbuntuXX" font-size="12.00">Setter_interface::set</text>
</a>
</g>
</g>
<!-- Node33&#45;&gt;Node36 -->
<g id="edge38" class="edge">
<title>Node33&#45;&gt;Node36</title>
<path fill="none" stroke="midnightblue" d="M495.11,-110.1C513.21,-112.34 532.03,-114.67 549.52,-116.84"/>
<polygon fill="midnightblue" stroke="midnightblue" points="554.9,-117.5 549.66,-119.12 552.42,-117.2 549.94,-116.89 549.94,-116.89 549.94,-116.89 552.42,-117.2 550.21,-114.66 554.9,-117.5 554.9,-117.5"/>
</g>
<!-- Node37&#45;&gt;Node24 -->
<g id="edge47" class="edge">
<title>Node37&#45;&gt;Node24</title>
<path fill="none" stroke="midnightblue" d="M219.25,-319.07C244.66,-331.53 280.54,-347.21 314,-355 395.98,-374.1 493.27,-376.95 556.59,-376.29"/>
<polygon fill="midnightblue" stroke="midnightblue" points="561.85,-376.22 556.88,-378.53 559.35,-376.25 556.85,-376.28 556.85,-376.28 556.85,-376.28 559.35,-376.25 556.82,-374.03 561.85,-376.22 561.85,-376.22"/>
</g>
<!-- Node38 -->
<g id="node38" class="node">
<title>Node38</title>
<g id="a_node38"><a xlink:href="structBridge.html#a68cba3a3e983eaf7521a6cea23ef1b7c" target="_top" xlink:title=" ">
<text text-anchor="middle" x="404.5" y="-162.9" font-family="UbuntuXX" font-size="12.00">Bridge::method</text>
</a>
</g>
</g>
<!-- Node37&#45;&gt;Node38 -->
<g id="edge40" class="edge">
<title>Node37&#45;&gt;Node38</title>
<path fill="none" stroke="midnightblue" d="M202.06,-282.7C225.25,-258.83 269.02,-217.28 314,-193 323.41,-187.92 333.91,-183.66 344.31,-180.15"/>
<polygon fill="midnightblue" stroke="midnightblue" points="349.08,-178.58 345.03,-182.28 346.7,-179.36 344.33,-180.14 344.33,-180.14 344.33,-180.14 346.7,-179.36 343.63,-178 349.08,-178.58 349.08,-178.58"/>
</g>
<!-- Node40 -->
<g id="node40" class="node">
<title>Node40</title>
<g id="a_node40"><a xlink:href="structProxy.html#a1c58aa9104f2537aae0f75b59130ce32" target="_top" xlink:title=" ">
<text text-anchor="middle" x="404.5" y="-324.9" font-family="UbuntuXX" font-size="12.00">Proxy::method</text>
</a>
</g>
</g>
<!-- Node37&#45;&gt;Node40 -->
<g id="edge42" class="edge">
<title>Node37&#45;&gt;Node40</title>
<path fill="none" stroke="midnightblue" d="M269.17,-311.4C295.88,-314.7 324.7,-318.26 348.78,-321.24"/>
<polygon fill="midnightblue" stroke="midnightblue" points="353.84,-321.86 348.6,-323.48 351.36,-321.56 348.88,-321.25 348.88,-321.25 348.88,-321.25 351.36,-321.56 349.16,-319.02 353.84,-321.86 353.84,-321.86"/>
</g>
<!-- Node41 -->
<g id="node41" class="node">
<title>Node41</title>
<g id="a_node41"><a xlink:href="structDecorator.html#a49123c88d6088bbd5573b98bccd1d8bf" target="_top" xlink:title=" ">
<text text-anchor="middle" x="404.5" y="-270.9" font-family="UbuntuXX" font-size="12.00">Decorator::method</text>
</a>
</g>
</g>
<!-- Node37&#45;&gt;Node41 -->
<g id="edge44" class="edge">
<title>Node37&#45;&gt;Node41</title>
<path fill="none" stroke="midnightblue" d="M269.17,-290.6C290.44,-287.97 313.07,-285.18 333.56,-282.64"/>
<polygon fill="midnightblue" stroke="midnightblue" points="338.72,-282 334.03,-284.85 336.24,-282.31 333.76,-282.62 333.76,-282.62 333.76,-282.62 336.24,-282.31 333.48,-280.39 338.72,-282 338.72,-282"/>
</g>
<!-- Node42 -->
<g id="node42" class="node">
<title>Node42</title>
<g id="a_node42"><a xlink:href="structComposite.html#a1e6b4ba6c91969af14f358234b17faf7" target="_top" xlink:title=" ">
<text text-anchor="middle" x="404.5" y="-216.9" font-family="UbuntuXX" font-size="12.00">Composite::method</text>
</a>
</g>
</g>
<!-- Node37&#45;&gt;Node42 -->
<g id="edge46" class="edge">
<title>Node37&#45;&gt;Node42</title>
<path fill="none" stroke="midnightblue" d="M225.25,-282.89C250.48,-271.85 283.84,-257.83 314,-247 320.95,-244.5 328.26,-242.04 335.57,-239.68"/>
<polygon fill="midnightblue" stroke="midnightblue" points="340.64,-238.07 336.56,-241.73 338.26,-238.83 335.87,-239.59 335.87,-239.59 335.87,-239.59 338.26,-238.83 335.19,-237.44 340.64,-238.07 340.64,-238.07"/>
</g>
<!-- Node39 -->
<g id="node39" class="node">
<title>Node39</title>
<g id="a_node39"><a xlink:href="structStandalone.html#ab576b209f7db533a9d9a5ada760f6db5" target="_top" xlink:title=" ">
<text text-anchor="start" x="553.5" y="-183.4" font-family="UbuntuXX" font-size="12.00">Standalone::standalone</text>
<text text-anchor="middle" x="624.5" y="-170.4" font-family="UbuntuXX" font-size="12.00">_method</text>
</a>
</g>
</g>
<!-- Node38&#45;&gt;Node39 -->
<g id="edge41" class="edge">
<title>Node38&#45;&gt;Node39</title>
<path fill="none" stroke="midnightblue" d="M459.67,-169.48C484,-171.04 513.27,-172.92 540.29,-174.66"/>
<polygon fill="midnightblue" stroke="midnightblue" points="545.31,-174.98 540.18,-176.9 542.82,-174.82 540.32,-174.66 540.32,-174.66 540.32,-174.66 542.82,-174.82 540.47,-172.41 545.31,-174.98 545.31,-174.98"/>
</g>
<!-- Node40&#45;&gt;Node24 -->
<g id="edge43" class="edge">
<title>Node40&#45;&gt;Node24</title>
<path fill="none" stroke="midnightblue" d="M455.24,-338.5C485.3,-344.84 524,-353 556.7,-359.91"/>
<polygon fill="midnightblue" stroke="midnightblue" points="561.9,-361 556.54,-362.17 559.45,-360.49 557,-359.97 557,-359.97 557,-359.97 559.45,-360.49 557.47,-357.77 561.9,-361 561.9,-361"/>
</g>
<!-- Node41&#45;&gt;Node24 -->
<g id="edge45" class="edge">
<title>Node41&#45;&gt;Node24</title>
<path fill="none" stroke="midnightblue" d="M470.16,-291.62C478.62,-294.47 487.09,-297.61 495,-301 529.33,-315.71 566.17,-337.3 591.56,-353.18"/>
<polygon fill="midnightblue" stroke="midnightblue" points="595.85,-355.88 590.42,-355.12 593.74,-354.55 591.62,-353.22 591.62,-353.22 591.62,-353.22 593.74,-354.55 592.82,-351.31 595.85,-355.88 595.85,-355.88"/>
</g>
</g>
</svg>
