<?xml version="1.0" encoding="UTF-8" standalone="no"?>
<!DOCTYPE svg PUBLIC "-//W3C//DTD SVG 1.1//EN"
 "http://www.w3.org/Graphics/SVG/1.1/DTD/svg11.dtd">
<!-- Generated by graphviz version 2.43.0 (0)
 -->
<!-- Title: bar Pages: 1 -->
<svg width="208pt" height="29pt"
 viewBox="0.00 0.00 208.00 29.00" xmlns="http://www.w3.org/2000/svg" xmlns:xlink="http://www.w3.org/1999/xlink">
<g id="graph0" class="graph" transform="scale(1 1) rotate(0) translate(4 25)">
<title>bar</title>
<!-- Node1 -->
<g id="node1" class="node">
<title>Node1</title>
<g id="a_node1"><a xlink:title=" ">
<polygon fill="#bfbfbf" stroke="transparent" points="200,-21 165,-21 165,0 200,0 200,-21"/>
<text text-anchor="start" x="173" y="-8.4" font-family="Helvetica,Arial,sans-serif" font-weight="bold" font-size="12.00">bar</text>
</a>
</g>
</g>
<!-- Node2 -->
<g id="node2" class="node">
<title>Node2</title>
<g id="a_node2"><a xlink:href="$group__lang11.html#ga0e663f52efbc8593793d628b4259ce9b" xlink:title=" ">
<text text-anchor="middle" x="104" y="-7.4" font-family="Helvetica,Arial,sans-serif" font-size="12.00">main2</text>
</a>
</g>
</g>
<!-- Node1&#45;&gt;Node2 -->
<g id="edge1" class="edge">
<title>Node1&#45;&gt;Node2</title>
<path fill="none" stroke="midnightblue" d="M159.78,-10.5C150.22,-10.5 138.94,-10.5 129.12,-10.5"/>
<polygon fill="midnightblue" stroke="midnightblue" points="164.9,-10.5 159.9,-12.75 162.4,-10.5 159.9,-10.5 159.9,-10.5 159.9,-10.5 162.4,-10.5 159.9,-8.25 164.9,-10.5 164.9,-10.5"/>
</g>
<!-- Node3 -->
<g id="node3" class="node">
<title>Node3</title>
<g id="a_node3"><a xlink:href="$group__CPP11.html#ga840291bc02cba5474a4cb46a9b9566fe" xlink:title=" ">
<text text-anchor="middle" x="21.5" y="-7.4" font-family="Helvetica,Arial,sans-serif" font-size="12.00">main</text>
</a>
</g>
</g>
<!-- Node2&#45;&gt;Node3 -->
<g id="edge2" class="edge">
<title>Node2&#45;&gt;Node3</title>
<path fill="none" stroke="midnightblue" d="M73.65,-10.5C63.52,-10.5 52.38,-10.5 43.1,-10.5"/>
<polygon fill="midnightblue" stroke="midnightblue" points="78.85,-10.5 73.85,-12.75 76.35,-10.5 73.85,-10.5 73.85,-10.5 73.85,-10.5 76.35,-10.5 73.85,-8.25 78.85,-10.5 78.85,-10.5"/>
</g>
</g>
</svg>
