<?xml version="1.0" encoding="UTF-8" standalone="no"?>
<!DOCTYPE svg PUBLIC "-//W3C//DTD SVG 1.1//EN"
 "http://www.w3.org/Graphics/SVG/1.1/DTD/svg11.dtd">
<!-- Generated by graphviz version 2.43.0 (0)
 -->
<!-- Title: visitor_demo Pages: 1 -->
<svg width="304pt" height="121pt"
 viewBox="0.00 0.00 304.00 121.00" xmlns="http://www.w3.org/2000/svg" xmlns:xlink="http://www.w3.org/1999/xlink">
<g id="graph0" class="graph" transform="scale(1 1) rotate(0) translate(4 117)">
<title>visitor_demo</title>
<!-- Node1 -->
<g id="node1" class="node">
<title>Node1</title>
<g id="a_node1"><a xlink:title=" ">
<polygon fill="#bfbfbf" stroke="transparent" points="91,-67 0,-67 0,-46 91,-46 91,-67"/>
<text text-anchor="start" x="8" y="-54.4" font-family="Helvetica,Arial,sans-serif" font-weight="bold" font-size="12.00">visitor_demo</text>
</a>
</g>
</g>
<!-- Node2 -->
<g id="node2" class="node">
<title>Node2</title>
<g id="a_node2"><a xlink:href="$group__visitor.html#ga82eb8d60b7fe6342e91722f383a4c9c4" xlink:title="knows only virtual visitor and component">
<text text-anchor="middle" x="211.5" y="-99.4" font-family="Helvetica,Arial,sans-serif" font-size="12.00">client_visit</text>
</a>
</g>
</g>
<!-- Node1&#45;&gt;Node2 -->
<g id="edge1" class="edge">
<title>Node1&#45;&gt;Node2</title>
<path fill="none" stroke="midnightblue" d="M77.29,-67.06C92.22,-72.02 110.46,-77.85 127,-82.5 140.93,-86.41 156.31,-90.23 170.02,-93.47"/>
<polygon fill="midnightblue" stroke="midnightblue" points="175,-94.63 169.61,-95.69 172.56,-94.06 170.13,-93.49 170.13,-93.49 170.13,-93.49 172.56,-94.06 170.64,-91.3 175,-94.63 175,-94.63"/>
</g>
<!-- Node3 -->
<g id="node3" class="node">
<title>Node3</title>
<g id="a_node3"><a xlink:href="$structSample__component.html#ad9d2146df037c428eff9b9b816a6aebe" xlink:title="is not virtual">
<text text-anchor="start" x="135" y="-59.9" font-family="Helvetica,Arial,sans-serif" font-size="12.00">Sample_component::sample</text>
<text text-anchor="middle" x="211.5" y="-46.9" font-family="Helvetica,Arial,sans-serif" font-size="12.00">_component_method</text>
</a>
</g>
</g>
<!-- Node1&#45;&gt;Node3 -->
<g id="edge2" class="edge">
<title>Node1&#45;&gt;Node3</title>
<path fill="none" stroke="midnightblue" d="M91.31,-56.5C100.85,-56.5 111.24,-56.5 121.77,-56.5"/>
<polygon fill="midnightblue" stroke="midnightblue" points="126.95,-56.5 121.95,-58.75 124.45,-56.5 121.95,-56.5 121.95,-56.5 121.95,-56.5 124.45,-56.5 121.95,-54.25 126.95,-56.5 126.95,-56.5"/>
</g>
<!-- Node4 -->
<g id="node4" class="node">
<title>Node4</title>
<g id="a_node4"><a xlink:href="$structAbstract__visitor.html#ad18f776881d73ef1b50331105b244b07" xlink:title="overloaded function for each component subtype">
<text text-anchor="middle" x="211.5" y="-7.4" font-family="Helvetica,Arial,sans-serif" font-size="12.00">Abstract_visitor::visit</text>
</a>
</g>
</g>
<!-- Node1&#45;&gt;Node4 -->
<g id="edge3" class="edge">
<title>Node1&#45;&gt;Node4</title>
<path fill="none" stroke="midnightblue" d="M77.29,-45.94C92.22,-40.98 110.46,-35.15 127,-30.5 137.11,-27.66 147.99,-24.87 158.43,-22.31"/>
<polygon fill="midnightblue" stroke="midnightblue" points="163.52,-21.08 159.19,-24.44 161.09,-21.67 158.66,-22.26 158.66,-22.26 158.66,-22.26 161.09,-21.67 158.13,-20.07 163.52,-21.08 163.52,-21.08"/>
</g>
</g>
</svg>
