<?xml version="1.0" encoding="UTF-8" standalone="no"?>
<!DOCTYPE svg PUBLIC "-//W3C//DTD SVG 1.1//EN"
 "http://www.w3.org/Graphics/SVG/1.1/DTD/svg11.dtd">
<!-- Generated by graphviz version 2.43.0 (0)
 -->
<!-- Title: C++11 examples Pages: 1 -->
<svg width="484pt" height="146pt"
 viewBox="0.00 0.00 484.00 146.00" xmlns="http://www.w3.org/2000/svg" xmlns:xlink="http://www.w3.org/1999/xlink">
<g id="graph0" class="graph" transform="scale(1 1) rotate(0) translate(4 142)">
<title>C++11 examples</title>
<!-- Node2 -->
<g id="node1" class="node">
<title>Node2</title>
<g id="a_node1"><a xlink:href="$group__CPP.html" xlink:title="from recent to oldest">
<text text-anchor="middle" x="75.5" y="-65.4" font-family="Helvetica,Arial,sans-serif" font-size="12.00">C++ examples by version</text>
</a>
</g>
</g>
<!-- Node1 -->
<g id="node2" class="node">
<title>Node1</title>
<g id="a_node2"><a xlink:title=" ">
<polygon fill="#bfbfbf" stroke="transparent" points="297,-79 187,-79 187,-58 297,-58 297,-79"/>
<text text-anchor="start" x="195" y="-66.4" font-family="Helvetica,Arial,sans-serif" font-weight="bold" font-size="12.00">C++11 examples</text>
</a>
</g>
</g>
<!-- Node2&#45;&gt;Node1 -->
<g id="edge1" class="edge">
<title>Node2&#45;&gt;Node1</title>
<path fill="none" stroke="black" d="M156.15,-68.5C166.56,-68.5 177.03,-68.5 186.88,-68.5"/>
<polygon fill="black" stroke="black" points="151.05,-68.5 156.05,-66.25 153.55,-68.5 156.05,-68.5 156.05,-68.5 156.05,-68.5 153.55,-68.5 156.05,-70.75 151.05,-68.5 151.05,-68.5"/>
</g>
<!-- Node4 -->
<g id="node3" class="node">
<title>Node4</title>
<g id="a_node3"><a xlink:href="$group__lambda11.html" xlink:title=" ">
<text text-anchor="middle" x="404.5" y="-124.4" font-family="Helvetica,Arial,sans-serif" font-size="12.00">Lambda</text>
</a>
</g>
</g>
<!-- Node1&#45;&gt;Node4 -->
<g id="edge3" class="edge">
<title>Node1&#45;&gt;Node4</title>
<path fill="none" stroke="black" d="M269.26,-81.47C286.98,-89.89 311.05,-100.72 333,-108.5 346.38,-113.24 361.55,-117.47 374.38,-120.73"/>
<polygon fill="black" stroke="black" points="264.44,-79.16 269.92,-79.29 266.7,-80.24 268.95,-81.32 268.95,-81.32 268.95,-81.32 266.7,-80.24 267.98,-83.35 264.44,-79.16 264.44,-79.16"/>
</g>
<!-- Node5 -->
<g id="node4" class="node">
<title>Node5</title>
<g id="a_node4"><a xlink:href="$group__lambda11__complex.html" xlink:title=" ">
<text text-anchor="middle" x="404.5" y="-85.4" font-family="Helvetica,Arial,sans-serif" font-size="12.00">More complex Lambdas</text>
</a>
</g>
</g>
<!-- Node1&#45;&gt;Node5 -->
<g id="edge4" class="edge">
<title>Node1&#45;&gt;Node5</title>
<path fill="none" stroke="black" d="M302.45,-75.91C312.31,-77.14 322.61,-78.42 332.72,-79.68"/>
<polygon fill="black" stroke="black" points="297.34,-75.27 302.58,-73.66 299.82,-75.58 302.3,-75.89 302.3,-75.89 302.3,-75.89 299.82,-75.58 302.02,-78.12 297.34,-75.27 297.34,-75.27"/>
</g>
<!-- Node3 -->
<g id="node5" class="node">
<title>Node3</title>
<g id="a_node5"><a xlink:href="$group__lang11.html" xlink:title=" ">
<text text-anchor="middle" x="404.5" y="-46.4" font-family="Helvetica,Arial,sans-serif" font-size="12.00">Language</text>
</a>
</g>
</g>
<!-- Node1&#45;&gt;Node3 -->
<g id="edge2" class="edge">
<title>Node1&#45;&gt;Node3</title>
<path fill="none" stroke="black" d="M302.37,-61.47C324.75,-58.82 349.46,-55.9 368.85,-53.6"/>
<polygon fill="black" stroke="black" points="297.34,-62.07 302.04,-59.25 299.82,-61.77 302.3,-61.48 302.3,-61.48 302.3,-61.48 299.82,-61.77 302.57,-63.71 297.34,-62.07 297.34,-62.07"/>
</g>
<!-- Node6 -->
<g id="node6" class="node">
<title>Node6</title>
<g id="a_node6"><a xlink:href="$group__threads11.html" xlink:title=" ">
<text text-anchor="middle" x="404.5" y="-7.4" font-family="Helvetica,Arial,sans-serif" font-size="12.00">Threads</text>
</a>
</g>
</g>
<!-- Node1&#45;&gt;Node6 -->
<g id="edge5" class="edge">
<title>Node1&#45;&gt;Node6</title>
<path fill="none" stroke="black" d="M270.81,-55.71C288.42,-47.87 311.79,-37.95 333,-30.5 346.2,-25.86 361.08,-21.51 373.75,-18.07"/>
<polygon fill="black" stroke="black" points="266,-57.86 269.65,-53.77 268.28,-56.84 270.57,-55.82 270.57,-55.82 270.57,-55.82 268.28,-56.84 271.48,-57.87 266,-57.86 266,-57.86"/>
</g>
</g>
</svg>
