<?xml version="1.0" encoding="UTF-8" standalone="no"?>
<!DOCTYPE svg PUBLIC "-//W3C//DTD SVG 1.1//EN"
 "http://www.w3.org/Graphics/SVG/1.1/DTD/svg11.dtd">
<!-- Generated by graphviz version 2.43.0 (0)
 -->
<!-- Title: Template parameters Pages: 1 -->
<svg width="363pt" height="36pt"
 viewBox="0.00 0.00 363.00 35.50" xmlns="http://www.w3.org/2000/svg" xmlns:xlink="http://www.w3.org/1999/xlink">
<g id="graph0" class="graph" transform="scale(1 1) rotate(0) translate(4 31.5)">
<title>Template parameters</title>
<!-- Node3 -->
<g id="node1" class="node">
<title>Node3</title>
<g id="a_node1"><a xlink:href="$group__lang11.html" xlink:title=" ">
<text text-anchor="middle" x="319.5" y="-7.4" font-family="Helvetica,Arial,sans-serif" font-size="12.00">Language</text>
</a>
</g>
</g>
<!-- Node2 -->
<g id="node2" class="node">
<title>Node2</title>
<g id="a_node2"><a xlink:href="$group__templ17.html" xlink:title=" ">
<text text-anchor="middle" x="32.5" y="-7.4" font-family="Helvetica,Arial,sans-serif" font-size="12.00">Template</text>
</a>
</g>
</g>
<!-- Node1 -->
<g id="node3" class="node">
<title>Node1</title>
<g id="a_node3"><a xlink:title=" ">
<polygon fill="#bfbfbf" stroke="transparent" points="238,-21 102,-21 102,0 238,0 238,-21"/>
<text text-anchor="start" x="110" y="-8.4" font-family="Helvetica,Arial,sans-serif" font-weight="bold" font-size="12.00">Template parameters</text>
</a>
</g>
</g>
<!-- Node2&#45;&gt;Node1 -->
<g id="edge1" class="edge">
<title>Node2&#45;&gt;Node1</title>
<path fill="none" stroke="black" d="M70.29,-10.5C80.1,-10.5 91.02,-10.5 101.91,-10.5"/>
<polygon fill="black" stroke="black" points="65.27,-10.5 70.27,-8.25 67.77,-10.5 70.27,-10.5 70.27,-10.5 70.27,-10.5 67.77,-10.5 70.27,-12.75 65.27,-10.5 65.27,-10.5"/>
</g>
<!-- Node1&#45;&gt;Node3 -->
<g id="edge2" class="edge">
<title>Node1&#45;&gt;Node3</title>
<path fill="none" stroke="orange" stroke-dasharray="5,2" d="M238.28,-10.5C254.08,-10.5 270.28,-10.5 283.95,-10.5"/>
<text text-anchor="middle" x="261" y="-15.5" font-family="Helvetica,Arial,sans-serif" font-size="15.00">B</text>
</g>
</g>
</svg>
