<?xml version="1.0" encoding="UTF-8" standalone="no"?>
<!DOCTYPE svg PUBLIC "-//W3C//DTD SVG 1.1//EN"
 "http://www.w3.org/Graphics/SVG/1.1/DTD/svg11.dtd">
<!-- Generated by graphviz version 2.43.0 (0)
 -->
<!-- Title: C++11 examples Pages: 1 -->
<svg width="542pt" height="206pt"
 viewBox="0.00 0.00 542.00 206.00" xmlns="http://www.w3.org/2000/svg" xmlns:xlink="http://www.w3.org/1999/xlink">
<g id="graph0" class="graph" transform="scale(1 1) rotate(0) translate(4 202)">
<title>C++11 examples</title>
<!-- Node2 -->
<g id="node1" class="node">
<title>Node2</title>
<g id="a_node1"><a xlink:href="group__CPP.html" target="_top" xlink:title="from recent to oldest">
<text text-anchor="middle" x="85.5" y="-95.9" font-family="UbuntuXX" font-size="12.00">C++ examples by version</text>
</a>
</g>
</g>
<!-- Node1 -->
<g id="node2" class="node">
<title>Node1</title>
<g id="a_node2"><a xlink:title=" ">
<text text-anchor="start" x="215" y="-96.9" font-family="UbuntuXX" font-weight="bold" font-size="12.00">C++11 examples</text>
</a>
</g>
</g>
<!-- Node2&#45;&gt;Node1 -->
<g id="edge1" class="edge">
<title>Node2&#45;&gt;Node1</title>
<path fill="none" stroke="black" d="M176.22,-99C186.55,-99 196.92,-99 206.83,-99"/>
<polygon fill="black" stroke="black" points="171.15,-99 176.15,-96.75 173.65,-99 176.15,-99 176.15,-99 176.15,-99 173.65,-99 176.15,-101.25 171.15,-99 171.15,-99"/>
</g>
<!-- Node4 -->
<g id="node3" class="node">
<title>Node4</title>
<g id="a_node3"><a xlink:href="group__lambda11.html" target="_top" xlink:title=" ">
<text text-anchor="middle" x="454" y="-176.9" font-family="UbuntuXX" font-size="12.00">Lambda</text>
</a>
</g>
</g>
<!-- Node1&#45;&gt;Node4 -->
<g id="edge3" class="edge">
<title>Node1&#45;&gt;Node4</title>
<path fill="none" stroke="black" d="M308.79,-119.8C327.75,-130.5 351.74,-143.29 374,-153 389.28,-159.66 406.77,-165.79 421.41,-170.51"/>
<polygon fill="black" stroke="black" points="304.08,-117.13 309.54,-117.64 306.26,-118.36 308.43,-119.59 308.43,-119.59 308.43,-119.59 306.26,-118.36 307.32,-121.55 304.08,-117.13 304.08,-117.13"/>
</g>
<!-- Node5 -->
<g id="node4" class="node">
<title>Node5</title>
<g id="a_node4"><a xlink:href="group__lambda11__complex.html" target="_top" xlink:title=" ">
<text text-anchor="middle" x="454" y="-122.9" font-family="UbuntuXX" font-size="12.00">More complex Lambdas</text>
</a>
</g>
</g>
<!-- Node1&#45;&gt;Node5 -->
<g id="edge4" class="edge">
<title>Node1&#45;&gt;Node5</title>
<path fill="none" stroke="black" d="M343.23,-109.49C353.21,-110.99 363.54,-112.54 373.69,-114.07"/>
<polygon fill="black" stroke="black" points="338.05,-108.71 343.33,-107.23 340.52,-109.08 342.99,-109.45 342.99,-109.45 342.99,-109.45 340.52,-109.08 342.66,-111.68 338.05,-108.71 338.05,-108.71"/>
</g>
<!-- Node3 -->
<g id="node5" class="node">
<title>Node3</title>
<g id="a_node5"><a xlink:href="group__lang11.html" target="_top" xlink:title=" ">
<text text-anchor="middle" x="454" y="-68.9" font-family="UbuntuXX" font-size="12.00">Language</text>
</a>
</g>
</g>
<!-- Node1&#45;&gt;Node3 -->
<g id="edge2" class="edge">
<title>Node1&#45;&gt;Node3</title>
<path fill="none" stroke="black" d="M343.29,-88.5C368.04,-84.78 394.91,-80.74 415.86,-77.59"/>
<polygon fill="black" stroke="black" points="338.05,-89.29 342.66,-86.32 340.52,-88.92 342.99,-88.55 342.99,-88.55 342.99,-88.55 340.52,-88.92 343.33,-90.77 338.05,-89.29 338.05,-89.29"/>
</g>
<!-- Node6 -->
<g id="node6" class="node">
<title>Node6</title>
<g id="a_node6"><a xlink:href="group__threads11.html" target="_top" xlink:title=" ">
<text text-anchor="middle" x="454" y="-14.9" font-family="UbuntuXX" font-size="12.00">Threads</text>
</a>
</g>
</g>
<!-- Node1&#45;&gt;Node6 -->
<g id="edge5" class="edge">
<title>Node1&#45;&gt;Node6</title>
<path fill="none" stroke="black" d="M308.79,-78.2C327.75,-67.5 351.74,-54.71 374,-45 389.28,-38.34 406.77,-32.21 421.41,-27.49"/>
<polygon fill="black" stroke="black" points="304.08,-80.87 307.32,-76.45 306.26,-79.64 308.43,-78.41 308.43,-78.41 308.43,-78.41 306.26,-79.64 309.54,-80.36 304.08,-80.87 304.08,-80.87"/>
</g>
</g>
</svg>
