<?xml version="1.0" encoding="UTF-8" standalone="no"?>
<!DOCTYPE svg PUBLIC "-//W3C//DTD SVG 1.1//EN"
 "http://www.w3.org/Graphics/SVG/1.1/DTD/svg11.dtd">
<!-- Generated by graphviz version 2.43.0 (0)
 -->
<!-- Title: Language Pages: 1 -->
<svg width="400pt" height="69pt"
 viewBox="0.00 0.00 400.00 69.00" xmlns="http://www.w3.org/2000/svg" xmlns:xlink="http://www.w3.org/1999/xlink">
<g id="graph0" class="graph" transform="scale(1 1) rotate(0) translate(4 65)">
<title>Language</title>
<!-- Node2 -->
<g id="node1" class="node">
<title>Node2</title>
<g id="a_node1"><a xlink:href="$group__CPP11.html" xlink:title=" ">
<text text-anchor="middle" x="53.5" y="-27.4" font-family="Helvetica,Arial,sans-serif" font-size="12.00">C++11 examples</text>
</a>
</g>
</g>
<!-- Node1 -->
<g id="node2" class="node">
<title>Node1</title>
<g id="a_node2"><a xlink:title=" ">
<polygon fill="#bfbfbf" stroke="transparent" points="218,-41 144,-41 144,-20 218,-20 218,-41"/>
<text text-anchor="start" x="152" y="-28.4" font-family="Helvetica,Arial,sans-serif" font-weight="bold" font-size="12.00">Language</text>
</a>
</g>
</g>
<!-- Node2&#45;&gt;Node1 -->
<g id="edge1" class="edge">
<title>Node2&#45;&gt;Node1</title>
<path fill="none" stroke="black" d="M112.59,-30.5C123.27,-30.5 134.14,-30.5 143.94,-30.5"/>
<polygon fill="black" stroke="black" points="107.36,-30.5 112.36,-28.25 109.86,-30.5 112.36,-30.5 112.36,-30.5 112.36,-30.5 109.86,-30.5 112.36,-32.75 107.36,-30.5 107.36,-30.5"/>
</g>
<!-- Node4 -->
<g id="node3" class="node">
<title>Node4</title>
<g id="a_node3"><a xlink:href="$group__template__parameters.html" xlink:title=" ">
<text text-anchor="middle" x="328" y="-47.4" font-family="Helvetica,Arial,sans-serif" font-size="12.00">Template parameters</text>
</a>
</g>
</g>
<!-- Node1&#45;&gt;Node4 -->
<g id="edge3" class="edge">
<title>Node1&#45;&gt;Node4</title>
<path fill="none" stroke="orange" stroke-dasharray="5,2" d="M218.22,-35.5C232.06,-37.4 248.27,-39.64 263.9,-41.8"/>
<text text-anchor="middle" x="241" y="-43.5" font-family="Helvetica,Arial,sans-serif" font-size="15.00">B</text>
</g>
<!-- Node3 -->
<g id="node4" class="node">
<title>Node3</title>
<g id="a_node4"><a xlink:href="$group__test20.html" xlink:title=" ">
<text text-anchor="middle" x="328" y="-7.4" font-family="Helvetica,Arial,sans-serif" font-size="12.00">Test</text>
</a>
</g>
</g>
<!-- Node1&#45;&gt;Node3 -->
<g id="edge2" class="edge">
<title>Node1&#45;&gt;Node3</title>
<path fill="none" stroke="orange" stroke-dasharray="5,2" d="M206.54,-19.96C215.62,-16.57 226.11,-13.24 236,-11.5 260.89,-7.11 290.22,-7.81 308.71,-8.96"/>
<text text-anchor="middle" x="241" y="-16.5" font-family="Helvetica,Arial,sans-serif" font-size="15.00">A</text>
</g>
</g>
</svg>
