<?xml version="1.0" encoding="UTF-8" standalone="no"?>
<!DOCTYPE svg PUBLIC "-//W3C//DTD SVG 1.1//EN"
 "http://www.w3.org/Graphics/SVG/1.1/DTD/svg11.dtd">
<!-- Generated by graphviz version 2.43.0 (0)
 -->
<!-- Title: deduction_guides_17 Pages: 1 -->
<svg width="337pt" height="68pt"
 viewBox="0.00 0.00 337.00 68.00" xmlns="http://www.w3.org/2000/svg" xmlns:xlink="http://www.w3.org/1999/xlink">
<g id="graph0" class="graph" transform="scale(1 1) rotate(0) translate(4 64)">
<title>deduction_guides_17</title>
<!-- Node1 -->
<g id="node1" class="node">
<title>Node1</title>
<g id="a_node1"><a xlink:title=" ">
<polygon fill="#bfbfbf" stroke="transparent" points="140,-40 0,-40 0,-19 140,-19 140,-40"/>
<text text-anchor="start" x="8" y="-27.4" font-family="Helvetica,Arial,sans-serif" font-weight="bold" font-size="12.00">deduction_guides_17</text>
</a>
</g>
</g>
<!-- Node2 -->
<g id="node2" class="node">
<title>Node2</title>
<g id="a_node2"><a xlink:href="$group__template__argument__deduction.html#gae06ba048fd02e30fe785cab65d195937" xlink:title="deduction_guides">
<text text-anchor="middle" x="252.5" y="-46.4" font-family="Helvetica,Arial,sans-serif" font-size="12.00">deduction_guide1_queue</text>
</a>
</g>
</g>
<!-- Node1&#45;&gt;Node2 -->
<g id="edge1" class="edge">
<title>Node1&#45;&gt;Node2</title>
<path fill="none" stroke="midnightblue" d="M140.01,-37.15C150.1,-38.27 160.57,-39.42 170.87,-40.57"/>
<polygon fill="midnightblue" stroke="midnightblue" points="175.91,-41.12 170.69,-42.81 173.43,-40.85 170.94,-40.57 170.94,-40.57 170.94,-40.57 173.43,-40.85 171.19,-38.34 175.91,-41.12 175.91,-41.12"/>
</g>
<!-- Node3 -->
<g id="node3" class="node">
<title>Node3</title>
<g id="a_node3"><a xlink:href="$group__template__argument__deduction.html#gae3567664597330506936b8cf45b526e9" xlink:title="deduced vector&lt;int&gt;">
<text text-anchor="middle" x="252.5" y="-7.4" font-family="Helvetica,Arial,sans-serif" font-size="12.00">deduction_guide1_vector</text>
</a>
</g>
</g>
<!-- Node1&#45;&gt;Node3 -->
<g id="edge2" class="edge">
<title>Node1&#45;&gt;Node3</title>
<path fill="none" stroke="midnightblue" d="M140.01,-22.24C150.19,-21.16 160.75,-20.05 171.13,-18.96"/>
<polygon fill="midnightblue" stroke="midnightblue" points="176.21,-18.42 171.48,-21.19 173.73,-18.69 171.24,-18.95 171.24,-18.95 171.24,-18.95 173.73,-18.69 171.01,-16.71 176.21,-18.42 176.21,-18.42"/>
</g>
</g>
</svg>
