<?xml version="1.0" encoding="UTF-8" standalone="no"?>
<!DOCTYPE svg PUBLIC "-//W3C//DTD SVG 1.1//EN"
 "http://www.w3.org/Graphics/SVG/1.1/DTD/svg11.dtd">
<!-- Generated by graphviz version 2.43.0 (0)
 -->
<!-- Title: structured_bindings Pages: 1 -->
<svg width="316pt" height="49pt"
 viewBox="0.00 0.00 316.00 49.00" xmlns="http://www.w3.org/2000/svg" xmlns:xlink="http://www.w3.org/1999/xlink">
<g id="graph0" class="graph" transform="scale(1 1) rotate(0) translate(4 45)">
<title>structured_bindings</title>
<!-- Node1 -->
<g id="node1" class="node">
<title>Node1</title>
<g id="a_node1"><a xlink:title=" ">
<polygon fill="#bfbfbf" stroke="transparent" points="308,-21 175,-21 175,0 308,0 308,-21"/>
<text text-anchor="start" x="183" y="-8.4" font-family="Helvetica,Arial,sans-serif" font-weight="bold" font-size="12.00">structured_bindings</text>
</a>
</g>
</g>
<!-- Node2 -->
<g id="node2" class="node">
<title>Node2</title>
<g id="a_node2"><a xlink:href="$group__lang17.html#ga511a3c761f5be8bf3c9bb7db27a91696" xlink:title="language">
<text text-anchor="middle" x="109" y="-27.4" font-family="Helvetica,Arial,sans-serif" font-size="12.00">lang_17</text>
</a>
</g>
</g>
<!-- Node1&#45;&gt;Node2 -->
<g id="edge1" class="edge">
<title>Node1&#45;&gt;Node2</title>
<path fill="none" stroke="midnightblue" d="M169.87,-21.33C159,-22.99 148.34,-24.62 139.09,-26.04"/>
<polygon fill="midnightblue" stroke="midnightblue" points="174.87,-20.56 170.27,-23.54 172.4,-20.94 169.93,-21.32 169.93,-21.32 169.93,-21.32 172.4,-20.94 169.58,-19.09 174.87,-20.56 174.87,-20.56"/>
</g>
<!-- Node3 -->
<g id="node3" class="node">
<title>Node3</title>
<g id="a_node3"><a xlink:href="$group__CPP17.html#gae66f6b31b5ad750f1fe042a706a4e3d4" xlink:title=" ">
<text text-anchor="middle" x="21.5" y="-7.4" font-family="Helvetica,Arial,sans-serif" font-size="12.00">main</text>
</a>
</g>
</g>
<!-- Node1&#45;&gt;Node3 -->
<g id="edge3" class="edge">
<title>Node1&#45;&gt;Node3</title>
<path fill="none" stroke="midnightblue" d="M169.74,-10.5C125.61,-10.5 71.91,-10.5 43.11,-10.5"/>
<polygon fill="midnightblue" stroke="midnightblue" points="174.8,-10.5 169.8,-12.75 172.3,-10.5 169.8,-10.5 169.8,-10.5 169.8,-10.5 172.3,-10.5 169.8,-8.25 174.8,-10.5 174.8,-10.5"/>
</g>
<!-- Node2&#45;&gt;Node3 -->
<g id="edge2" class="edge">
<title>Node2&#45;&gt;Node3</title>
<path fill="none" stroke="midnightblue" d="M73.57,-22.45C63.23,-20.03 52.22,-17.45 43.08,-15.31"/>
<polygon fill="midnightblue" stroke="midnightblue" points="78.58,-23.62 73.19,-24.67 76.14,-23.05 73.71,-22.48 73.71,-22.48 73.71,-22.48 76.14,-23.05 74.22,-20.29 78.58,-23.62 78.58,-23.62"/>
</g>
</g>
</svg>
