<?xml version="1.0" encoding="UTF-8" standalone="no"?>
<!DOCTYPE svg PUBLIC "-//W3C//DTD SVG 1.1//EN"
 "http://www.w3.org/Graphics/SVG/1.1/DTD/svg11.dtd">
<!-- Generated by graphviz version 2.43.0 (0)
 -->
<!-- Title: synchronized_encapsulated_value Pages: 1 -->
<svg width="413pt" height="29pt"
 viewBox="0.00 0.00 413.00 29.00" xmlns="http://www.w3.org/2000/svg" xmlns:xlink="http://www.w3.org/1999/xlink">
<g id="graph0" class="graph" transform="scale(1 1) rotate(0) translate(4 25)">
<title>synchronized_encapsulated_value</title>
<!-- Node1 -->
<g id="node1" class="node">
<title>Node1</title>
<g id="a_node1"><a xlink:title=" ">
<polygon fill="#bfbfbf" stroke="transparent" points="405,-21 189,-21 189,0 405,0 405,-21"/>
<text text-anchor="start" x="197" y="-8.4" font-family="Helvetica,Arial,sans-serif" font-weight="bold" font-size="12.00">synchronized_encapsulated_value</text>
</a>
</g>
</g>
<!-- Node2 -->
<g id="node2" class="node">
<title>Node2</title>
<g id="a_node2"><a xlink:href="$group__OOP.html#gac98f62660ece957e8cbc4d3ff6ec0cdf" xlink:title=" ">
<text text-anchor="middle" x="116" y="-7.4" font-family="Helvetica,Arial,sans-serif" font-size="12.00">oop_demo</text>
</a>
</g>
</g>
<!-- Node1&#45;&gt;Node2 -->
<g id="edge1" class="edge">
<title>Node1&#45;&gt;Node2</title>
<path fill="none" stroke="midnightblue" d="M183.76,-10.5C172.91,-10.5 162.54,-10.5 153.35,-10.5"/>
<polygon fill="midnightblue" stroke="midnightblue" points="188.77,-10.5 183.77,-12.75 186.27,-10.5 183.77,-10.5 183.77,-10.5 183.77,-10.5 186.27,-10.5 183.77,-8.25 188.77,-10.5 188.77,-10.5"/>
</g>
<!-- Node3 -->
<g id="node3" class="node">
<title>Node3</title>
<g id="a_node3"><a xlink:href="$group__DP.html#gae66f6b31b5ad750f1fe042a706a4e3d4" xlink:title=" ">
<text text-anchor="middle" x="21.5" y="-7.4" font-family="Helvetica,Arial,sans-serif" font-size="12.00">main</text>
</a>
</g>
</g>
<!-- Node2&#45;&gt;Node3 -->
<g id="edge2" class="edge">
<title>Node2&#45;&gt;Node3</title>
<path fill="none" stroke="midnightblue" d="M73.79,-10.5C63.15,-10.5 52.14,-10.5 43.07,-10.5"/>
<polygon fill="midnightblue" stroke="midnightblue" points="78.97,-10.5 73.97,-12.75 76.47,-10.5 73.97,-10.5 73.97,-10.5 73.97,-10.5 76.47,-10.5 73.97,-8.25 78.97,-10.5 78.97,-10.5"/>
</g>
</g>
</svg>
