<?xml version="1.0" encoding="UTF-8" standalone="no"?>
<!DOCTYPE svg PUBLIC "-//W3C//DTD SVG 1.1//EN"
 "http://www.w3.org/Graphics/SVG/1.1/DTD/svg11.dtd">
<!-- Generated by graphviz version 2.43.0 (0)
 -->
<!-- Title: behavioral_patterns_demo Pages: 1 -->
<svg width="734pt" height="337pt"
 viewBox="0.00 0.00 734.00 336.50" xmlns="http://www.w3.org/2000/svg" xmlns:xlink="http://www.w3.org/1999/xlink">
<g id="graph0" class="graph" transform="scale(1 1) rotate(0) translate(4 332.5)">
<title>behavioral_patterns_demo</title>
<!-- Node1 -->
<g id="node1" class="node">
<title>Node1</title>
<g id="a_node1"><a xlink:title=" ">
<polygon fill="#bfbfbf" stroke="transparent" points="170,-198 0,-198 0,-177 170,-177 170,-198"/>
<text text-anchor="start" x="8" y="-185.4" font-family="Helvetica,Arial,sans-serif" font-weight="bold" font-size="12.00">behavioral_patterns_demo</text>
</a>
</g>
</g>
<!-- Node2 -->
<g id="node2" class="node">
<title>Node2</title>
<g id="a_node2"><a xlink:href="$structChain__of__responsibility.html#a1e86b7bc1e9472af2b85e7322a4cc5c1" xlink:title="Specific handler can process a command and return non&#45;negative.">
<text text-anchor="start" x="225" y="-314.9" font-family="Helvetica,Arial,sans-serif" font-size="12.00">Chain_of_responsibility</text>
<text text-anchor="middle" x="288.5" y="-301.9" font-family="Helvetica,Arial,sans-serif" font-size="12.00">::handle</text>
</a>
</g>
</g>
<!-- Node1&#45;&gt;Node2 -->
<g id="edge1" class="edge">
<title>Node1&#45;&gt;Node2</title>
<path fill="none" stroke="midnightblue" d="M96.24,-198.2C115.8,-218.07 160.6,-260.88 206,-285.5 210.7,-288.05 215.69,-290.39 220.79,-292.54"/>
<polygon fill="midnightblue" stroke="midnightblue" points="225.5,-294.46 220.02,-294.66 223.19,-293.52 220.87,-292.57 220.87,-292.57 220.87,-292.57 223.19,-293.52 221.72,-290.49 225.5,-294.46 225.5,-294.46"/>
</g>
<!-- Node3 -->
<g id="node3" class="node">
<title>Node3</title>
<g id="a_node3"><a xlink:href="$group__BP.html#ga49d579b8340b92f6ceb51cb6d57d4b2d" xlink:title=" ">
<text text-anchor="middle" x="288.5" y="-262.4" font-family="Helvetica,Arial,sans-serif" font-size="12.00">mediator_demo</text>
</a>
</g>
</g>
<!-- Node1&#45;&gt;Node3 -->
<g id="edge2" class="edge">
<title>Node1&#45;&gt;Node3</title>
<path fill="none" stroke="midnightblue" d="M104.13,-198.05C127.15,-211.05 168.4,-233.07 206,-246.5 214.66,-249.59 224.02,-252.32 233.2,-254.67"/>
<polygon fill="midnightblue" stroke="midnightblue" points="238.28,-255.93 232.88,-256.91 235.85,-255.33 233.42,-254.72 233.42,-254.72 233.42,-254.72 235.85,-255.33 233.97,-252.54 238.28,-255.93 238.28,-255.93"/>
</g>
<!-- Node7 -->
<g id="node7" class="node">
<title>Node7</title>
<g id="a_node7"><a xlink:href="$group__BP.html#ga39dd63f04a9c36bb6cde09c53024a21d" xlink:title=" ">
<text text-anchor="middle" x="288.5" y="-223.4" font-family="Helvetica,Arial,sans-serif" font-size="12.00">observer_demo</text>
</a>
</g>
</g>
<!-- Node1&#45;&gt;Node7 -->
<g id="edge6" class="edge">
<title>Node1&#45;&gt;Node7</title>
<path fill="none" stroke="midnightblue" d="M140.26,-198C169.02,-203.57 204.26,-210.39 233.04,-215.96"/>
<polygon fill="midnightblue" stroke="midnightblue" points="237.97,-216.91 232.64,-218.17 235.52,-216.44 233.06,-215.96 233.06,-215.96 233.06,-215.96 235.52,-216.44 233.49,-213.75 237.97,-216.91 237.97,-216.91"/>
</g>
<!-- Node9 -->
<g id="node9" class="node">
<title>Node9</title>
<g id="a_node9"><a xlink:href="$group__PS.html#gae0de20d55f2eb979eb20dcef9abde9bd" xlink:title=" ">
<text text-anchor="middle" x="288.5" y="-184.4" font-family="Helvetica,Arial,sans-serif" font-size="12.00">publisher_subscriber_demo</text>
</a>
</g>
</g>
<!-- Node1&#45;&gt;Node9 -->
<g id="edge8" class="edge">
<title>Node1&#45;&gt;Node9</title>
<path fill="none" stroke="midnightblue" d="M170.29,-187.5C180.3,-187.5 190.53,-187.5 200.58,-187.5"/>
<polygon fill="midnightblue" stroke="midnightblue" points="205.81,-187.5 200.81,-189.75 203.31,-187.5 200.81,-187.5 200.81,-187.5 200.81,-187.5 203.31,-187.5 200.81,-185.25 205.81,-187.5 205.81,-187.5"/>
</g>
<!-- Node11 -->
<g id="node11" class="node">
<title>Node11</title>
<g id="a_node11"><a xlink:href="$structChain__of__responsibility.html#ac125b4b1aa689aa72daa30d0785a0c6e" xlink:title=" ">
<text text-anchor="start" x="225" y="-144.9" font-family="Helvetica,Arial,sans-serif" font-size="12.00">Chain_of_responsibility</text>
<text text-anchor="middle" x="288.5" y="-131.9" font-family="Helvetica,Arial,sans-serif" font-size="12.00">::register_handler</text>
</a>
</g>
</g>
<!-- Node1&#45;&gt;Node11 -->
<g id="edge10" class="edge">
<title>Node1&#45;&gt;Node11</title>
<path fill="none" stroke="midnightblue" d="M132.23,-176.95C155.85,-171.55 185.21,-164.85 212.01,-158.73"/>
<polygon fill="midnightblue" stroke="midnightblue" points="216.98,-157.6 212.61,-160.91 214.54,-158.16 212.11,-158.71 212.11,-158.71 212.11,-158.71 214.54,-158.16 211.61,-156.52 216.98,-157.6 216.98,-157.6"/>
</g>
<!-- Node12 -->
<g id="node12" class="node">
<title>Node12</title>
<g id="a_node12"><a xlink:href="$group__visitor.html#gadf2d0f148383e8df93146cc841e226a1" xlink:title=" ">
<text text-anchor="middle" x="288.5" y="-92.4" font-family="Helvetica,Arial,sans-serif" font-size="12.00">standard_visitor_demo</text>
</a>
</g>
</g>
<!-- Node1&#45;&gt;Node12 -->
<g id="edge11" class="edge">
<title>Node1&#45;&gt;Node12</title>
<path fill="none" stroke="midnightblue" d="M100.39,-176.89C122.19,-161.3 165.34,-132.24 206,-115.5 213.47,-112.42 221.54,-109.74 229.58,-107.43"/>
<polygon fill="midnightblue" stroke="midnightblue" points="234.59,-106.03 230.37,-109.54 232.18,-106.7 229.77,-107.37 229.77,-107.37 229.77,-107.37 232.18,-106.7 229.16,-105.21 234.59,-106.03 234.59,-106.03"/>
</g>
<!-- Node13 -->
<g id="node13" class="node">
<title>Node13</title>
<g id="a_node13"><a xlink:href="$group__visitor.html#ga11584cf836c2520c14cc5827ce453f8f" xlink:title=" ">
<text text-anchor="middle" x="288.5" y="-53.4" font-family="Helvetica,Arial,sans-serif" font-size="12.00">visitor_demo</text>
</a>
</g>
</g>
<!-- Node1&#45;&gt;Node13 -->
<g id="edge12" class="edge">
<title>Node1&#45;&gt;Node13</title>
<path fill="none" stroke="midnightblue" d="M94.02,-176.95C111.66,-154.53 156.21,-102.05 206,-75.5 216.66,-69.82 228.98,-65.82 240.78,-63.02"/>
<polygon fill="midnightblue" stroke="midnightblue" points="245.79,-61.89 241.41,-65.18 243.35,-62.43 240.91,-62.98 240.91,-62.98 240.91,-62.98 243.35,-62.43 240.42,-60.79 245.79,-61.89 245.79,-61.89"/>
</g>
<!-- Node4 -->
<g id="node4" class="node">
<title>Node4</title>
<g id="a_node4"><a xlink:href="$structMediator.html#abc7fd67c96301b2975f830550ab5713c" xlink:title=" ">
<text text-anchor="start" x="445" y="-314.9" font-family="Helvetica,Arial,sans-serif" font-size="12.00">Mediator::register</text>
<text text-anchor="middle" x="491.5" y="-301.9" font-family="Helvetica,Arial,sans-serif" font-size="12.00">_member</text>
</a>
</g>
</g>
<!-- Node3&#45;&gt;Node4 -->
<g id="edge3" class="edge">
<title>Node3&#45;&gt;Node4</title>
<path fill="none" stroke="midnightblue" d="M335.61,-276.05C364.1,-282.57 400.93,-291 431.53,-298"/>
<polygon fill="midnightblue" stroke="midnightblue" points="436.77,-299.2 431.4,-300.28 434.33,-298.65 431.9,-298.09 431.9,-298.09 431.9,-298.09 434.33,-298.65 432.4,-295.9 436.77,-299.2 436.77,-299.2"/>
</g>
<!-- Node5 -->
<g id="node5" class="node">
<title>Node5</title>
<g id="a_node5"><a xlink:href="$group__BP.html#ga0b04b5167d12021f4360b6a66a1b1125" xlink:title=" ">
<text text-anchor="middle" x="491.5" y="-262.4" font-family="Helvetica,Arial,sans-serif" font-size="12.00">Member::send</text>
</a>
</g>
</g>
<!-- Node3&#45;&gt;Node5 -->
<g id="edge4" class="edge">
<title>Node3&#45;&gt;Node5</title>
<path fill="none" stroke="midnightblue" d="M338.67,-265.5C369.43,-265.5 408.97,-265.5 439.98,-265.5"/>
<polygon fill="midnightblue" stroke="midnightblue" points="445.27,-265.5 440.27,-267.75 442.77,-265.5 440.27,-265.5 440.27,-265.5 440.27,-265.5 442.77,-265.5 440.27,-263.25 445.27,-265.5 445.27,-265.5"/>
</g>
<!-- Node6 -->
<g id="node6" class="node">
<title>Node6</title>
<g id="a_node6"><a xlink:href="$structMediator.html#aa4696f4276eb4646826fa2cd82392496" xlink:title=" ">
<text text-anchor="middle" x="669" y="-262.4" font-family="Helvetica,Arial,sans-serif" font-size="12.00">Mediator::dispatch</text>
</a>
</g>
</g>
<!-- Node5&#45;&gt;Node6 -->
<g id="edge5" class="edge">
<title>Node5&#45;&gt;Node6</title>
<path fill="none" stroke="midnightblue" d="M537.7,-265.5C558.75,-265.5 584.12,-265.5 606.86,-265.5"/>
<polygon fill="midnightblue" stroke="midnightblue" points="611.97,-265.5 606.97,-267.75 609.47,-265.5 606.97,-265.5 606.97,-265.5 606.97,-265.5 609.47,-265.5 606.97,-263.25 611.97,-265.5 611.97,-265.5"/>
</g>
<!-- Node8 -->
<g id="node8" class="node">
<title>Node8</title>
<g id="a_node8"><a xlink:href="$structSubject.html#a156c54b0ef570d0439f2347643192dc3" xlink:title=" ">
<text text-anchor="middle" x="491.5" y="-223.4" font-family="Helvetica,Arial,sans-serif" font-size="12.00">Subject::notify_observers</text>
</a>
</g>
</g>
<!-- Node7&#45;&gt;Node8 -->
<g id="edge7" class="edge">
<title>Node7&#45;&gt;Node8</title>
<path fill="none" stroke="midnightblue" d="M339.19,-226.5C360.57,-226.5 386.11,-226.5 410.07,-226.5"/>
<polygon fill="midnightblue" stroke="midnightblue" points="415.16,-226.5 410.16,-228.75 412.66,-226.5 410.16,-226.5 410.16,-226.5 410.16,-226.5 412.66,-226.5 410.16,-224.25 415.16,-226.5 415.16,-226.5"/>
</g>
<!-- Node10 -->
<g id="node10" class="node">
<title>Node10</title>
<g id="a_node10"><a xlink:href="$structPublisher.html#a9420436a866c0ec19ecf3381a894370f" xlink:title=" ">
<text text-anchor="middle" x="491.5" y="-184.4" font-family="Helvetica,Arial,sans-serif" font-size="12.00">Publisher::publish</text>
</a>
</g>
</g>
<!-- Node9&#45;&gt;Node10 -->
<g id="edge9" class="edge">
<title>Node9&#45;&gt;Node10</title>
<path fill="none" stroke="midnightblue" d="M371.25,-187.5C390.83,-187.5 411.38,-187.5 429.81,-187.5"/>
<polygon fill="midnightblue" stroke="midnightblue" points="434.94,-187.5 429.94,-189.75 432.44,-187.5 429.94,-187.5 429.94,-187.5 429.94,-187.5 432.44,-187.5 429.94,-185.25 434.94,-187.5 434.94,-187.5"/>
</g>
<!-- Node14 -->
<g id="node14" class="node">
<title>Node14</title>
<g id="a_node14"><a xlink:href="$group__visitor.html#ga82eb8d60b7fe6342e91722f383a4c9c4" xlink:title="knows only virtual visitor and component">
<text text-anchor="middle" x="491.5" y="-99.4" font-family="Helvetica,Arial,sans-serif" font-size="12.00">client_visit</text>
</a>
</g>
</g>
<!-- Node13&#45;&gt;Node14 -->
<g id="edge13" class="edge">
<title>Node13&#45;&gt;Node14</title>
<path fill="none" stroke="midnightblue" d="M331.15,-66.03C366,-74.01 415.43,-85.32 449.97,-93.22"/>
<polygon fill="midnightblue" stroke="midnightblue" points="454.95,-94.36 449.58,-95.44 452.52,-93.81 450.08,-93.25 450.08,-93.25 450.08,-93.25 452.52,-93.81 450.58,-91.06 454.95,-94.36 454.95,-94.36"/>
</g>
<!-- Node15 -->
<g id="node15" class="node">
<title>Node15</title>
<g id="a_node15"><a xlink:href="$structSample__component.html#ad9d2146df037c428eff9b9b816a6aebe" xlink:title="is not virtual">
<text text-anchor="start" x="415" y="-59.9" font-family="Helvetica,Arial,sans-serif" font-size="12.00">Sample_component::sample</text>
<text text-anchor="middle" x="491.5" y="-46.9" font-family="Helvetica,Arial,sans-serif" font-size="12.00">_component_method</text>
</a>
</g>
</g>
<!-- Node13&#45;&gt;Node15 -->
<g id="edge14" class="edge">
<title>Node13&#45;&gt;Node15</title>
<path fill="none" stroke="midnightblue" d="M331.15,-56.5C351.54,-56.5 376.94,-56.5 401.41,-56.5"/>
<polygon fill="midnightblue" stroke="midnightblue" points="406.62,-56.5 401.62,-58.75 404.12,-56.5 401.62,-56.5 401.62,-56.5 401.62,-56.5 404.12,-56.5 401.62,-54.25 406.62,-56.5 406.62,-56.5"/>
</g>
<!-- Node16 -->
<g id="node16" class="node">
<title>Node16</title>
<g id="a_node16"><a xlink:href="$structAbstract__visitor.html#ad18f776881d73ef1b50331105b244b07" xlink:title="overloaded function for each component subtype">
<text text-anchor="middle" x="491.5" y="-7.4" font-family="Helvetica,Arial,sans-serif" font-size="12.00">Abstract_visitor::visit</text>
</a>
</g>
</g>
<!-- Node13&#45;&gt;Node16 -->
<g id="edge15" class="edge">
<title>Node13&#45;&gt;Node16</title>
<path fill="none" stroke="midnightblue" d="M331.15,-46.97C362.6,-39.77 405.93,-29.85 439.47,-22.18"/>
<polygon fill="midnightblue" stroke="midnightblue" points="444.35,-21.06 439.97,-24.37 441.91,-21.62 439.47,-22.18 439.47,-22.18 439.47,-22.18 441.91,-21.62 438.97,-19.99 444.35,-21.06 444.35,-21.06"/>
</g>
</g>
</svg>
