<?xml version="1.0" encoding="UTF-8" standalone="no"?>
<!DOCTYPE svg PUBLIC "-//W3C//DTD SVG 1.1//EN"
 "http://www.w3.org/Graphics/SVG/1.1/DTD/svg11.dtd">
<!-- Generated by graphviz version 2.43.0 (0)
 -->
<!-- Title: client_visit Pages: 1 -->
<svg width="597pt" height="34pt"
 viewBox="0.00 0.00 597.00 34.00" xmlns="http://www.w3.org/2000/svg" xmlns:xlink="http://www.w3.org/1999/xlink">
<g id="graph0" class="graph" transform="scale(1 1) rotate(0) translate(4 30)">
<title>client_visit</title>
<!-- Node1 -->
<g id="node1" class="node">
<title>Node1</title>
<g id="a_node1"><a xlink:title="knows only virtual visitor and component">
<polygon fill="#bfbfbf" stroke="black" points="491,-0.5 491,-25.5 589,-25.5 589,-0.5 491,-0.5"/>
<text text-anchor="middle" x="540" y="-9.5" font-family="Helvetica,sans-Serif" font-size="15.00">client_visit</text>
</a>
</g>
</g>
<!-- Node2 -->
<g id="node2" class="node">
<title>Node2</title>
<g id="a_node2"><a xlink:href="group__visitor.html#ga11584cf836c2520c14cc5827ce453f8f" target="_top" xlink:title=" ">
<polygon fill="none" stroke="black" points="342,-0.5 342,-25.5 455,-25.5 455,-0.5 342,-0.5"/>
<text text-anchor="middle" x="398.5" y="-9.5" font-family="Helvetica,sans-Serif" font-size="15.00">visitor_demo</text>
</a>
</g>
</g>
<!-- Node1&#45;&gt;Node2 -->
<g id="edge1" class="edge">
<title>Node1&#45;&gt;Node2</title>
<path fill="none" stroke="midnightblue" d="M480.83,-13C472.37,-13 463.68,-13 455.28,-13"/>
<polygon fill="midnightblue" stroke="midnightblue" points="480.99,-16.5 490.99,-13 480.99,-9.5 480.99,-16.5"/>
</g>
<!-- Node3 -->
<g id="node3" class="node">
<title>Node3</title>
<g id="a_node3"><a xlink:href="group__BP.html#ga608cf93d9bef165bc7e5690ac3b46a03" target="_top" xlink:title=" ">
<polygon fill="none" stroke="black" points="90,-0.5 90,-25.5 306,-25.5 306,-0.5 90,-0.5"/>
<text text-anchor="middle" x="198" y="-9.5" font-family="Helvetica,sans-Serif" font-size="15.00">behavioral_patterns_demo</text>
</a>
</g>
</g>
<!-- Node2&#45;&gt;Node3 -->
<g id="edge2" class="edge">
<title>Node2&#45;&gt;Node3</title>
<path fill="none" stroke="midnightblue" d="M331.71,-13C323.46,-13 314.87,-13 306.19,-13"/>
<polygon fill="midnightblue" stroke="midnightblue" points="331.94,-16.5 341.94,-13 331.94,-9.5 331.94,-16.5"/>
</g>
<!-- Node4 -->
<g id="node4" class="node">
<title>Node4</title>
<g id="a_node4"><a xlink:href="group__DP.html#gae66f6b31b5ad750f1fe042a706a4e3d4" target="_top" xlink:title=" ">
<polygon fill="none" stroke="black" points="0,-0.5 0,-25.5 54,-25.5 54,-0.5 0,-0.5"/>
<text text-anchor="middle" x="27" y="-9.5" font-family="Helvetica,sans-Serif" font-size="15.00">main</text>
</a>
</g>
</g>
<!-- Node3&#45;&gt;Node4 -->
<g id="edge3" class="edge">
<title>Node3&#45;&gt;Node4</title>
<path fill="none" stroke="midnightblue" d="M79.92,-13C70.47,-13 61.67,-13 54.09,-13"/>
<polygon fill="midnightblue" stroke="midnightblue" points="79.97,-16.5 89.97,-13 79.97,-9.5 79.97,-16.5"/>
</g>
</g>
</svg>
