<?xml version="1.0" encoding="UTF-8" standalone="no"?>
<!DOCTYPE svg PUBLIC "-//W3C//DTD SVG 1.1//EN"
 "http://www.w3.org/Graphics/SVG/1.1/DTD/svg11.dtd">
<!-- Generated by graphviz version 2.43.0 (0)
 -->
<!-- Title: Design patterns skeleton examples Pages: 1 -->
<svg width="347pt" height="185pt"
 viewBox="0.00 0.00 347.00 185.00" xmlns="http://www.w3.org/2000/svg" xmlns:xlink="http://www.w3.org/1999/xlink">
<g id="graph0" class="graph" transform="scale(1 1) rotate(0) translate(4 181)">
<title>Design patterns skeleton examples</title>
<!-- Node5 -->
<g id="node1" class="node">
<title>Node5</title>
<g id="a_node1"><a xlink:href="$group__AP.html" xlink:title="Architectural patterns">
<text text-anchor="middle" x="296.5" y="-163.4" font-family="Helvetica,Arial,sans-serif" font-size="12.00">Architectural</text>
</a>
</g>
</g>
<!-- Node4 -->
<g id="node2" class="node">
<title>Node4</title>
<g id="a_node2"><a xlink:href="$group__BP.html" xlink:title="Behavioral patterns">
<text text-anchor="middle" x="296.5" y="-124.4" font-family="Helvetica,Arial,sans-serif" font-size="12.00">Behavioral</text>
</a>
</g>
</g>
<!-- Node6 -->
<g id="node3" class="node">
<title>Node6</title>
<g id="a_node3"><a xlink:href="$group__CC.html" xlink:title="Concurrency patterns">
<text text-anchor="middle" x="296.5" y="-85.4" font-family="Helvetica,Arial,sans-serif" font-size="12.00">Concurrency</text>
</a>
</g>
</g>
<!-- Node2 -->
<g id="node4" class="node">
<title>Node2</title>
<g id="a_node4"><a xlink:href="$group__CP.html" xlink:title="Creational patterns">
<text text-anchor="middle" x="296.5" y="-46.4" font-family="Helvetica,Arial,sans-serif" font-size="12.00">Creational</text>
</a>
</g>
</g>
<!-- Node1 -->
<g id="node5" class="node">
<title>Node1</title>
<g id="a_node5"><a xlink:title="Software design patterns">
<polygon fill="#bfbfbf" stroke="transparent" points="218,-99 0,-99 0,-78 218,-78 218,-99"/>
<text text-anchor="start" x="8" y="-86.4" font-family="Helvetica,Arial,sans-serif" font-weight="bold" font-size="12.00">Design patterns skeleton examples</text>
</a>
</g>
</g>
<!-- Node1&#45;&gt;Node5 -->
<g id="edge4" class="edge">
<title>Node1&#45;&gt;Node5</title>
<path fill="none" stroke="black" d="M139.74,-101C175.9,-116.21 236.3,-141.61 270.29,-155.9"/>
<polygon fill="black" stroke="black" points="135.02,-99.02 140.5,-98.88 137.32,-99.99 139.63,-100.96 139.63,-100.96 139.63,-100.96 137.32,-99.99 138.75,-103.03 135.02,-99.02 135.02,-99.02"/>
</g>
<!-- Node1&#45;&gt;Node4 -->
<g id="edge3" class="edge">
<title>Node1&#45;&gt;Node4</title>
<path fill="none" stroke="black" d="M165.41,-100.15C195.83,-106.54 232.68,-114.29 259.38,-119.91"/>
<polygon fill="black" stroke="black" points="160.2,-99.05 165.55,-97.88 162.65,-99.57 165.09,-100.08 165.09,-100.08 165.09,-100.08 162.65,-99.57 164.63,-102.28 160.2,-99.05 160.2,-99.05"/>
</g>
<!-- Node1&#45;&gt;Node6 -->
<g id="edge5" class="edge">
<title>Node1&#45;&gt;Node6</title>
<path fill="none" stroke="black" d="M223.45,-88.5C234.13,-88.5 244.43,-88.5 253.73,-88.5"/>
<polygon fill="black" stroke="black" points="218.17,-88.5 223.17,-86.25 220.67,-88.5 223.17,-88.5 223.17,-88.5 223.17,-88.5 220.67,-88.5 223.17,-90.75 218.17,-88.5 218.17,-88.5"/>
</g>
<!-- Node1&#45;&gt;Node2 -->
<g id="edge1" class="edge">
<title>Node1&#45;&gt;Node2</title>
<path fill="none" stroke="black" d="M165.46,-76.84C196.2,-70.38 233.49,-62.54 260.25,-56.91"/>
<polygon fill="black" stroke="black" points="160.2,-77.95 164.63,-74.72 162.65,-77.43 165.09,-76.92 165.09,-76.92 165.09,-76.92 162.65,-77.43 165.55,-79.12 160.2,-77.95 160.2,-77.95"/>
</g>
<!-- Node3 -->
<g id="node6" class="node">
<title>Node3</title>
<g id="a_node6"><a xlink:href="$group__SP.html" xlink:title="Structural patterns">
<text text-anchor="middle" x="296.5" y="-7.4" font-family="Helvetica,Arial,sans-serif" font-size="12.00">Structural</text>
</a>
</g>
</g>
<!-- Node1&#45;&gt;Node3 -->
<g id="edge2" class="edge">
<title>Node1&#45;&gt;Node3</title>
<path fill="none" stroke="black" d="M139.74,-76C175.9,-60.79 236.3,-35.39 270.29,-21.1"/>
<polygon fill="black" stroke="black" points="135.02,-77.98 138.75,-73.97 137.32,-77.01 139.63,-76.04 139.63,-76.04 139.63,-76.04 137.32,-77.01 140.5,-78.12 135.02,-77.98 135.02,-77.98"/>
</g>
</g>
</svg>
