<?xml version="1.0" encoding="UTF-8" standalone="no"?>
<!DOCTYPE svg PUBLIC "-//W3C//DTD SVG 1.1//EN"
 "http://www.w3.org/Graphics/SVG/1.1/DTD/svg11.dtd">
<!-- Generated by graphviz version 2.43.0 (0)
 -->
<!-- Title: condition_variable_11 Pages: 1 -->
<svg width="343pt" height="29pt"
 viewBox="0.00 0.00 343.00 29.00" xmlns="http://www.w3.org/2000/svg" xmlns:xlink="http://www.w3.org/1999/xlink">
<g id="graph0" class="graph" transform="scale(1 1) rotate(0) translate(4 25)">
<title>condition_variable_11</title>
<!-- Node1 -->
<g id="node1" class="node">
<title>Node1</title>
<g id="a_node1"><a xlink:title=" ">
<polygon fill="#bfbfbf" stroke="transparent" points="335,-21 192,-21 192,0 335,0 335,-21"/>
<text text-anchor="start" x="200" y="-8.4" font-family="Helvetica,Arial,sans-serif" font-weight="bold" font-size="12.00">condition_variable_11</text>
</a>
</g>
</g>
<!-- Node2 -->
<g id="node2" class="node">
<title>Node2</title>
<g id="a_node2"><a xlink:href="$group__threads11.html#ga6d132ee45948dcf65ae3ecd9177f6725" xlink:title=" ">
<text text-anchor="middle" x="117.5" y="-7.4" font-family="Helvetica,Arial,sans-serif" font-size="12.00">threads_11</text>
</a>
</g>
</g>
<!-- Node1&#45;&gt;Node2 -->
<g id="edge1" class="edge">
<title>Node1&#45;&gt;Node2</title>
<path fill="none" stroke="midnightblue" d="M186.61,-10.5C176.1,-10.5 165.71,-10.5 156.33,-10.5"/>
<polygon fill="midnightblue" stroke="midnightblue" points="191.77,-10.5 186.77,-12.75 189.27,-10.5 186.77,-10.5 186.77,-10.5 186.77,-10.5 189.27,-10.5 186.77,-8.25 191.77,-10.5 191.77,-10.5"/>
</g>
<!-- Node3 -->
<g id="node3" class="node">
<title>Node3</title>
<g id="a_node3"><a xlink:href="$group__CPP11.html#ga840291bc02cba5474a4cb46a9b9566fe" xlink:title=" ">
<text text-anchor="middle" x="21.5" y="-7.4" font-family="Helvetica,Arial,sans-serif" font-size="12.00">main</text>
</a>
</g>
</g>
<!-- Node2&#45;&gt;Node3 -->
<g id="edge2" class="edge">
<title>Node2&#45;&gt;Node3</title>
<path fill="none" stroke="midnightblue" d="M73.64,-10.5C63.04,-10.5 52.16,-10.5 43.17,-10.5"/>
<polygon fill="midnightblue" stroke="midnightblue" points="78.81,-10.5 73.81,-12.75 76.31,-10.5 73.81,-10.5 73.81,-10.5 73.81,-10.5 76.31,-10.5 73.81,-8.25 78.81,-10.5 78.81,-10.5"/>
</g>
</g>
</svg>
