<?xml version="1.0" encoding="UTF-8" standalone="no"?>
<!DOCTYPE svg PUBLIC "-//W3C//DTD SVG 1.1//EN"
 "http://www.w3.org/Graphics/SVG/1.1/DTD/svg11.dtd">
<!-- Generated by graphviz version 2.43.0 (0)
 -->
<!-- Title: Language Pages: 1 -->
<svg width="431pt" height="146pt"
 viewBox="0.00 0.00 431.00 146.00" xmlns="http://www.w3.org/2000/svg" xmlns:xlink="http://www.w3.org/1999/xlink">
<g id="graph0" class="graph" transform="scale(1 1) rotate(0) translate(4 142)">
<title>Language</title>
<!-- Node2 -->
<g id="node1" class="node">
<title>Node2</title>
<g id="a_node1"><a xlink:href="$group__CPP17.html" xlink:title=" ">
<text text-anchor="middle" x="53.5" y="-65.4" font-family="Helvetica,Arial,sans-serif" font-size="12.00">C++17 examples</text>
</a>
</g>
</g>
<!-- Node1 -->
<g id="node4" class="node">
<title>Node1</title>
<g id="a_node4"><a xlink:title="language">
<polygon fill="#bfbfbf" stroke="transparent" points="217,-79 143,-79 143,-58 217,-58 217,-79"/>
<text text-anchor="start" x="151" y="-66.4" font-family="Helvetica,Arial,sans-serif" font-weight="bold" font-size="12.00">Language</text>
</a>
</g>
</g>
<!-- Node2&#45;&gt;Node1 -->
<g id="edge1" class="edge">
<title>Node2&#45;&gt;Node1</title>
<path fill="none" stroke="black" d="M112.36,-68.5C122.69,-68.5 133.19,-68.5 142.7,-68.5"/>
<polygon fill="black" stroke="black" points="107.3,-68.5 112.3,-66.25 109.8,-68.5 112.3,-68.5 112.3,-68.5 112.3,-68.5 109.8,-68.5 112.3,-70.75 107.3,-68.5 107.3,-68.5"/>
</g>
<!-- Node6 -->
<g id="node2" class="node">
<title>Node6</title>
<g id="a_node2"><a xlink:href="$group__attr.html" xlink:title="fallthrough, nodiscard, maybe_unused">
<text text-anchor="middle" x="338" y="-124.4" font-family="Helvetica,Arial,sans-serif" font-size="12.00">New attributes</text>
</a>
</g>
</g>
<!-- Node3 -->
<g id="node3" class="node">
<title>Node3</title>
<g id="a_node3"><a xlink:href="$group__folding.html" xlink:title="fold">
<text text-anchor="middle" x="338" y="-85.4" font-family="Helvetica,Arial,sans-serif" font-size="12.00">Folding</text>
</a>
</g>
</g>
<!-- Node1&#45;&gt;Node6 -->
<g id="edge5" class="edge">
<title>Node1&#45;&gt;Node6</title>
<path fill="none" stroke="black" d="M201.48,-81.95C215.49,-90.62 234.76,-101.53 253,-108.5 265.01,-113.09 278.43,-116.74 290.96,-119.56"/>
<polygon fill="black" stroke="black" points="196.94,-79.1 202.37,-79.85 199.06,-80.43 201.18,-81.76 201.18,-81.76 201.18,-81.76 199.06,-80.43 199.98,-83.66 196.94,-79.1 196.94,-79.1"/>
</g>
<!-- Node1&#45;&gt;Node3 -->
<g id="edge2" class="edge">
<title>Node1&#45;&gt;Node3</title>
<path fill="none" stroke="black" d="M222.25,-73.79C249.93,-77.34 285.61,-81.91 309.78,-85.01"/>
<polygon fill="black" stroke="black" points="217.18,-73.14 222.43,-71.54 219.66,-73.46 222.14,-73.77 222.14,-73.77 222.14,-73.77 219.66,-73.46 221.85,-76.01 217.18,-73.14 217.18,-73.14"/>
</g>
<!-- Node4 -->
<g id="node5" class="node">
<title>Node4</title>
<g id="a_node5"><a xlink:href="$group__nn.html" xlink:title="namespace">
<text text-anchor="middle" x="338" y="-46.4" font-family="Helvetica,Arial,sans-serif" font-size="12.00">Qualified nested namespace</text>
</a>
</g>
</g>
<!-- Node1&#45;&gt;Node4 -->
<g id="edge3" class="edge">
<title>Node1&#45;&gt;Node4</title>
<path fill="none" stroke="black" d="M222.35,-63.46C231.84,-62.31 242.26,-61.04 252.84,-59.75"/>
<polygon fill="black" stroke="black" points="217.18,-64.09 221.87,-61.26 219.66,-63.79 222.14,-63.49 222.14,-63.49 222.14,-63.49 219.66,-63.79 222.42,-65.72 217.18,-64.09 217.18,-64.09"/>
</g>
<!-- Node5 -->
<g id="node6" class="node">
<title>Node5</title>
<g id="a_node6"><a xlink:href="$group__sb.html" xlink:title=" ">
<text text-anchor="middle" x="338" y="-7.4" font-family="Helvetica,Arial,sans-serif" font-size="12.00">Structured bindings</text>
</a>
</g>
</g>
<!-- Node1&#45;&gt;Node5 -->
<g id="edge4" class="edge">
<title>Node1&#45;&gt;Node5</title>
<path fill="none" stroke="black" d="M202.72,-55.19C216.67,-47.11 235.41,-37.12 253,-30.5 262.68,-26.86 273.25,-23.73 283.52,-21.1"/>
<polygon fill="black" stroke="black" points="198.18,-57.85 201.35,-53.38 200.33,-56.58 202.49,-55.32 202.49,-55.32 202.49,-55.32 200.33,-56.58 203.63,-57.26 198.18,-57.85 198.18,-57.85"/>
</g>
</g>
</svg>
