<?xml version="1.0" encoding="UTF-8" standalone="no"?>
<!DOCTYPE svg PUBLIC "-//W3C//DTD SVG 1.1//EN"
 "http://www.w3.org/Graphics/SVG/1.1/DTD/svg11.dtd">
<!-- Generated by graphviz version 2.43.0 (0)
 -->
<!-- Title: architectural_patterns_demo Pages: 1 -->
<svg width="780pt" height="144pt"
 viewBox="0.00 0.00 780.00 144.00" xmlns="http://www.w3.org/2000/svg" xmlns:xlink="http://www.w3.org/1999/xlink">
<g id="graph0" class="graph" transform="scale(1 1) rotate(0) translate(4 140)">
<title>architectural_patterns_demo</title>
<!-- Node1 -->
<g id="node1" class="node">
<title>Node1</title>
<g id="a_node1"><a xlink:title=" ">
<text text-anchor="start" x="8" y="-61.9" font-family="UbuntuXX" font-weight="bold" font-size="12.00">architectural_patterns_demo</text>
</a>
</g>
</g>
<!-- Node2 -->
<g id="node2" class="node">
<title>Node2</title>
<g id="a_node2"><a xlink:href="structController.html#af9531d07a0bf9d651c6830e88b64f0ff" target="_top" xlink:title=" ">
<text text-anchor="middle" x="329.5" y="-106.9" font-family="UbuntuXX" font-size="12.00">Controller::command</text>
</a>
</g>
</g>
<!-- Node1&#45;&gt;Node2 -->
<g id="edge1" class="edge">
<title>Node1&#45;&gt;Node2</title>
<path fill="none" stroke="midnightblue" d="M193.6,-82.05C213.03,-86.07 233.49,-90.31 252.44,-94.24"/>
<polygon fill="midnightblue" stroke="midnightblue" points="257.74,-95.34 252.38,-96.53 255.29,-94.83 252.84,-94.32 252.84,-94.32 252.84,-94.32 255.29,-94.83 253.3,-92.12 257.74,-95.34 257.74,-95.34"/>
</g>
<!-- Node5 -->
<g id="node5" class="node">
<title>Node5</title>
<g id="a_node5"><a xlink:href="structSubject.html#a156c54b0ef570d0439f2347643192dc3" target="_top" xlink:title=" ">
<text text-anchor="middle" x="688.5" y="-60.9" font-family="UbuntuXX" font-size="12.00">Subject::notify_observers</text>
</a>
</g>
</g>
<!-- Node1&#45;&gt;Node5 -->
<g id="edge5" class="edge">
<title>Node1&#45;&gt;Node5</title>
<path fill="none" stroke="midnightblue" d="M211.04,-64C322.05,-64 495.54,-64 599.71,-64"/>
<polygon fill="midnightblue" stroke="midnightblue" points="604.92,-64 599.92,-66.25 602.42,-64 599.92,-64 599.92,-64 599.92,-64 602.42,-64 599.92,-61.75 604.92,-64 604.92,-64"/>
</g>
<!-- Node6 -->
<g id="node6" class="node">
<title>Node6</title>
<g id="a_node6"><a xlink:href="structModel.html#a60ccf0ab3d641769ce8663a5c6f811b7" target="_top" xlink:title=" ">
<text text-anchor="middle" x="329.5" y="-14.9" font-family="UbuntuXX" font-size="12.00">Model::register_observer</text>
</a>
</g>
</g>
<!-- Node1&#45;&gt;Node6 -->
<g id="edge6" class="edge">
<title>Node1&#45;&gt;Node6</title>
<path fill="none" stroke="midnightblue" d="M193.6,-45.95C209.32,-42.7 225.71,-39.3 241.42,-36.04"/>
<polygon fill="midnightblue" stroke="midnightblue" points="246.72,-34.94 242.28,-38.16 244.27,-35.45 241.83,-35.96 241.83,-35.96 241.83,-35.96 244.27,-35.45 241.37,-33.76 246.72,-34.94 246.72,-34.94"/>
</g>
<!-- Node3 -->
<g id="node3" class="node">
<title>Node3</title>
<g id="a_node3"><a xlink:href="structModel.html#a9000558a25601a58c19f903bfb660e64" target="_top" xlink:title=" ">
<text text-anchor="middle" x="508.5" y="-106.9" font-family="UbuntuXX" font-size="12.00">Model::command</text>
</a>
</g>
</g>
<!-- Node2&#45;&gt;Node3 -->
<g id="edge2" class="edge">
<title>Node2&#45;&gt;Node3</title>
<path fill="none" stroke="midnightblue" d="M401.22,-110C414.9,-110 429.18,-110 442.67,-110"/>
<polygon fill="midnightblue" stroke="midnightblue" points="447.99,-110 442.99,-112.25 445.49,-110 442.99,-110 442.99,-110 442.99,-110 445.49,-110 442.99,-107.75 447.99,-110 447.99,-110"/>
</g>
<!-- Node4 -->
<g id="node4" class="node">
<title>Node4</title>
<g id="a_node4"><a xlink:href="structCommand.html#acbc1a7f30a3962728ce2e167a032ac87" target="_top" xlink:title=" ">
<text text-anchor="middle" x="688.5" y="-114.9" font-family="UbuntuXX" font-size="12.00">Command::execute</text>
</a>
</g>
</g>
<!-- Node3&#45;&gt;Node4 -->
<g id="edge3" class="edge">
<title>Node3&#45;&gt;Node4</title>
<path fill="none" stroke="midnightblue" d="M569.27,-112.69C584.33,-113.36 600.65,-114.1 616.22,-114.8"/>
<polygon fill="midnightblue" stroke="midnightblue" points="621.46,-115.03 616.37,-117.06 618.96,-114.92 616.47,-114.81 616.47,-114.81 616.47,-114.81 618.96,-114.92 616.57,-112.56 621.46,-115.03 621.46,-115.03"/>
</g>
<!-- Node3&#45;&gt;Node5 -->
<g id="edge4" class="edge">
<title>Node3&#45;&gt;Node5</title>
<path fill="none" stroke="midnightblue" d="M569.27,-94.55C583.24,-90.94 598.3,-87.05 612.83,-83.3"/>
<polygon fill="midnightblue" stroke="midnightblue" points="617.73,-82.03 613.46,-85.46 615.31,-82.65 612.89,-83.28 612.89,-83.28 612.89,-83.28 615.31,-82.65 612.33,-81.1 617.73,-82.03 617.73,-82.03"/>
</g>
</g>
</svg>
