<?xml version="1.0" encoding="UTF-8" standalone="no"?>
<!DOCTYPE svg PUBLIC "-//W3C//DTD SVG 1.1//EN"
 "http://www.w3.org/Graphics/SVG/1.1/DTD/svg11.dtd">
<!-- Generated by graphviz version 2.43.0 (0)
 -->
<!-- Title: sss Pages: 1 -->
<svg width="316pt" height="29pt"
 viewBox="0.00 0.00 316.00 29.00" xmlns="http://www.w3.org/2000/svg" xmlns:xlink="http://www.w3.org/1999/xlink">
<g id="graph0" class="graph" transform="scale(1 1) rotate(0) translate(4 25)">
<title>sss</title>
<!-- Node1 -->
<g id="node1" class="node">
<title>Node1</title>
<g id="a_node1"><a xlink:title=" ">
<polygon fill="#bfbfbf" stroke="transparent" points="308,-21 271,-21 271,0 308,0 308,-21"/>
<text text-anchor="start" x="279" y="-8.4" font-family="Helvetica,Arial,sans-serif" font-weight="bold" font-size="12.00">sss</text>
</a>
</g>
</g>
<!-- Node2 -->
<g id="node2" class="node">
<title>Node2</title>
<g id="a_node2"><a xlink:href="$group__CP.html#ga50a82bd9d08b9a3b31267eefdf4ebaed" xlink:title=" ">
<text text-anchor="middle" x="157" y="-7.4" font-family="Helvetica,Arial,sans-serif" font-size="12.00">creational_patterns_demo</text>
</a>
</g>
</g>
<!-- Node1&#45;&gt;Node2 -->
<g id="edge1" class="edge">
<title>Node1&#45;&gt;Node2</title>
<path fill="none" stroke="midnightblue" d="M265.65,-10.5C256.83,-10.5 246.18,-10.5 235.06,-10.5"/>
<polygon fill="midnightblue" stroke="midnightblue" points="270.9,-10.5 265.9,-12.75 268.4,-10.5 265.9,-10.5 265.9,-10.5 265.9,-10.5 268.4,-10.5 265.9,-8.25 270.9,-10.5 270.9,-10.5"/>
</g>
<!-- Node3 -->
<g id="node3" class="node">
<title>Node3</title>
<g id="a_node3"><a xlink:href="$group__DP.html#gae66f6b31b5ad750f1fe042a706a4e3d4" xlink:title=" ">
<text text-anchor="middle" x="21.5" y="-7.4" font-family="Helvetica,Arial,sans-serif" font-size="12.00">main</text>
</a>
</g>
</g>
<!-- Node2&#45;&gt;Node3 -->
<g id="edge2" class="edge">
<title>Node2&#45;&gt;Node3</title>
<path fill="none" stroke="midnightblue" d="M73.53,-10.5C62.29,-10.5 51.68,-10.5 43.07,-10.5"/>
<polygon fill="midnightblue" stroke="midnightblue" points="78.73,-10.5 73.73,-12.75 76.23,-10.5 73.73,-10.5 73.73,-10.5 73.73,-10.5 76.23,-10.5 73.73,-8.25 78.73,-10.5 78.73,-10.5"/>
</g>
</g>
</svg>
