<?xml version="1.0" encoding="UTF-8" standalone="no"?>
<!DOCTYPE svg PUBLIC "-//W3C//DTD SVG 1.1//EN"
 "http://www.w3.org/Graphics/SVG/1.1/DTD/svg11.dtd">
<!-- Generated by graphviz version 2.43.0 (0)
 -->
<!-- Title: structural_patterns_demo Pages: 1 -->
<svg width="563pt" height="244pt"
 viewBox="0.00 0.00 563.00 244.00" xmlns="http://www.w3.org/2000/svg" xmlns:xlink="http://www.w3.org/1999/xlink">
<g id="graph0" class="graph" transform="scale(1 1) rotate(0) translate(4 240)">
<title>structural_patterns_demo</title>
<!-- Node1 -->
<g id="node1" class="node">
<title>Node1</title>
<g id="a_node1"><a xlink:title=" ">
<text text-anchor="start" x="8" y="-115.9" font-family="UbuntuXX" font-weight="bold" font-size="12.00">structural_patterns_demo</text>
</a>
</g>
</g>
<!-- Node2 -->
<g id="node2" class="node">
<title>Node2</title>
<g id="a_node2"><a xlink:href="structBridge.html#a68cba3a3e983eaf7521a6cea23ef1b7c" target="_top" xlink:title=" ">
<text text-anchor="middle" x="294" y="-214.9" font-family="UbuntuXX" font-size="12.00">Bridge::method</text>
</a>
</g>
</g>
<!-- Node1&#45;&gt;Node2 -->
<g id="edge1" class="edge">
<title>Node1&#45;&gt;Node2</title>
<path fill="none" stroke="midnightblue" d="M126.27,-136.02C152.37,-151.49 191.57,-173.92 227,-191 231.87,-193.35 236.99,-195.68 242.15,-197.93"/>
<polygon fill="midnightblue" stroke="midnightblue" points="246.88,-199.97 241.4,-200.06 244.59,-198.98 242.29,-197.99 242.29,-197.99 242.29,-197.99 244.59,-198.98 243.18,-195.93 246.88,-199.97 246.88,-199.97"/>
</g>
<!-- Node4 -->
<g id="node4" class="node">
<title>Node4</title>
<g id="a_node4"><a xlink:href="structProxy.html#a1c58aa9104f2537aae0f75b59130ce32" target="_top" xlink:title=" ">
<text text-anchor="middle" x="294" y="-160.9" font-family="UbuntuXX" font-size="12.00">Proxy::method</text>
</a>
</g>
</g>
<!-- Node1&#45;&gt;Node4 -->
<g id="edge3" class="edge">
<title>Node1&#45;&gt;Node4</title>
<path fill="none" stroke="midnightblue" d="M173.6,-136.05C195.21,-141.11 218.25,-146.5 238.27,-151.19"/>
<polygon fill="midnightblue" stroke="midnightblue" points="243.29,-152.36 237.91,-153.41 240.86,-151.79 238.42,-151.22 238.42,-151.22 238.42,-151.22 240.86,-151.79 238.93,-149.03 243.29,-152.36 243.29,-152.36"/>
</g>
<!-- Node5 -->
<g id="node5" class="node">
<title>Node5</title>
<g id="a_node5"><a xlink:href="structInterface.html#a73306300ba88073a31d86d9e282ff5ca" target="_top" xlink:title=" ">
<text text-anchor="middle" x="476" y="-114.9" font-family="UbuntuXX" font-size="12.00">Interface::method</text>
</a>
</g>
</g>
<!-- Node1&#45;&gt;Node5 -->
<g id="edge8" class="edge">
<title>Node1&#45;&gt;Node5</title>
<path fill="none" stroke="midnightblue" d="M191.04,-118C258.65,-118 348.01,-118 408.28,-118"/>
<polygon fill="midnightblue" stroke="midnightblue" points="413.29,-118 408.29,-120.25 410.79,-118 408.29,-118 408.29,-118 408.29,-118 410.79,-118 408.29,-115.75 413.29,-118 413.29,-118"/>
</g>
<!-- Node6 -->
<g id="node6" class="node">
<title>Node6</title>
<g id="a_node6"><a xlink:href="structDecorator.html#a49123c88d6088bbd5573b98bccd1d8bf" target="_top" xlink:title=" ">
<text text-anchor="middle" x="294" y="-68.9" font-family="UbuntuXX" font-size="12.00">Decorator::method</text>
</a>
</g>
</g>
<!-- Node1&#45;&gt;Node6 -->
<g id="edge5" class="edge">
<title>Node1&#45;&gt;Node6</title>
<path fill="none" stroke="midnightblue" d="M173.6,-99.95C189.97,-96.12 207.16,-92.09 223.24,-88.33"/>
<polygon fill="midnightblue" stroke="midnightblue" points="228.19,-87.17 223.84,-90.5 225.76,-87.74 223.32,-88.31 223.32,-88.31 223.32,-88.31 225.76,-87.74 222.81,-86.12 228.19,-87.17 228.19,-87.17"/>
</g>
<!-- Node7 -->
<g id="node7" class="node">
<title>Node7</title>
<g id="a_node7"><a xlink:href="structComposite.html#a1e6b4ba6c91969af14f358234b17faf7" target="_top" xlink:title=" ">
<text text-anchor="middle" x="294" y="-14.9" font-family="UbuntuXX" font-size="12.00">Composite::method</text>
</a>
</g>
</g>
<!-- Node1&#45;&gt;Node7 -->
<g id="edge7" class="edge">
<title>Node1&#45;&gt;Node7</title>
<path fill="none" stroke="midnightblue" d="M126.27,-99.98C152.37,-84.51 191.57,-62.08 227,-45 231.87,-42.65 236.99,-40.32 242.15,-38.07"/>
<polygon fill="midnightblue" stroke="midnightblue" points="246.88,-36.03 243.18,-40.07 244.59,-37.02 242.29,-38.01 242.29,-38.01 242.29,-38.01 244.59,-37.02 241.4,-35.94 246.88,-36.03 246.88,-36.03"/>
</g>
<!-- Node3 -->
<g id="node3" class="node">
<title>Node3</title>
<g id="a_node3"><a xlink:href="structStandalone.html#ab576b209f7db533a9d9a5ada760f6db5" target="_top" xlink:title=" ">
<text text-anchor="start" x="405" y="-221.4" font-family="UbuntuXX" font-size="12.00">Standalone::standalone</text>
<text text-anchor="middle" x="476" y="-208.4" font-family="UbuntuXX" font-size="12.00">_method</text>
</a>
</g>
</g>
<!-- Node2&#45;&gt;Node3 -->
<g id="edge2" class="edge">
<title>Node2&#45;&gt;Node3</title>
<path fill="none" stroke="midnightblue" d="M349.01,-218C362.38,-218 377.02,-218 391.44,-218"/>
<polygon fill="midnightblue" stroke="midnightblue" points="396.74,-218 391.74,-220.25 394.24,-218 391.74,-218 391.74,-218 391.74,-218 394.24,-218 391.74,-215.75 396.74,-218 396.74,-218"/>
</g>
<!-- Node4&#45;&gt;Node5 -->
<g id="edge4" class="edge">
<title>Node4&#45;&gt;Node5</title>
<path fill="none" stroke="midnightblue" d="M344.66,-151.31C364.32,-146.29 387.2,-140.44 408.27,-135.05"/>
<polygon fill="midnightblue" stroke="midnightblue" points="413.29,-133.77 409.01,-137.19 410.87,-134.39 408.45,-135.01 408.45,-135.01 408.45,-135.01 410.87,-134.39 407.89,-132.83 413.29,-133.77 413.29,-133.77"/>
</g>
<!-- Node6&#45;&gt;Node5 -->
<g id="edge6" class="edge">
<title>Node6&#45;&gt;Node5</title>
<path fill="none" stroke="midnightblue" d="M359.73,-88.54C375.53,-92.58 392.46,-96.91 408.35,-100.97"/>
<polygon fill="midnightblue" stroke="midnightblue" points="413.25,-102.22 407.85,-103.16 410.83,-101.6 408.41,-100.98 408.41,-100.98 408.41,-100.98 410.83,-101.6 408.96,-98.8 413.25,-102.22 413.25,-102.22"/>
</g>
</g>
</svg>
