<?xml version="1.0" encoding="UTF-8" standalone="no"?>
<!DOCTYPE svg PUBLIC "-//W3C//DTD SVG 1.1//EN"
 "http://www.w3.org/Graphics/SVG/1.1/DTD/svg11.dtd">
<!-- Generated by graphviz version 2.43.0 (0)
 -->
<!-- Title: deduction_guide1_vector Pages: 1 -->
<svg width="418pt" height="29pt"
 viewBox="0.00 0.00 418.00 29.00" xmlns="http://www.w3.org/2000/svg" xmlns:xlink="http://www.w3.org/1999/xlink">
<g id="graph0" class="graph" transform="scale(1 1) rotate(0) translate(4 25)">
<title>deduction_guide1_vector</title>
<!-- Node1 -->
<g id="node1" class="node">
<title>Node1</title>
<g id="a_node1"><a xlink:title="deduced vector&lt;int&gt;">
<polygon fill="#bfbfbf" stroke="transparent" points="410,-21 247,-21 247,0 410,0 410,-21"/>
<text text-anchor="start" x="255" y="-8.4" font-family="Helvetica,Arial,sans-serif" font-weight="bold" font-size="12.00">deduction_guide1_vector</text>
</a>
</g>
</g>
<!-- Node2 -->
<g id="node2" class="node">
<title>Node2</title>
<g id="a_node2"><a xlink:href="$group__templ17.html#gaecacde754dfb67194507339730e3f4cf" xlink:title=" ">
<text text-anchor="middle" x="145" y="-7.4" font-family="Helvetica,Arial,sans-serif" font-size="12.00">deduction_guides_17</text>
</a>
</g>
</g>
<!-- Node1&#45;&gt;Node2 -->
<g id="edge1" class="edge">
<title>Node1&#45;&gt;Node2</title>
<path fill="none" stroke="midnightblue" d="M241.79,-10.5C231.5,-10.5 221.11,-10.5 211.18,-10.5"/>
<polygon fill="midnightblue" stroke="midnightblue" points="246.83,-10.5 241.83,-12.75 244.33,-10.5 241.83,-10.5 241.83,-10.5 241.83,-10.5 244.33,-10.5 241.83,-8.25 246.83,-10.5 246.83,-10.5"/>
</g>
<!-- Node3 -->
<g id="node3" class="node">
<title>Node3</title>
<g id="a_node3"><a xlink:href="$group__CPP17.html#gae66f6b31b5ad750f1fe042a706a4e3d4" xlink:title=" ">
<text text-anchor="middle" x="21.5" y="-7.4" font-family="Helvetica,Arial,sans-serif" font-size="12.00">main</text>
</a>
</g>
</g>
<!-- Node2&#45;&gt;Node3 -->
<g id="edge2" class="edge">
<title>Node2&#45;&gt;Node3</title>
<path fill="none" stroke="midnightblue" d="M73.83,-10.5C62.67,-10.5 51.95,-10.5 43.22,-10.5"/>
<polygon fill="midnightblue" stroke="midnightblue" points="78.98,-10.5 73.98,-12.75 76.48,-10.5 73.98,-10.5 73.98,-10.5 73.98,-10.5 76.48,-10.5 73.98,-8.25 78.98,-10.5 78.98,-10.5"/>
</g>
</g>
</svg>
