<?xml version="1.0" encoding="UTF-8" standalone="no"?>
<!DOCTYPE svg PUBLIC "-//W3C//DTD SVG 1.1//EN"
 "http://www.w3.org/Graphics/SVG/1.1/DTD/svg11.dtd">
<!-- Generated by graphviz version 2.43.0 (0)
 -->
<!-- Title: main Pages: 1 -->
<svg width="230pt" height="368pt"
 viewBox="0.00 0.00 230.00 368.00" xmlns="http://www.w3.org/2000/svg" xmlns:xlink="http://www.w3.org/1999/xlink">
<g id="graph0" class="graph" transform="scale(1 1) rotate(0) translate(4 364)">
<title>main</title>
<!-- Node1 -->
<g id="node1" class="node">
<title>Node1</title>
<g id="a_node1"><a xlink:title=" ">
<text text-anchor="start" x="13" y="-177.9" font-family="Helvetica,Arial,sans-serif" font-weight="bold" font-size="12.00">main</text>
</a>
</g>
</g>
<!-- Node2 -->
<g id="node2" class="node">
<title>Node2</title>
<g id="a_node2"><a xlink:href="group__cor20.html#gad60476e89c26d10aeb283520ea014983" target="_top" xlink:title=" ">
<text text-anchor="middle" x="156" y="-338.9" font-family="Helvetica,Arial,sans-serif" font-size="12.00">coroutine_demo</text>
</a>
</g>
</g>
<!-- Node1&#45;&gt;Node2 -->
<g id="edge1" class="edge">
<title>Node1&#45;&gt;Node2</title>
<path fill="none" stroke="midnightblue" d="M31.85,-198.21C38.75,-226.73 55.83,-282.07 90,-315 93.04,-317.93 96.43,-320.55 100.04,-322.91"/>
<polygon fill="midnightblue" stroke="midnightblue" points="104.36,-325.55 98.92,-324.86 102.23,-324.25 100.1,-322.94 100.1,-322.94 100.1,-322.94 102.23,-324.25 101.27,-321.02 104.36,-325.55 104.36,-325.55"/>
</g>
<!-- Node3 -->
<g id="node3" class="node">
<title>Node3</title>
<g id="a_node3"><a xlink:href="group__lang20.html#ga695ca6ed5b3485fb505fa16fff84b4e8" target="_top" xlink:title=" ">
<text text-anchor="middle" x="156" y="-284.9" font-family="Helvetica,Arial,sans-serif" font-size="12.00">dynamic_memory_20</text>
</a>
</g>
</g>
<!-- Node1&#45;&gt;Node3 -->
<g id="edge2" class="edge">
<title>Node1&#45;&gt;Node3</title>
<path fill="none" stroke="midnightblue" d="M37.94,-198C48.7,-216.06 67.4,-243.62 90,-261 92.93,-263.25 96.08,-265.35 99.34,-267.3"/>
<polygon fill="midnightblue" stroke="midnightblue" points="103.87,-269.86 98.41,-269.36 101.69,-268.63 99.52,-267.4 99.52,-267.4 99.52,-267.4 101.69,-268.63 100.63,-265.44 103.87,-269.86 103.87,-269.86"/>
</g>
<!-- Node4 -->
<g id="node4" class="node">
<title>Node4</title>
<g id="a_node4"><a xlink:href="group__other20.html#ga0292ff079c75c49f84bd66e57904c781" target="_top" xlink:title=" ">
<text text-anchor="middle" x="156" y="-230.9" font-family="Helvetica,Arial,sans-serif" font-size="12.00">functional_20</text>
</a>
</g>
</g>
<!-- Node1&#45;&gt;Node4 -->
<g id="edge3" class="edge">
<title>Node1&#45;&gt;Node4</title>
<path fill="none" stroke="midnightblue" d="M54.2,-191.53C65.24,-196.35 78.22,-201.99 90,-207 95.36,-209.28 100.97,-211.65 106.57,-213.99"/>
<polygon fill="midnightblue" stroke="midnightblue" points="111.25,-215.95 105.77,-216.09 108.95,-214.98 106.64,-214.02 106.64,-214.02 106.64,-214.02 108.95,-214.98 107.51,-211.94 111.25,-215.95 111.25,-215.95"/>
</g>
<!-- Node5 -->
<g id="node5" class="node">
<title>Node5</title>
<g id="a_node5"><a xlink:href="group__lang20.html#gab08e7db2d73fbef046650e7b719c99bd" target="_top" xlink:title=" ">
<text text-anchor="middle" x="156" y="-176.9" font-family="Helvetica,Arial,sans-serif" font-size="12.00">init_20</text>
</a>
</g>
</g>
<!-- Node1&#45;&gt;Node5 -->
<g id="edge4" class="edge">
<title>Node1&#45;&gt;Node5</title>
<path fill="none" stroke="midnightblue" d="M54.01,-180C74.16,-180 102.17,-180 123.58,-180"/>
<polygon fill="midnightblue" stroke="midnightblue" points="128.59,-180 123.59,-182.25 126.09,-180 123.59,-180 123.59,-180 123.59,-180 126.09,-180 123.59,-177.75 128.59,-180 128.59,-180"/>
</g>
<!-- Node6 -->
<g id="node6" class="node">
<title>Node6</title>
<g id="a_node6"><a xlink:href="namespacelambda.html#a2cde9dac3329de71cbb605b62602b904" target="_top" xlink:title=" ">
<text text-anchor="middle" x="156" y="-122.9" font-family="Helvetica,Arial,sans-serif" font-size="12.00">lambda::lambda_20</text>
</a>
</g>
</g>
<!-- Node1&#45;&gt;Node6 -->
<g id="edge5" class="edge">
<title>Node1&#45;&gt;Node6</title>
<path fill="none" stroke="midnightblue" d="M54.2,-168.47C65.24,-163.65 78.22,-158.01 90,-153 95.36,-150.72 100.97,-148.35 106.57,-146.01"/>
<polygon fill="midnightblue" stroke="midnightblue" points="111.25,-144.05 107.51,-148.06 108.95,-145.02 106.64,-145.98 106.64,-145.98 106.64,-145.98 108.95,-145.02 105.77,-143.91 111.25,-144.05 111.25,-144.05"/>
</g>
<!-- Node7 -->
<g id="node7" class="node">
<title>Node7</title>
<g id="a_node7"><a xlink:href="group__other20.html#ga057a37dd325b6e2202d191c7977a0930" target="_top" xlink:title="source_location">
<text text-anchor="middle" x="156" y="-68.9" font-family="Helvetica,Arial,sans-serif" font-size="12.00">location_20</text>
</a>
</g>
</g>
<!-- Node1&#45;&gt;Node7 -->
<g id="edge6" class="edge">
<title>Node1&#45;&gt;Node7</title>
<path fill="none" stroke="midnightblue" d="M37.94,-162C48.7,-143.94 67.4,-116.38 90,-99 96.5,-94 104.05,-89.77 111.66,-86.25"/>
<polygon fill="midnightblue" stroke="midnightblue" points="116.4,-84.14 112.75,-88.23 114.12,-85.16 111.83,-86.17 111.83,-86.17 111.83,-86.17 114.12,-85.16 110.92,-84.11 116.4,-84.14 116.4,-84.14"/>
</g>
<!-- Node8 -->
<g id="node8" class="node">
<title>Node8</title>
<g id="a_node8"><a xlink:href="group__lang20.html#ga02af8d2ec8c6e12b5295f96e2c747435" target="_top" xlink:title=" ">
<text text-anchor="middle" x="156" y="-14.9" font-family="Helvetica,Arial,sans-serif" font-size="12.00">types_20</text>
</a>
</g>
</g>
<!-- Node1&#45;&gt;Node8 -->
<g id="edge7" class="edge">
<title>Node1&#45;&gt;Node8</title>
<path fill="none" stroke="midnightblue" d="M31.85,-161.79C38.75,-133.27 55.83,-77.93 90,-45 97.79,-37.49 107.96,-31.95 117.94,-27.91"/>
<polygon fill="midnightblue" stroke="midnightblue" points="122.81,-26.05 118.95,-29.93 120.48,-26.94 118.14,-27.83 118.14,-27.83 118.14,-27.83 120.48,-26.94 117.34,-25.73 122.81,-26.05 122.81,-26.05"/>
</g>
</g>
</svg>
