<?xml version="1.0" encoding="UTF-8" standalone="no"?>
<!DOCTYPE svg PUBLIC "-//W3C//DTD SVG 1.1//EN"
 "http://www.w3.org/Graphics/SVG/1.1/DTD/svg11.dtd">
<!-- Generated by graphviz version 2.43.0 (0)
 -->
<!-- Title: main Pages: 1 -->
<svg width="852pt" height="862pt"
 viewBox="0.00 0.00 852.00 862.00" xmlns="http://www.w3.org/2000/svg" xmlns:xlink="http://www.w3.org/1999/xlink">
<g id="graph0" class="graph" transform="scale(1 1) rotate(0) translate(4 858)">
<title>main</title>
<!-- Node1 -->
<g id="node1" class="node">
<title>Node1</title>
<g id="a_node1"><a xlink:title=" ">
<polygon fill="#bfbfbf" stroke="transparent" points="44,-385 0,-385 0,-364 44,-364 44,-385"/>
<text text-anchor="start" x="8" y="-372.4" font-family="Helvetica,Arial,sans-serif" font-weight="bold" font-size="12.00">main</text>
</a>
</g>
</g>
<!-- Node2 -->
<g id="node2" class="node">
<title>Node2</title>
<g id="a_node2"><a xlink:href="$group__AP.html#gaa52033e9b5a5923880bf57a9afb7e751" xlink:title=" ">
<text text-anchor="middle" x="164.5" y="-781.4" font-family="Helvetica,Arial,sans-serif" font-size="12.00">architectural_patterns_demo</text>
</a>
</g>
</g>
<!-- Node1&#45;&gt;Node2 -->
<g id="edge1" class="edge">
<title>Node1&#45;&gt;Node2</title>
<path fill="none" stroke="midnightblue" d="M25.15,-385.16C31.74,-417.19 52.87,-515.17 80,-593.5 103.27,-660.69 140.01,-737.26 155.83,-769.23"/>
<polygon fill="midnightblue" stroke="midnightblue" points="158.19,-773.97 153.95,-770.49 157.08,-771.73 155.96,-769.49 155.96,-769.49 155.96,-769.49 157.08,-771.73 157.98,-768.49 158.19,-773.97 158.19,-773.97"/>
</g>
<!-- Node8 -->
<g id="node8" class="node">
<title>Node8</title>
<g id="a_node8"><a xlink:href="$group__BP.html#ga608cf93d9bef165bc7e5690ac3b46a03" xlink:title=" ">
<text text-anchor="middle" x="164.5" y="-570.4" font-family="Helvetica,Arial,sans-serif" font-size="12.00">behavioral_patterns_demo</text>
</a>
</g>
</g>
<!-- Node1&#45;&gt;Node8 -->
<g id="edge8" class="edge">
<title>Node1&#45;&gt;Node8</title>
<path fill="none" stroke="midnightblue" d="M30.55,-385.2C54,-418.4 125.56,-519.77 152.81,-558.36"/>
<polygon fill="midnightblue" stroke="midnightblue" points="155.91,-562.75 151.19,-559.96 154.47,-560.71 153.02,-558.66 153.02,-558.66 153.02,-558.66 154.47,-560.71 154.86,-557.37 155.91,-562.75 155.91,-562.75"/>
</g>
<!-- Node23 -->
<g id="node23" class="node">
<title>Node23</title>
<g id="a_node23"><a xlink:href="$group__CC.html#ga3e57442badb533d55c8d3d3a05465030" xlink:title=" ">
<text text-anchor="middle" x="164.5" y="-391.4" font-family="Helvetica,Arial,sans-serif" font-size="12.00">concurrency_patterns_demo</text>
</a>
</g>
</g>
<!-- Node1&#45;&gt;Node23 -->
<g id="edge24" class="edge">
<title>Node1&#45;&gt;Node23</title>
<path fill="none" stroke="midnightblue" d="M44.03,-377.49C55.18,-379.08 69.64,-381.14 84.63,-383.27"/>
<polygon fill="midnightblue" stroke="midnightblue" points="89.73,-384 84.46,-385.52 87.26,-383.65 84.78,-383.29 84.78,-383.29 84.78,-383.29 87.26,-383.65 85.1,-381.07 89.73,-384 89.73,-384"/>
</g>
<!-- Node28 -->
<g id="node28" class="node">
<title>Node28</title>
<g id="a_node28"><a xlink:href="$group__CP.html#ga50a82bd9d08b9a3b31267eefdf4ebaed" xlink:title=" ">
<text text-anchor="middle" x="164.5" y="-177.4" font-family="Helvetica,Arial,sans-serif" font-size="12.00">creational_patterns_demo</text>
</a>
</g>
</g>
<!-- Node1&#45;&gt;Node28 -->
<g id="edge29" class="edge">
<title>Node1&#45;&gt;Node28</title>
<path fill="none" stroke="midnightblue" d="M30.75,-363.79C54.3,-331.28 125.05,-233.59 152.47,-195.72"/>
<polygon fill="midnightblue" stroke="midnightblue" points="155.6,-191.41 154.49,-196.78 154.13,-193.44 152.66,-195.46 152.66,-195.46 152.66,-195.46 154.13,-193.44 150.84,-194.14 155.6,-191.41 155.6,-191.41"/>
</g>
<!-- Node32 -->
<g id="node32" class="node">
<title>Node32</title>
<g id="a_node32"><a xlink:href="$group__OOP.html#gac98f62660ece957e8cbc4d3ff6ec0cdf" xlink:title=" ">
<text text-anchor="middle" x="164.5" y="-53.4" font-family="Helvetica,Arial,sans-serif" font-size="12.00">oop_demo</text>
</a>
</g>
</g>
<!-- Node1&#45;&gt;Node32 -->
<g id="edge34" class="edge">
<title>Node1&#45;&gt;Node32</title>
<path fill="none" stroke="midnightblue" d="M24.3,-363.76C28.5,-331.56 43.66,-233.64 80,-161.5 98.27,-125.23 130.39,-89.65 149.02,-70.65"/>
<polygon fill="midnightblue" stroke="midnightblue" points="152.56,-67.08 150.64,-72.22 150.8,-68.86 149.04,-70.63 149.04,-70.63 149.04,-70.63 150.8,-68.86 147.44,-69.05 152.56,-67.08 152.56,-67.08"/>
</g>
<!-- Node38 -->
<g id="node38" class="node">
<title>Node38</title>
<g id="a_node38"><a xlink:href="$group__SP.html#ga3a9c3856221bdc96fcf38f956fc12011" xlink:title=" ">
<text text-anchor="middle" x="164.5" y="-332.4" font-family="Helvetica,Arial,sans-serif" font-size="12.00">structural_patterns_demo</text>
</a>
</g>
</g>
<!-- Node1&#45;&gt;Node38 -->
<g id="edge40" class="edge">
<title>Node1&#45;&gt;Node38</title>
<path fill="none" stroke="midnightblue" d="M44.03,-368.66C64.2,-363.06 95.24,-354.45 120.63,-347.4"/>
<polygon fill="midnightblue" stroke="midnightblue" points="125.63,-346.01 121.41,-349.52 123.22,-346.68 120.81,-347.35 120.81,-347.35 120.81,-347.35 123.22,-346.68 120.21,-345.18 125.63,-346.01 125.63,-346.01"/>
</g>
<!-- Node3 -->
<g id="node3" class="node">
<title>Node3</title>
<g id="a_node3"><a xlink:href="$structController.html#af9531d07a0bf9d651c6830e88b64f0ff" xlink:title=" ">
<text text-anchor="middle" x="368" y="-840.4" font-family="Helvetica,Arial,sans-serif" font-size="12.00">Controller::command</text>
</a>
</g>
</g>
<!-- Node2&#45;&gt;Node3 -->
<g id="edge2" class="edge">
<title>Node2&#45;&gt;Node3</title>
<path fill="none" stroke="midnightblue" d="M201.52,-795.05C236.52,-805.29 289.57,-820.83 326.13,-831.53"/>
<polygon fill="midnightblue" stroke="midnightblue" points="330.95,-832.94 325.52,-833.7 328.55,-832.24 326.15,-831.54 326.15,-831.54 326.15,-831.54 328.55,-832.24 326.78,-829.38 330.95,-832.94 330.95,-832.94"/>
</g>
<!-- Node6 -->
<g id="node6" class="node">
<title>Node6</title>
<g id="a_node6"><a xlink:href="$structSubject.html#a156c54b0ef570d0439f2347643192dc3" xlink:title=" ">
<text text-anchor="middle" x="768" y="-801.4" font-family="Helvetica,Arial,sans-serif" font-size="12.00">Subject::notify_observers</text>
</a>
</g>
</g>
<!-- Node2&#45;&gt;Node6 -->
<g id="edge6" class="edge">
<title>Node2&#45;&gt;Node6</title>
<path fill="none" stroke="midnightblue" d="M249.14,-787.28C364.92,-791.13 572.62,-798.04 686.63,-801.83"/>
<polygon fill="midnightblue" stroke="midnightblue" points="691.66,-801.99 686.58,-804.08 689.16,-801.91 686.66,-801.83 686.66,-801.83 686.66,-801.83 689.16,-801.91 686.73,-799.58 691.66,-801.99 691.66,-801.99"/>
</g>
<!-- Node7 -->
<g id="node7" class="node">
<title>Node7</title>
<g id="a_node7"><a xlink:href="$structModel.html#a60ccf0ab3d641769ce8663a5c6f811b7" xlink:title=" ">
<text text-anchor="middle" x="368" y="-762.4" font-family="Helvetica,Arial,sans-serif" font-size="12.00">Model::register_observer</text>
</a>
</g>
</g>
<!-- Node2&#45;&gt;Node7 -->
<g id="edge7" class="edge">
<title>Node2&#45;&gt;Node7</title>
<path fill="none" stroke="midnightblue" d="M249.2,-776.61C262.09,-775.39 275.36,-774.14 288.14,-772.94"/>
<polygon fill="midnightblue" stroke="midnightblue" points="293.2,-772.46 288.43,-775.17 290.71,-772.69 288.22,-772.93 288.22,-772.93 288.22,-772.93 290.71,-772.69 288.01,-770.69 293.2,-772.46 293.2,-772.46"/>
</g>
<!-- Node4 -->
<g id="node4" class="node">
<title>Node4</title>
<g id="a_node4"><a xlink:href="$structModel.html#a9000558a25601a58c19f903bfb660e64" xlink:title=" ">
<text text-anchor="middle" x="571.5" y="-840.4" font-family="Helvetica,Arial,sans-serif" font-size="12.00">Model::command</text>
</a>
</g>
</g>
<!-- Node3&#45;&gt;Node4 -->
<g id="edge3" class="edge">
<title>Node3&#45;&gt;Node4</title>
<path fill="none" stroke="midnightblue" d="M432.2,-843.5C457.74,-843.5 487.03,-843.5 512.07,-843.5"/>
<polygon fill="midnightblue" stroke="midnightblue" points="517.34,-843.5 512.34,-845.75 514.84,-843.5 512.34,-843.5 512.34,-843.5 512.34,-843.5 514.84,-843.5 512.34,-841.25 517.34,-843.5 517.34,-843.5"/>
</g>
<!-- Node5 -->
<g id="node5" class="node">
<title>Node5</title>
<g id="a_node5"><a xlink:href="$structCommand.html#acbc1a7f30a3962728ce2e167a032ac87" xlink:title=" ">
<text text-anchor="middle" x="768" y="-840.4" font-family="Helvetica,Arial,sans-serif" font-size="12.00">Command::execute</text>
</a>
</g>
</g>
<!-- Node4&#45;&gt;Node5 -->
<g id="edge4" class="edge">
<title>Node4&#45;&gt;Node5</title>
<path fill="none" stroke="midnightblue" d="M625.65,-843.5C649.59,-843.5 678.06,-843.5 703.15,-843.5"/>
<polygon fill="midnightblue" stroke="midnightblue" points="708.45,-843.5 703.45,-845.75 705.95,-843.5 703.45,-843.5 703.45,-843.5 703.45,-843.5 705.95,-843.5 703.45,-841.25 708.45,-843.5 708.45,-843.5"/>
</g>
<!-- Node4&#45;&gt;Node6 -->
<g id="edge5" class="edge">
<title>Node4&#45;&gt;Node6</title>
<path fill="none" stroke="midnightblue" d="M624.88,-833C651.04,-827.75 682.75,-821.39 709.58,-816.01"/>
<polygon fill="midnightblue" stroke="midnightblue" points="714.53,-815.02 710.07,-818.21 712.08,-815.51 709.63,-816 709.63,-816 709.63,-816 712.08,-815.51 709.18,-813.8 714.53,-815.02 714.53,-815.02"/>
</g>
<!-- Node9 -->
<g id="node9" class="node">
<title>Node9</title>
<g id="a_node9"><a xlink:href="$structChain__of__responsibility.html#a1e86b7bc1e9472af2b85e7322a4cc5c1" xlink:title="Specific handler can process a command and return non&#45;negative.">
<text text-anchor="start" x="304.5" y="-684.9" font-family="Helvetica,Arial,sans-serif" font-size="12.00">Chain_of_responsibility</text>
<text text-anchor="middle" x="368" y="-671.9" font-family="Helvetica,Arial,sans-serif" font-size="12.00">::handle</text>
</a>
</g>
</g>
<!-- Node8&#45;&gt;Node9 -->
<g id="edge9" class="edge">
<title>Node8&#45;&gt;Node9</title>
<path fill="none" stroke="midnightblue" d="M178.32,-584.21C199.39,-601.35 243.17,-635.08 285,-655.5 290.24,-658.06 295.79,-660.44 301.44,-662.65"/>
<polygon fill="midnightblue" stroke="midnightblue" points="306.2,-664.45 300.72,-664.78 303.86,-663.57 301.52,-662.68 301.52,-662.68 301.52,-662.68 303.86,-663.57 302.32,-660.57 306.2,-664.45 306.2,-664.45"/>
</g>
<!-- Node10 -->
<g id="node10" class="node">
<title>Node10</title>
<g id="a_node10"><a xlink:href="$group__BP.html#ga49d579b8340b92f6ceb51cb6d57d4b2d" xlink:title=" ">
<text text-anchor="middle" x="368" y="-632.4" font-family="Helvetica,Arial,sans-serif" font-size="12.00">mediator_demo</text>
</a>
</g>
</g>
<!-- Node8&#45;&gt;Node10 -->
<g id="edge10" class="edge">
<title>Node8&#45;&gt;Node10</title>
<path fill="none" stroke="midnightblue" d="M192.25,-584.15C216.28,-593.47 252.64,-606.97 285,-616.5 293.95,-619.14 303.54,-621.64 312.89,-623.92"/>
<polygon fill="midnightblue" stroke="midnightblue" points="317.76,-625.08 312.37,-626.1 315.33,-624.5 312.89,-623.92 312.89,-623.92 312.89,-623.92 315.33,-624.5 313.42,-621.73 317.76,-625.08 317.76,-625.08"/>
</g>
<!-- Node14 -->
<g id="node14" class="node">
<title>Node14</title>
<g id="a_node14"><a xlink:href="$group__BP.html#ga39dd63f04a9c36bb6cde09c53024a21d" xlink:title=" ">
<text text-anchor="middle" x="571.5" y="-743.4" font-family="Helvetica,Arial,sans-serif" font-size="12.00">observer_demo</text>
</a>
</g>
</g>
<!-- Node8&#45;&gt;Node14 -->
<g id="edge14" class="edge">
<title>Node8&#45;&gt;Node14</title>
<path fill="none" stroke="midnightblue" d="M171.34,-584.14C186.31,-610.27 228.87,-677.62 285,-707.5 323.87,-728.19 444.27,-738.87 515.7,-743.52"/>
<polygon fill="midnightblue" stroke="midnightblue" points="520.76,-743.84 515.62,-745.77 518.26,-743.68 515.77,-743.52 515.77,-743.52 515.77,-743.52 518.26,-743.68 515.91,-741.28 520.76,-743.84 520.76,-743.84"/>
</g>
<!-- Node15 -->
<g id="node15" class="node">
<title>Node15</title>
<g id="a_node15"><a xlink:href="$group__PS.html#gae0de20d55f2eb979eb20dcef9abde9bd" xlink:title=" ">
<text text-anchor="middle" x="368" y="-593.4" font-family="Helvetica,Arial,sans-serif" font-size="12.00">publisher_subscriber_demo</text>
</a>
</g>
</g>
<!-- Node8&#45;&gt;Node15 -->
<g id="edge16" class="edge">
<title>Node8&#45;&gt;Node15</title>
<path fill="none" stroke="midnightblue" d="M244.56,-582.52C256.23,-583.86 268.31,-585.24 280.14,-586.58"/>
<polygon fill="midnightblue" stroke="midnightblue" points="285.18,-587.16 279.96,-588.83 282.7,-586.88 280.22,-586.59 280.22,-586.59 280.22,-586.59 282.7,-586.88 280.47,-584.36 285.18,-587.16 285.18,-587.16"/>
</g>
<!-- Node17 -->
<g id="node17" class="node">
<title>Node17</title>
<g id="a_node17"><a xlink:href="$structChain__of__responsibility.html#ac125b4b1aa689aa72daa30d0785a0c6e" xlink:title=" ">
<text text-anchor="start" x="304.5" y="-553.9" font-family="Helvetica,Arial,sans-serif" font-size="12.00">Chain_of_responsibility</text>
<text text-anchor="middle" x="368" y="-540.9" font-family="Helvetica,Arial,sans-serif" font-size="12.00">::register_handler</text>
</a>
</g>
</g>
<!-- Node8&#45;&gt;Node17 -->
<g id="edge18" class="edge">
<title>Node8&#45;&gt;Node17</title>
<path fill="none" stroke="midnightblue" d="M244.56,-564.48C259.91,-562.72 275.97,-560.89 291.22,-559.15"/>
<polygon fill="midnightblue" stroke="midnightblue" points="296.36,-558.56 291.64,-561.37 293.87,-558.85 291.39,-559.13 291.39,-559.13 291.39,-559.13 293.87,-558.85 291.13,-556.9 296.36,-558.56 296.36,-558.56"/>
</g>
<!-- Node18 -->
<g id="node18" class="node">
<title>Node18</title>
<g id="a_node18"><a xlink:href="$group__visitor.html#gadf2d0f148383e8df93146cc841e226a1" xlink:title=" ">
<text text-anchor="middle" x="368" y="-501.4" font-family="Helvetica,Arial,sans-serif" font-size="12.00">standard_visitor_demo</text>
</a>
</g>
</g>
<!-- Node8&#45;&gt;Node18 -->
<g id="edge19" class="edge">
<title>Node8&#45;&gt;Node18</title>
<path fill="none" stroke="midnightblue" d="M188.47,-562.87C212.25,-552.16 250.67,-535.66 285,-524.5 294.14,-521.53 303.97,-518.77 313.55,-516.31"/>
<polygon fill="midnightblue" stroke="midnightblue" points="318.53,-515.05 314.24,-518.45 316.11,-515.66 313.68,-516.27 313.68,-516.27 313.68,-516.27 316.11,-515.66 313.13,-514.09 318.53,-515.05 318.53,-515.05"/>
</g>
<!-- Node19 -->
<g id="node19" class="node">
<title>Node19</title>
<g id="a_node19"><a xlink:href="$group__visitor.html#ga11584cf836c2520c14cc5827ce453f8f" xlink:title=" ">
<text text-anchor="middle" x="368" y="-462.4" font-family="Helvetica,Arial,sans-serif" font-size="12.00">visitor_demo</text>
</a>
</g>
</g>
<!-- Node8&#45;&gt;Node19 -->
<g id="edge20" class="edge">
<title>Node8&#45;&gt;Node19</title>
<path fill="none" stroke="midnightblue" d="M176.71,-562.81C196.77,-544.25 240.88,-506.11 285,-485.5 296.04,-480.35 308.55,-476.43 320.42,-473.49"/>
<polygon fill="midnightblue" stroke="midnightblue" points="325.46,-472.29 321.12,-475.64 323.03,-472.87 320.6,-473.45 320.6,-473.45 320.6,-473.45 323.03,-472.87 320.08,-471.26 325.46,-472.29 325.46,-472.29"/>
</g>
<!-- Node11 -->
<g id="node11" class="node">
<title>Node11</title>
<g id="a_node11"><a xlink:href="$structMediator.html#abc7fd67c96301b2975f830550ab5713c" xlink:title=" ">
<text text-anchor="start" x="525" y="-684.9" font-family="Helvetica,Arial,sans-serif" font-size="12.00">Mediator::register</text>
<text text-anchor="middle" x="571.5" y="-671.9" font-family="Helvetica,Arial,sans-serif" font-size="12.00">_member</text>
</a>
</g>
</g>
<!-- Node10&#45;&gt;Node11 -->
<g id="edge11" class="edge">
<title>Node10&#45;&gt;Node11</title>
<path fill="none" stroke="midnightblue" d="M415.23,-646.05C443.9,-652.6 481.01,-661.07 511.76,-668.09"/>
<polygon fill="midnightblue" stroke="midnightblue" points="516.64,-669.2 511.26,-670.28 514.2,-668.65 511.76,-668.09 511.76,-668.09 511.76,-668.09 514.2,-668.65 512.26,-665.9 516.64,-669.2 516.64,-669.2"/>
</g>
<!-- Node12 -->
<g id="node12" class="node">
<title>Node12</title>
<g id="a_node12"><a xlink:href="$group__BP.html#ga0b04b5167d12021f4360b6a66a1b1125" xlink:title=" ">
<text text-anchor="middle" x="571.5" y="-632.4" font-family="Helvetica,Arial,sans-serif" font-size="12.00">Member::send</text>
</a>
</g>
</g>
<!-- Node10&#45;&gt;Node12 -->
<g id="edge12" class="edge">
<title>Node10&#45;&gt;Node12</title>
<path fill="none" stroke="midnightblue" d="M418.03,-635.5C448.98,-635.5 488.85,-635.5 520.06,-635.5"/>
<polygon fill="midnightblue" stroke="midnightblue" points="525.39,-635.5 520.39,-637.75 522.89,-635.5 520.39,-635.5 520.39,-635.5 520.39,-635.5 522.89,-635.5 520.39,-633.25 525.39,-635.5 525.39,-635.5"/>
</g>
<!-- Node13 -->
<g id="node13" class="node">
<title>Node13</title>
<g id="a_node13"><a xlink:href="$structMediator.html#aa4696f4276eb4646826fa2cd82392496" xlink:title=" ">
<text text-anchor="middle" x="768" y="-632.4" font-family="Helvetica,Arial,sans-serif" font-size="12.00">Mediator::dispatch</text>
</a>
</g>
</g>
<!-- Node12&#45;&gt;Node13 -->
<g id="edge13" class="edge">
<title>Node12&#45;&gt;Node13</title>
<path fill="none" stroke="midnightblue" d="M617.61,-635.5C643.71,-635.5 676.91,-635.5 705.39,-635.5"/>
<polygon fill="midnightblue" stroke="midnightblue" points="710.64,-635.5 705.64,-637.75 708.14,-635.5 705.64,-635.5 705.64,-635.5 705.64,-635.5 708.14,-635.5 705.64,-633.25 710.64,-635.5 710.64,-635.5"/>
</g>
<!-- Node14&#45;&gt;Node6 -->
<g id="edge15" class="edge">
<title>Node14&#45;&gt;Node6</title>
<path fill="none" stroke="midnightblue" d="M607.72,-757C641.22,-766.99 691.56,-782 726.65,-792.47"/>
<polygon fill="midnightblue" stroke="midnightblue" points="731.71,-793.98 726.28,-794.7 729.32,-793.26 726.92,-792.55 726.92,-792.55 726.92,-792.55 729.32,-793.26 727.56,-790.39 731.71,-793.98 731.71,-793.98"/>
</g>
<!-- Node16 -->
<g id="node16" class="node">
<title>Node16</title>
<g id="a_node16"><a xlink:href="$structPublisher.html#a9420436a866c0ec19ecf3381a894370f" xlink:title=" ">
<text text-anchor="middle" x="571.5" y="-593.4" font-family="Helvetica,Arial,sans-serif" font-size="12.00">Publisher::publish</text>
</a>
</g>
</g>
<!-- Node15&#45;&gt;Node16 -->
<g id="edge17" class="edge">
<title>Node15&#45;&gt;Node16</title>
<path fill="none" stroke="midnightblue" d="M450.67,-596.5C470.41,-596.5 491.17,-596.5 509.76,-596.5"/>
<polygon fill="midnightblue" stroke="midnightblue" points="514.94,-596.5 509.94,-598.75 512.44,-596.5 509.94,-596.5 509.94,-596.5 509.94,-596.5 512.44,-596.5 509.94,-594.25 514.94,-596.5 514.94,-596.5"/>
</g>
<!-- Node20 -->
<g id="node20" class="node">
<title>Node20</title>
<g id="a_node20"><a xlink:href="$group__visitor.html#ga82eb8d60b7fe6342e91722f383a4c9c4" xlink:title="knows only virtual visitor and component">
<text text-anchor="middle" x="571.5" y="-554.4" font-family="Helvetica,Arial,sans-serif" font-size="12.00">client_visit</text>
</a>
</g>
</g>
<!-- Node19&#45;&gt;Node20 -->
<g id="edge21" class="edge">
<title>Node19&#45;&gt;Node20</title>
<path fill="none" stroke="midnightblue" d="M410.63,-469.65C424.38,-472.53 439.17,-477.36 451,-485.5 474.16,-501.42 463.8,-521.62 487,-537.5 499.49,-546.05 515.21,-550.96 529.63,-553.78"/>
<polygon fill="midnightblue" stroke="midnightblue" points="534.87,-554.72 529.55,-556.05 532.41,-554.28 529.95,-553.84 529.95,-553.84 529.95,-553.84 532.41,-554.28 530.35,-551.62 534.87,-554.72 534.87,-554.72"/>
</g>
<!-- Node21 -->
<g id="node21" class="node">
<title>Node21</title>
<g id="a_node21"><a xlink:href="$structSample__component.html#ad9d2146df037c428eff9b9b816a6aebe" xlink:title="is not virtual">
<text text-anchor="start" x="495" y="-514.9" font-family="Helvetica,Arial,sans-serif" font-size="12.00">Sample_component::sample</text>
<text text-anchor="middle" x="571.5" y="-501.9" font-family="Helvetica,Arial,sans-serif" font-size="12.00">_component_method</text>
</a>
</g>
</g>
<!-- Node19&#45;&gt;Node21 -->
<g id="edge22" class="edge">
<title>Node19&#45;&gt;Node21</title>
<path fill="none" stroke="midnightblue" d="M410.75,-475.03C433.87,-480.31 463.38,-487.05 490.73,-493.29"/>
<polygon fill="midnightblue" stroke="midnightblue" points="495.81,-494.45 490.44,-495.53 493.37,-493.89 490.94,-493.34 490.94,-493.34 490.94,-493.34 493.37,-493.89 491.44,-491.14 495.81,-494.45 495.81,-494.45"/>
</g>
<!-- Node22 -->
<g id="node22" class="node">
<title>Node22</title>
<g id="a_node22"><a xlink:href="$structAbstract__visitor.html#ad18f776881d73ef1b50331105b244b07" xlink:title="overloaded function for each component subtype">
<text text-anchor="middle" x="571.5" y="-462.4" font-family="Helvetica,Arial,sans-serif" font-size="12.00">Abstract_visitor::visit</text>
</a>
</g>
</g>
<!-- Node19&#45;&gt;Node22 -->
<g id="edge23" class="edge">
<title>Node19&#45;&gt;Node22</title>
<path fill="none" stroke="midnightblue" d="M410.75,-465.5C437.56,-465.5 472.97,-465.5 503.64,-465.5"/>
<polygon fill="midnightblue" stroke="midnightblue" points="508.91,-465.5 503.91,-467.75 506.41,-465.5 503.91,-465.5 503.91,-465.5 503.91,-465.5 506.41,-465.5 503.91,-463.25 508.91,-465.5 508.91,-465.5"/>
</g>
<!-- Node24 -->
<g id="node24" class="node">
<title>Node24</title>
<g id="a_node24"><a xlink:href="$structActive__object.html#ac125fd7860055c3a289b68ae39488714" xlink:title=" ">
<text text-anchor="middle" x="368" y="-410.4" font-family="Helvetica,Arial,sans-serif" font-size="12.00">Active_object::method</text>
</a>
</g>
</g>
<!-- Node23&#45;&gt;Node24 -->
<g id="edge25" class="edge">
<title>Node23&#45;&gt;Node24</title>
<path fill="none" stroke="midnightblue" d="M249.2,-402.39C264.65,-403.85 280.65,-405.36 295.68,-406.78"/>
<polygon fill="midnightblue" stroke="midnightblue" points="300.75,-407.25 295.56,-409.02 298.26,-407.02 295.77,-406.78 295.77,-406.78 295.77,-406.78 298.26,-407.02 295.98,-404.54 300.75,-407.25 300.75,-407.25"/>
</g>
<!-- Node25 -->
<g id="node25" class="node">
<title>Node25</title>
<g id="a_node25"><a xlink:href="$group__test20.html#ga3ee6c71848d9e06fcc000cf4cc8f70a7" xlink:title=" ">
<text text-anchor="middle" x="571.5" y="-423.4" font-family="Helvetica,Arial,sans-serif" font-size="12.00">f</text>
</a>
</g>
</g>
<!-- Node24&#45;&gt;Node25 -->
<g id="edge26" class="edge">
<title>Node24&#45;&gt;Node25</title>
<path fill="none" stroke="midnightblue" d="M435.26,-417.77C475.95,-420.4 525.18,-423.58 551.58,-425.28"/>
<polygon fill="midnightblue" stroke="midnightblue" points="556.86,-425.62 551.72,-427.54 554.36,-425.46 551.87,-425.3 551.87,-425.3 551.87,-425.3 554.36,-425.46 552.01,-423.05 556.86,-425.62 556.86,-425.62"/>
</g>
<!-- Node26 -->
<g id="node26" class="node">
<title>Node26</title>
<g id="a_node26"><a xlink:href="$structInterface.html#a73306300ba88073a31d86d9e282ff5ca" xlink:title=" ">
<text text-anchor="middle" x="571.5" y="-279.4" font-family="Helvetica,Arial,sans-serif" font-size="12.00">Interface::method</text>
</a>
</g>
</g>
<!-- Node24&#45;&gt;Node26 -->
<g id="edge27" class="edge">
<title>Node24&#45;&gt;Node26</title>
<path fill="none" stroke="midnightblue" d="M435.37,-404.28C441.03,-401.72 446.36,-398.51 451,-394.5 484.22,-365.79 453.89,-331.33 487,-302.5 494.18,-296.25 502.97,-291.87 512.13,-288.82"/>
<polygon fill="midnightblue" stroke="midnightblue" points="516.95,-287.35 512.82,-290.96 514.56,-288.08 512.17,-288.81 512.17,-288.81 512.17,-288.81 514.56,-288.08 511.51,-286.66 516.95,-287.35 516.95,-287.35"/>
</g>
<!-- Node27 -->
<g id="node27" class="node">
<title>Node27</title>
<g id="a_node27"><a xlink:href="$classSynchronized__queue.html#a3e165aa3522a31aa3845a8a7833678b1" xlink:title=" ">
<text text-anchor="start" x="514.5" y="-383.9" font-family="Helvetica,Arial,sans-serif" font-size="12.00">Synchronized_queue</text>
<text text-anchor="middle" x="571.5" y="-370.9" font-family="Helvetica,Arial,sans-serif" font-size="12.00">::push</text>
</a>
</g>
</g>
<!-- Node24&#45;&gt;Node27 -->
<g id="edge28" class="edge">
<title>Node24&#45;&gt;Node27</title>
<path fill="none" stroke="midnightblue" d="M433.31,-402.97C455.05,-399.41 479.4,-395.42 501.49,-391.8"/>
<polygon fill="midnightblue" stroke="midnightblue" points="506.46,-390.99 501.88,-394.02 503.99,-391.39 501.52,-391.8 501.52,-391.8 501.52,-391.8 503.99,-391.39 501.16,-389.58 506.46,-390.99 506.46,-390.99"/>
</g>
<!-- Node28&#45;&gt;Node26 -->
<g id="edge32" class="edge">
<title>Node28&#45;&gt;Node26</title>
<path fill="none" stroke="midnightblue" d="M207.32,-191.03C283.36,-210.18 443.76,-250.58 523.48,-270.66"/>
<polygon fill="midnightblue" stroke="midnightblue" points="528.61,-271.95 523.21,-272.91 526.18,-271.34 523.76,-270.73 523.76,-270.73 523.76,-270.73 526.18,-271.34 524.31,-268.55 528.61,-271.95 528.61,-271.95"/>
</g>
<!-- Node29 -->
<g id="node29" class="node">
<title>Node29</title>
<g id="a_node29"><a xlink:href="$structBuilder.html#a0490ca9df304a27fa0bd61e25f71a3f1" xlink:title=" ">
<text text-anchor="middle" x="368" y="-177.4" font-family="Helvetica,Arial,sans-serif" font-size="12.00">Builder::add</text>
</a>
</g>
</g>
<!-- Node28&#45;&gt;Node29 -->
<g id="edge30" class="edge">
<title>Node28&#45;&gt;Node29</title>
<path fill="none" stroke="midnightblue" d="M242.54,-180.5C269.4,-180.5 298.63,-180.5 322.02,-180.5"/>
<polygon fill="midnightblue" stroke="midnightblue" points="327.22,-180.5 322.22,-182.75 324.72,-180.5 322.22,-180.5 322.22,-180.5 322.22,-180.5 324.72,-180.5 322.22,-178.25 327.22,-180.5 327.22,-180.5"/>
</g>
<!-- Node30 -->
<g id="node30" class="node">
<title>Node30</title>
<g id="a_node30"><a xlink:href="$structPrototype.html#ac457723ab2c827423afd9215811b5b03" xlink:title=" ">
<text text-anchor="middle" x="368" y="-138.4" font-family="Helvetica,Arial,sans-serif" font-size="12.00">Prototype::create</text>
</a>
</g>
</g>
<!-- Node28&#45;&gt;Node30 -->
<g id="edge31" class="edge">
<title>Node28&#45;&gt;Node30</title>
<path fill="none" stroke="midnightblue" d="M219.76,-170C247.42,-164.65 281.05,-158.13 309.19,-152.69"/>
<polygon fill="midnightblue" stroke="midnightblue" points="314.38,-151.68 309.9,-154.84 311.93,-152.16 309.47,-152.63 309.47,-152.63 309.47,-152.63 311.93,-152.16 309.04,-150.43 314.38,-151.68 314.38,-151.68"/>
</g>
<!-- Node31 -->
<g id="node31" class="node">
<title>Node31</title>
<g id="a_node31"><a xlink:href="$group__CP.html#ga99f9c29c513d027b13580a5e30506fc8" xlink:title=" ">
<text text-anchor="middle" x="368" y="-99.4" font-family="Helvetica,Arial,sans-serif" font-size="12.00">sss</text>
</a>
</g>
</g>
<!-- Node28&#45;&gt;Node31 -->
<g id="edge33" class="edge">
<title>Node28&#45;&gt;Node31</title>
<path fill="none" stroke="midnightblue" d="M184,-169.98C207.04,-157.25 247.9,-135.86 285,-122.5 304.99,-115.3 328.64,-109.84 345.4,-106.46"/>
<polygon fill="midnightblue" stroke="midnightblue" points="350.36,-105.48 345.89,-108.66 347.91,-105.96 345.46,-106.45 345.46,-106.45 345.46,-106.45 347.91,-105.96 345.02,-104.24 350.36,-105.48 350.36,-105.48"/>
</g>
<!-- Node33 -->
<g id="node33" class="node">
<title>Node33</title>
<g id="a_node33"><a xlink:href="$group__OOP.html#ga69c1df831a21f7ae760b64f03713680b" xlink:title="Associations">
<text text-anchor="middle" x="368" y="-7.4" font-family="Helvetica,Arial,sans-serif" font-size="12.00">associations_demo</text>
</a>
</g>
</g>
<!-- Node32&#45;&gt;Node33 -->
<g id="edge35" class="edge">
<title>Node32&#45;&gt;Node33</title>
<path fill="none" stroke="midnightblue" d="M201.52,-48.28C233.25,-41.03 279.81,-30.4 315.47,-22.26"/>
<polygon fill="midnightblue" stroke="midnightblue" points="320.65,-21.08 316.28,-24.39 318.21,-21.64 315.77,-22.19 315.77,-22.19 315.77,-22.19 318.21,-21.64 315.27,-20 320.65,-21.08 320.65,-21.08"/>
</g>
<!-- Node34 -->
<g id="node34" class="node">
<title>Node34</title>
<g id="a_node34"><a xlink:href="$group__OOP.html#gac9e27f9e1496655643170a1fe1319148" xlink:title=" ">
<text text-anchor="start" x="293" y="-59.9" font-family="Helvetica,Arial,sans-serif" font-size="12.00">synchronized_encapsulated</text>
<text text-anchor="middle" x="368" y="-46.9" font-family="Helvetica,Arial,sans-serif" font-size="12.00">_value</text>
</a>
</g>
</g>
<!-- Node32&#45;&gt;Node34 -->
<g id="edge36" class="edge">
<title>Node32&#45;&gt;Node34</title>
<path fill="none" stroke="midnightblue" d="M201.52,-56.5C223.37,-56.5 252.26,-56.5 279.77,-56.5"/>
<polygon fill="midnightblue" stroke="midnightblue" points="284.89,-56.5 279.89,-58.75 282.39,-56.5 279.89,-56.5 279.89,-56.5 279.89,-56.5 282.39,-56.5 279.89,-54.25 284.89,-56.5 284.89,-56.5"/>
</g>
<!-- Node35 -->
<g id="node35" class="node">
<title>Node35</title>
<g id="a_node35"><a xlink:href="$structChange__interface.html#a71adc7f53712cb951427c71f7a3f25fe" xlink:title=" ">
<text text-anchor="middle" x="571.5" y="-92.4" font-family="Helvetica,Arial,sans-serif" font-size="12.00">Change_interface::change</text>
</a>
</g>
</g>
<!-- Node34&#45;&gt;Node35 -->
<g id="edge37" class="edge">
<title>Node34&#45;&gt;Node35</title>
<path fill="none" stroke="midnightblue" d="M451.25,-72.42C471.24,-76.29 492.24,-80.35 510.95,-83.97"/>
<polygon fill="midnightblue" stroke="midnightblue" points="516.17,-84.98 510.83,-86.24 513.71,-84.51 511.26,-84.03 511.26,-84.03 511.26,-84.03 513.71,-84.51 511.68,-81.82 516.17,-84.98 516.17,-84.98"/>
</g>
<!-- Node36 -->
<g id="node36" class="node">
<title>Node36</title>
<g id="a_node36"><a xlink:href="$structGetter__interface.html#a7f0e42eb2b4dfbd8b4d4e05e63c99bed" xlink:title=" ">
<text text-anchor="middle" x="571.5" y="-53.4" font-family="Helvetica,Arial,sans-serif" font-size="12.00">Getter_interface::get</text>
</a>
</g>
</g>
<!-- Node34&#45;&gt;Node36 -->
<g id="edge38" class="edge">
<title>Node34&#45;&gt;Node36</title>
<path fill="none" stroke="midnightblue" d="M451.25,-56.5C468.7,-56.5 486.93,-56.5 503.72,-56.5"/>
<polygon fill="midnightblue" stroke="midnightblue" points="508.89,-56.5 503.89,-58.75 506.39,-56.5 503.89,-56.5 503.89,-56.5 503.89,-56.5 506.39,-56.5 503.89,-54.25 508.89,-56.5 508.89,-56.5"/>
</g>
<!-- Node37 -->
<g id="node37" class="node">
<title>Node37</title>
<g id="a_node37"><a xlink:href="$structSetter__interface.html#af56ff578654b5d2fec5e3626da71673c" xlink:title=" ">
<text text-anchor="middle" x="571.5" y="-14.4" font-family="Helvetica,Arial,sans-serif" font-size="12.00">Setter_interface::set</text>
</a>
</g>
</g>
<!-- Node34&#45;&gt;Node37 -->
<g id="edge39" class="edge">
<title>Node34&#45;&gt;Node37</title>
<path fill="none" stroke="midnightblue" d="M451.25,-40.58C471.24,-36.71 492.24,-32.65 510.95,-29.03"/>
<polygon fill="midnightblue" stroke="midnightblue" points="516.17,-28.02 511.68,-31.18 513.71,-28.49 511.26,-28.97 511.26,-28.97 511.26,-28.97 513.71,-28.49 510.83,-26.76 516.17,-28.02 516.17,-28.02"/>
</g>
<!-- Node38&#45;&gt;Node26 -->
<g id="edge47" class="edge">
<title>Node38&#45;&gt;Node26</title>
<path fill="none" stroke="midnightblue" d="M181.25,-324.95C203.32,-310.87 245.22,-286.64 285,-277.5 361.8,-259.85 453.29,-266.04 511.63,-273.28"/>
<polygon fill="midnightblue" stroke="midnightblue" points="516.82,-273.94 511.58,-275.54 514.34,-273.62 511.86,-273.31 511.86,-273.31 511.86,-273.31 514.34,-273.62 512.14,-271.08 516.82,-273.94 516.82,-273.94"/>
</g>
<!-- Node39 -->
<g id="node39" class="node">
<title>Node39</title>
<g id="a_node39"><a xlink:href="$structBridge.html#a68cba3a3e983eaf7521a6cea23ef1b7c" xlink:title=" ">
<text text-anchor="middle" x="368" y="-371.4" font-family="Helvetica,Arial,sans-serif" font-size="12.00">Bridge::method</text>
</a>
</g>
</g>
<!-- Node38&#45;&gt;Node39 -->
<g id="edge41" class="edge">
<title>Node38&#45;&gt;Node39</title>
<path fill="none" stroke="midnightblue" d="M219.76,-346C248.96,-351.65 284.84,-358.6 313.86,-364.22"/>
<polygon fill="midnightblue" stroke="midnightblue" points="318.83,-365.18 313.49,-366.44 316.37,-364.7 313.92,-364.23 313.92,-364.23 313.92,-364.23 316.37,-364.7 314.35,-362.02 318.83,-365.18 318.83,-365.18"/>
</g>
<!-- Node41 -->
<g id="node41" class="node">
<title>Node41</title>
<g id="a_node41"><a xlink:href="$structProxy.html#a1c58aa9104f2537aae0f75b59130ce32" xlink:title=" ">
<text text-anchor="middle" x="368" y="-332.4" font-family="Helvetica,Arial,sans-serif" font-size="12.00">Proxy::method</text>
</a>
</g>
</g>
<!-- Node38&#45;&gt;Node41 -->
<g id="edge43" class="edge">
<title>Node38&#45;&gt;Node41</title>
<path fill="none" stroke="midnightblue" d="M240.53,-335.5C265.91,-335.5 293.63,-335.5 316.63,-335.5"/>
<polygon fill="midnightblue" stroke="midnightblue" points="321.76,-335.5 316.76,-337.75 319.26,-335.5 316.76,-335.5 316.76,-335.5 316.76,-335.5 319.26,-335.5 316.76,-333.25 321.76,-335.5 321.76,-335.5"/>
</g>
<!-- Node42 -->
<g id="node42" class="node">
<title>Node42</title>
<g id="a_node42"><a xlink:href="$structDecorator.html#a49123c88d6088bbd5573b98bccd1d8bf" xlink:title=" ">
<text text-anchor="middle" x="368" y="-293.4" font-family="Helvetica,Arial,sans-serif" font-size="12.00">Decorator::method</text>
</a>
</g>
</g>
<!-- Node38&#45;&gt;Node42 -->
<g id="edge45" class="edge">
<title>Node38&#45;&gt;Node42</title>
<path fill="none" stroke="midnightblue" d="M219.76,-325C246.87,-319.75 279.72,-313.39 307.51,-308.01"/>
<polygon fill="midnightblue" stroke="midnightblue" points="312.64,-307.02 308.16,-310.18 310.19,-307.5 307.73,-307.97 307.73,-307.97 307.73,-307.97 310.19,-307.5 307.3,-305.76 312.64,-307.02 312.64,-307.02"/>
</g>
<!-- Node40 -->
<g id="node40" class="node">
<title>Node40</title>
<g id="a_node40"><a xlink:href="$structStandalone.html#ab576b209f7db533a9d9a5ada760f6db5" xlink:title=" ">
<text text-anchor="start" x="508" y="-331.9" font-family="Helvetica,Arial,sans-serif" font-size="12.00">Standalone::standalone</text>
<text text-anchor="middle" x="571.5" y="-318.9" font-family="Helvetica,Arial,sans-serif" font-size="12.00">_method</text>
</a>
</g>
</g>
<!-- Node39&#45;&gt;Node40 -->
<g id="edge42" class="edge">
<title>Node39&#45;&gt;Node40</title>
<path fill="none" stroke="midnightblue" d="M415.23,-363.95C438.85,-358.55 468.21,-351.85 495.01,-345.73"/>
<polygon fill="midnightblue" stroke="midnightblue" points="499.98,-344.6 495.61,-347.91 497.54,-345.16 495.11,-345.71 495.11,-345.71 495.11,-345.71 497.54,-345.16 494.61,-343.52 499.98,-344.6 499.98,-344.6"/>
</g>
<!-- Node41&#45;&gt;Node26 -->
<g id="edge44" class="edge">
<title>Node41&#45;&gt;Node26</title>
<path fill="none" stroke="midnightblue" d="M414.42,-326.2C426.41,-323.41 439.27,-320.12 451,-316.5 467.4,-311.44 470.61,-307.62 487,-302.5 496.54,-299.52 506.8,-296.73 516.77,-294.23"/>
<polygon fill="midnightblue" stroke="midnightblue" points="521.63,-293.03 517.31,-296.41 519.2,-293.63 516.77,-294.23 516.77,-294.23 516.77,-294.23 519.2,-293.63 516.23,-292.04 521.63,-293.03 521.63,-293.03"/>
</g>
<!-- Node42&#45;&gt;Node26 -->
<g id="edge46" class="edge">
<title>Node42&#45;&gt;Node26</title>
<path fill="none" stroke="midnightblue" d="M425.67,-292.56C452.51,-290.7 484.56,-288.47 511.68,-286.59"/>
<polygon fill="midnightblue" stroke="midnightblue" points="516.68,-286.24 511.85,-288.83 514.19,-286.41 511.7,-286.59 511.7,-286.59 511.7,-286.59 514.19,-286.41 511.54,-284.34 516.68,-286.24 516.68,-286.24"/>
</g>
</g>
</svg>
