<?xml version="1.0" encoding="UTF-8" standalone="no"?>
<!DOCTYPE svg PUBLIC "-//W3C//DTD SVG 1.1//EN"
 "http://www.w3.org/Graphics/SVG/1.1/DTD/svg11.dtd">
<!-- Generated by graphviz version 2.43.0 (0)
 -->
<!-- Title: oop_demo Pages: 1 -->
<svg width="482pt" height="114pt"
 viewBox="0.00 0.00 482.00 114.00" xmlns="http://www.w3.org/2000/svg" xmlns:xlink="http://www.w3.org/1999/xlink">
<g id="graph0" class="graph" transform="scale(1 1) rotate(0) translate(4 110)">
<title>oop_demo</title>
<!-- Node1 -->
<g id="node1" class="node">
<title>Node1</title>
<g id="a_node1"><a xlink:title=" ">
<polygon fill="#bfbfbf" stroke="transparent" points="78,-83 0,-83 0,-62 78,-62 78,-83"/>
<text text-anchor="start" x="8" y="-70.4" font-family="Helvetica,Arial,sans-serif" font-weight="bold" font-size="12.00">oop_demo</text>
</a>
</g>
</g>
<!-- Node2 -->
<g id="node2" class="node">
<title>Node2</title>
<g id="a_node2"><a xlink:href="$group__OOP.html#ga69c1df831a21f7ae760b64f03713680b" xlink:title="Associations">
<text text-anchor="middle" x="197" y="-92.4" font-family="Helvetica,Arial,sans-serif" font-size="12.00">associations_demo</text>
</a>
</g>
</g>
<!-- Node1&#45;&gt;Node2 -->
<g id="edge1" class="edge">
<title>Node1&#45;&gt;Node2</title>
<path fill="none" stroke="midnightblue" d="M78.16,-78.13C94.32,-80.51 113.6,-83.35 131.84,-86.04"/>
<polygon fill="midnightblue" stroke="midnightblue" points="136.95,-86.79 131.68,-88.29 134.48,-86.43 132,-86.06 132,-86.06 132,-86.06 134.48,-86.43 132.33,-83.84 136.95,-86.79 136.95,-86.79"/>
</g>
<!-- Node3 -->
<g id="node3" class="node">
<title>Node3</title>
<g id="a_node3"><a xlink:href="$group__OOP.html#gac9e27f9e1496655643170a1fe1319148" xlink:title=" ">
<text text-anchor="start" x="122" y="-52.9" font-family="Helvetica,Arial,sans-serif" font-size="12.00">synchronized_encapsulated</text>
<text text-anchor="middle" x="197" y="-39.9" font-family="Helvetica,Arial,sans-serif" font-size="12.00">_value</text>
</a>
</g>
</g>
<!-- Node1&#45;&gt;Node3 -->
<g id="edge2" class="edge">
<title>Node1&#45;&gt;Node3</title>
<path fill="none" stroke="midnightblue" d="M78.16,-66.87C87.63,-65.48 98.16,-63.92 108.93,-62.34"/>
<polygon fill="midnightblue" stroke="midnightblue" points="113.89,-61.61 109.27,-64.56 111.42,-61.97 108.94,-62.34 108.94,-62.34 108.94,-62.34 111.42,-61.97 108.62,-60.11 113.89,-61.61 113.89,-61.61"/>
</g>
<!-- Node4 -->
<g id="node4" class="node">
<title>Node4</title>
<g id="a_node4"><a xlink:href="$structChange__interface.html#a71adc7f53712cb951427c71f7a3f25fe" xlink:title=" ">
<text text-anchor="middle" x="395" y="-85.4" font-family="Helvetica,Arial,sans-serif" font-size="12.00">Change_interface::change</text>
</a>
</g>
</g>
<!-- Node3&#45;&gt;Node4 -->
<g id="edge3" class="edge">
<title>Node3&#45;&gt;Node4</title>
<path fill="none" stroke="midnightblue" d="M280.27,-65.87C298.88,-69.57 318.26,-73.43 335.65,-76.89"/>
<polygon fill="midnightblue" stroke="midnightblue" points="340.97,-77.95 335.63,-79.18 338.52,-77.46 336.07,-76.97 336.07,-76.97 336.07,-76.97 338.52,-77.46 336.51,-74.77 340.97,-77.95 340.97,-77.95"/>
</g>
<!-- Node5 -->
<g id="node5" class="node">
<title>Node5</title>
<g id="a_node5"><a xlink:href="$structGetter__interface.html#a7f0e42eb2b4dfbd8b4d4e05e63c99bed" xlink:title=" ">
<text text-anchor="middle" x="395" y="-46.4" font-family="Helvetica,Arial,sans-serif" font-size="12.00">Getter_interface::get</text>
</a>
</g>
</g>
<!-- Node3&#45;&gt;Node5 -->
<g id="edge4" class="edge">
<title>Node3&#45;&gt;Node5</title>
<path fill="none" stroke="midnightblue" d="M280.27,-49.5C295.89,-49.5 312.07,-49.5 327.14,-49.5"/>
<polygon fill="midnightblue" stroke="midnightblue" points="332.21,-49.5 327.21,-51.75 329.71,-49.5 327.21,-49.5 327.21,-49.5 327.21,-49.5 329.71,-49.5 327.21,-47.25 332.21,-49.5 332.21,-49.5"/>
</g>
<!-- Node6 -->
<g id="node6" class="node">
<title>Node6</title>
<g id="a_node6"><a xlink:href="$structSetter__interface.html#af56ff578654b5d2fec5e3626da71673c" xlink:title=" ">
<text text-anchor="middle" x="395" y="-7.4" font-family="Helvetica,Arial,sans-serif" font-size="12.00">Setter_interface::set</text>
</a>
</g>
</g>
<!-- Node3&#45;&gt;Node6 -->
<g id="edge5" class="edge">
<title>Node3&#45;&gt;Node6</title>
<path fill="none" stroke="midnightblue" d="M280.27,-33.13C298.88,-29.43 318.26,-25.57 335.65,-22.11"/>
<polygon fill="midnightblue" stroke="midnightblue" points="340.97,-21.05 336.51,-24.23 338.52,-21.54 336.07,-22.03 336.07,-22.03 336.07,-22.03 338.52,-21.54 335.63,-19.82 340.97,-21.05 340.97,-21.05"/>
</g>
</g>
</svg>
