<?xml version="1.0" encoding="UTF-8" standalone="no"?>
<!DOCTYPE svg PUBLIC "-//W3C//DTD SVG 1.1//EN"
 "http://www.w3.org/Graphics/SVG/1.1/DTD/svg11.dtd">
<!-- Generated by graphviz version 2.43.0 (0)
 -->
<!-- Title: oop_demo Pages: 1 -->
<svg width="520pt" height="152pt"
 viewBox="0.00 0.00 520.00 152.00" xmlns="http://www.w3.org/2000/svg" xmlns:xlink="http://www.w3.org/1999/xlink">
<g id="graph0" class="graph" transform="scale(1 1) rotate(0) translate(4 148)">
<title>oop_demo</title>
<!-- Node1 -->
<g id="node1" class="node">
<title>Node1</title>
<g id="a_node1"><a xlink:title=" ">
<text text-anchor="start" x="8" y="-96.9" font-family="UbuntuXX" font-weight="bold" font-size="12.00">oop_demo</text>
</a>
</g>
</g>
<!-- Node2 -->
<g id="node2" class="node">
<title>Node2</title>
<g id="a_node2"><a xlink:href="group__OOP.html#ga69c1df831a21f7ae760b64f03713680b" target="_top" xlink:title="Associations">
<text text-anchor="middle" x="211.5" y="-122.9" font-family="UbuntuXX" font-size="12.00">associations_demo</text>
</a>
</g>
</g>
<!-- Node1&#45;&gt;Node2 -->
<g id="edge1" class="edge">
<title>Node1&#45;&gt;Node2</title>
<path fill="none" stroke="midnightblue" d="M85.21,-105.74C102.08,-108.47 122.01,-111.69 140.95,-114.76"/>
<polygon fill="midnightblue" stroke="midnightblue" points="146.27,-115.62 140.97,-117.04 143.8,-115.22 141.33,-114.82 141.33,-114.82 141.33,-114.82 143.8,-115.22 141.69,-112.6 146.27,-115.62 146.27,-115.62"/>
</g>
<!-- Node3 -->
<g id="node3" class="node">
<title>Node3</title>
<g id="a_node3"><a xlink:href="group__OOP.html#ga308962b838247466c2bd477240f741f8" target="_top" xlink:title=" ">
<text text-anchor="start" x="129" y="-75.4" font-family="UbuntuXX" font-size="12.00">synchronised_encapsulated</text>
<text text-anchor="middle" x="211.5" y="-62.4" font-family="UbuntuXX" font-size="12.00">_value</text>
</a>
</g>
</g>
<!-- Node1&#45;&gt;Node3 -->
<g id="edge2" class="edge">
<title>Node1&#45;&gt;Node3</title>
<path fill="none" stroke="midnightblue" d="M85.21,-92.26C94.59,-90.74 104.92,-89.07 115.5,-87.36"/>
<polygon fill="midnightblue" stroke="midnightblue" points="120.71,-86.52 116.14,-89.54 118.25,-86.92 115.78,-87.31 115.78,-87.31 115.78,-87.31 118.25,-86.92 115.42,-85.09 120.71,-86.52 120.71,-86.52"/>
</g>
<!-- Node4 -->
<g id="node4" class="node">
<title>Node4</title>
<g id="a_node4"><a xlink:href="structChange__interface.html#a71adc7f53712cb951427c71f7a3f25fe" target="_top" xlink:title=" ">
<text text-anchor="middle" x="425" y="-122.9" font-family="UbuntuXX" font-size="12.00">Change_interface::change</text>
</a>
</g>
</g>
<!-- Node3&#45;&gt;Node4 -->
<g id="edge3" class="edge">
<title>Node3&#45;&gt;Node4</title>
<path fill="none" stroke="midnightblue" d="M283.22,-90.06C304.12,-95.39 327.08,-101.25 348.28,-106.67"/>
<polygon fill="midnightblue" stroke="midnightblue" points="353.35,-107.96 347.94,-108.9 350.92,-107.34 348.5,-106.72 348.5,-106.72 348.5,-106.72 350.92,-107.34 349.06,-104.54 353.35,-107.96 353.35,-107.96"/>
</g>
<!-- Node5 -->
<g id="node5" class="node">
<title>Node5</title>
<g id="a_node5"><a xlink:href="structGetter__interface.html#a7f0e42eb2b4dfbd8b4d4e05e63c99bed" target="_top" xlink:title=" ">
<text text-anchor="middle" x="425" y="-68.9" font-family="UbuntuXX" font-size="12.00">Getter_interface::get</text>
</a>
</g>
</g>
<!-- Node3&#45;&gt;Node5 -->
<g id="edge4" class="edge">
<title>Node3&#45;&gt;Node5</title>
<path fill="none" stroke="midnightblue" d="M302.2,-72C317.67,-72 333.62,-72 348.67,-72"/>
<polygon fill="midnightblue" stroke="midnightblue" points="353.73,-72 348.73,-74.25 351.23,-72 348.73,-72 348.73,-72 348.73,-72 351.23,-72 348.73,-69.75 353.73,-72 353.73,-72"/>
</g>
<!-- Node6 -->
<g id="node6" class="node">
<title>Node6</title>
<g id="a_node6"><a xlink:href="structSetter__interface.html#af56ff578654b5d2fec5e3626da71673c" target="_top" xlink:title=" ">
<text text-anchor="middle" x="425" y="-14.9" font-family="UbuntuXX" font-size="12.00">Setter_interface::set</text>
</a>
</g>
</g>
<!-- Node3&#45;&gt;Node6 -->
<g id="edge5" class="edge">
<title>Node3&#45;&gt;Node6</title>
<path fill="none" stroke="midnightblue" d="M283.22,-53.94C304.88,-48.41 328.75,-42.32 350.58,-36.74"/>
<polygon fill="midnightblue" stroke="midnightblue" points="355.5,-35.49 351.21,-38.91 353.08,-36.11 350.66,-36.73 350.66,-36.73 350.66,-36.73 353.08,-36.11 350.1,-34.55 355.5,-35.49 355.5,-35.49"/>
</g>
</g>
</svg>
