<?xml version="1.0" encoding="UTF-8" standalone="no"?>
<!DOCTYPE svg PUBLIC "-//W3C//DTD SVG 1.1//EN"
 "http://www.w3.org/Graphics/SVG/1.1/DTD/svg11.dtd">
<!-- Generated by graphviz version 2.43.0 (0)
 -->
<!-- Title: threads_11 Pages: 1 -->
<svg width="259pt" height="68pt"
 viewBox="0.00 0.00 259.00 68.00" xmlns="http://www.w3.org/2000/svg" xmlns:xlink="http://www.w3.org/1999/xlink">
<g id="graph0" class="graph" transform="scale(1 1) rotate(0) translate(4 64)">
<title>threads_11</title>
<!-- Node1 -->
<g id="node1" class="node">
<title>Node1</title>
<g id="a_node1"><a xlink:title=" ">
<polygon fill="#bfbfbf" stroke="transparent" points="80,-40 0,-40 0,-19 80,-19 80,-40"/>
<text text-anchor="start" x="8" y="-27.4" font-family="Helvetica,Arial,sans-serif" font-weight="bold" font-size="12.00">threads_11</text>
</a>
</g>
</g>
<!-- Node2 -->
<g id="node2" class="node">
<title>Node2</title>
<g id="a_node2"><a xlink:href="$group__threads11.html#gac92f23ee7b1928560e7a2f3b3a4fc61d" xlink:title=" ">
<text text-anchor="middle" x="183.5" y="-46.4" font-family="Helvetica,Arial,sans-serif" font-size="12.00">condition_variable_11</text>
</a>
</g>
</g>
<!-- Node1&#45;&gt;Node2 -->
<g id="edge1" class="edge">
<title>Node1&#45;&gt;Node2</title>
<path fill="none" stroke="midnightblue" d="M80.04,-35.02C89.6,-36.37 100.14,-37.86 110.7,-39.35"/>
<polygon fill="midnightblue" stroke="midnightblue" points="115.89,-40.08 110.62,-41.61 113.41,-39.73 110.94,-39.38 110.94,-39.38 110.94,-39.38 113.41,-39.73 111.25,-37.16 115.89,-40.08 115.89,-40.08"/>
</g>
<!-- Node3 -->
<g id="node3" class="node">
<title>Node3</title>
<g id="a_node3"><a xlink:href="$group__test20.html#ga3ee6c71848d9e06fcc000cf4cc8f70a7" xlink:title=" ">
<text text-anchor="middle" x="183.5" y="-7.4" font-family="Helvetica,Arial,sans-serif" font-size="12.00">f</text>
</a>
</g>
</g>
<!-- Node1&#45;&gt;Node3 -->
<g id="edge2" class="edge">
<title>Node1&#45;&gt;Node3</title>
<path fill="none" stroke="midnightblue" d="M80.04,-24.26C107.34,-20.59 142.58,-15.86 163.81,-13.01"/>
<polygon fill="midnightblue" stroke="midnightblue" points="168.9,-12.33 164.24,-15.22 166.42,-12.66 163.94,-12.99 163.94,-12.99 163.94,-12.99 166.42,-12.66 163.64,-10.76 168.9,-12.33 168.9,-12.33"/>
</g>
</g>
</svg>
