<?xml version="1.0" encoding="UTF-8" standalone="no"?>
<!DOCTYPE svg PUBLIC "-//W3C//DTD SVG 1.1//EN"
 "http://www.w3.org/Graphics/SVG/1.1/DTD/svg11.dtd">
<!-- Generated by graphviz version 2.43.0 (0)
 -->
<!-- Title: architectural_patterns_demo Pages: 1 -->
<svg width="707pt" height="107pt"
 viewBox="0.00 0.00 707.00 107.00" xmlns="http://www.w3.org/2000/svg" xmlns:xlink="http://www.w3.org/1999/xlink">
<g id="graph0" class="graph" transform="scale(1 1) rotate(0) translate(4 103)">
<title>architectural_patterns_demo</title>
<!-- Node1 -->
<g id="node1" class="node">
<title>Node1</title>
<g id="a_node1"><a xlink:title=" ">
<polygon fill="#bfbfbf" stroke="transparent" points="182,-60 0,-60 0,-39 182,-39 182,-60"/>
<text text-anchor="start" x="8" y="-47.4" font-family="Helvetica,Arial,sans-serif" font-weight="bold" font-size="12.00">architectural_patterns_demo</text>
</a>
</g>
</g>
<!-- Node2 -->
<g id="node2" class="node">
<title>Node2</title>
<g id="a_node2"><a xlink:href="$structController.html#af9531d07a0bf9d651c6830e88b64f0ff" xlink:title=" ">
<text text-anchor="middle" x="292.5" y="-85.4" font-family="Helvetica,Arial,sans-serif" font-size="12.00">Controller::command</text>
</a>
</g>
</g>
<!-- Node1&#45;&gt;Node2 -->
<g id="edge1" class="edge">
<title>Node1&#45;&gt;Node2</title>
<path fill="none" stroke="midnightblue" d="M145.72,-60C172.56,-65.25 205.09,-71.61 232.6,-76.99"/>
<polygon fill="midnightblue" stroke="midnightblue" points="237.68,-77.98 232.34,-79.23 235.23,-77.5 232.77,-77.02 232.77,-77.02 232.77,-77.02 235.23,-77.5 233.2,-74.81 237.68,-77.98 237.68,-77.98"/>
</g>
<!-- Node5 -->
<g id="node5" class="node">
<title>Node5</title>
<g id="a_node5"><a xlink:href="$structSubject.html#a156c54b0ef570d0439f2347643192dc3" xlink:title=" ">
<text text-anchor="middle" x="623" y="-46.4" font-family="Helvetica,Arial,sans-serif" font-size="12.00">Subject::notify_observers</text>
</a>
</g>
</g>
<!-- Node1&#45;&gt;Node5 -->
<g id="edge5" class="edge">
<title>Node1&#45;&gt;Node5</title>
<path fill="none" stroke="midnightblue" d="M182.21,-49.5C283.09,-49.5 444.97,-49.5 541.65,-49.5"/>
<polygon fill="midnightblue" stroke="midnightblue" points="546.78,-49.5 541.78,-51.75 544.28,-49.5 541.78,-49.5 541.78,-49.5 541.78,-49.5 544.28,-49.5 541.78,-47.25 546.78,-49.5 546.78,-49.5"/>
</g>
<!-- Node6 -->
<g id="node6" class="node">
<title>Node6</title>
<g id="a_node6"><a xlink:href="$structModel.html#a60ccf0ab3d641769ce8663a5c6f811b7" xlink:title=" ">
<text text-anchor="middle" x="292.5" y="-7.4" font-family="Helvetica,Arial,sans-serif" font-size="12.00">Model::register_observer</text>
</a>
</g>
</g>
<!-- Node1&#45;&gt;Node6 -->
<g id="edge6" class="edge">
<title>Node1&#45;&gt;Node6</title>
<path fill="none" stroke="midnightblue" d="M145.72,-39C172.56,-33.75 205.09,-27.39 232.6,-22.01"/>
<polygon fill="midnightblue" stroke="midnightblue" points="237.68,-21.02 233.2,-24.19 235.23,-21.5 232.77,-21.98 232.77,-21.98 232.77,-21.98 235.23,-21.5 232.34,-19.77 237.68,-21.02 237.68,-21.02"/>
</g>
<!-- Node3 -->
<g id="node3" class="node">
<title>Node3</title>
<g id="a_node3"><a xlink:href="$structModel.html#a9000558a25601a58c19f903bfb660e64" xlink:title=" ">
<text text-anchor="middle" x="457" y="-85.4" font-family="Helvetica,Arial,sans-serif" font-size="12.00">Model::command</text>
</a>
</g>
</g>
<!-- Node2&#45;&gt;Node3 -->
<g id="edge2" class="edge">
<title>Node2&#45;&gt;Node3</title>
<path fill="none" stroke="midnightblue" d="M356.79,-88.5C370.25,-88.5 384.39,-88.5 397.65,-88.5"/>
<polygon fill="midnightblue" stroke="midnightblue" points="402.88,-88.5 397.88,-90.75 400.38,-88.5 397.88,-88.5 397.88,-88.5 397.88,-88.5 400.38,-88.5 397.88,-86.25 402.88,-88.5 402.88,-88.5"/>
</g>
<!-- Node4 -->
<g id="node4" class="node">
<title>Node4</title>
<g id="a_node4"><a xlink:href="$structCommand.html#acbc1a7f30a3962728ce2e167a032ac87" xlink:title=" ">
<text text-anchor="middle" x="623" y="-85.4" font-family="Helvetica,Arial,sans-serif" font-size="12.00">Command::execute</text>
</a>
</g>
</g>
<!-- Node3&#45;&gt;Node4 -->
<g id="edge3" class="edge">
<title>Node3&#45;&gt;Node4</title>
<path fill="none" stroke="midnightblue" d="M511.25,-88.5C526.2,-88.5 542.62,-88.5 558.13,-88.5"/>
<polygon fill="midnightblue" stroke="midnightblue" points="563.35,-88.5 558.35,-90.75 560.85,-88.5 558.35,-88.5 558.35,-88.5 558.35,-88.5 560.85,-88.5 558.35,-86.25 563.35,-88.5 563.35,-88.5"/>
</g>
<!-- Node3&#45;&gt;Node5 -->
<g id="edge4" class="edge">
<title>Node3&#45;&gt;Node5</title>
<path fill="none" stroke="midnightblue" d="M502.38,-77.95C524.08,-72.79 550.26,-66.56 572.59,-61.25"/>
<polygon fill="midnightblue" stroke="midnightblue" points="577.58,-60.06 573.24,-63.41 575.15,-60.64 572.72,-61.22 572.72,-61.22 572.72,-61.22 575.15,-60.64 572.2,-59.03 577.58,-60.06 577.58,-60.06"/>
</g>
</g>
</svg>
