<?xml version="1.0" encoding="UTF-8" standalone="no"?>
<!DOCTYPE svg PUBLIC "-//W3C//DTD SVG 1.1//EN"
 "http://www.w3.org/Graphics/SVG/1.1/DTD/svg11.dtd">
<!-- Generated by graphviz version 2.43.0 (0)
 -->
<!-- Title: Graphical Class Hierarchy Pages: 1 -->
<svg width="181pt" height="68pt"
 viewBox="0.00 0.00 181.00 68.00" xmlns="http://www.w3.org/2000/svg" xmlns:xlink="http://www.w3.org/1999/xlink">
<g id="graph0" class="graph" transform="scale(1 1) rotate(0) translate(4 64)">
<title>Graphical Class Hierarchy</title>
<!-- Node0 -->
<g id="node1" class="node">
<title>Node0</title>
<g id="a_node1"><a xlink:title=" ">
<text text-anchor="middle" x="14.5" y="-26.4" font-family="Helvetica,Arial,sans-serif" font-size="12.00">Ts</text>
</a>
</g>
</g>
<!-- Node1 -->
<g id="node2" class="node">
<title>Node1</title>
<g id="a_node2"><a xlink:href="$structVisitor__var.html" xlink:title=" ">
<text text-anchor="middle" x="119" y="-46.4" font-family="Helvetica,Arial,sans-serif" font-size="12.00">Visitor_var&lt; Ts &gt;</text>
</a>
</g>
</g>
<!-- Node0&#45;&gt;Node1 -->
<g id="edge1" class="edge">
<title>Node0&#45;&gt;Node1</title>
<path fill="none" stroke="midnightblue" d="M34.41,-33.19C43.54,-34.97 54.98,-37.2 66.44,-39.44"/>
<polygon fill="midnightblue" stroke="midnightblue" points="29.32,-32.2 34.66,-30.95 31.78,-32.68 34.23,-33.15 34.23,-33.15 34.23,-33.15 31.78,-32.68 33.8,-35.36 29.32,-32.2 29.32,-32.2"/>
</g>
<!-- Node2 -->
<g id="node3" class="node">
<title>Node2</title>
<g id="a_node3"><a xlink:href="$structoverloaded.html" xlink:title=" ">
<text text-anchor="middle" x="119" y="-7.4" font-family="Helvetica,Arial,sans-serif" font-size="12.00">overloaded&lt; Ts &gt;</text>
</a>
</g>
</g>
<!-- Node0&#45;&gt;Node2 -->
<g id="edge2" class="edge">
<title>Node0&#45;&gt;Node2</title>
<path fill="none" stroke="midnightblue" d="M34.42,-25.99C43.05,-24.39 53.76,-22.41 64.59,-20.4"/>
<polygon fill="midnightblue" stroke="midnightblue" points="29.32,-26.94 33.83,-23.81 31.78,-26.48 34.24,-26.03 34.24,-26.03 34.24,-26.03 31.78,-26.48 34.65,-28.24 29.32,-26.94 29.32,-26.94"/>
</g>
</g>
</svg>
