<?xml version="1.0" encoding="UTF-8" standalone="no"?>
<!DOCTYPE svg PUBLIC "-//W3C//DTD SVG 1.1//EN"
 "http://www.w3.org/Graphics/SVG/1.1/DTD/svg11.dtd">
<!-- Generated by graphviz version 2.43.0 (0)
 -->
<!-- Title: Graphical Class Hierarchy Pages: 1 -->
<svg width="277pt" height="68pt"
 viewBox="0.00 0.00 277.00 68.00" xmlns="http://www.w3.org/2000/svg" xmlns:xlink="http://www.w3.org/1999/xlink">
<g id="graph0" class="graph" transform="scale(1 1) rotate(0) translate(4 64)">
<title>Graphical Class Hierarchy</title>
<!-- Node0 -->
<g id="node1" class="node">
<title>Node0</title>
<g id="a_node1"><a xlink:href="$structCommon.html" xlink:title=" ">
<text text-anchor="middle" x="32.5" y="-26.4" font-family="Helvetica,Arial,sans-serif" font-size="12.00">Common</text>
</a>
</g>
</g>
<!-- Node1 -->
<g id="node2" class="node">
<title>Node1</title>
<g id="a_node2"><a xlink:href="$structVirtual__A.html" xlink:title="ref">
<text text-anchor="middle" x="134.5" y="-46.4" font-family="Helvetica,Arial,sans-serif" font-size="12.00">Virtual_A</text>
</a>
</g>
</g>
<!-- Node0&#45;&gt;Node1 -->
<g id="edge1" class="edge">
<title>Node0&#45;&gt;Node1</title>
<path fill="none" stroke="midnightblue" d="M70.27,-36.85C80.24,-38.85 90.96,-40.99 100.69,-42.94"/>
<polygon fill="midnightblue" stroke="midnightblue" points="65.14,-35.83 70.48,-34.6 67.59,-36.32 70.04,-36.81 70.04,-36.81 70.04,-36.81 67.59,-36.32 69.6,-39.02 65.14,-35.83 65.14,-35.83"/>
</g>
<!-- Node3 -->
<g id="node4" class="node">
<title>Node3</title>
<g id="a_node4"><a xlink:href="$structVirtual__B.html" xlink:title=" ">
<text text-anchor="middle" x="134.5" y="-7.4" font-family="Helvetica,Arial,sans-serif" font-size="12.00">Virtual_B</text>
</a>
</g>
</g>
<!-- Node0&#45;&gt;Node3 -->
<g id="edge3" class="edge">
<title>Node0&#45;&gt;Node3</title>
<path fill="none" stroke="midnightblue" d="M70.27,-22.51C80.24,-20.62 90.96,-18.58 100.69,-16.73"/>
<polygon fill="midnightblue" stroke="midnightblue" points="65.14,-23.49 69.63,-20.34 67.6,-23.02 70.05,-22.55 70.05,-22.55 70.05,-22.55 67.6,-23.02 70.47,-24.77 65.14,-23.49 65.14,-23.49"/>
</g>
<!-- Node2 -->
<g id="node3" class="node">
<title>Node2</title>
<g id="a_node3"><a xlink:href="$structDiamond.html" xlink:title=" ">
<text text-anchor="middle" x="236.5" y="-26.4" font-family="Helvetica,Arial,sans-serif" font-size="12.00">Diamond</text>
</a>
</g>
</g>
<!-- Node1&#45;&gt;Node2 -->
<g id="edge2" class="edge">
<title>Node1&#45;&gt;Node2</title>
<path fill="none" stroke="midnightblue" d="M173.4,-41.92C183.39,-39.92 194.07,-37.79 203.7,-35.86"/>
<polygon fill="midnightblue" stroke="midnightblue" points="168.24,-42.95 172.71,-39.76 170.7,-42.46 173.15,-41.97 173.15,-41.97 173.15,-41.97 170.7,-42.46 173.59,-44.18 168.24,-42.95 168.24,-42.95"/>
</g>
<!-- Node3&#45;&gt;Node2 -->
<g id="edge4" class="edge">
<title>Node3&#45;&gt;Node2</title>
<path fill="none" stroke="midnightblue" d="M173.4,-17.7C183.39,-19.6 194.07,-21.63 203.7,-23.46"/>
<polygon fill="midnightblue" stroke="midnightblue" points="168.24,-16.72 173.58,-15.44 170.7,-17.19 173.16,-17.65 173.16,-17.65 173.16,-17.65 170.7,-17.19 172.74,-19.87 168.24,-16.72 168.24,-16.72"/>
</g>
</g>
</svg>
