<?xml version="1.0" encoding="UTF-8" standalone="no"?>
<!DOCTYPE svg PUBLIC "-//W3C//DTD SVG 1.1//EN"
 "http://www.w3.org/Graphics/SVG/1.1/DTD/svg11.dtd">
<!-- Generated by graphviz version 2.43.0 (0)
 -->
<!-- Title: Graphical Class Hierarchy Pages: 1 -->
<svg width="224pt" height="94pt"
 viewBox="0.00 0.00 224.00 94.00" xmlns="http://www.w3.org/2000/svg" xmlns:xlink="http://www.w3.org/1999/xlink">
<g id="graph0" class="graph" transform="scale(1 1) rotate(0) translate(4 90)">
<title>Graphical Class Hierarchy</title>
<!-- Node0 -->
<g id="node1" class="node">
<title>Node0</title>
<g id="a_node1"><a xlink:title=" ">
<text text-anchor="middle" x="25" y="-39.9" font-family="Helvetica,Arial,sans-serif" font-size="12.00">queue</text>
</a>
</g>
</g>
<!-- Node1 -->
<g id="node2" class="node">
<title>Node1</title>
<g id="a_node2"><a xlink:href="$classSynchronized__queue.html" xlink:title=" ">
<text text-anchor="start" x="94" y="-72.4" font-family="Helvetica,Arial,sans-serif" font-size="12.00">Synchronized_queue</text>
<text text-anchor="middle" x="151" y="-59.4" font-family="Helvetica,Arial,sans-serif" font-size="12.00">&lt; Command &gt;</text>
</a>
</g>
</g>
<!-- Node0&#45;&gt;Node1 -->
<g id="edge1" class="edge">
<title>Node0&#45;&gt;Node1</title>
<path fill="none" stroke="#8b1a1a" d="M55.22,-49.13C64.52,-51.08 75.19,-53.31 85.95,-55.57"/>
<polygon fill="#8b1a1a" stroke="#8b1a1a" points="50.2,-48.07 55.56,-46.9 52.65,-48.59 55.1,-49.1 55.1,-49.1 55.1,-49.1 52.65,-48.59 54.63,-51.3 50.2,-48.07 50.2,-48.07"/>
</g>
<!-- Node2 -->
<g id="node3" class="node">
<title>Node2</title>
<g id="a_node3"><a xlink:href="$classSynchronized__queue.html" xlink:title=" ">
<text text-anchor="start" x="94" y="-20.4" font-family="Helvetica,Arial,sans-serif" font-size="12.00">Synchronized_queue</text>
<text text-anchor="middle" x="151" y="-7.4" font-family="Helvetica,Arial,sans-serif" font-size="12.00">&lt; T, Container &gt;</text>
</a>
</g>
</g>
<!-- Node0&#45;&gt;Node2 -->
<g id="edge2" class="edge">
<title>Node0&#45;&gt;Node2</title>
<path fill="none" stroke="#8b1a1a" d="M55.22,-36.87C64.52,-34.92 75.19,-32.69 85.95,-30.43"/>
<polygon fill="#8b1a1a" stroke="#8b1a1a" points="50.2,-37.93 54.63,-34.7 52.65,-37.41 55.1,-36.9 55.1,-36.9 55.1,-36.9 52.65,-37.41 55.56,-39.1 50.2,-37.93 50.2,-37.93"/>
</g>
</g>
</svg>
