<?xml version="1.0" encoding="UTF-8" standalone="no"?>
<!DOCTYPE svg PUBLIC "-//W3C//DTD SVG 1.1//EN"
 "http://www.w3.org/Graphics/SVG/1.1/DTD/svg11.dtd">
<!-- Generated by graphviz version 2.43.0 (0)
 -->
<!-- Title: Graphical Class Hierarchy Pages: 1 -->
<svg width="400pt" height="107pt"
 viewBox="0.00 0.00 400.00 107.00" xmlns="http://www.w3.org/2000/svg" xmlns:xlink="http://www.w3.org/1999/xlink">
<g id="graph0" class="graph" transform="scale(1 1) rotate(0) translate(4 103)">
<title>Graphical Class Hierarchy</title>
<!-- Node0 -->
<g id="node1" class="node">
<title>Node0</title>
<g id="a_node1"><a xlink:href="$structChange__interface.html" xlink:title="is a sample of changer abstract interface for Synchronized_encapsulated_value">
<text text-anchor="middle" x="94" y="-85.4" font-family="Helvetica,Arial,sans-serif" font-size="12.00">Change_interface&lt; ValueType &gt;</text>
</a>
</g>
</g>
<!-- Node1 -->
<g id="node2" class="node">
<title>Node1</title>
<g id="a_node2"><a xlink:href="$classSynchronized__encapsulated__value.html" xlink:title="encapsulating class with only public accessor and mutator intrfaces">
<text text-anchor="start" x="232" y="-52.9" font-family="Helvetica,Arial,sans-serif" font-size="12.00">Synchronized_encapsulated</text>
<text text-anchor="middle" x="308" y="-39.9" font-family="Helvetica,Arial,sans-serif" font-size="12.00">_value&lt; ValueType &gt;</text>
</a>
</g>
</g>
<!-- Node0&#45;&gt;Node1 -->
<g id="edge1" class="edge">
<title>Node0&#45;&gt;Node1</title>
<path fill="none" stroke="midnightblue" d="M157.06,-77.08C177.97,-73.24 201.65,-68.88 223.91,-64.78"/>
<polygon fill="midnightblue" stroke="midnightblue" points="152.09,-78 156.6,-74.88 154.55,-77.55 157.01,-77.09 157.01,-77.09 157.01,-77.09 154.55,-77.55 157.42,-79.31 152.09,-78 152.09,-78"/>
</g>
<!-- Node2 -->
<g id="node3" class="node">
<title>Node2</title>
<g id="a_node3"><a xlink:href="$structGetter__interface.html" xlink:title="is a sample of getter abstract interface for Synchronized_encapsulated_value">
<text text-anchor="middle" x="94" y="-46.4" font-family="Helvetica,Arial,sans-serif" font-size="12.00">Getter_interface&lt; ValueType &gt;</text>
</a>
</g>
</g>
<!-- Node2&#45;&gt;Node1 -->
<g id="edge2" class="edge">
<title>Node2&#45;&gt;Node1</title>
<path fill="none" stroke="midnightblue" d="M188.99,-49.5C200.57,-49.5 212.35,-49.5 223.76,-49.5"/>
<polygon fill="midnightblue" stroke="midnightblue" points="183.68,-49.5 188.68,-47.25 186.18,-49.5 188.68,-49.5 188.68,-49.5 188.68,-49.5 186.18,-49.5 188.68,-51.75 183.68,-49.5 183.68,-49.5"/>
</g>
<!-- Node3 -->
<g id="node4" class="node">
<title>Node3</title>
<g id="a_node4"><a xlink:href="$structSetter__interface.html" xlink:title="is a sample of setter abstract interface for Synchronized_encapsulated_value">
<text text-anchor="middle" x="94" y="-7.4" font-family="Helvetica,Arial,sans-serif" font-size="12.00">Setter_interface&lt; ValueType &gt;</text>
</a>
</g>
</g>
<!-- Node3&#45;&gt;Node1 -->
<g id="edge3" class="edge">
<title>Node3&#45;&gt;Node1</title>
<path fill="none" stroke="midnightblue" d="M157.06,-21.92C177.97,-25.76 201.65,-30.12 223.91,-34.22"/>
<polygon fill="midnightblue" stroke="midnightblue" points="152.09,-21 157.42,-19.69 154.55,-21.45 157.01,-21.91 157.01,-21.91 157.01,-21.91 154.55,-21.45 156.6,-24.12 152.09,-21 152.09,-21"/>
</g>
</g>
</svg>
