<?xml version="1.0" encoding="UTF-8" standalone="no"?>
<!DOCTYPE svg PUBLIC "-//W3C//DTD SVG 1.1//EN"
 "http://www.w3.org/Graphics/SVG/1.1/DTD/svg11.dtd">
<!-- Generated by graphviz version 2.43.0 (0)
 -->
<!-- Title: Graphical Class Hierarchy Pages: 1 -->
<svg width="251pt" height="302pt"
 viewBox="0.00 0.00 251.00 302.00" xmlns="http://www.w3.org/2000/svg" xmlns:xlink="http://www.w3.org/1999/xlink">
<g id="graph0" class="graph" transform="scale(1 1) rotate(0) translate(4 298)">
<title>Graphical Class Hierarchy</title>
<!-- Node0 -->
<g id="node1" class="node">
<title>Node0</title>
<g id="a_node1"><a xlink:href="$structAbstract__factory.html" xlink:title=" ">
<text text-anchor="middle" x="51.5" y="-260.4" font-family="Helvetica,Arial,sans-serif" font-size="12.00">Abstract_factory</text>
</a>
</g>
</g>
<!-- Node1 -->
<g id="node2" class="node">
<title>Node1</title>
<g id="a_node2"><a xlink:href="$structPrototype.html" xlink:title="is the factory of himself">
<text text-anchor="middle" x="191" y="-241.4" font-family="Helvetica,Arial,sans-serif" font-size="12.00">Prototype</text>
</a>
</g>
</g>
<!-- Node0&#45;&gt;Node1 -->
<g id="edge1" class="edge">
<title>Node0&#45;&gt;Node1</title>
<path fill="none" stroke="midnightblue" d="M108.39,-255.78C124.86,-253.5 142.36,-251.08 156.91,-249.07"/>
<polygon fill="midnightblue" stroke="midnightblue" points="103.31,-256.48 107.95,-253.57 105.79,-256.14 108.26,-255.79 108.26,-255.79 108.26,-255.79 105.79,-256.14 108.57,-258.02 103.31,-256.48 103.31,-256.48"/>
</g>
<!-- Node9 -->
<g id="node3" class="node">
<title>Node9</title>
<g id="a_node3"><a xlink:href="$structSample__factory.html" xlink:title=" ">
<text text-anchor="middle" x="191" y="-280.4" font-family="Helvetica,Arial,sans-serif" font-size="12.00">Sample_factory</text>
</a>
</g>
</g>
<!-- Node0&#45;&gt;Node9 -->
<g id="edge2" class="edge">
<title>Node0&#45;&gt;Node9</title>
<path fill="none" stroke="midnightblue" d="M108.45,-271.64C119,-273.17 129.97,-274.77 140.32,-276.27"/>
<polygon fill="midnightblue" stroke="midnightblue" points="103.31,-270.89 108.58,-269.38 105.78,-271.25 108.26,-271.61 108.26,-271.61 108.26,-271.61 105.78,-271.25 107.93,-273.84 103.31,-270.89 103.31,-270.89"/>
</g>
<!-- Node2 -->
<g id="node4" class="node">
<title>Node2</title>
<g id="a_node4"><a xlink:href="$structInterface.html" xlink:title="is a common pure virtual interface">
<text text-anchor="middle" x="51.5" y="-124.4" font-family="Helvetica,Arial,sans-serif" font-size="12.00">Interface</text>
</a>
</g>
</g>
<!-- Node2&#45;&gt;Node1 -->
<g id="edge7" class="edge">
<title>Node2&#45;&gt;Node1</title>
<path fill="none" stroke="midnightblue" d="M62.12,-142.43C76.49,-163.64 105.48,-202.46 139,-225.5 144.45,-229.25 150.73,-232.36 156.99,-234.92"/>
<polygon fill="midnightblue" stroke="midnightblue" points="59.28,-138.19 63.93,-141.09 60.67,-140.26 62.06,-142.34 62.06,-142.34 62.06,-142.34 60.67,-140.26 60.19,-143.59 59.28,-138.19 59.28,-138.19"/>
</g>
<!-- Node3 -->
<g id="node5" class="node">
<title>Node3</title>
<g id="a_node5"><a xlink:href="$structActive__object.html" xlink:title="Active object">
<text text-anchor="middle" x="191" y="-202.4" font-family="Helvetica,Arial,sans-serif" font-size="12.00">Active_object</text>
</a>
</g>
</g>
<!-- Node2&#45;&gt;Node3 -->
<g id="edge3" class="edge">
<title>Node2&#45;&gt;Node3</title>
<path fill="none" stroke="midnightblue" d="M70.02,-141.33C86.96,-154.23 113.7,-173.41 139,-186.5 144.96,-189.58 151.53,-192.42 157.93,-194.9"/>
<polygon fill="midnightblue" stroke="midnightblue" points="65.94,-138.19 71.27,-139.45 67.92,-139.71 69.9,-141.24 69.9,-141.24 69.9,-141.24 67.92,-139.71 68.53,-143.02 65.94,-138.19 65.94,-138.19"/>
</g>
<!-- Node4 -->
<g id="node6" class="node">
<title>Node4</title>
<g id="a_node6"><a xlink:href="$structBridge.html" xlink:title="is a wrapper using different from Standalone interface. AKA Adapter">
<text text-anchor="middle" x="191" y="-163.4" font-family="Helvetica,Arial,sans-serif" font-size="12.00">Bridge</text>
</a>
</g>
</g>
<!-- Node2&#45;&gt;Node4 -->
<g id="edge4" class="edge">
<title>Node2&#45;&gt;Node4</title>
<path fill="none" stroke="midnightblue" d="M88.02,-137.58C112.02,-144.38 143.12,-153.2 164.64,-159.31"/>
<polygon fill="midnightblue" stroke="midnightblue" points="83.02,-136.16 88.44,-135.36 85.42,-136.84 87.83,-137.52 87.83,-137.52 87.83,-137.52 85.42,-136.84 87.21,-139.68 83.02,-136.16 83.02,-136.16"/>
</g>
<!-- Node5 -->
<g id="node7" class="node">
<title>Node5</title>
<g id="a_node7"><a xlink:href="$structComposite.html" xlink:title=" ">
<text text-anchor="middle" x="191" y="-124.4" font-family="Helvetica,Arial,sans-serif" font-size="12.00">Composite</text>
</a>
</g>
</g>
<!-- Node2&#45;&gt;Node5 -->
<g id="edge5" class="edge">
<title>Node2&#45;&gt;Node5</title>
<path fill="none" stroke="midnightblue" d="M88.03,-127.5C108.21,-127.5 133.41,-127.5 153.72,-127.5"/>
<polygon fill="midnightblue" stroke="midnightblue" points="83.02,-127.5 88.02,-125.25 85.52,-127.5 88.02,-127.5 88.02,-127.5 88.02,-127.5 85.52,-127.5 88.02,-129.75 83.02,-127.5 83.02,-127.5"/>
</g>
<!-- Node6 -->
<g id="node8" class="node">
<title>Node6</title>
<g id="a_node8"><a xlink:href="$structDecorator.html" xlink:title="is a partial wrapper of an object with same as wrapped object Interface">
<text text-anchor="middle" x="191" y="-85.4" font-family="Helvetica,Arial,sans-serif" font-size="12.00">Decorator</text>
</a>
</g>
</g>
<!-- Node2&#45;&gt;Node6 -->
<g id="edge6" class="edge">
<title>Node2&#45;&gt;Node6</title>
<path fill="none" stroke="midnightblue" d="M87.96,-117.44C108.98,-111.48 135.47,-103.97 156.19,-98.09"/>
<polygon fill="midnightblue" stroke="midnightblue" points="83.02,-118.84 87.21,-115.32 85.42,-118.16 87.83,-117.48 87.83,-117.48 87.83,-117.48 85.42,-118.16 88.44,-119.64 83.02,-118.84 83.02,-118.84"/>
</g>
<!-- Node7 -->
<g id="node9" class="node">
<title>Node7</title>
<g id="a_node9"><a xlink:href="$structProxy.html" xlink:title="is a opaque wrapper with same as wrapped object Interface">
<text text-anchor="middle" x="191" y="-46.4" font-family="Helvetica,Arial,sans-serif" font-size="12.00">Proxy</text>
</a>
</g>
</g>
<!-- Node2&#45;&gt;Node7 -->
<g id="edge8" class="edge">
<title>Node2&#45;&gt;Node7</title>
<path fill="none" stroke="midnightblue" d="M70.41,-113.8C87.43,-101.21 114.04,-82.56 139,-69.5 148.02,-64.78 158.4,-60.51 167.44,-57.14"/>
<polygon fill="midnightblue" stroke="midnightblue" points="66.3,-116.87 68.96,-112.07 68.3,-115.37 70.31,-113.88 70.31,-113.88 70.31,-113.88 68.3,-115.37 71.65,-115.68 66.3,-116.87 66.3,-116.87"/>
</g>
<!-- Node8 -->
<g id="node10" class="node">
<title>Node8</title>
<g id="a_node10"><a xlink:href="$structSample__product.html" xlink:title=" ">
<text text-anchor="middle" x="191" y="-7.4" font-family="Helvetica,Arial,sans-serif" font-size="12.00">Sample_product</text>
</a>
</g>
</g>
<!-- Node2&#45;&gt;Node8 -->
<g id="edge9" class="edge">
<title>Node2&#45;&gt;Node8</title>
<path fill="none" stroke="midnightblue" d="M62.21,-112.8C76.69,-91.91 105.81,-53.61 139,-30.5 144.31,-26.8 150.39,-23.66 156.47,-21.04"/>
<polygon fill="midnightblue" stroke="midnightblue" points="59.35,-116.98 60.32,-111.59 60.76,-114.92 62.17,-112.86 62.17,-112.86 62.17,-112.86 60.76,-114.92 64.03,-114.13 59.35,-116.98 59.35,-116.98"/>
</g>
</g>
</svg>
