<?xml version="1.0" encoding="UTF-8" standalone="no"?>
<!DOCTYPE svg PUBLIC "-//W3C//DTD SVG 1.1//EN"
 "http://www.w3.org/Graphics/SVG/1.1/DTD/svg11.dtd">
<!-- Generated by graphviz version 2.43.0 (0)
 -->
<!-- Title: patterns.cpp Pages: 1 -->
<svg width="184pt" height="86pt"
 viewBox="0.00 0.00 184.00 86.00" xmlns="http://www.w3.org/2000/svg" xmlns:xlink="http://www.w3.org/1999/xlink">
<g id="graph0" class="graph" transform="scale(1 1) rotate(0) translate(4 82)">
<title>patterns.cpp</title>
<!-- Node1 -->
<g id="node1" class="node">
<title>Node1</title>
<g id="a_node1"><a xlink:title="skeleton C++ examples of OOP and Design patterns">
<polygon fill="#bfbfbf" stroke="transparent" points="134,-78 45,-78 45,-57 134,-57 134,-78"/>
<text text-anchor="start" x="53" y="-65.4" font-family="Helvetica,Arial,sans-serif" font-weight="bold" font-size="12.00">patterns.cpp</text>
</a>
</g>
</g>
<!-- Node2 -->
<g id="node2" class="node">
<title>Node2</title>
<g id="a_node2"><a xlink:title=" ">
<text text-anchor="middle" x="41.5" y="-7.4" font-family="Helvetica,Arial,sans-serif" font-size="12.00">bits/stdc++.h</text>
</a>
</g>
</g>
<!-- Node1&#45;&gt;Node2 -->
<g id="edge1" class="edge">
<title>Node1&#45;&gt;Node2</title>
<path fill="none" stroke="midnightblue" d="M81.14,-56.92C73.52,-48.19 62.19,-35.21 53.59,-25.35"/>
<polygon fill="midnightblue" stroke="midnightblue" points="50.09,-21.34 55.07,-23.63 51.73,-23.22 53.38,-25.11 53.38,-25.11 53.38,-25.11 51.73,-23.22 51.68,-26.59 50.09,-21.34 50.09,-21.34"/>
</g>
<!-- Node3 -->
<g id="node3" class="node">
<title>Node3</title>
<g id="a_node3"><a xlink:title=" ">
<text text-anchor="middle" x="138.5" y="-7.4" font-family="Helvetica,Arial,sans-serif" font-size="12.00">../Tracer.hh</text>
</a>
</g>
</g>
<!-- Node1&#45;&gt;Node3 -->
<g id="edge2" class="edge">
<title>Node1&#45;&gt;Node3</title>
<path fill="none" stroke="midnightblue" d="M98.04,-56.92C105.88,-48.12 117.59,-34.97 126.39,-25.09"/>
<polygon fill="midnightblue" stroke="midnightblue" points="129.73,-21.34 128.09,-26.57 128.07,-23.21 126.41,-25.07 126.41,-25.07 126.41,-25.07 128.07,-23.21 124.73,-23.58 129.73,-21.34 129.73,-21.34"/>
</g>
</g>
</svg>
