<?xml version="1.0" encoding="UTF-8" standalone="no"?>
<!DOCTYPE svg PUBLIC "-//W3C//DTD SVG 1.1//EN"
 "http://www.w3.org/Graphics/SVG/1.1/DTD/svg11.dtd">
<!-- Generated by graphviz version 2.43.0 (0)
 -->
<!-- Title: Model::register_observer Pages: 1 -->
<svg width="453pt" height="29pt"
 viewBox="0.00 0.00 453.00 29.00" xmlns="http://www.w3.org/2000/svg" xmlns:xlink="http://www.w3.org/1999/xlink">
<g id="graph0" class="graph" transform="scale(1 1) rotate(0) translate(4 25)">
<title>Model::register_observer</title>
<!-- Node1 -->
<g id="node1" class="node">
<title>Node1</title>
<g id="a_node1"><a xlink:title=" ">
<polygon fill="#bfbfbf" stroke="transparent" points="445,-21 284,-21 284,0 445,0 445,-21"/>
<text text-anchor="start" x="292" y="-8.4" font-family="Helvetica,Arial,sans-serif" font-weight="bold" font-size="12.00">Model::register_observer</text>
</a>
</g>
</g>
<!-- Node2 -->
<g id="node2" class="node">
<title>Node2</title>
<g id="a_node2"><a xlink:href="$group__AP.html#gaa52033e9b5a5923880bf57a9afb7e751" xlink:title=" ">
<text text-anchor="middle" x="163.5" y="-7.4" font-family="Helvetica,Arial,sans-serif" font-size="12.00">architectural_patterns_demo</text>
</a>
</g>
</g>
<!-- Node1&#45;&gt;Node2 -->
<g id="edge1" class="edge">
<title>Node1&#45;&gt;Node2</title>
<path fill="none" stroke="midnightblue" d="M278.71,-10.5C268.58,-10.5 258.24,-10.5 248.12,-10.5"/>
<polygon fill="midnightblue" stroke="midnightblue" points="283.99,-10.5 278.99,-12.75 281.49,-10.5 278.99,-10.5 278.99,-10.5 278.99,-10.5 281.49,-10.5 278.99,-8.25 283.99,-10.5 283.99,-10.5"/>
</g>
<!-- Node3 -->
<g id="node3" class="node">
<title>Node3</title>
<g id="a_node3"><a xlink:href="$group__DP.html#gae66f6b31b5ad750f1fe042a706a4e3d4" xlink:title=" ">
<text text-anchor="middle" x="21.5" y="-7.4" font-family="Helvetica,Arial,sans-serif" font-size="12.00">main</text>
</a>
</g>
</g>
<!-- Node2&#45;&gt;Node3 -->
<g id="edge2" class="edge">
<title>Node2&#45;&gt;Node3</title>
<path fill="none" stroke="midnightblue" d="M73.43,-10.5C62.21,-10.5 51.69,-10.5 43.16,-10.5"/>
<polygon fill="midnightblue" stroke="midnightblue" points="78.64,-10.5 73.64,-12.75 76.14,-10.5 73.64,-10.5 73.64,-10.5 73.64,-10.5 76.14,-10.5 73.64,-8.25 78.64,-10.5 78.64,-10.5"/>
</g>
</g>
</svg>
