<?xml version="1.0" encoding="UTF-8" standalone="no"?>
<!DOCTYPE svg PUBLIC "-//W3C//DTD SVG 1.1//EN"
 "http://www.w3.org/Graphics/SVG/1.1/DTD/svg11.dtd">
<!-- Generated by graphviz version 2.43.0 (0)
 -->
<!-- Title: Visitor::visit Pages: 1 -->
<svg width="603pt" height="98pt"
 viewBox="0.00 0.00 603.00 98.00" xmlns="http://www.w3.org/2000/svg" xmlns:xlink="http://www.w3.org/1999/xlink">
<g id="graph0" class="graph" transform="scale(1 1) rotate(0) translate(4 94)">
<title>Visitor::visit</title>
<!-- Node1 -->
<g id="node1" class="node">
<title>Node1</title>
<g id="a_node1"><a xlink:title="overloaded function for each component">
<text text-anchor="start" x="519" y="-42.9" font-family="Helvetica,Arial,sans-serif" font-weight="bold" font-size="12.00">Visitor::visit</text>
</a>
</g>
</g>
<!-- Node2 -->
<g id="node2" class="node">
<title>Node2</title>
<g id="a_node2"><a xlink:href="structSample__component.html#a5737a5660436a9ca70447cbbbe7d06e3" target="_top" xlink:title=" ">
<text text-anchor="start" x="294" y="-75.4" font-family="Helvetica,Arial,sans-serif" font-size="12.00">Sample_component::component</text>
<text text-anchor="middle" x="380.5" y="-62.4" font-family="Helvetica,Arial,sans-serif" font-size="12.00">_accept</text>
</a>
</g>
</g>
<!-- Node1&#45;&gt;Node2 -->
<g id="edge1" class="edge">
<title>Node1&#45;&gt;Node2</title>
<path fill="none" stroke="midnightblue" d="M505.77,-52.32C496.14,-53.85 485.66,-55.51 475.01,-57.19"/>
<polygon fill="midnightblue" stroke="midnightblue" points="510.73,-51.54 506.14,-54.54 508.26,-51.93 505.79,-52.32 505.79,-52.32 505.79,-52.32 508.26,-51.93 505.44,-50.1 510.73,-51.54 510.73,-51.54"/>
</g>
<!-- Node3 -->
<g id="node3" class="node">
<title>Node3</title>
<g id="a_node3"><a xlink:href="group__visitor.html#ga11584cf836c2520c14cc5827ce453f8f" target="_top" xlink:title=" ">
<text text-anchor="middle" x="380.5" y="-14.9" font-family="Helvetica,Arial,sans-serif" font-size="12.00">visitor_demo</text>
</a>
</g>
</g>
<!-- Node1&#45;&gt;Node3 -->
<g id="edge2" class="edge">
<title>Node1&#45;&gt;Node3</title>
<path fill="none" stroke="midnightblue" d="M505.67,-37.66C479.96,-33.59 448.23,-28.57 423.28,-24.62"/>
<polygon fill="midnightblue" stroke="midnightblue" points="510.73,-38.46 505.44,-39.9 508.26,-38.07 505.79,-37.68 505.79,-37.68 505.79,-37.68 508.26,-38.07 506.14,-35.46 510.73,-38.46 510.73,-38.46"/>
</g>
<!-- Node4 -->
<g id="node4" class="node">
<title>Node4</title>
<g id="a_node4"><a xlink:href="group__BP.html#ga608cf93d9bef165bc7e5690ac3b46a03" target="_top" xlink:title=" ">
<text text-anchor="middle" x="170" y="-14.9" font-family="Helvetica,Arial,sans-serif" font-size="12.00">behavioral_patterns_demo</text>
</a>
</g>
</g>
<!-- Node3&#45;&gt;Node4 -->
<g id="edge3" class="edge">
<title>Node3&#45;&gt;Node4</title>
<path fill="none" stroke="midnightblue" d="M332.71,-18C308.4,-18 278.01,-18 250.17,-18"/>
<polygon fill="midnightblue" stroke="midnightblue" points="337.81,-18 332.81,-20.25 335.31,-18 332.81,-18 332.81,-18 332.81,-18 335.31,-18 332.81,-15.75 337.81,-18 337.81,-18"/>
</g>
<!-- Node5 -->
<g id="node5" class="node">
<title>Node5</title>
<g id="a_node5"><a xlink:href="group__DP.html#gae66f6b31b5ad750f1fe042a706a4e3d4" target="_top" xlink:title=" ">
<text text-anchor="middle" x="27" y="-14.9" font-family="Helvetica,Arial,sans-serif" font-size="12.00">main</text>
</a>
</g>
</g>
<!-- Node4&#45;&gt;Node5 -->
<g id="edge4" class="edge">
<title>Node4&#45;&gt;Node5</title>
<path fill="none" stroke="midnightblue" d="M84.72,-18C73.62,-18 63,-18 54.01,-18"/>
<polygon fill="midnightblue" stroke="midnightblue" points="89.84,-18 84.84,-20.25 87.34,-18 84.84,-18 84.84,-18 84.84,-18 87.34,-18 84.84,-15.75 89.84,-18 89.84,-18"/>
</g>
</g>
</svg>
