<?xml version="1.0" encoding="UTF-8" standalone="no"?>
<!DOCTYPE svg PUBLIC "-//W3C//DTD SVG 1.1//EN"
 "http://www.w3.org/Graphics/SVG/1.1/DTD/svg11.dtd">
<!-- Generated by graphviz version 2.43.0 (0)
 -->
<!-- Title: Common::Common Pages: 1 -->
<svg width="296pt" height="134pt"
 viewBox="0.00 0.00 296.00 134.00" xmlns="http://www.w3.org/2000/svg" xmlns:xlink="http://www.w3.org/1999/xlink">
<g id="graph0" class="graph" transform="scale(1 1) rotate(0) translate(4 130)">
<title>Common::Common</title>
<!-- Node1 -->
<g id="node1" class="node">
<title>Node1</title>
<g id="a_node1"><a xlink:title=" ">
<text text-anchor="start" x="167" y="-51.9" font-family="Helvetica,Arial,sans-serif" font-weight="bold" font-size="12.00">Common::Common</text>
</a>
</g>
</g>
<!-- Node2 -->
<g id="node2" class="node">
<title>Node2</title>
<g id="a_node2"><a xlink:href="structVirtual__A.html#af66434e53395c797170a2d295d6642f1" target="_top" xlink:title=" ">
<text text-anchor="middle" x="61.5" y="-86.9" font-family="Helvetica,Arial,sans-serif" font-size="12.00">Virtual_A::Virtual_A</text>
</a>
</g>
</g>
<!-- Node1&#45;&gt;Node2 -->
<g id="edge1" class="edge">
<title>Node1&#45;&gt;Node2</title>
<path fill="none" stroke="midnightblue" d="M153.81,-69.45C143.6,-71.75 133.14,-74.11 123.11,-76.36"/>
<polygon fill="midnightblue" stroke="midnightblue" points="158.8,-68.33 154.42,-71.62 156.37,-68.88 153.93,-69.43 153.93,-69.43 153.93,-69.43 156.37,-68.88 153.43,-67.23 158.8,-68.33 158.8,-68.33"/>
</g>
<!-- Node3 -->
<g id="node3" class="node">
<title>Node3</title>
<g id="a_node3"><a xlink:href="structVirtual__B.html#acbf075bb04a0868a1c1b710fa75b876d" target="_top" xlink:title=" ">
<text text-anchor="middle" x="61.5" y="-14.9" font-family="Helvetica,Arial,sans-serif" font-size="12.00">Virtual_B::Virtual_B</text>
</a>
</g>
</g>
<!-- Node1&#45;&gt;Node3 -->
<g id="edge3" class="edge">
<title>Node1&#45;&gt;Node3</title>
<path fill="none" stroke="midnightblue" d="M153.81,-38.55C143.6,-36.25 133.14,-33.89 123.11,-31.64"/>
<polygon fill="midnightblue" stroke="midnightblue" points="158.8,-39.67 153.43,-40.77 156.37,-39.12 153.93,-38.57 153.93,-38.57 153.93,-38.57 156.37,-39.12 154.42,-36.38 158.8,-39.67 158.8,-39.67"/>
</g>
<!-- Node2&#45;&gt;Node2 -->
<g id="edge2" class="edge">
<title>Node2&#45;&gt;Node2</title>
<path fill="none" stroke="midnightblue" d="M91.84,-113.29C91.15,-120.41 81.04,-126 61.5,-126 37.45,-126 27.68,-117.54 32.19,-108.15"/>
<polygon fill="midnightblue" stroke="midnightblue" points="90.81,-108.15 94,-112.61 91.3,-110.6 91.79,-113.05 91.79,-113.05 91.79,-113.05 91.3,-110.6 89.59,-113.5 90.81,-108.15 90.81,-108.15"/>
</g>
<!-- Node3&#45;&gt;Node3 -->
<g id="edge4" class="edge">
<title>Node3&#45;&gt;Node3</title>
<path fill="none" stroke="midnightblue" d="M91.84,-41.29C91.15,-48.41 81.04,-54 61.5,-54 37.45,-54 27.68,-45.54 32.19,-36.15"/>
<polygon fill="midnightblue" stroke="midnightblue" points="90.81,-36.15 94,-40.61 91.3,-38.6 91.79,-41.05 91.79,-41.05 91.79,-41.05 91.3,-38.6 89.59,-41.5 90.81,-36.15 90.81,-36.15"/>
</g>
</g>
</svg>
