<?xml version="1.0" encoding="UTF-8" standalone="no"?>
<!DOCTYPE svg PUBLIC "-//W3C//DTD SVG 1.1//EN"
 "http://www.w3.org/Graphics/SVG/1.1/DTD/svg11.dtd">
<!-- Generated by graphviz version 2.43.0 (0)
 -->
<!-- Title: Builder::add Pages: 1 -->
<svg width="366pt" height="68pt"
 viewBox="0.00 0.00 366.00 68.00" xmlns="http://www.w3.org/2000/svg" xmlns:xlink="http://www.w3.org/1999/xlink">
<g id="graph0" class="graph" transform="scale(1 1) rotate(0) translate(4 64)">
<title>Builder::add</title>
<!-- Node1 -->
<g id="node1" class="node">
<title>Node1</title>
<g id="a_node1"><a xlink:title=" ">
<polygon fill="#bfbfbf" stroke="transparent" points="358,-40 271,-40 271,-19 358,-19 358,-40"/>
<text text-anchor="start" x="279" y="-27.4" font-family="Helvetica,Arial,sans-serif" font-weight="bold" font-size="12.00">Builder::add</text>
</a>
</g>
</g>
<!-- Node2 -->
<g id="node2" class="node">
<title>Node2</title>
<g id="a_node2"><a xlink:href="$group__CP.html#ga50a82bd9d08b9a3b31267eefdf4ebaed" xlink:title=" ">
<text text-anchor="middle" x="157" y="-46.4" font-family="Helvetica,Arial,sans-serif" font-size="12.00">creational_patterns_demo</text>
</a>
</g>
</g>
<!-- Node1&#45;&gt;Node2 -->
<g id="edge1" class="edge">
<title>Node1&#45;&gt;Node2</title>
<path fill="none" stroke="midnightblue" d="M265.6,-35.66C255.91,-36.91 245.48,-38.25 235.08,-39.59"/>
<polygon fill="midnightblue" stroke="midnightblue" points="270.6,-35.02 265.93,-37.89 268.12,-35.34 265.64,-35.66 265.64,-35.66 265.64,-35.66 268.12,-35.34 265.35,-33.42 270.6,-35.02 270.6,-35.02"/>
</g>
<!-- Node4 -->
<g id="node4" class="node">
<title>Node4</title>
<g id="a_node4"><a xlink:href="$structBuilder.html#a619f717c9b14ba55b4ba758ba2693cfc" xlink:title=" ">
<text text-anchor="middle" x="157" y="-7.4" font-family="Helvetica,Arial,sans-serif" font-size="12.00">Builder::operator&lt;&lt;</text>
</a>
</g>
</g>
<!-- Node1&#45;&gt;Node4 -->
<g id="edge3" class="edge">
<title>Node1&#45;&gt;Node4</title>
<path fill="none" stroke="midnightblue" d="M265.45,-23.63C250.06,-21.75 232.84,-19.64 216.77,-17.68"/>
<polygon fill="midnightblue" stroke="midnightblue" points="270.6,-24.26 265.36,-25.88 268.12,-23.95 265.63,-23.65 265.63,-23.65 265.63,-23.65 268.12,-23.95 265.91,-21.42 270.6,-24.26 270.6,-24.26"/>
</g>
<!-- Node3 -->
<g id="node3" class="node">
<title>Node3</title>
<g id="a_node3"><a xlink:href="$group__DP.html#gae66f6b31b5ad750f1fe042a706a4e3d4" xlink:title=" ">
<text text-anchor="middle" x="21.5" y="-46.4" font-family="Helvetica,Arial,sans-serif" font-size="12.00">main</text>
</a>
</g>
</g>
<!-- Node2&#45;&gt;Node3 -->
<g id="edge2" class="edge">
<title>Node2&#45;&gt;Node3</title>
<path fill="none" stroke="midnightblue" d="M73.53,-49.5C62.29,-49.5 51.68,-49.5 43.07,-49.5"/>
<polygon fill="midnightblue" stroke="midnightblue" points="78.73,-49.5 73.73,-51.75 76.23,-49.5 73.73,-49.5 73.73,-49.5 73.73,-49.5 76.23,-49.5 73.73,-47.25 78.73,-49.5 78.73,-49.5"/>
</g>
</g>
</svg>
