<?xml version="1.0" encoding="UTF-8" standalone="no"?>
<!DOCTYPE svg PUBLIC "-//W3C//DTD SVG 1.1//EN"
 "http://www.w3.org/Graphics/SVG/1.1/DTD/svg11.dtd">
<!-- Generated by graphviz version 2.43.0 (0)
 -->
<!-- Title: Mediator::dispatch Pages: 1 -->
<svg width="739pt" height="44pt"
 viewBox="0.00 0.00 739.00 44.00" xmlns="http://www.w3.org/2000/svg" xmlns:xlink="http://www.w3.org/1999/xlink">
<g id="graph0" class="graph" transform="scale(1 1) rotate(0) translate(4 40)">
<title>Mediator::dispatch</title>
<!-- Node1 -->
<g id="node1" class="node">
<title>Node1</title>
<g id="a_node1"><a xlink:title=" ">
<text text-anchor="start" x="596" y="-15.9" font-family="UbuntuXX" font-weight="bold" font-size="12.00">Mediator::dispatch</text>
</a>
</g>
</g>
<!-- Node2 -->
<g id="node2" class="node">
<title>Node2</title>
<g id="a_node2"><a xlink:href="group__BP.html#ga0b04b5167d12021f4360b6a66a1b1125" target="_top" xlink:title=" ">
<text text-anchor="middle" x="501" y="-14.9" font-family="UbuntuXX" font-size="12.00">Member::send</text>
</a>
</g>
</g>
<!-- Node1&#45;&gt;Node2 -->
<g id="edge1" class="edge">
<title>Node1&#45;&gt;Node2</title>
<path fill="none" stroke="midnightblue" d="M582.52,-18C572.19,-18 561.82,-18 552.11,-18"/>
<polygon fill="midnightblue" stroke="midnightblue" points="587.58,-18 582.58,-20.25 585.08,-18 582.58,-18 582.58,-18 582.58,-18 585.08,-18 582.58,-15.75 587.58,-18 587.58,-18"/>
</g>
<!-- Node3 -->
<g id="node3" class="node">
<title>Node3</title>
<g id="a_node3"><a xlink:href="group__BP.html#ga49d579b8340b92f6ceb51cb6d57d4b2d" target="_top" xlink:title=" ">
<text text-anchor="middle" x="358" y="-14.9" font-family="UbuntuXX" font-size="12.00">mediator_demo</text>
</a>
</g>
</g>
<!-- Node2&#45;&gt;Node3 -->
<g id="edge2" class="edge">
<title>Node2&#45;&gt;Node3</title>
<path fill="none" stroke="midnightblue" d="M444.7,-18C434.68,-18 424.23,-18 414.22,-18"/>
<polygon fill="midnightblue" stroke="midnightblue" points="449.89,-18 444.89,-20.25 447.39,-18 444.89,-18 444.89,-18 444.89,-18 447.39,-18 444.89,-15.75 449.89,-18 449.89,-18"/>
</g>
<!-- Node4 -->
<g id="node4" class="node">
<title>Node4</title>
<g id="a_node4"><a xlink:href="group__BP.html#ga608cf93d9bef165bc7e5690ac3b46a03" target="_top" xlink:title=" ">
<text text-anchor="middle" x="178" y="-14.9" font-family="UbuntuXX" font-size="12.00">behavioral_patterns_demo</text>
</a>
</g>
</g>
<!-- Node3&#45;&gt;Node4 -->
<g id="edge3" class="edge">
<title>Node3&#45;&gt;Node4</title>
<path fill="none" stroke="midnightblue" d="M296.56,-18C286.71,-18 276.35,-18 266.01,-18"/>
<polygon fill="midnightblue" stroke="midnightblue" points="301.66,-18 296.66,-20.25 299.16,-18 296.66,-18 296.66,-18 296.66,-18 299.16,-18 296.66,-15.75 301.66,-18 301.66,-18"/>
</g>
<!-- Node5 -->
<g id="node5" class="node">
<title>Node5</title>
<g id="a_node5"><a xlink:href="group__DP.html#gae66f6b31b5ad750f1fe042a706a4e3d4" target="_top" xlink:title=" ">
<text text-anchor="middle" x="27" y="-14.9" font-family="UbuntuXX" font-size="12.00">main</text>
</a>
</g>
</g>
<!-- Node4&#45;&gt;Node5 -->
<g id="edge4" class="edge">
<title>Node4&#45;&gt;Node5</title>
<path fill="none" stroke="midnightblue" d="M84.75,-18C73.63,-18 63.07,-18 54.14,-18"/>
<polygon fill="midnightblue" stroke="midnightblue" points="89.89,-18 84.9,-20.25 87.39,-18 84.89,-18 84.89,-18 84.89,-18 87.39,-18 84.89,-15.75 89.89,-18 89.89,-18"/>
</g>
</g>
</svg>
