<?xml version="1.0" encoding="UTF-8" standalone="no"?>
<!DOCTYPE svg PUBLIC "-//W3C//DTD SVG 1.1//EN"
 "http://www.w3.org/Graphics/SVG/1.1/DTD/svg11.dtd">
<!-- Generated by graphviz version 2.43.0 (0)
 -->
<!-- Title: Virtual_A::Virtual_A Pages: 1 -->
<svg width="295pt" height="62pt"
 viewBox="0.00 0.00 295.00 62.00" xmlns="http://www.w3.org/2000/svg" xmlns:xlink="http://www.w3.org/1999/xlink">
<g id="graph0" class="graph" transform="scale(1 1) rotate(0) translate(4 58)">
<title>Virtual_A::Virtual_A</title>
<!-- Node1 -->
<g id="node1" class="node">
<title>Node1</title>
<g id="a_node1"><a xlink:title=" ">
<text text-anchor="start" x="8" y="-15.9" font-family="Helvetica,Arial,sans-serif" font-weight="bold" font-size="12.00">Virtual_A::Virtual_A</text>
</a>
</g>
</g>
<!-- Node1&#45;&gt;Node1 -->
<g id="edge2" class="edge">
<title>Node1&#45;&gt;Node1</title>
<path fill="none" stroke="midnightblue" d="M36.55,-36.15C32.1,-45.54 41.75,-54 65.5,-54 84.8,-54 94.78,-48.41 95.46,-41.29"/>
<polygon fill="midnightblue" stroke="midnightblue" points="94.45,-36.15 97.62,-40.62 94.93,-38.6 95.42,-41.06 95.42,-41.06 95.42,-41.06 94.93,-38.6 93.21,-41.49 94.45,-36.15 94.45,-36.15"/>
</g>
<!-- Node2 -->
<g id="node2" class="node">
<title>Node2</title>
<g id="a_node2"><a xlink:href="structCommon.html#a9a33713116300697757e239178cdef2d" target="_top" xlink:title=" ">
<text text-anchor="middle" x="227" y="-14.9" font-family="Helvetica,Arial,sans-serif" font-size="12.00">Common::Common</text>
</a>
</g>
</g>
<!-- Node1&#45;&gt;Node2 -->
<g id="edge1" class="edge">
<title>Node1&#45;&gt;Node2</title>
<path fill="none" stroke="midnightblue" d="M131.37,-18C141.36,-18 151.67,-18 161.65,-18"/>
<polygon fill="midnightblue" stroke="midnightblue" points="166.83,-18 161.83,-20.25 164.33,-18 161.83,-18 161.83,-18 161.83,-18 164.33,-18 161.83,-15.75 166.83,-18 166.83,-18"/>
</g>
</g>
</svg>
