<?xml version="1.0" encoding="UTF-8" standalone="no"?>
<!DOCTYPE svg PUBLIC "-//W3C//DTD SVG 1.1//EN"
 "http://www.w3.org/Graphics/SVG/1.1/DTD/svg11.dtd">
<!-- Generated by graphviz version 2.43.0 (0)
 -->
<!-- Title: Decorator Pages: 1 -->
<svg width="97pt" height="103pt"
 viewBox="0.00 0.00 97.00 103.00" xmlns="http://www.w3.org/2000/svg" xmlns:xlink="http://www.w3.org/1999/xlink">
<g id="graph0" class="graph" transform="scale(1 1) rotate(0) translate(4 99)">
<title>Decorator</title>
<!-- Node1 -->
<g id="node1" class="node">
<title>Node1</title>
<g id="a_node1"><a xlink:title="is a partial wrapper of an object with same as wrapped object Interface">
<polygon fill="#bfbfbf" stroke="transparent" points="74,-21 0,-21 0,0 74,0 74,-21"/>
<text text-anchor="start" x="8" y="-8.4" font-family="Helvetica,Arial,sans-serif" font-weight="bold" font-size="12.00">Decorator</text>
</a>
</g>
</g>
<!-- Node2 -->
<g id="node2" class="node">
<title>Node2</title>
<g id="a_node2"><a xlink:href="$structInterface.html" xlink:title="is a common pure virtual interface">
<text text-anchor="middle" x="37" y="-81.4" font-family="Helvetica,Arial,sans-serif" font-size="12.00">Interface</text>
</a>
</g>
</g>
<!-- Node2&#45;&gt;Node1 -->
<g id="edge1" class="edge">
<title>Node2&#45;&gt;Node1</title>
<path fill="none" stroke="midnightblue" d="M35.74,-68.84C35.43,-64.69 35.15,-60.17 35,-56 34.73,-48.45 34.73,-46.55 35,-39 35.22,-33.07 35.69,-26.43 36.12,-21.16"/>
<polygon fill="midnightblue" stroke="midnightblue" points="36.12,-73.84 33.49,-69.03 35.93,-71.34 35.74,-68.85 35.74,-68.85 35.74,-68.85 35.93,-71.34 37.98,-68.68 36.12,-73.84 36.12,-73.84"/>
</g>
<!-- Node2&#45;&gt;Node1 -->
<g id="edge2" class="edge">
<title>Node2&#45;&gt;Node1</title>
<path fill="none" stroke="#9a32cd" stroke-dasharray="5,2" d="M37,-68.5C37,-54.23 37,-33.18 37,-21.06"/>
<polygon fill="#9a32cd" stroke="#9a32cd" points="37,-73.79 34.75,-68.79 37,-71.29 37,-68.79 37,-68.79 37,-68.79 37,-71.29 39.25,-68.79 37,-73.79 37,-73.79"/>
<text text-anchor="middle" x="63" y="-44" font-family="Helvetica,Arial,sans-serif" font-size="15.00"> subject</text>
</g>
</g>
</svg>
