<?xml version="1.0" encoding="UTF-8" standalone="no"?>
<!DOCTYPE svg PUBLIC "-//W3C//DTD SVG 1.1//EN"
 "http://www.w3.org/Graphics/SVG/1.1/DTD/svg11.dtd">
<!-- Generated by graphviz version 2.43.0 (0)
 -->
<!-- Title: Command::execute Pages: 1 -->
<svg width="804pt" height="98pt"
 viewBox="0.00 0.00 804.00 98.00" xmlns="http://www.w3.org/2000/svg" xmlns:xlink="http://www.w3.org/1999/xlink">
<g id="graph0" class="graph" transform="scale(1 1) rotate(0) translate(4 94)">
<title>Command::execute</title>
<!-- Node1 -->
<g id="node1" class="node">
<title>Node1</title>
<g id="a_node1"><a xlink:title=" ">
<text text-anchor="start" x="658" y="-42.9" font-family="UbuntuXX" font-weight="bold" font-size="12.00">Command::execute</text>
</a>
</g>
</g>
<!-- Node2 -->
<g id="node2" class="node">
<title>Node2</title>
<g id="a_node2"><a xlink:href="structModel.html#a9000558a25601a58c19f903bfb660e64" target="_top" xlink:title=" ">
<text text-anchor="middle" x="553.5" y="-68.9" font-family="UbuntuXX" font-size="12.00">Model::command</text>
</a>
</g>
</g>
<!-- Node1&#45;&gt;Node2 -->
<g id="edge1" class="edge">
<title>Node1&#45;&gt;Node2</title>
<path fill="none" stroke="midnightblue" d="M644.93,-57.42C634.58,-59.09 624.09,-60.78 614.11,-62.39"/>
<polygon fill="midnightblue" stroke="midnightblue" points="649.99,-56.61 645.41,-59.62 647.52,-57.01 645.06,-57.4 645.06,-57.4 645.06,-57.4 647.52,-57.01 644.7,-55.18 649.99,-56.61 649.99,-56.61"/>
</g>
<!-- Node6 -->
<g id="node6" class="node">
<title>Node6</title>
<g id="a_node6"><a xlink:href="structHandler.html#a5f1fa0706cb56b26e58c2e102dfec6ca" target="_top" xlink:title="Specific handler can process a command and return non&#45;negative.">
<text text-anchor="middle" x="553.5" y="-14.9" font-family="UbuntuXX" font-size="12.00">Handler::handle</text>
</a>
</g>
</g>
<!-- Node1&#45;&gt;Node6 -->
<g id="edge5" class="edge">
<title>Node1&#45;&gt;Node6</title>
<path fill="none" stroke="midnightblue" d="M644.86,-32.56C632.83,-30.63 620.63,-28.66 609.24,-26.82"/>
<polygon fill="midnightblue" stroke="midnightblue" points="649.99,-33.39 644.7,-34.82 647.52,-32.99 645.06,-32.6 645.06,-32.6 645.06,-32.6 647.52,-32.99 645.41,-30.38 649.99,-33.39 649.99,-33.39"/>
</g>
<!-- Node3 -->
<g id="node3" class="node">
<title>Node3</title>
<g id="a_node3"><a xlink:href="structController.html#af9531d07a0bf9d651c6830e88b64f0ff" target="_top" xlink:title=" ">
<text text-anchor="middle" x="385.5" y="-68.9" font-family="UbuntuXX" font-size="12.00">Controller::command</text>
</a>
</g>
</g>
<!-- Node2&#45;&gt;Node3 -->
<g id="edge2" class="edge">
<title>Node2&#45;&gt;Node3</title>
<path fill="none" stroke="midnightblue" d="M487.4,-72C477.45,-72 467.14,-72 457.08,-72"/>
<polygon fill="midnightblue" stroke="midnightblue" points="492.57,-72 487.57,-74.25 490.07,-72 487.57,-72 487.57,-72 487.57,-72 490.07,-72 487.57,-69.75 492.57,-72 492.57,-72"/>
</g>
<!-- Node4 -->
<g id="node4" class="node">
<title>Node4</title>
<g id="a_node4"><a xlink:href="group__AP.html#gaa52033e9b5a5923880bf57a9afb7e751" target="_top" xlink:title=" ">
<text text-anchor="middle" x="184" y="-68.9" font-family="UbuntuXX" font-size="12.00">architectural_patterns_demo</text>
</a>
</g>
</g>
<!-- Node3&#45;&gt;Node4 -->
<g id="edge3" class="edge">
<title>Node3&#45;&gt;Node4</title>
<path fill="none" stroke="midnightblue" d="M308.71,-72C298.74,-72 288.44,-72 278.23,-72"/>
<polygon fill="midnightblue" stroke="midnightblue" points="313.88,-72 308.88,-74.25 311.38,-72 308.88,-72 308.88,-72 308.88,-72 311.38,-72 308.88,-69.75 313.88,-72 313.88,-72"/>
</g>
<!-- Node5 -->
<g id="node5" class="node">
<title>Node5</title>
<g id="a_node5"><a xlink:href="group__DP.html#gae66f6b31b5ad750f1fe042a706a4e3d4" target="_top" xlink:title=" ">
<text text-anchor="middle" x="27" y="-68.9" font-family="UbuntuXX" font-size="12.00">main</text>
</a>
</g>
</g>
<!-- Node4&#45;&gt;Node5 -->
<g id="edge4" class="edge">
<title>Node4&#45;&gt;Node5</title>
<path fill="none" stroke="midnightblue" d="M84.58,-72C73.52,-72 63.06,-72 54.23,-72"/>
<polygon fill="midnightblue" stroke="midnightblue" points="89.71,-72 84.71,-74.25 87.21,-72 84.71,-72 84.71,-72 84.71,-72 87.21,-72 84.71,-69.75 89.71,-72 89.71,-72"/>
</g>
</g>
</svg>
