<?xml version="1.0" encoding="UTF-8" standalone="no"?>
<!DOCTYPE svg PUBLIC "-//W3C//DTD SVG 1.1//EN"
 "http://www.w3.org/Graphics/SVG/1.1/DTD/svg11.dtd">
<!-- Generated by graphviz version 2.43.0 (0)
 -->
<!-- Title: Obj Pages: 1 -->
<svg width="115pt" height="103pt"
 viewBox="0.00 0.00 114.50 103.00" xmlns="http://www.w3.org/2000/svg" xmlns:xlink="http://www.w3.org/1999/xlink">
<g id="graph0" class="graph" transform="scale(1 1) rotate(0) translate(4 99)">
<title>Obj</title>
<!-- Node1 -->
<g id="node1" class="node">
<title>Node1</title>
<g id="a_node1"><a xlink:title=" ">
<polygon fill="#bfbfbf" stroke="transparent" points="58.5,-21 22.5,-21 22.5,0 58.5,0 58.5,-21"/>
<text text-anchor="start" x="30.5" y="-8.4" font-family="Helvetica,Arial,sans-serif" font-weight="bold" font-size="12.00">Obj</text>
</a>
</g>
</g>
<!-- Node1&#45;&gt;Node1 -->
<g id="edge1" class="edge">
<title>Node1&#45;&gt;Node1</title>
<path fill="none" stroke="#9a32cd" stroke-dasharray="5,2" d="M63.79,-17.24C70.91,-17.09 76.5,-14.84 76.5,-10.5 76.5,-5.16 68.04,-2.99 58.65,-3.99"/>
<polygon fill="#9a32cd" stroke="#9a32cd" points="58.65,-17.01 63.75,-14.99 61.15,-17.12 63.65,-17.24 63.65,-17.24 63.65,-17.24 61.15,-17.12 63.55,-19.48 58.65,-17.01 58.65,-17.01"/>
<text text-anchor="middle" x="91.5" y="-7" font-family="Helvetica,Arial,sans-serif" font-size="15.00"> orig</text>
</g>
<!-- Node2 -->
<g id="node2" class="node">
<title>Node2</title>
<g id="a_node2"><a xlink:href="$structC.html" xlink:title=" ">
<text text-anchor="middle" x="14.5" y="-81.4" font-family="Helvetica,Arial,sans-serif" font-size="12.00">C</text>
</a>
</g>
</g>
<!-- Node2&#45;&gt;Node1 -->
<g id="edge2" class="edge">
<title>Node2&#45;&gt;Node1</title>
<path fill="none" stroke="#9a32cd" stroke-dasharray="5,2" d="M19.78,-68.88C24.94,-54.6 32.63,-33.29 37.05,-21.06"/>
<polygon fill="#9a32cd" stroke="#9a32cd" points="18.01,-73.79 17.59,-68.32 18.86,-71.44 19.7,-69.09 19.7,-69.09 19.7,-69.09 18.86,-71.44 21.82,-69.85 18.01,-73.79 18.01,-73.79"/>
<text text-anchor="middle" x="37" y="-44" font-family="Helvetica,Arial,sans-serif" font-size="15.00"> a</text>
</g>
<!-- Node3 -->
<g id="node3" class="node">
<title>Node3</title>
<g id="a_node3"><a xlink:href="$structobj1.html" xlink:title=" ">
<text text-anchor="middle" x="67.5" y="-81.4" font-family="Helvetica,Arial,sans-serif" font-size="12.00">obj1</text>
</a>
</g>
</g>
<!-- Node3&#45;&gt;Node1 -->
<g id="edge3" class="edge">
<title>Node3&#45;&gt;Node1</title>
<path fill="none" stroke="#9a32cd" stroke-dasharray="5,2" d="M62.02,-68.88C56.66,-54.6 48.67,-33.29 44.08,-21.06"/>
<polygon fill="#9a32cd" stroke="#9a32cd" points="63.86,-73.79 60,-69.9 62.98,-71.45 62.1,-69.11 62.1,-69.11 62.1,-69.11 62.98,-71.45 64.21,-68.32 63.86,-73.79 63.86,-73.79"/>
<text text-anchor="middle" x="66" y="-44" font-family="Helvetica,Arial,sans-serif" font-size="15.00"> so</text>
</g>
</g>
</svg>
