<?xml version="1.0" encoding="UTF-8" standalone="no"?>
<!DOCTYPE svg PUBLIC "-//W3C//DTD SVG 1.1//EN"
 "http://www.w3.org/Graphics/SVG/1.1/DTD/svg11.dtd">
<!-- Generated by graphviz version 2.43.0 (0)
 -->
<!-- Title: Virtual_B Pages: 1 -->
<svg width="78pt" height="143pt"
 viewBox="0.00 0.00 78.00 143.00" xmlns="http://www.w3.org/2000/svg" xmlns:xlink="http://www.w3.org/1999/xlink">
<g id="graph0" class="graph" transform="scale(1 1) rotate(0) translate(4 139)">
<title>Virtual_B</title>
<!-- Node1 -->
<g id="node1" class="node">
<title>Node1</title>
<g id="a_node1"><a xlink:title=" ">
<polygon fill="#bfbfbf" stroke="transparent" points="70,-78 0,-78 0,-57 70,-57 70,-78"/>
<text text-anchor="start" x="8" y="-65.4" font-family="Helvetica,Arial,sans-serif" font-weight="bold" font-size="12.00">Virtual_B</text>
</a>
</g>
</g>
<!-- Node3 -->
<g id="node3" class="node">
<title>Node3</title>
<g id="a_node3"><a xlink:href="structDiamond.html" target="_top" xlink:title=" ">
<text text-anchor="middle" x="35" y="-7.4" font-family="Helvetica,Arial,sans-serif" font-size="12.00">Diamond</text>
</a>
</g>
</g>
<!-- Node1&#45;&gt;Node3 -->
<g id="edge2" class="edge">
<title>Node1&#45;&gt;Node3</title>
<path fill="none" stroke="midnightblue" d="M35,-51.88C35,-42.23 35,-29.84 35,-21.34"/>
<polygon fill="midnightblue" stroke="midnightblue" points="35,-56.92 32.75,-51.92 35,-54.42 35,-51.92 35,-51.92 35,-51.92 35,-54.42 37.25,-51.92 35,-56.92 35,-56.92"/>
</g>
<!-- Node2 -->
<g id="node2" class="node">
<title>Node2</title>
<g id="a_node2"><a xlink:href="structCommon.html" target="_top" xlink:title=" ">
<text text-anchor="middle" x="35" y="-121.4" font-family="Helvetica,Arial,sans-serif" font-size="12.00">Common</text>
</a>
</g>
</g>
<!-- Node2&#45;&gt;Node1 -->
<g id="edge1" class="edge">
<title>Node2&#45;&gt;Node1</title>
<path fill="none" stroke="midnightblue" d="M35,-108.88C35,-99.23 35,-86.84 35,-78.34"/>
<polygon fill="midnightblue" stroke="midnightblue" points="35,-113.92 32.75,-108.92 35,-111.42 35,-108.92 35,-108.92 35,-108.92 35,-111.42 37.25,-108.92 35,-113.92 35,-113.92"/>
</g>
</g>
</svg>
