<?xml version="1.0" encoding="UTF-8" standalone="no"?>
<!DOCTYPE svg PUBLIC "-//W3C//DTD SVG 1.1//EN"
 "http://www.w3.org/Graphics/SVG/1.1/DTD/svg11.dtd">
<!-- Generated by graphviz version 2.43.0 (0)
 -->
<!-- Title: Interface::method Pages: 1 -->
<svg width="645pt" height="217pt"
 viewBox="0.00 0.00 645.00 217.00" xmlns="http://www.w3.org/2000/svg" xmlns:xlink="http://www.w3.org/1999/xlink">
<g id="graph0" class="graph" transform="scale(1 1) rotate(0) translate(4 213)">
<title>Interface::method</title>
<!-- Node1 -->
<g id="node1" class="node">
<title>Node1</title>
<g id="a_node1"><a xlink:title=" ">
<text text-anchor="start" x="506" y="-115.9" font-family="UbuntuXX" font-weight="bold" font-size="12.00">Interface::method</text>
</a>
</g>
</g>
<!-- Node2 -->
<g id="node2" class="node">
<title>Node2</title>
<g id="a_node2"><a xlink:href="group__CP.html#ga50a82bd9d08b9a3b31267eefdf4ebaed" target="_top" xlink:title=" ">
<text text-anchor="middle" x="183" y="-187.9" font-family="UbuntuXX" font-size="12.00">creational_patterns_demo</text>
</a>
</g>
</g>
<!-- Node1&#45;&gt;Node2 -->
<g id="edge1" class="edge">
<title>Node1&#45;&gt;Node2</title>
<path fill="none" stroke="midnightblue" d="M544.24,-139.73C524.48,-157.39 493.86,-180.97 462,-191 399.5,-210.67 325.12,-209.48 269.02,-204.02"/>
<polygon fill="midnightblue" stroke="midnightblue" points="548.05,-136.28 545.86,-141.3 546.2,-137.96 544.34,-139.64 544.34,-139.64 544.34,-139.64 546.2,-137.96 542.83,-137.97 548.05,-136.28 548.05,-136.28"/>
</g>
<!-- Node4 -->
<g id="node4" class="node">
<title>Node4</title>
<g id="a_node4"><a xlink:href="structProxy.html#a1c58aa9104f2537aae0f75b59130ce32" target="_top" xlink:title=" ">
<text text-anchor="middle" x="387" y="-160.9" font-family="UbuntuXX" font-size="12.00">Proxy::method</text>
</a>
</g>
</g>
<!-- Node1&#45;&gt;Node4 -->
<g id="edge3" class="edge">
<title>Node1&#45;&gt;Node4</title>
<path fill="none" stroke="midnightblue" d="M492.8,-136.99C474.26,-141.77 454.8,-146.78 437.75,-151.18"/>
<polygon fill="midnightblue" stroke="midnightblue" points="498,-135.65 493.72,-139.08 495.58,-136.28 493.16,-136.9 493.16,-136.9 493.16,-136.9 495.58,-136.28 492.59,-134.72 498,-135.65 498,-135.65"/>
</g>
<!-- Node5 -->
<g id="node5" class="node">
<title>Node5</title>
<g id="a_node5"><a xlink:href="group__SP.html#ga3a9c3856221bdc96fcf38f956fc12011" target="_top" xlink:title=" ">
<text text-anchor="middle" x="183" y="-114.9" font-family="UbuntuXX" font-size="12.00">structural_patterns_demo</text>
</a>
</g>
</g>
<!-- Node1&#45;&gt;Node5 -->
<g id="edge11" class="edge">
<title>Node1&#45;&gt;Node5</title>
<path fill="none" stroke="midnightblue" d="M492.33,-118C428.13,-118 335.31,-118 268.3,-118"/>
<polygon fill="midnightblue" stroke="midnightblue" points="497.67,-118 492.67,-120.25 495.17,-118 492.67,-118 492.67,-118 492.67,-118 495.17,-118 492.67,-115.75 497.67,-118 497.67,-118"/>
</g>
<!-- Node6 -->
<g id="node6" class="node">
<title>Node6</title>
<g id="a_node6"><a xlink:href="structDecorator.html#a49123c88d6088bbd5573b98bccd1d8bf" target="_top" xlink:title=" ">
<text text-anchor="middle" x="387" y="-68.9" font-family="UbuntuXX" font-size="12.00">Decorator::method</text>
</a>
</g>
</g>
<!-- Node1&#45;&gt;Node6 -->
<g id="edge6" class="edge">
<title>Node1&#45;&gt;Node6</title>
<path fill="none" stroke="midnightblue" d="M493.07,-99.08C479.62,-95.61 465.67,-92.02 452.51,-88.62"/>
<polygon fill="midnightblue" stroke="midnightblue" points="498,-100.35 492.59,-101.28 495.58,-99.72 493.16,-99.1 493.16,-99.1 493.16,-99.1 495.58,-99.72 493.72,-96.92 498,-100.35 498,-100.35"/>
</g>
<!-- Node7 -->
<g id="node7" class="node">
<title>Node7</title>
<g id="a_node7"><a xlink:href="structActive__object.html#ac125fd7860055c3a289b68ae39488714" target="_top" xlink:title=" ">
<text text-anchor="middle" x="387" y="-14.9" font-family="UbuntuXX" font-size="12.00">Active_object::method</text>
</a>
</g>
</g>
<!-- Node1&#45;&gt;Node7 -->
<g id="edge8" class="edge">
<title>Node1&#45;&gt;Node7</title>
<path fill="none" stroke="midnightblue" d="M540.39,-96.88C519.95,-81.08 490.34,-59.75 462,-45 455.81,-41.78 449.15,-38.77 442.46,-36.02"/>
<polygon fill="midnightblue" stroke="midnightblue" points="544.35,-99.96 539.02,-98.67 542.38,-98.43 540.4,-96.89 540.4,-96.89 540.4,-96.89 542.38,-98.43 541.79,-95.11 544.35,-99.96 544.35,-99.96"/>
</g>
<!-- Node3 -->
<g id="node3" class="node">
<title>Node3</title>
<g id="a_node3"><a xlink:href="group__DP.html#gae66f6b31b5ad750f1fe042a706a4e3d4" target="_top" xlink:title=" ">
<text text-anchor="middle" x="27" y="-114.9" font-family="UbuntuXX" font-size="12.00">main</text>
</a>
</g>
</g>
<!-- Node2&#45;&gt;Node3 -->
<g id="edge2" class="edge">
<title>Node2&#45;&gt;Node3</title>
<path fill="none" stroke="midnightblue" d="M139.26,-170.74C111.93,-157.78 77.35,-141.39 54.06,-130.35"/>
<polygon fill="midnightblue" stroke="midnightblue" points="143.93,-172.96 138.45,-172.85 141.67,-171.88 139.41,-170.81 139.41,-170.81 139.41,-170.81 141.67,-171.88 140.38,-168.78 143.93,-172.96 143.93,-172.96"/>
</g>
<!-- Node4&#45;&gt;Node5 -->
<g id="edge4" class="edge">
<title>Node4&#45;&gt;Node5</title>
<path fill="none" stroke="midnightblue" d="M331.37,-151.56C310.46,-146.8 286.17,-141.27 263.41,-136.08"/>
<polygon fill="midnightblue" stroke="midnightblue" points="336.33,-152.69 330.95,-153.77 333.89,-152.13 331.45,-151.58 331.45,-151.58 331.45,-151.58 333.89,-152.13 331.95,-149.38 336.33,-152.69 336.33,-152.69"/>
</g>
<!-- Node5&#45;&gt;Node3 -->
<g id="edge5" class="edge">
<title>Node5&#45;&gt;Node3</title>
<path fill="none" stroke="midnightblue" d="M92.6,-118C78.58,-118 65.12,-118 54.15,-118"/>
<polygon fill="midnightblue" stroke="midnightblue" points="97.79,-118 92.79,-120.25 95.29,-118 92.79,-118 92.79,-118 92.79,-118 95.29,-118 92.79,-115.75 97.79,-118 97.79,-118"/>
</g>
<!-- Node6&#45;&gt;Node5 -->
<g id="edge7" class="edge">
<title>Node6&#45;&gt;Node5</title>
<path fill="none" stroke="midnightblue" d="M316.01,-87.94C298.99,-91.81 280.66,-95.99 263.24,-99.96"/>
<polygon fill="midnightblue" stroke="midnightblue" points="321.25,-86.74 316.88,-90.05 318.81,-87.3 316.38,-87.85 316.38,-87.85 316.38,-87.85 318.81,-87.3 315.88,-85.66 321.25,-86.74 321.25,-86.74"/>
</g>
<!-- Node8 -->
<g id="node8" class="node">
<title>Node8</title>
<g id="a_node8"><a xlink:href="group__CC.html#ga3e57442badb533d55c8d3d3a05465030" target="_top" xlink:title=" ">
<text text-anchor="middle" x="183" y="-37.9" font-family="UbuntuXX" font-size="12.00">concurrency_patterns_demo</text>
</a>
</g>
</g>
<!-- Node7&#45;&gt;Node8 -->
<g id="edge9" class="edge">
<title>Node7&#45;&gt;Node8</title>
<path fill="none" stroke="midnightblue" d="M306.73,-27.03C296.74,-28.16 286.45,-29.33 276.28,-30.49"/>
<polygon fill="midnightblue" stroke="midnightblue" points="311.93,-26.43 307.22,-29.24 309.45,-26.72 306.96,-27 306.96,-27 306.96,-27 309.45,-26.72 306.71,-24.76 311.93,-26.43 311.93,-26.43"/>
</g>
<!-- Node8&#45;&gt;Node3 -->
<g id="edge10" class="edge">
<title>Node8&#45;&gt;Node3</title>
<path fill="none" stroke="midnightblue" d="M141.2,-61.4C113.65,-75.18 78.1,-92.95 54.25,-104.87"/>
<polygon fill="midnightblue" stroke="midnightblue" points="145.89,-59.05 142.43,-63.3 143.66,-60.17 141.42,-61.29 141.42,-61.29 141.42,-61.29 143.66,-60.17 140.42,-59.28 145.89,-59.05 145.89,-59.05"/>
</g>
</g>
</svg>
