<?xml version="1.0" encoding="UTF-8" standalone="no"?>
<!DOCTYPE svg PUBLIC "-//W3C//DTD SVG 1.1//EN"
 "http://www.w3.org/Graphics/SVG/1.1/DTD/svg11.dtd">
<!-- Generated by graphviz version 2.43.0 (0)
 -->
<!-- Title: Abstract_visitor::visit Pages: 1 -->
<svg width="646pt" height="82pt"
 viewBox="0.00 0.00 646.00 81.50" xmlns="http://www.w3.org/2000/svg" xmlns:xlink="http://www.w3.org/1999/xlink">
<g id="graph0" class="graph" transform="scale(1 1) rotate(0) translate(4 77.5)">
<title>Abstract_visitor::visit</title>
<!-- Node1 -->
<g id="node1" class="node">
<title>Node1</title>
<g id="a_node1"><a xlink:title="overloaded function for each component subtype">
<polygon fill="#bfbfbf" stroke="transparent" points="638,-44 500,-44 500,-23 638,-23 638,-44"/>
<text text-anchor="start" x="508" y="-31.4" font-family="Helvetica,Arial,sans-serif" font-weight="bold" font-size="12.00">Abstract_visitor::visit</text>
</a>
</g>
</g>
<!-- Node2 -->
<g id="node2" class="node">
<title>Node2</title>
<g id="a_node2"><a xlink:href="$structSample__component.html#aaf1b22f86ee59f6af04ed2b32b6fdf95" xlink:title=" ">
<text text-anchor="start" x="283" y="-59.9" font-family="Helvetica,Arial,sans-serif" font-size="12.00">Sample_component::component</text>
<text text-anchor="middle" x="369.5" y="-46.9" font-family="Helvetica,Arial,sans-serif" font-size="12.00">_accept</text>
</a>
</g>
</g>
<!-- Node1&#45;&gt;Node2 -->
<g id="edge1" class="edge">
<title>Node1&#45;&gt;Node2</title>
<path fill="none" stroke="midnightblue" d="M494.6,-42.05C484.68,-43.2 474.4,-44.4 464.18,-45.59"/>
<polygon fill="midnightblue" stroke="midnightblue" points="499.76,-41.45 495.05,-44.26 497.27,-41.74 494.79,-42.03 494.79,-42.03 494.79,-42.03 497.27,-41.74 494.53,-39.79 499.76,-41.45 499.76,-41.45"/>
</g>
<!-- Node3 -->
<g id="node3" class="node">
<title>Node3</title>
<g id="a_node3"><a xlink:href="$group__visitor.html#ga11584cf836c2520c14cc5827ce453f8f" xlink:title=" ">
<text text-anchor="middle" x="369.5" y="-7.4" font-family="Helvetica,Arial,sans-serif" font-size="12.00">visitor_demo</text>
</a>
</g>
</g>
<!-- Node1&#45;&gt;Node3 -->
<g id="edge2" class="edge">
<title>Node1&#45;&gt;Node3</title>
<path fill="none" stroke="midnightblue" d="M494.6,-24.95C466.81,-21.72 436.15,-18.14 412.25,-15.36"/>
<polygon fill="midnightblue" stroke="midnightblue" points="499.76,-25.55 494.53,-27.21 497.27,-25.26 494.79,-24.97 494.79,-24.97 494.79,-24.97 497.27,-25.26 495.05,-22.74 499.76,-25.55 499.76,-25.55"/>
</g>
<!-- Node4 -->
<g id="node4" class="node">
<title>Node4</title>
<g id="a_node4"><a xlink:href="$group__BP.html#ga608cf93d9bef165bc7e5690ac3b46a03" xlink:title=" ">
<text text-anchor="middle" x="159" y="-7.4" font-family="Helvetica,Arial,sans-serif" font-size="12.00">behavioral_patterns_demo</text>
</a>
</g>
</g>
<!-- Node3&#45;&gt;Node4 -->
<g id="edge3" class="edge">
<title>Node3&#45;&gt;Node4</title>
<path fill="none" stroke="midnightblue" d="M321.71,-10.5C297.4,-10.5 267.01,-10.5 239.17,-10.5"/>
<polygon fill="midnightblue" stroke="midnightblue" points="326.81,-10.5 321.81,-12.75 324.31,-10.5 321.81,-10.5 321.81,-10.5 321.81,-10.5 324.31,-10.5 321.81,-8.25 326.81,-10.5 326.81,-10.5"/>
</g>
<!-- Node5 -->
<g id="node5" class="node">
<title>Node5</title>
<g id="a_node5"><a xlink:href="$group__DP.html#gae66f6b31b5ad750f1fe042a706a4e3d4" xlink:title=" ">
<text text-anchor="middle" x="21.5" y="-7.4" font-family="Helvetica,Arial,sans-serif" font-size="12.00">main</text>
</a>
</g>
</g>
<!-- Node4&#45;&gt;Node5 -->
<g id="edge4" class="edge">
<title>Node4&#45;&gt;Node5</title>
<path fill="none" stroke="midnightblue" d="M73.56,-10.5C62.28,-10.5 51.66,-10.5 43.05,-10.5"/>
<polygon fill="midnightblue" stroke="midnightblue" points="78.79,-10.5 73.79,-12.75 76.29,-10.5 73.79,-10.5 73.79,-10.5 73.79,-10.5 76.29,-10.5 73.79,-8.25 78.79,-10.5 78.79,-10.5"/>
</g>
</g>
</svg>
