<?xml version="1.0" encoding="UTF-8" standalone="no"?>
<!DOCTYPE svg PUBLIC "-//W3C//DTD SVG 1.1//EN"
 "http://www.w3.org/Graphics/SVG/1.1/DTD/svg11.dtd">
<!-- Generated by graphviz version 2.43.0 (0)
 -->
<!-- Title: Common Pages: 1 -->
<svg width="160pt" height="143pt"
 viewBox="0.00 0.00 160.00 143.00" xmlns="http://www.w3.org/2000/svg" xmlns:xlink="http://www.w3.org/1999/xlink">
<g id="graph0" class="graph" transform="scale(1 1) rotate(0) translate(4 139)">
<title>Common</title>
<!-- Node1 -->
<g id="node1" class="node">
<title>Node1</title>
<g id="a_node1"><a xlink:title=" ">
<polygon fill="#bfbfbf" stroke="transparent" points="110,-135 41,-135 41,-114 110,-114 110,-135"/>
<text text-anchor="start" x="49" y="-122.4" font-family="Helvetica,Arial,sans-serif" font-weight="bold" font-size="12.00">Common</text>
</a>
</g>
</g>
<!-- Node2 -->
<g id="node2" class="node">
<title>Node2</title>
<g id="a_node2"><a xlink:href="$structVirtual__A.html" xlink:title="ref">
<text text-anchor="middle" x="33.5" y="-64.4" font-family="Helvetica,Arial,sans-serif" font-size="12.00">Virtual_A</text>
</a>
</g>
</g>
<!-- Node1&#45;&gt;Node2 -->
<g id="edge1" class="edge">
<title>Node1&#45;&gt;Node2</title>
<path fill="none" stroke="midnightblue" d="M65.15,-109.94C57.67,-100.15 47.74,-87.15 41.01,-78.34"/>
<polygon fill="midnightblue" stroke="midnightblue" points="68.18,-113.92 63.36,-111.31 66.67,-111.93 65.15,-109.95 65.15,-109.95 65.15,-109.95 66.67,-111.93 66.94,-108.58 68.18,-113.92 68.18,-113.92"/>
</g>
<!-- Node4 -->
<g id="node4" class="node">
<title>Node4</title>
<g id="a_node4"><a xlink:href="$structVirtual__B.html" xlink:title=" ">
<text text-anchor="middle" x="118.5" y="-64.4" font-family="Helvetica,Arial,sans-serif" font-size="12.00">Virtual_B</text>
</a>
</g>
</g>
<!-- Node1&#45;&gt;Node4 -->
<g id="edge3" class="edge">
<title>Node1&#45;&gt;Node4</title>
<path fill="none" stroke="midnightblue" d="M86.1,-109.94C93.76,-100.15 103.92,-87.15 110.81,-78.34"/>
<polygon fill="midnightblue" stroke="midnightblue" points="82.99,-113.92 84.3,-108.59 84.53,-111.95 86.07,-109.98 86.07,-109.98 86.07,-109.98 84.53,-111.95 87.84,-111.37 82.99,-113.92 82.99,-113.92"/>
</g>
<!-- Node3 -->
<g id="node3" class="node">
<title>Node3</title>
<g id="a_node3"><a xlink:href="$structDiamond.html" xlink:title=" ">
<text text-anchor="middle" x="75.5" y="-7.4" font-family="Helvetica,Arial,sans-serif" font-size="12.00">Diamond</text>
</a>
</g>
</g>
<!-- Node2&#45;&gt;Node3 -->
<g id="edge2" class="edge">
<title>Node2&#45;&gt;Node3</title>
<path fill="none" stroke="midnightblue" d="M43.85,-52.94C51.33,-43.15 61.26,-30.15 67.99,-21.34"/>
<polygon fill="midnightblue" stroke="midnightblue" points="40.82,-56.92 42.06,-51.58 42.33,-54.93 43.85,-52.95 43.85,-52.95 43.85,-52.95 42.33,-54.93 45.64,-54.31 40.82,-56.92 40.82,-56.92"/>
</g>
<!-- Node4&#45;&gt;Node3 -->
<g id="edge4" class="edge">
<title>Node4&#45;&gt;Node3</title>
<path fill="none" stroke="midnightblue" d="M107.9,-52.94C100.24,-43.15 90.08,-30.15 83.19,-21.34"/>
<polygon fill="midnightblue" stroke="midnightblue" points="111.01,-56.92 106.16,-54.37 109.47,-54.95 107.93,-52.98 107.93,-52.98 107.93,-52.98 109.47,-54.95 109.7,-51.59 111.01,-56.92 111.01,-56.92"/>
</g>
</g>
</svg>
