<?xml version="1.0" encoding="UTF-8" standalone="no"?>
<!DOCTYPE svg PUBLIC "-//W3C//DTD SVG 1.1//EN"
 "http://www.w3.org/Graphics/SVG/1.1/DTD/svg11.dtd">
<!-- Generated by graphviz version 2.43.0 (0)
 -->
<!-- Title: Prototype Pages: 1 -->
<svg width="192pt" height="86pt"
 viewBox="0.00 0.00 192.00 86.00" xmlns="http://www.w3.org/2000/svg" xmlns:xlink="http://www.w3.org/1999/xlink">
<g id="graph0" class="graph" transform="scale(1 1) rotate(0) translate(4 82)">
<title>Prototype</title>
<!-- Node1 -->
<g id="node1" class="node">
<title>Node1</title>
<g id="a_node1"><a xlink:title="is the factory of himself">
<polygon fill="#bfbfbf" stroke="transparent" points="138.5,-21 64.5,-21 64.5,0 138.5,0 138.5,-21"/>
<text text-anchor="start" x="72.5" y="-8.4" font-family="Helvetica,Arial,sans-serif" font-weight="bold" font-size="12.00">Prototype</text>
</a>
</g>
</g>
<!-- Node2 -->
<g id="node2" class="node">
<title>Node2</title>
<g id="a_node2"><a xlink:href="$structAbstract__factory.html" xlink:title=" ">
<text text-anchor="middle" x="51.5" y="-64.4" font-family="Helvetica,Arial,sans-serif" font-size="12.00">Abstract_factory</text>
</a>
</g>
</g>
<!-- Node2&#45;&gt;Node1 -->
<g id="edge1" class="edge">
<title>Node2&#45;&gt;Node1</title>
<path fill="none" stroke="midnightblue" d="M63.59,-53.2C72.52,-43.38 84.47,-30.23 92.55,-21.34"/>
<polygon fill="midnightblue" stroke="midnightblue" points="60.21,-56.92 61.91,-51.71 61.89,-55.07 63.57,-53.22 63.57,-53.22 63.57,-53.22 61.89,-55.07 65.24,-54.73 60.21,-56.92 60.21,-56.92"/>
</g>
<!-- Node3 -->
<g id="node3" class="node">
<title>Node3</title>
<g id="a_node3"><a xlink:href="$structInterface.html" xlink:title="is a common pure virtual interface">
<text text-anchor="middle" x="152.5" y="-64.4" font-family="Helvetica,Arial,sans-serif" font-size="12.00">Interface</text>
</a>
</g>
</g>
<!-- Node3&#45;&gt;Node1 -->
<g id="edge2" class="edge">
<title>Node3&#45;&gt;Node1</title>
<path fill="none" stroke="midnightblue" d="M140.17,-53.2C131.06,-43.38 118.87,-30.23 110.63,-21.34"/>
<polygon fill="midnightblue" stroke="midnightblue" points="143.62,-56.92 138.57,-54.78 141.92,-55.09 140.22,-53.25 140.22,-53.25 140.22,-53.25 141.92,-55.09 141.87,-51.72 143.62,-56.92 143.62,-56.92"/>
</g>
</g>
</svg>
