<?xml version="1.0" encoding="UTF-8" standalone="no"?>
<!DOCTYPE svg PUBLIC "-//W3C//DTD SVG 1.1//EN"
 "http://www.w3.org/Graphics/SVG/1.1/DTD/svg11.dtd">
<!-- Generated by graphviz version 2.43.0 (0)
 -->
<!-- Title: Active_object Pages: 1 -->
<svg width="220pt" height="174pt"
 viewBox="0.00 0.00 219.50 174.00" xmlns="http://www.w3.org/2000/svg" xmlns:xlink="http://www.w3.org/1999/xlink">
<g id="graph0" class="graph" transform="scale(1 1) rotate(0) translate(4 170)">
<title>Active_object</title>
<!-- Node1 -->
<g id="node1" class="node">
<title>Node1</title>
<g id="a_node1"><a xlink:title="Active object">
<polygon fill="#bfbfbf" stroke="transparent" points="111.5,-21 17.5,-21 17.5,0 111.5,0 111.5,-21"/>
<text text-anchor="start" x="25.5" y="-8.4" font-family="Helvetica,Arial,sans-serif" font-weight="bold" font-size="12.00">Active_object</text>
</a>
</g>
</g>
<!-- Node2 -->
<g id="node2" class="node">
<title>Node2</title>
<g id="a_node2"><a xlink:href="$structInterface.html" xlink:title="is a common pure virtual interface">
<text text-anchor="middle" x="31.5" y="-87.9" font-family="Helvetica,Arial,sans-serif" font-size="12.00">Interface</text>
</a>
</g>
</g>
<!-- Node2&#45;&gt;Node1 -->
<g id="edge1" class="edge">
<title>Node2&#45;&gt;Node1</title>
<path fill="none" stroke="midnightblue" d="M34.19,-75.17C36.41,-64.74 40.08,-50.62 45.5,-39 48.44,-32.69 52.8,-26.25 56.6,-21.19"/>
<polygon fill="midnightblue" stroke="midnightblue" points="33.16,-80.26 31.95,-74.91 33.66,-77.81 34.15,-75.36 34.15,-75.36 34.15,-75.36 33.66,-77.81 36.36,-75.81 33.16,-80.26 33.16,-80.26"/>
</g>
<!-- Node2&#45;&gt;Node1 -->
<g id="edge2" class="edge">
<title>Node2&#45;&gt;Node1</title>
<path fill="none" stroke="#9a32cd" stroke-dasharray="5,2" d="M37.65,-75.38C44.3,-59.56 54.71,-34.78 60.42,-21.2"/>
<polygon fill="#9a32cd" stroke="#9a32cd" points="35.55,-80.37 35.41,-74.89 36.52,-78.07 37.48,-75.77 37.48,-75.77 37.48,-75.77 36.52,-78.07 39.56,-76.64 35.55,-80.37 35.55,-80.37"/>
<text text-anchor="middle" x="79.5" y="-44" font-family="Helvetica,Arial,sans-serif" font-size="15.00"> subject</text>
</g>
<!-- Node3 -->
<g id="node3" class="node">
<title>Node3</title>
<g id="a_node3"><a xlink:href="$classSynchronized__queue.html" xlink:title=" ">
<text text-anchor="start" x="89.5" y="-94.4" font-family="Helvetica,Arial,sans-serif" font-size="12.00">Synchronized_queue</text>
<text text-anchor="middle" x="146.5" y="-81.4" font-family="Helvetica,Arial,sans-serif" font-size="12.00">&lt; Command &gt;</text>
</a>
</g>
</g>
<!-- Node3&#45;&gt;Node1 -->
<g id="edge3" class="edge">
<title>Node3&#45;&gt;Node1</title>
<path fill="none" stroke="#9a32cd" stroke-dasharray="5,2" d="M134.09,-69.14C127.57,-59.27 118.98,-47.75 109.5,-39 101.97,-32.04 92.41,-25.91 84.05,-21.21"/>
<polygon fill="#9a32cd" stroke="#9a32cd" points="136.94,-73.54 132.33,-70.56 135.58,-71.44 134.22,-69.34 134.22,-69.34 134.22,-69.34 135.58,-71.44 136.11,-68.12 136.94,-73.54 136.94,-73.54"/>
<text text-anchor="middle" x="149.5" y="-44" font-family="Helvetica,Arial,sans-serif" font-size="15.00"> cmd_q</text>
</g>
<!-- Node4 -->
<g id="node4" class="node">
<title>Node4</title>
<g id="a_node4"><a xlink:title=" ">
<text text-anchor="middle" x="146.5" y="-152.4" font-family="Helvetica,Arial,sans-serif" font-size="12.00">queue&lt;Command &gt;</text>
</a>
</g>
</g>
<!-- Node4&#45;&gt;Node3 -->
<g id="edge4" class="edge">
<title>Node4&#45;&gt;Node3</title>
<path fill="none" stroke="#8b1a1a" d="M146.5,-139.54C146.5,-130.11 146.5,-117.93 146.5,-108.26"/>
<polygon fill="#8b1a1a" stroke="#8b1a1a" points="146.5,-144.73 144.25,-139.73 146.5,-142.23 146.5,-139.73 146.5,-139.73 146.5,-139.73 146.5,-142.23 148.75,-139.73 146.5,-144.73 146.5,-144.73"/>
</g>
</g>
</svg>
