<?xml version="1.0" encoding="UTF-8" standalone="no"?>
<!DOCTYPE svg PUBLIC "-//W3C//DTD SVG 1.1//EN"
 "http://www.w3.org/Graphics/SVG/1.1/DTD/svg11.dtd">
<!-- Generated by graphviz version 2.43.0 (0)
 -->
<!-- Title: Model::command Pages: 1 -->
<svg width="312pt" height="68pt"
 viewBox="0.00 0.00 312.00 68.00" xmlns="http://www.w3.org/2000/svg" xmlns:xlink="http://www.w3.org/1999/xlink">
<g id="graph0" class="graph" transform="scale(1 1) rotate(0) translate(4 64)">
<title>Model::command</title>
<!-- Node1 -->
<g id="node1" class="node">
<title>Node1</title>
<g id="a_node1"><a xlink:title=" ">
<polygon fill="#bfbfbf" stroke="transparent" points="116,-40 0,-40 0,-19 116,-19 116,-40"/>
<text text-anchor="start" x="8" y="-27.4" font-family="Helvetica,Arial,sans-serif" font-weight="bold" font-size="12.00">Model::command</text>
</a>
</g>
</g>
<!-- Node2 -->
<g id="node2" class="node">
<title>Node2</title>
<g id="a_node2"><a xlink:href="$structCommand.html#acbc1a7f30a3962728ce2e167a032ac87" xlink:title=" ">
<text text-anchor="middle" x="228" y="-46.4" font-family="Helvetica,Arial,sans-serif" font-size="12.00">Command::execute</text>
</a>
</g>
</g>
<!-- Node1&#45;&gt;Node2 -->
<g id="edge1" class="edge">
<title>Node1&#45;&gt;Node2</title>
<path fill="none" stroke="midnightblue" d="M116.35,-36.33C131.46,-38.13 147.86,-40.08 163.29,-41.92"/>
<polygon fill="midnightblue" stroke="midnightblue" points="168.48,-42.53 163.25,-44.18 166,-42.24 163.52,-41.94 163.52,-41.94 163.52,-41.94 166,-42.24 163.79,-39.71 168.48,-42.53 168.48,-42.53"/>
</g>
<!-- Node3 -->
<g id="node3" class="node">
<title>Node3</title>
<g id="a_node3"><a xlink:href="$structSubject.html#a156c54b0ef570d0439f2347643192dc3" xlink:title=" ">
<text text-anchor="middle" x="228" y="-7.4" font-family="Helvetica,Arial,sans-serif" font-size="12.00">Subject::notify_observers</text>
</a>
</g>
</g>
<!-- Node1&#45;&gt;Node3 -->
<g id="edge2" class="edge">
<title>Node1&#45;&gt;Node3</title>
<path fill="none" stroke="midnightblue" d="M116.35,-23.01C126.15,-21.91 136.49,-20.74 146.76,-19.57"/>
<polygon fill="midnightblue" stroke="midnightblue" points="151.79,-19.01 147.08,-21.8 149.31,-19.29 146.82,-19.57 146.82,-19.57 146.82,-19.57 149.31,-19.29 146.57,-17.33 151.79,-19.01 151.79,-19.01"/>
</g>
</g>
</svg>
