<?xml version="1.0" encoding="UTF-8" standalone="no"?>
<!DOCTYPE svg PUBLIC "-//W3C//DTD SVG 1.1//EN"
 "http://www.w3.org/Graphics/SVG/1.1/DTD/svg11.dtd">
<!-- Generated by graphviz version 2.43.0 (0)
 -->
<!-- Title: Controller::command Pages: 1 -->
<svg width="478pt" height="68pt"
 viewBox="0.00 0.00 478.00 68.00" xmlns="http://www.w3.org/2000/svg" xmlns:xlink="http://www.w3.org/1999/xlink">
<g id="graph0" class="graph" transform="scale(1 1) rotate(0) translate(4 64)">
<title>Controller::command</title>
<!-- Node1 -->
<g id="node1" class="node">
<title>Node1</title>
<g id="a_node1"><a xlink:title=" ">
<polygon fill="#bfbfbf" stroke="transparent" points="138,-40 0,-40 0,-19 138,-19 138,-40"/>
<text text-anchor="start" x="8" y="-27.4" font-family="Helvetica,Arial,sans-serif" font-weight="bold" font-size="12.00">Controller::command</text>
</a>
</g>
</g>
<!-- Node2 -->
<g id="node2" class="node">
<title>Node2</title>
<g id="a_node2"><a xlink:href="$structModel.html#a9000558a25601a58c19f903bfb660e64" xlink:title=" ">
<text text-anchor="middle" x="228" y="-26.4" font-family="Helvetica,Arial,sans-serif" font-size="12.00">Model::command</text>
</a>
</g>
</g>
<!-- Node1&#45;&gt;Node2 -->
<g id="edge1" class="edge">
<title>Node1&#45;&gt;Node2</title>
<path fill="none" stroke="midnightblue" d="M138.41,-29.5C148.54,-29.5 158.9,-29.5 168.8,-29.5"/>
<polygon fill="midnightblue" stroke="midnightblue" points="173.93,-29.5 168.93,-31.75 171.43,-29.5 168.93,-29.5 168.93,-29.5 168.93,-29.5 171.43,-29.5 168.93,-27.25 173.93,-29.5 173.93,-29.5"/>
</g>
<!-- Node3 -->
<g id="node3" class="node">
<title>Node3</title>
<g id="a_node3"><a xlink:href="$structCommand.html#acbc1a7f30a3962728ce2e167a032ac87" xlink:title=" ">
<text text-anchor="middle" x="394" y="-46.4" font-family="Helvetica,Arial,sans-serif" font-size="12.00">Command::execute</text>
</a>
</g>
</g>
<!-- Node2&#45;&gt;Node3 -->
<g id="edge2" class="edge">
<title>Node2&#45;&gt;Node3</title>
<path fill="none" stroke="midnightblue" d="M282.25,-35.99C297.2,-37.82 313.62,-39.82 329.13,-41.71"/>
<polygon fill="midnightblue" stroke="midnightblue" points="334.35,-42.35 329.12,-43.98 331.87,-42.05 329.39,-41.74 329.39,-41.74 329.39,-41.74 331.87,-42.05 329.66,-39.51 334.35,-42.35 334.35,-42.35"/>
</g>
<!-- Node4 -->
<g id="node4" class="node">
<title>Node4</title>
<g id="a_node4"><a xlink:href="$structSubject.html#a156c54b0ef570d0439f2347643192dc3" xlink:title=" ">
<text text-anchor="middle" x="394" y="-7.4" font-family="Helvetica,Arial,sans-serif" font-size="12.00">Subject::notify_observers</text>
</a>
</g>
</g>
<!-- Node2&#45;&gt;Node4 -->
<g id="edge3" class="edge">
<title>Node2&#45;&gt;Node4</title>
<path fill="none" stroke="midnightblue" d="M282.25,-23.33C292.05,-22.2 302.49,-20.99 312.88,-19.78"/>
<polygon fill="midnightblue" stroke="midnightblue" points="317.98,-19.19 313.27,-22 315.49,-19.48 313.01,-19.77 313.01,-19.77 313.01,-19.77 315.49,-19.48 312.75,-17.53 317.98,-19.19 317.98,-19.19"/>
</g>
</g>
</svg>
