<?xml version="1.0" encoding="UTF-8" standalone="no"?>
<!DOCTYPE svg PUBLIC "-//W3C//DTD SVG 1.1//EN"
 "http://www.w3.org/Graphics/SVG/1.1/DTD/svg11.dtd">
<!-- Generated by graphviz version 2.43.0 (0)
 -->
<!-- Title: Composite::method Pages: 1 -->
<svg width="416pt" height="44pt"
 viewBox="0.00 0.00 416.00 44.00" xmlns="http://www.w3.org/2000/svg" xmlns:xlink="http://www.w3.org/1999/xlink">
<g id="graph0" class="graph" transform="scale(1 1) rotate(0) translate(4 40)">
<title>Composite::method</title>
<!-- Node1 -->
<g id="node1" class="node">
<title>Node1</title>
<g id="a_node1"><a xlink:title=" ">
<text text-anchor="start" x="286" y="-15.9" font-family="Helvetica,Arial,sans-serif" font-weight="bold" font-size="12.00">Composite::method</text>
</a>
</g>
</g>
<!-- Node2 -->
<g id="node2" class="node">
<title>Node2</title>
<g id="a_node2"><a xlink:href="group__SP.html#ga3a9c3856221bdc96fcf38f956fc12011" target="_top" xlink:title=" ">
<text text-anchor="middle" x="166" y="-14.9" font-family="Helvetica,Arial,sans-serif" font-size="12.00">structural_patterns_demo</text>
</a>
</g>
</g>
<!-- Node1&#45;&gt;Node2 -->
<g id="edge1" class="edge">
<title>Node1&#45;&gt;Node2</title>
<path fill="none" stroke="midnightblue" d="M272.62,-18C262.61,-18 252.26,-18 242.13,-18"/>
<polygon fill="midnightblue" stroke="midnightblue" points="277.83,-18 272.83,-20.25 275.33,-18 272.83,-18 272.83,-18 272.83,-18 275.33,-18 272.83,-15.75 277.83,-18 277.83,-18"/>
</g>
<!-- Node3 -->
<g id="node3" class="node">
<title>Node3</title>
<g id="a_node3"><a xlink:href="group__DP.html#gae66f6b31b5ad750f1fe042a706a4e3d4" target="_top" xlink:title=" ">
<text text-anchor="middle" x="27" y="-14.9" font-family="Helvetica,Arial,sans-serif" font-size="12.00">main</text>
</a>
</g>
</g>
<!-- Node2&#45;&gt;Node3 -->
<g id="edge2" class="edge">
<title>Node2&#45;&gt;Node3</title>
<path fill="none" stroke="midnightblue" d="M84.6,-18C73.6,-18 63.02,-18 54.04,-18"/>
<polygon fill="midnightblue" stroke="midnightblue" points="89.69,-18 84.69,-20.25 87.19,-18 84.69,-18 84.69,-18 84.69,-18 87.19,-18 84.69,-15.75 89.69,-18 89.69,-18"/>
</g>
</g>
</svg>
