<?xml version="1.0" encoding="UTF-8" standalone="no"?>
<!DOCTYPE svg PUBLIC "-//W3C//DTD SVG 1.1//EN"
 "http://www.w3.org/Graphics/SVG/1.1/DTD/svg11.dtd">
<!-- Generated by graphviz version 2.43.0 (0)
 -->
<!-- Title: Mediator::dispatch Pages: 1 -->
<svg width="670pt" height="29pt"
 viewBox="0.00 0.00 670.00 29.00" xmlns="http://www.w3.org/2000/svg" xmlns:xlink="http://www.w3.org/1999/xlink">
<g id="graph0" class="graph" transform="scale(1 1) rotate(0) translate(4 25)">
<title>Mediator::dispatch</title>
<!-- Node1 -->
<g id="node1" class="node">
<title>Node1</title>
<g id="a_node1"><a xlink:title=" ">
<polygon fill="#bfbfbf" stroke="transparent" points="662,-21 539,-21 539,0 662,0 662,-21"/>
<text text-anchor="start" x="547" y="-8.4" font-family="Helvetica,Arial,sans-serif" font-weight="bold" font-size="12.00">Mediator::dispatch</text>
</a>
</g>
</g>
<!-- Node2 -->
<g id="node2" class="node">
<title>Node2</title>
<g id="a_node2"><a xlink:href="$group__BP.html#ga0b04b5167d12021f4360b6a66a1b1125" xlink:title=" ">
<text text-anchor="middle" x="457" y="-7.4" font-family="Helvetica,Arial,sans-serif" font-size="12.00">Member::send</text>
</a>
</g>
</g>
<!-- Node1&#45;&gt;Node2 -->
<g id="edge1" class="edge">
<title>Node1&#45;&gt;Node2</title>
<path fill="none" stroke="midnightblue" d="M533.66,-10.5C523.42,-10.5 513.04,-10.5 503.39,-10.5"/>
<polygon fill="midnightblue" stroke="midnightblue" points="538.67,-10.5 533.67,-12.75 536.17,-10.5 533.67,-10.5 533.67,-10.5 533.67,-10.5 536.17,-10.5 533.67,-8.25 538.67,-10.5 538.67,-10.5"/>
</g>
<!-- Node3 -->
<g id="node3" class="node">
<title>Node3</title>
<g id="a_node3"><a xlink:href="$group__BP.html#ga49d579b8340b92f6ceb51cb6d57d4b2d" xlink:title=" ">
<text text-anchor="middle" x="325" y="-7.4" font-family="Helvetica,Arial,sans-serif" font-size="12.00">mediator_demo</text>
</a>
</g>
</g>
<!-- Node2&#45;&gt;Node3 -->
<g id="edge2" class="edge">
<title>Node2&#45;&gt;Node3</title>
<path fill="none" stroke="midnightblue" d="M405.68,-10.5C395.61,-10.5 385.04,-10.5 375.02,-10.5"/>
<polygon fill="midnightblue" stroke="midnightblue" points="410.9,-10.5 405.9,-12.75 408.4,-10.5 405.9,-10.5 405.9,-10.5 405.9,-10.5 408.4,-10.5 405.9,-8.25 410.9,-10.5 410.9,-10.5"/>
</g>
<!-- Node4 -->
<g id="node4" class="node">
<title>Node4</title>
<g id="a_node4"><a xlink:href="$group__BP.html#ga608cf93d9bef165bc7e5690ac3b46a03" xlink:title=" ">
<text text-anchor="middle" x="159" y="-7.4" font-family="Helvetica,Arial,sans-serif" font-size="12.00">behavioral_patterns_demo</text>
</a>
</g>
</g>
<!-- Node3&#45;&gt;Node4 -->
<g id="edge3" class="edge">
<title>Node3&#45;&gt;Node4</title>
<path fill="none" stroke="midnightblue" d="M269.73,-10.5C259.94,-10.5 249.56,-10.5 239.23,-10.5"/>
<polygon fill="midnightblue" stroke="midnightblue" points="274.79,-10.5 269.79,-12.75 272.29,-10.5 269.79,-10.5 269.79,-10.5 269.79,-10.5 272.29,-10.5 269.79,-8.25 274.79,-10.5 274.79,-10.5"/>
</g>
<!-- Node5 -->
<g id="node5" class="node">
<title>Node5</title>
<g id="a_node5"><a xlink:href="$group__DP.html#gae66f6b31b5ad750f1fe042a706a4e3d4" xlink:title=" ">
<text text-anchor="middle" x="21.5" y="-7.4" font-family="Helvetica,Arial,sans-serif" font-size="12.00">main</text>
</a>
</g>
</g>
<!-- Node4&#45;&gt;Node5 -->
<g id="edge4" class="edge">
<title>Node4&#45;&gt;Node5</title>
<path fill="none" stroke="midnightblue" d="M73.56,-10.5C62.28,-10.5 51.66,-10.5 43.05,-10.5"/>
<polygon fill="midnightblue" stroke="midnightblue" points="78.79,-10.5 73.79,-12.75 76.29,-10.5 73.79,-10.5 73.79,-10.5 73.79,-10.5 76.29,-10.5 73.79,-8.25 78.79,-10.5 78.79,-10.5"/>
</g>
</g>
</svg>
