<?xml version="1.0" encoding="UTF-8" standalone="no"?>
<!DOCTYPE svg PUBLIC "-//W3C//DTD SVG 1.1//EN"
 "http://www.w3.org/Graphics/SVG/1.1/DTD/svg11.dtd">
<!-- Generated by graphviz version 2.43.0 (0)
 -->
<!-- Title: View Pages: 1 -->
<svg width="146pt" height="161pt"
 viewBox="0.00 0.00 145.50 161.00" xmlns="http://www.w3.org/2000/svg" xmlns:xlink="http://www.w3.org/1999/xlink">
<g id="graph0" class="graph" transform="scale(1 1) rotate(0) translate(4 157)">
<title>View</title>
<!-- Node1 -->
<g id="node1" class="node">
<title>Node1</title>
<g id="a_node1"><a xlink:title="is concrete Observer">
<polygon fill="#bfbfbf" stroke="transparent" points="82,-21 38,-21 38,0 82,0 82,-21"/>
<text text-anchor="start" x="46" y="-8.4" font-family="Helvetica,Arial,sans-serif" font-weight="bold" font-size="12.00">View</text>
</a>
</g>
</g>
<!-- Node2 -->
<g id="node2" class="node">
<title>Node2</title>
<g id="a_node2"><a xlink:href="$structObserver.html" xlink:title="is virtual observer of a Subject">
<text text-anchor="middle" x="33" y="-81.4" font-family="Helvetica,Arial,sans-serif" font-size="12.00">Observer</text>
</a>
</g>
</g>
<!-- Node2&#45;&gt;Node1 -->
<g id="edge1" class="edge">
<title>Node2&#45;&gt;Node1</title>
<path fill="none" stroke="midnightblue" d="M38.48,-68.88C43.84,-54.6 51.83,-33.29 56.42,-21.06"/>
<polygon fill="midnightblue" stroke="midnightblue" points="36.64,-73.79 36.29,-68.32 37.52,-71.45 38.4,-69.11 38.4,-69.11 38.4,-69.11 37.52,-71.45 40.5,-69.9 36.64,-73.79 36.64,-73.79"/>
</g>
<!-- Node3 -->
<g id="node3" class="node">
<title>Node3</title>
<g id="a_node3"><a xlink:href="$structModel.html" xlink:title="is part of MVC with View and Controller">
<text text-anchor="middle" x="109" y="-81.4" font-family="Helvetica,Arial,sans-serif" font-size="12.00">Model</text>
</a>
</g>
</g>
<!-- Node3&#45;&gt;Node1 -->
<g id="edge2" class="edge">
<title>Node3&#45;&gt;Node1</title>
<path fill="none" stroke="#9a32cd" stroke-dasharray="5,2" d="M99.56,-69.62C89.84,-55.35 74.97,-33.5 66.5,-21.06"/>
<polygon fill="#9a32cd" stroke="#9a32cd" points="102.39,-73.79 97.72,-70.92 100.99,-71.72 99.58,-69.66 99.58,-69.66 99.58,-69.66 100.99,-71.72 101.44,-68.39 102.39,-73.79 102.39,-73.79"/>
<text text-anchor="middle" x="111" y="-44" font-family="Helvetica,Arial,sans-serif" font-size="15.00"> model</text>
</g>
<!-- Node4 -->
<g id="node4" class="node">
<title>Node4</title>
<g id="a_node4"><a xlink:href="$structSubject.html" xlink:title="of Observer">
<text text-anchor="middle" x="109" y="-139.4" font-family="Helvetica,Arial,sans-serif" font-size="12.00">Subject</text>
</a>
</g>
</g>
<!-- Node4&#45;&gt;Node3 -->
<g id="edge3" class="edge">
<title>Node4&#45;&gt;Node3</title>
<path fill="none" stroke="midnightblue" d="M109,-126.55C109,-116.58 109,-103.78 109,-95.14"/>
<polygon fill="midnightblue" stroke="midnightblue" points="109,-131.75 106.75,-126.75 109,-129.25 109,-126.75 109,-126.75 109,-126.75 109,-129.25 111.25,-126.75 109,-131.75 109,-131.75"/>
</g>
</g>
</svg>
