<?xml version="1.0" encoding="UTF-8" standalone="no"?>
<!DOCTYPE svg PUBLIC "-//W3C//DTD SVG 1.1//EN"
 "http://www.w3.org/Graphics/SVG/1.1/DTD/svg11.dtd">
<!-- Generated by graphviz version 2.43.0 (0)
 -->
<!-- Title: Sample_component::sample_component_method Pages: 1 -->
<svg width="783pt" height="44pt"
 viewBox="0.00 0.00 783.00 44.00" xmlns="http://www.w3.org/2000/svg" xmlns:xlink="http://www.w3.org/1999/xlink">
<g id="graph0" class="graph" transform="scale(1 1) rotate(0) translate(4 40)">
<title>Sample_component::sample_component_method</title>
<!-- Node1 -->
<g id="node1" class="node">
<title>Node1</title>
<g id="a_node1"><a xlink:title="is not virtual">
<text text-anchor="start" x="439" y="-15.9" font-family="UbuntuXX" font-weight="bold" font-size="12.00">Sample_component::sample_component_method</text>
</a>
</g>
</g>
<!-- Node2 -->
<g id="node2" class="node">
<title>Node2</title>
<g id="a_node2"><a xlink:href="group__visitor.html#ga11584cf836c2520c14cc5827ce453f8f" target="_top" xlink:title=" ">
<text text-anchor="middle" x="348.5" y="-14.9" font-family="UbuntuXX" font-size="12.00">visitor_demo</text>
</a>
</g>
</g>
<!-- Node1&#45;&gt;Node2 -->
<g id="edge1" class="edge">
<title>Node1&#45;&gt;Node2</title>
<path fill="none" stroke="midnightblue" d="M425.71,-18C414.74,-18 404.38,-18 395.04,-18"/>
<polygon fill="midnightblue" stroke="midnightblue" points="430.78,-18 425.78,-20.25 428.28,-18 425.78,-18 425.78,-18 425.78,-18 428.28,-18 425.78,-15.75 430.78,-18 430.78,-18"/>
</g>
<!-- Node3 -->
<g id="node3" class="node">
<title>Node3</title>
<g id="a_node3"><a xlink:href="group__BP.html#ga608cf93d9bef165bc7e5690ac3b46a03" target="_top" xlink:title=" ">
<text text-anchor="middle" x="178" y="-14.9" font-family="UbuntuXX" font-size="12.00">behavioral_patterns_demo</text>
</a>
</g>
</g>
<!-- Node2&#45;&gt;Node3 -->
<g id="edge2" class="edge">
<title>Node2&#45;&gt;Node3</title>
<path fill="none" stroke="midnightblue" d="M296.88,-18C287.15,-18 276.7,-18 266.19,-18"/>
<polygon fill="midnightblue" stroke="midnightblue" points="301.9,-18 296.9,-20.25 299.4,-18 296.9,-18 296.9,-18 296.9,-18 299.4,-18 296.9,-15.75 301.9,-18 301.9,-18"/>
</g>
<!-- Node4 -->
<g id="node4" class="node">
<title>Node4</title>
<g id="a_node4"><a xlink:href="group__DP.html#gae66f6b31b5ad750f1fe042a706a4e3d4" target="_top" xlink:title=" ">
<text text-anchor="middle" x="27" y="-14.9" font-family="UbuntuXX" font-size="12.00">main</text>
</a>
</g>
</g>
<!-- Node3&#45;&gt;Node4 -->
<g id="edge3" class="edge">
<title>Node3&#45;&gt;Node4</title>
<path fill="none" stroke="midnightblue" d="M84.75,-18C73.63,-18 63.07,-18 54.14,-18"/>
<polygon fill="midnightblue" stroke="midnightblue" points="89.89,-18 84.9,-20.25 87.39,-18 84.89,-18 84.89,-18 84.89,-18 87.39,-18 84.89,-15.75 89.89,-18 89.89,-18"/>
</g>
</g>
</svg>
