<?xml version="1.0" encoding="UTF-8" standalone="no"?>
<!DOCTYPE svg PUBLIC "-//W3C//DTD SVG 1.1//EN"
 "http://www.w3.org/Graphics/SVG/1.1/DTD/svg11.dtd">
<!-- Generated by graphviz version 2.43.0 (0)
 -->
<!-- Title: Model::command Pages: 1 -->
<svg width="572pt" height="29pt"
 viewBox="0.00 0.00 572.00 29.00" xmlns="http://www.w3.org/2000/svg" xmlns:xlink="http://www.w3.org/1999/xlink">
<g id="graph0" class="graph" transform="scale(1 1) rotate(0) translate(4 25)">
<title>Model::command</title>
<!-- Node1 -->
<g id="node1" class="node">
<title>Node1</title>
<g id="a_node1"><a xlink:title=" ">
<polygon fill="#bfbfbf" stroke="transparent" points="564,-21 448,-21 448,0 564,0 564,-21"/>
<text text-anchor="start" x="456" y="-8.4" font-family="Helvetica,Arial,sans-serif" font-weight="bold" font-size="12.00">Model::command</text>
</a>
</g>
</g>
<!-- Node2 -->
<g id="node2" class="node">
<title>Node2</title>
<g id="a_node2"><a xlink:href="$structController.html#af9531d07a0bf9d651c6830e88b64f0ff" xlink:title=" ">
<text text-anchor="middle" x="348" y="-7.4" font-family="Helvetica,Arial,sans-serif" font-size="12.00">Controller::command</text>
</a>
</g>
</g>
<!-- Node1&#45;&gt;Node2 -->
<g id="edge1" class="edge">
<title>Node1&#45;&gt;Node2</title>
<path fill="none" stroke="midnightblue" d="M442.61,-10.5C432.61,-10.5 422.26,-10.5 412.25,-10.5"/>
<polygon fill="midnightblue" stroke="midnightblue" points="447.8,-10.5 442.8,-12.75 445.3,-10.5 442.8,-10.5 442.8,-10.5 442.8,-10.5 445.3,-10.5 442.8,-8.25 447.8,-10.5 447.8,-10.5"/>
</g>
<!-- Node3 -->
<g id="node3" class="node">
<title>Node3</title>
<g id="a_node3"><a xlink:href="$group__AP.html#gaa52033e9b5a5923880bf57a9afb7e751" xlink:title=" ">
<text text-anchor="middle" x="163.5" y="-7.4" font-family="Helvetica,Arial,sans-serif" font-size="12.00">architectural_patterns_demo</text>
</a>
</g>
</g>
<!-- Node2&#45;&gt;Node3 -->
<g id="edge2" class="edge">
<title>Node2&#45;&gt;Node3</title>
<path fill="none" stroke="midnightblue" d="M278.76,-10.5C268.78,-10.5 258.41,-10.5 248.16,-10.5"/>
<polygon fill="midnightblue" stroke="midnightblue" points="283.94,-10.5 278.94,-12.75 281.44,-10.5 278.94,-10.5 278.94,-10.5 278.94,-10.5 281.44,-10.5 278.94,-8.25 283.94,-10.5 283.94,-10.5"/>
</g>
<!-- Node4 -->
<g id="node4" class="node">
<title>Node4</title>
<g id="a_node4"><a xlink:href="$group__DP.html#gae66f6b31b5ad750f1fe042a706a4e3d4" xlink:title=" ">
<text text-anchor="middle" x="21.5" y="-7.4" font-family="Helvetica,Arial,sans-serif" font-size="12.00">main</text>
</a>
</g>
</g>
<!-- Node3&#45;&gt;Node4 -->
<g id="edge3" class="edge">
<title>Node3&#45;&gt;Node4</title>
<path fill="none" stroke="midnightblue" d="M73.43,-10.5C62.21,-10.5 51.69,-10.5 43.16,-10.5"/>
<polygon fill="midnightblue" stroke="midnightblue" points="78.64,-10.5 73.64,-12.75 76.14,-10.5 73.64,-10.5 73.64,-10.5 73.64,-10.5 76.14,-10.5 73.64,-8.25 78.64,-10.5 78.64,-10.5"/>
</g>
</g>
</svg>
