<?xml version="1.0" encoding="UTF-8" standalone="no"?>
<!DOCTYPE svg PUBLIC "-//W3C//DTD SVG 1.1//EN"
 "http://www.w3.org/Graphics/SVG/1.1/DTD/svg11.dtd">
<!-- Generated by graphviz version 2.43.0 (0)
 -->
<!-- Title: Sample_component::sample_component_method Pages: 1 -->
<svg width="707pt" height="29pt"
 viewBox="0.00 0.00 707.00 29.00" xmlns="http://www.w3.org/2000/svg" xmlns:xlink="http://www.w3.org/1999/xlink">
<g id="graph0" class="graph" transform="scale(1 1) rotate(0) translate(4 25)">
<title>Sample_component::sample_component_method</title>
<!-- Node1 -->
<g id="node1" class="node">
<title>Node1</title>
<g id="a_node1"><a xlink:title="is not virtual">
<polygon fill="#bfbfbf" stroke="transparent" points="699,-21 396,-21 396,0 699,0 699,-21"/>
<text text-anchor="start" x="404" y="-8.4" font-family="Helvetica,Arial,sans-serif" font-weight="bold" font-size="12.00">Sample_component::sample_component_method</text>
</a>
</g>
</g>
<!-- Node2 -->
<g id="node2" class="node">
<title>Node2</title>
<g id="a_node2"><a xlink:href="$group__visitor.html#ga11584cf836c2520c14cc5827ce453f8f" xlink:title=" ">
<text text-anchor="middle" x="317.5" y="-7.4" font-family="Helvetica,Arial,sans-serif" font-size="12.00">visitor_demo</text>
</a>
</g>
</g>
<!-- Node1&#45;&gt;Node2 -->
<g id="edge1" class="edge">
<title>Node1&#45;&gt;Node2</title>
<path fill="none" stroke="midnightblue" d="M390.65,-10.5C379.76,-10.5 369.46,-10.5 360.24,-10.5"/>
<polygon fill="midnightblue" stroke="midnightblue" points="395.69,-10.5 390.69,-12.75 393.19,-10.5 390.69,-10.5 390.69,-10.5 390.69,-10.5 393.19,-10.5 390.69,-8.25 395.69,-10.5 395.69,-10.5"/>
</g>
<!-- Node3 -->
<g id="node3" class="node">
<title>Node3</title>
<g id="a_node3"><a xlink:href="$group__BP.html#ga608cf93d9bef165bc7e5690ac3b46a03" xlink:title=" ">
<text text-anchor="middle" x="159" y="-7.4" font-family="Helvetica,Arial,sans-serif" font-size="12.00">behavioral_patterns_demo</text>
</a>
</g>
</g>
<!-- Node2&#45;&gt;Node3 -->
<g id="edge2" class="edge">
<title>Node2&#45;&gt;Node3</title>
<path fill="none" stroke="midnightblue" d="M269.71,-10.5C260.08,-10.5 249.68,-10.5 239.27,-10.5"/>
<polygon fill="midnightblue" stroke="midnightblue" points="274.97,-10.5 269.97,-12.75 272.47,-10.5 269.97,-10.5 269.97,-10.5 269.97,-10.5 272.47,-10.5 269.97,-8.25 274.97,-10.5 274.97,-10.5"/>
</g>
<!-- Node4 -->
<g id="node4" class="node">
<title>Node4</title>
<g id="a_node4"><a xlink:href="$group__DP.html#gae66f6b31b5ad750f1fe042a706a4e3d4" xlink:title=" ">
<text text-anchor="middle" x="21.5" y="-7.4" font-family="Helvetica,Arial,sans-serif" font-size="12.00">main</text>
</a>
</g>
</g>
<!-- Node3&#45;&gt;Node4 -->
<g id="edge3" class="edge">
<title>Node3&#45;&gt;Node4</title>
<path fill="none" stroke="midnightblue" d="M73.56,-10.5C62.28,-10.5 51.66,-10.5 43.05,-10.5"/>
<polygon fill="midnightblue" stroke="midnightblue" points="78.79,-10.5 73.79,-12.75 76.29,-10.5 73.79,-10.5 73.79,-10.5 73.79,-10.5 76.29,-10.5 73.79,-8.25 78.79,-10.5 78.79,-10.5"/>
</g>
</g>
</svg>
