<?xml version="1.0" encoding="UTF-8" standalone="no"?>
<!DOCTYPE svg PUBLIC "-//W3C//DTD SVG 1.1//EN"
 "http://www.w3.org/Graphics/SVG/1.1/DTD/svg11.dtd">
<!-- Generated by graphviz version 2.43.0 (0)
 -->
<!-- Title: Active_object::method Pages: 1 -->
<svg width="320pt" height="121pt"
 viewBox="0.00 0.00 320.00 120.50" xmlns="http://www.w3.org/2000/svg" xmlns:xlink="http://www.w3.org/1999/xlink">
<g id="graph0" class="graph" transform="scale(1 1) rotate(0) translate(4 116.5)">
<title>Active_object::method</title>
<!-- Node1 -->
<g id="node1" class="node">
<title>Node1</title>
<g id="a_node1"><a xlink:title=" ">
<polygon fill="#bfbfbf" stroke="transparent" points="146,-73.5 0,-73.5 0,-52.5 146,-52.5 146,-73.5"/>
<text text-anchor="start" x="8" y="-60.9" font-family="Helvetica,Arial,sans-serif" font-weight="bold" font-size="12.00">Active_object::method</text>
</a>
</g>
</g>
<!-- Node2 -->
<g id="node2" class="node">
<title>Node2</title>
<g id="a_node2"><a xlink:href="$group__test20.html#ga3ee6c71848d9e06fcc000cf4cc8f70a7" xlink:title=" ">
<text text-anchor="middle" x="247" y="-98.9" font-family="Helvetica,Arial,sans-serif" font-size="12.00">f</text>
</a>
</g>
</g>
<!-- Node1&#45;&gt;Node2 -->
<g id="edge1" class="edge">
<title>Node1&#45;&gt;Node2</title>
<path fill="none" stroke="midnightblue" d="M120.55,-73.55C155.66,-81.51 201.97,-92.02 227.36,-97.77"/>
<polygon fill="midnightblue" stroke="midnightblue" points="232.45,-98.93 227.07,-100.02 230.01,-98.37 227.57,-97.82 227.57,-97.82 227.57,-97.82 230.01,-98.37 228.07,-95.63 232.45,-98.93 232.45,-98.93"/>
</g>
<!-- Node3 -->
<g id="node3" class="node">
<title>Node3</title>
<g id="a_node3"><a xlink:href="$structInterface.html#a73306300ba88073a31d86d9e282ff5ca" xlink:title=" ">
<text text-anchor="middle" x="247" y="-59.9" font-family="Helvetica,Arial,sans-serif" font-size="12.00">Interface::method</text>
</a>
</g>
</g>
<!-- Node1&#45;&gt;Node3 -->
<g id="edge2" class="edge">
<title>Node1&#45;&gt;Node3</title>
<path fill="none" stroke="midnightblue" d="M146.44,-63C160.06,-63 174.14,-63 187.28,-63"/>
<polygon fill="midnightblue" stroke="midnightblue" points="192.45,-63 187.45,-65.25 189.95,-63 187.45,-63 187.45,-63 187.45,-63 189.95,-63 187.45,-60.75 192.45,-63 192.45,-63"/>
</g>
<!-- Node4 -->
<g id="node4" class="node">
<title>Node4</title>
<g id="a_node4"><a xlink:href="$classSynchronized__queue.html#a3e165aa3522a31aa3845a8a7833678b1" xlink:title=" ">
<text text-anchor="start" x="190" y="-20.4" font-family="Helvetica,Arial,sans-serif" font-size="12.00">Synchronized_queue</text>
<text text-anchor="middle" x="247" y="-7.4" font-family="Helvetica,Arial,sans-serif" font-size="12.00">::push</text>
</a>
</g>
</g>
<!-- Node1&#45;&gt;Node4 -->
<g id="edge3" class="edge">
<title>Node1&#45;&gt;Node4</title>
<path fill="none" stroke="midnightblue" d="M113.46,-52.45C132.36,-47.39 155.56,-41.19 177.23,-35.39"/>
<polygon fill="midnightblue" stroke="midnightblue" points="182.12,-34.08 177.87,-37.55 179.7,-34.73 177.29,-35.38 177.29,-35.38 177.29,-35.38 179.7,-34.73 176.71,-33.2 182.12,-34.08 182.12,-34.08"/>
</g>
</g>
</svg>
