<?xml version="1.0" encoding="UTF-8" standalone="no"?>
<!DOCTYPE svg PUBLIC "-//W3C//DTD SVG 1.1//EN"
 "http://www.w3.org/Graphics/SVG/1.1/DTD/svg11.dtd">
<!-- Generated by graphviz version 2.43.0 (0)
 -->
<!-- Title: Subject::notify_observers Pages: 1 -->
<svg width="767pt" height="85pt"
 viewBox="0.00 0.00 767.00 85.05" xmlns="http://www.w3.org/2000/svg" xmlns:xlink="http://www.w3.org/1999/xlink">
<g id="graph0" class="graph" transform="scale(1 1) rotate(0) translate(4 81.05)">
<title>Subject::notify_observers</title>
<!-- Node1 -->
<g id="node1" class="node">
<title>Node1</title>
<g id="a_node1"><a xlink:title=" ">
<polygon fill="#bfbfbf" stroke="transparent" points="759,-60 592,-60 592,-39 759,-39 759,-60"/>
<text text-anchor="start" x="600" y="-47.4" font-family="Helvetica,Arial,sans-serif" font-weight="bold" font-size="12.00">Subject::notify_observers</text>
</a>
</g>
</g>
<!-- Node2 -->
<g id="node2" class="node">
<title>Node2</title>
<g id="a_node2"><a xlink:href="$group__AP.html#gaa52033e9b5a5923880bf57a9afb7e751" xlink:title=" ">
<text text-anchor="middle" x="163.5" y="-46.4" font-family="Helvetica,Arial,sans-serif" font-size="12.00">architectural_patterns_demo</text>
</a>
</g>
</g>
<!-- Node1&#45;&gt;Node2 -->
<g id="edge1" class="edge">
<title>Node1&#45;&gt;Node2</title>
<path fill="none" stroke="midnightblue" d="M618.47,-60.93C598.81,-64.42 576.51,-67.78 556,-69.5 435.53,-79.59 404.47,-79.51 284,-69.5 261.57,-67.64 237.01,-63.84 216.03,-60.04"/>
<polygon fill="midnightblue" stroke="midnightblue" points="623.41,-60.04 618.89,-63.14 620.95,-60.49 618.49,-60.93 618.49,-60.93 618.49,-60.93 620.95,-60.49 618.09,-58.71 623.41,-60.04 623.41,-60.04"/>
</g>
<!-- Node4 -->
<g id="node4" class="node">
<title>Node4</title>
<g id="a_node4"><a xlink:href="$structModel.html#a9000558a25601a58c19f903bfb660e64" xlink:title=" ">
<text text-anchor="middle" x="502" y="-46.4" font-family="Helvetica,Arial,sans-serif" font-size="12.00">Model::command</text>
</a>
</g>
</g>
<!-- Node1&#45;&gt;Node4 -->
<g id="edge3" class="edge">
<title>Node1&#45;&gt;Node4</title>
<path fill="none" stroke="midnightblue" d="M586.63,-49.5C576.18,-49.5 565.76,-49.5 556.01,-49.5"/>
<polygon fill="midnightblue" stroke="midnightblue" points="591.76,-49.5 586.76,-51.75 589.26,-49.5 586.76,-49.5 586.76,-49.5 586.76,-49.5 589.26,-49.5 586.76,-47.25 591.76,-49.5 591.76,-49.5"/>
</g>
<!-- Node6 -->
<g id="node6" class="node">
<title>Node6</title>
<g id="a_node6"><a xlink:href="$group__BP.html#ga39dd63f04a9c36bb6cde09c53024a21d" xlink:title=" ">
<text text-anchor="middle" x="502" y="-7.4" font-family="Helvetica,Arial,sans-serif" font-size="12.00">observer_demo</text>
</a>
</g>
</g>
<!-- Node1&#45;&gt;Node6 -->
<g id="edge6" class="edge">
<title>Node1&#45;&gt;Node6</title>
<path fill="none" stroke="midnightblue" d="M623.16,-37.82C599.75,-32.5 572.24,-26.24 549.45,-21.06"/>
<polygon fill="midnightblue" stroke="midnightblue" points="628.09,-38.95 622.72,-40.03 625.65,-38.39 623.21,-37.84 623.21,-37.84 623.21,-37.84 625.65,-38.39 623.71,-35.64 628.09,-38.95 628.09,-38.95"/>
</g>
<!-- Node3 -->
<g id="node3" class="node">
<title>Node3</title>
<g id="a_node3"><a xlink:href="$group__DP.html#gae66f6b31b5ad750f1fe042a706a4e3d4" xlink:title=" ">
<text text-anchor="middle" x="21.5" y="-26.4" font-family="Helvetica,Arial,sans-serif" font-size="12.00">main</text>
</a>
</g>
</g>
<!-- Node2&#45;&gt;Node3 -->
<g id="edge2" class="edge">
<title>Node2&#45;&gt;Node3</title>
<path fill="none" stroke="midnightblue" d="M83.68,-38.24C68.62,-36.09 54.11,-34.02 43.01,-32.43"/>
<polygon fill="midnightblue" stroke="midnightblue" points="88.81,-38.97 83.54,-40.49 86.34,-38.62 83.86,-38.27 83.86,-38.27 83.86,-38.27 86.34,-38.62 84.18,-36.04 88.81,-38.97 88.81,-38.97"/>
</g>
<!-- Node5 -->
<g id="node5" class="node">
<title>Node5</title>
<g id="a_node5"><a xlink:href="$structController.html#af9531d07a0bf9d651c6830e88b64f0ff" xlink:title=" ">
<text text-anchor="middle" x="348" y="-46.4" font-family="Helvetica,Arial,sans-serif" font-size="12.00">Controller::command</text>
</a>
</g>
</g>
<!-- Node4&#45;&gt;Node5 -->
<g id="edge4" class="edge">
<title>Node4&#45;&gt;Node5</title>
<path fill="none" stroke="midnightblue" d="M442.64,-49.5C432.63,-49.5 422.18,-49.5 412.05,-49.5"/>
<polygon fill="midnightblue" stroke="midnightblue" points="447.84,-49.5 442.84,-51.75 445.34,-49.5 442.84,-49.5 442.84,-49.5 442.84,-49.5 445.34,-49.5 442.84,-47.25 447.84,-49.5 447.84,-49.5"/>
</g>
<!-- Node5&#45;&gt;Node2 -->
<g id="edge5" class="edge">
<title>Node5&#45;&gt;Node2</title>
<path fill="none" stroke="midnightblue" d="M278.76,-49.5C268.78,-49.5 258.41,-49.5 248.16,-49.5"/>
<polygon fill="midnightblue" stroke="midnightblue" points="283.94,-49.5 278.94,-51.75 281.44,-49.5 278.94,-49.5 278.94,-49.5 278.94,-49.5 281.44,-49.5 278.94,-47.25 283.94,-49.5 283.94,-49.5"/>
</g>
<!-- Node7 -->
<g id="node7" class="node">
<title>Node7</title>
<g id="a_node7"><a xlink:href="$group__BP.html#ga608cf93d9bef165bc7e5690ac3b46a03" xlink:title=" ">
<text text-anchor="middle" x="163.5" y="-7.4" font-family="Helvetica,Arial,sans-serif" font-size="12.00">behavioral_patterns_demo</text>
</a>
</g>
</g>
<!-- Node6&#45;&gt;Node7 -->
<g id="edge7" class="edge">
<title>Node6&#45;&gt;Node7</title>
<path fill="none" stroke="midnightblue" d="M446.13,-10.5C391.17,-10.5 306.03,-10.5 243.75,-10.5"/>
<polygon fill="midnightblue" stroke="midnightblue" points="451.35,-10.5 446.35,-12.75 448.85,-10.5 446.35,-10.5 446.35,-10.5 446.35,-10.5 448.85,-10.5 446.35,-8.25 451.35,-10.5 451.35,-10.5"/>
</g>
<!-- Node7&#45;&gt;Node3 -->
<g id="edge8" class="edge">
<title>Node7&#45;&gt;Node3</title>
<path fill="none" stroke="midnightblue" d="M80.05,-21.69C66.32,-23.55 53.25,-25.33 43.05,-26.71"/>
<polygon fill="midnightblue" stroke="midnightblue" points="85.13,-21 80.48,-23.9 82.65,-21.34 80.17,-21.67 80.17,-21.67 80.17,-21.67 82.65,-21.34 79.87,-19.44 85.13,-21 85.13,-21"/>
</g>
</g>
</svg>
