<?xml version="1.0" encoding="UTF-8" standalone="no"?>
<!DOCTYPE svg PUBLIC "-//W3C//DTD SVG 1.1//EN"
 "http://www.w3.org/Graphics/SVG/1.1/DTD/svg11.dtd">
<!-- Generated by graphviz version 2.43.0 (0)
 -->
<!-- Title: Model::command Pages: 1 -->
<svg width="632pt" height="44pt"
 viewBox="0.00 0.00 632.00 44.00" xmlns="http://www.w3.org/2000/svg" xmlns:xlink="http://www.w3.org/1999/xlink">
<g id="graph0" class="graph" transform="scale(1 1) rotate(0) translate(4 40)">
<title>Model::command</title>
<!-- Node1 -->
<g id="node1" class="node">
<title>Node1</title>
<g id="a_node1"><a xlink:title=" ">
<text text-anchor="start" x="501" y="-15.9" font-family="UbuntuXX" font-weight="bold" font-size="12.00">Model::command</text>
</a>
</g>
</g>
<!-- Node2 -->
<g id="node2" class="node">
<title>Node2</title>
<g id="a_node2"><a xlink:href="structController.html#af9531d07a0bf9d651c6830e88b64f0ff" target="_top" xlink:title=" ">
<text text-anchor="middle" x="385.5" y="-14.9" font-family="UbuntuXX" font-size="12.00">Controller::command</text>
</a>
</g>
</g>
<!-- Node1&#45;&gt;Node2 -->
<g id="edge1" class="edge">
<title>Node1&#45;&gt;Node2</title>
<path fill="none" stroke="midnightblue" d="M487.64,-18C477.61,-18 467.29,-18 457.24,-18"/>
<polygon fill="midnightblue" stroke="midnightblue" points="492.85,-18 487.85,-20.25 490.35,-18 487.85,-18 487.85,-18 487.85,-18 490.35,-18 487.85,-15.75 492.85,-18 492.85,-18"/>
</g>
<!-- Node3 -->
<g id="node3" class="node">
<title>Node3</title>
<g id="a_node3"><a xlink:href="group__AP.html#gaa52033e9b5a5923880bf57a9afb7e751" target="_top" xlink:title=" ">
<text text-anchor="middle" x="184" y="-14.9" font-family="UbuntuXX" font-size="12.00">architectural_patterns_demo</text>
</a>
</g>
</g>
<!-- Node2&#45;&gt;Node3 -->
<g id="edge2" class="edge">
<title>Node2&#45;&gt;Node3</title>
<path fill="none" stroke="midnightblue" d="M308.71,-18C298.74,-18 288.44,-18 278.23,-18"/>
<polygon fill="midnightblue" stroke="midnightblue" points="313.88,-18 308.88,-20.25 311.38,-18 308.88,-18 308.88,-18 308.88,-18 311.38,-18 308.88,-15.75 313.88,-18 313.88,-18"/>
</g>
<!-- Node4 -->
<g id="node4" class="node">
<title>Node4</title>
<g id="a_node4"><a xlink:href="group__DP.html#gae66f6b31b5ad750f1fe042a706a4e3d4" target="_top" xlink:title=" ">
<text text-anchor="middle" x="27" y="-14.9" font-family="UbuntuXX" font-size="12.00">main</text>
</a>
</g>
</g>
<!-- Node3&#45;&gt;Node4 -->
<g id="edge3" class="edge">
<title>Node3&#45;&gt;Node4</title>
<path fill="none" stroke="midnightblue" d="M84.58,-18C73.52,-18 63.06,-18 54.23,-18"/>
<polygon fill="midnightblue" stroke="midnightblue" points="89.71,-18 84.71,-20.25 87.21,-18 84.71,-18 84.71,-18 84.71,-18 87.21,-18 84.71,-15.75 89.71,-18 89.71,-18"/>
</g>
</g>
</svg>
