<?xml version="1.0" encoding="UTF-8" standalone="no"?>
<!DOCTYPE svg PUBLIC "-//W3C//DTD SVG 1.1//EN"
 "http://www.w3.org/Graphics/SVG/1.1/DTD/svg11.dtd">
<!-- Generated by graphviz version 2.43.0 (0)
 -->
<!-- Title: Standalone::standalone_method Pages: 1 -->
<svg width="685pt" height="44pt"
 viewBox="0.00 0.00 685.00 44.00" xmlns="http://www.w3.org/2000/svg" xmlns:xlink="http://www.w3.org/1999/xlink">
<g id="graph0" class="graph" transform="scale(1 1) rotate(0) translate(4 40)">
<title>Standalone::standalone_method</title>
<!-- Node1 -->
<g id="node1" class="node">
<title>Node1</title>
<g id="a_node1"><a xlink:title=" ">
<text text-anchor="start" x="450" y="-15.9" font-family="UbuntuXX" font-weight="bold" font-size="12.00">Standalone::standalone_method</text>
</a>
</g>
</g>
<!-- Node2 -->
<g id="node2" class="node">
<title>Node2</title>
<g id="a_node2"><a xlink:href="structBridge.html#a68cba3a3e983eaf7521a6cea23ef1b7c" target="_top" xlink:title=" ">
<text text-anchor="middle" x="351" y="-14.9" font-family="UbuntuXX" font-size="12.00">Bridge::method</text>
</a>
</g>
</g>
<!-- Node1&#45;&gt;Node2 -->
<g id="edge1" class="edge">
<title>Node1&#45;&gt;Node2</title>
<path fill="none" stroke="midnightblue" d="M436.74,-18C426.13,-18 415.78,-18 406.17,-18"/>
<polygon fill="midnightblue" stroke="midnightblue" points="441.97,-18 436.97,-20.25 439.47,-18 436.97,-18 436.97,-18 436.97,-18 439.47,-18 436.97,-15.75 441.97,-18 441.97,-18"/>
</g>
<!-- Node3 -->
<g id="node3" class="node">
<title>Node3</title>
<g id="a_node3"><a xlink:href="group__SP.html#ga3a9c3856221bdc96fcf38f956fc12011" target="_top" xlink:title=" ">
<text text-anchor="middle" x="175" y="-14.9" font-family="UbuntuXX" font-size="12.00">structural_patterns_demo</text>
</a>
</g>
</g>
<!-- Node2&#45;&gt;Node3 -->
<g id="edge2" class="edge">
<title>Node2&#45;&gt;Node3</title>
<path fill="none" stroke="midnightblue" d="M290.78,-18C280.89,-18 270.47,-18 260.1,-18"/>
<polygon fill="midnightblue" stroke="midnightblue" points="295.9,-18 290.9,-20.25 293.4,-18 290.9,-18 290.9,-18 290.9,-18 293.4,-18 290.9,-15.75 295.9,-18 295.9,-18"/>
</g>
<!-- Node4 -->
<g id="node4" class="node">
<title>Node4</title>
<g id="a_node4"><a xlink:href="group__DP.html#gae66f6b31b5ad750f1fe042a706a4e3d4" target="_top" xlink:title=" ">
<text text-anchor="middle" x="27" y="-14.9" font-family="UbuntuXX" font-size="12.00">main</text>
</a>
</g>
</g>
<!-- Node3&#45;&gt;Node4 -->
<g id="edge3" class="edge">
<title>Node3&#45;&gt;Node4</title>
<path fill="none" stroke="midnightblue" d="M84.79,-18C73.72,-18 63.16,-18 54.22,-18"/>
<polygon fill="midnightblue" stroke="midnightblue" points="89.92,-18 84.92,-20.25 87.42,-18 84.92,-18 84.92,-18 84.92,-18 87.42,-18 84.92,-15.75 89.92,-18 89.92,-18"/>
</g>
</g>
</svg>
