<?xml version="1.0" encoding="UTF-8" standalone="no"?>
<!DOCTYPE svg PUBLIC "-//W3C//DTD SVG 1.1//EN"
 "http://www.w3.org/Graphics/SVG/1.1/DTD/svg11.dtd">
<!-- Generated by graphviz version 2.43.0 (0)
 -->
<!-- Title: Interface Pages: 1 -->
<svg width="622pt" height="86pt"
 viewBox="0.00 0.00 621.50 86.00" xmlns="http://www.w3.org/2000/svg" xmlns:xlink="http://www.w3.org/1999/xlink">
<g id="graph0" class="graph" transform="scale(1 1) rotate(0) translate(4 82)">
<title>Interface</title>
<!-- Node1 -->
<g id="node1" class="node">
<title>Node1</title>
<g id="a_node1"><a xlink:title="is a common pure virtual interface">
<polygon fill="#bfbfbf" stroke="transparent" points="338,-78 271,-78 271,-57 338,-57 338,-78"/>
<text text-anchor="start" x="279" y="-65.4" font-family="Helvetica,Arial,sans-serif" font-weight="bold" font-size="12.00">Interface</text>
</a>
</g>
</g>
<!-- Node2 -->
<g id="node2" class="node">
<title>Node2</title>
<g id="a_node2"><a xlink:href="$structActive__object.html" xlink:title="Active object">
<text text-anchor="middle" x="44.5" y="-7.4" font-family="Helvetica,Arial,sans-serif" font-size="12.00">Active_object</text>
</a>
</g>
</g>
<!-- Node1&#45;&gt;Node2 -->
<g id="edge1" class="edge">
<title>Node1&#45;&gt;Node2</title>
<path fill="none" stroke="midnightblue" d="M265.74,-58.3C218.49,-48.3 138.79,-31.44 89.05,-20.92"/>
<polygon fill="midnightblue" stroke="midnightblue" points="270.78,-59.37 265.42,-60.53 268.33,-58.85 265.88,-58.33 265.88,-58.33 265.88,-58.33 268.33,-58.85 266.35,-56.13 270.78,-59.37 270.78,-59.37"/>
</g>
<!-- Node3 -->
<g id="node3" class="node">
<title>Node3</title>
<g id="a_node3"><a xlink:href="$structBridge.html" xlink:title="is a wrapper using different from Standalone interface. AKA Adapter">
<text text-anchor="middle" x="133.5" y="-7.4" font-family="Helvetica,Arial,sans-serif" font-size="12.00">Bridge</text>
</a>
</g>
</g>
<!-- Node1&#45;&gt;Node3 -->
<g id="edge2" class="edge">
<title>Node1&#45;&gt;Node3</title>
<path fill="none" stroke="midnightblue" d="M269.62,-55.28C236.99,-44.79 189.01,-29.35 159.59,-19.89"/>
<polygon fill="midnightblue" stroke="midnightblue" points="274.71,-56.92 269.27,-57.53 272.33,-56.15 269.95,-55.39 269.95,-55.39 269.95,-55.39 272.33,-56.15 270.64,-53.25 274.71,-56.92 274.71,-56.92"/>
</g>
<!-- Node4 -->
<g id="node4" class="node">
<title>Node4</title>
<g id="a_node4"><a xlink:href="$structComposite.html" xlink:title=" ">
<text text-anchor="middle" x="214.5" y="-7.4" font-family="Helvetica,Arial,sans-serif" font-size="12.00">Composite</text>
</a>
</g>
</g>
<!-- Node1&#45;&gt;Node4 -->
<g id="edge3" class="edge">
<title>Node1&#45;&gt;Node4</title>
<path fill="none" stroke="midnightblue" d="M284.4,-54.22C268.07,-44.23 245.35,-30.35 230.3,-21.16"/>
<polygon fill="midnightblue" stroke="midnightblue" points="288.82,-56.92 283.38,-56.23 286.69,-55.62 284.56,-54.31 284.56,-54.31 284.56,-54.31 286.69,-55.62 285.73,-52.39 288.82,-56.92 288.82,-56.92"/>
</g>
<!-- Node5 -->
<g id="node5" class="node">
<title>Node5</title>
<g id="a_node5"><a xlink:href="$structDecorator.html" xlink:title="is a partial wrapper of an object with same as wrapped object Interface">
<text text-anchor="middle" x="304.5" y="-7.4" font-family="Helvetica,Arial,sans-serif" font-size="12.00">Decorator</text>
</a>
</g>
</g>
<!-- Node1&#45;&gt;Node5 -->
<g id="edge4" class="edge">
<title>Node1&#45;&gt;Node5</title>
<path fill="none" stroke="midnightblue" d="M304.5,-51.88C304.5,-42.23 304.5,-29.84 304.5,-21.34"/>
<polygon fill="midnightblue" stroke="midnightblue" points="304.5,-56.92 302.25,-51.92 304.5,-54.42 304.5,-51.92 304.5,-51.92 304.5,-51.92 304.5,-54.42 306.75,-51.92 304.5,-56.92 304.5,-56.92"/>
</g>
<!-- Node6 -->
<g id="node6" class="node">
<title>Node6</title>
<g id="a_node6"><a xlink:href="$structPrototype.html" xlink:title="is the factory of himself">
<text text-anchor="middle" x="391.5" y="-7.4" font-family="Helvetica,Arial,sans-serif" font-size="12.00">Prototype</text>
</a>
</g>
</g>
<!-- Node1&#45;&gt;Node6 -->
<g id="edge5" class="edge">
<title>Node1&#45;&gt;Node6</title>
<path fill="none" stroke="midnightblue" d="M323.93,-54.22C339.72,-44.23 361.68,-30.35 376.23,-21.16"/>
<polygon fill="midnightblue" stroke="midnightblue" points="319.65,-56.92 322.68,-52.35 321.77,-55.58 323.88,-54.25 323.88,-54.25 323.88,-54.25 321.77,-55.58 325.08,-56.15 319.65,-56.92 319.65,-56.92"/>
</g>
<!-- Node7 -->
<g id="node7" class="node">
<title>Node7</title>
<g id="a_node7"><a xlink:href="$structProxy.html" xlink:title="is a opaque wrapper with same as wrapped object Interface">
<text text-anchor="middle" x="467.5" y="-7.4" font-family="Helvetica,Arial,sans-serif" font-size="12.00">Proxy</text>
</a>
</g>
</g>
<!-- Node1&#45;&gt;Node7 -->
<g id="edge6" class="edge">
<title>Node1&#45;&gt;Node7</title>
<path fill="none" stroke="midnightblue" d="M337.83,-55.26C369.4,-44.6 416.03,-28.87 443.92,-19.46"/>
<polygon fill="midnightblue" stroke="midnightblue" points="332.89,-56.92 336.91,-53.19 335.26,-56.12 337.63,-55.32 337.63,-55.32 337.63,-55.32 335.26,-56.12 338.35,-57.45 332.89,-56.92 332.89,-56.92"/>
</g>
<!-- Node8 -->
<g id="node8" class="node">
<title>Node8</title>
<g id="a_node8"><a xlink:href="$structSample__product.html" xlink:title=" ">
<text text-anchor="middle" x="561.5" y="-7.4" font-family="Helvetica,Arial,sans-serif" font-size="12.00">Sample_product</text>
</a>
</g>
</g>
<!-- Node1&#45;&gt;Node8 -->
<g id="edge7" class="edge">
<title>Node1&#45;&gt;Node8</title>
<path fill="none" stroke="midnightblue" d="M343.05,-58.25C389.54,-48.3 467.53,-31.61 516.66,-21.1"/>
<polygon fill="midnightblue" stroke="midnightblue" points="338.1,-59.31 342.52,-56.06 340.54,-58.79 342.99,-58.26 342.99,-58.26 342.99,-58.26 340.54,-58.79 343.46,-60.46 338.1,-59.31 338.1,-59.31"/>
</g>
</g>
</svg>
