<?xml version="1.0" encoding="UTF-8" standalone="no"?>
<!DOCTYPE svg PUBLIC "-//W3C//DTD SVG 1.1//EN"
 "http://www.w3.org/Graphics/SVG/1.1/DTD/svg11.dtd">
<!-- Generated by graphviz version 2.43.0 (0)
 -->
<!-- Title: Abstract_factory Pages: 1 -->
<svg width="196pt" height="86pt"
 viewBox="0.00 0.00 195.50 86.00" xmlns="http://www.w3.org/2000/svg" xmlns:xlink="http://www.w3.org/1999/xlink">
<g id="graph0" class="graph" transform="scale(1 1) rotate(0) translate(4 82)">
<title>Abstract_factory</title>
<!-- Node1 -->
<g id="node1" class="node">
<title>Node1</title>
<g id="a_node1"><a xlink:title=" ">
<polygon fill="#bfbfbf" stroke="transparent" points="141.5,-78 28.5,-78 28.5,-57 141.5,-57 141.5,-78"/>
<text text-anchor="start" x="36.5" y="-65.4" font-family="Helvetica,Arial,sans-serif" font-weight="bold" font-size="12.00">Abstract_factory</text>
</a>
</g>
</g>
<!-- Node2 -->
<g id="node2" class="node">
<title>Node2</title>
<g id="a_node2"><a xlink:href="$structPrototype.html" xlink:title="is the factory of himself">
<text text-anchor="middle" x="34" y="-7.4" font-family="Helvetica,Arial,sans-serif" font-size="12.00">Prototype</text>
</a>
</g>
</g>
<!-- Node1&#45;&gt;Node2 -->
<g id="edge1" class="edge">
<title>Node1&#45;&gt;Node2</title>
<path fill="none" stroke="midnightblue" d="M72.67,-53.2C63.56,-43.38 51.37,-30.23 43.13,-21.34"/>
<polygon fill="midnightblue" stroke="midnightblue" points="76.12,-56.92 71.07,-54.78 74.42,-55.09 72.72,-53.25 72.72,-53.25 72.72,-53.25 74.42,-55.09 74.37,-51.72 76.12,-56.92 76.12,-56.92"/>
</g>
<!-- Node3 -->
<g id="node3" class="node">
<title>Node3</title>
<g id="a_node3"><a xlink:href="$structSample__factory.html" xlink:title=" ">
<text text-anchor="middle" x="137" y="-7.4" font-family="Helvetica,Arial,sans-serif" font-size="12.00">Sample_factory</text>
</a>
</g>
</g>
<!-- Node1&#45;&gt;Node3 -->
<g id="edge2" class="edge">
<title>Node1&#45;&gt;Node3</title>
<path fill="none" stroke="midnightblue" d="M97.57,-53.2C106.86,-43.38 119.29,-30.23 127.7,-21.34"/>
<polygon fill="midnightblue" stroke="midnightblue" points="94.06,-56.92 95.86,-51.74 95.78,-55.1 97.49,-53.29 97.49,-53.29 97.49,-53.29 95.78,-55.1 99.13,-54.83 94.06,-56.92 94.06,-56.92"/>
</g>
</g>
</svg>
