<?xml version="1.0" encoding="UTF-8" standalone="no"?>
<!DOCTYPE svg PUBLIC "-//W3C//DTD SVG 1.1//EN"
 "http://www.w3.org/Graphics/SVG/1.1/DTD/svg11.dtd">
<!-- Generated by graphviz version 2.43.0 (0)
 -->
<!-- Title: Setter_interface::set Pages: 1 -->
<svg width="589pt" height="44pt"
 viewBox="0.00 0.00 589.00 44.00" xmlns="http://www.w3.org/2000/svg" xmlns:xlink="http://www.w3.org/1999/xlink">
<g id="graph0" class="graph" transform="scale(1 1) rotate(0) translate(4 40)">
<title>Setter_interface::set</title>
<!-- Node1 -->
<g id="node1" class="node">
<title>Node1</title>
<g id="a_node1"><a xlink:title=" ">
<text text-anchor="start" x="431" y="-15.9" font-family="UbuntuXX" font-weight="bold" font-size="12.00">Setter_interface::set</text>
</a>
</g>
</g>
<!-- Node2 -->
<g id="node2" class="node">
<title>Node2</title>
<g id="a_node2"><a xlink:href="group__OOP.html#ga308962b838247466c2bd477240f741f8" target="_top" xlink:title=" ">
<text text-anchor="start" x="214" y="-21.4" font-family="UbuntuXX" font-size="12.00">synchronised_encapsulated</text>
<text text-anchor="middle" x="296.5" y="-8.4" font-family="UbuntuXX" font-size="12.00">_value</text>
</a>
</g>
</g>
<!-- Node1&#45;&gt;Node2 -->
<g id="edge1" class="edge">
<title>Node1&#45;&gt;Node2</title>
<path fill="none" stroke="midnightblue" d="M417.69,-18C407.66,-18 397.39,-18 387.28,-18"/>
<polygon fill="midnightblue" stroke="midnightblue" points="422.9,-18 417.9,-20.25 420.4,-18 417.9,-18 417.9,-18 417.9,-18 420.4,-18 417.9,-15.75 422.9,-18 422.9,-18"/>
</g>
<!-- Node3 -->
<g id="node3" class="node">
<title>Node3</title>
<g id="a_node3"><a xlink:href="group__OOP.html#gac98f62660ece957e8cbc4d3ff6ec0cdf" target="_top" xlink:title=" ">
<text text-anchor="middle" x="130" y="-14.9" font-family="UbuntuXX" font-size="12.00">oop_demo</text>
</a>
</g>
</g>
<!-- Node2&#45;&gt;Node3 -->
<g id="edge2" class="edge">
<title>Node2&#45;&gt;Node3</title>
<path fill="none" stroke="midnightblue" d="M200.31,-18C189.69,-18 179.36,-18 170.06,-18"/>
<polygon fill="midnightblue" stroke="midnightblue" points="205.55,-18 200.55,-20.25 203.05,-18 200.55,-18 200.55,-18 200.55,-18 203.05,-18 200.55,-15.75 205.55,-18 205.55,-18"/>
</g>
<!-- Node4 -->
<g id="node4" class="node">
<title>Node4</title>
<g id="a_node4"><a xlink:href="group__DP.html#gae66f6b31b5ad750f1fe042a706a4e3d4" target="_top" xlink:title=" ">
<text text-anchor="middle" x="27" y="-14.9" font-family="UbuntuXX" font-size="12.00">main</text>
</a>
</g>
</g>
<!-- Node3&#45;&gt;Node4 -->
<g id="edge3" class="edge">
<title>Node3&#45;&gt;Node4</title>
<path fill="none" stroke="midnightblue" d="M84.85,-18C74.37,-18 63.53,-18 54.15,-18"/>
<polygon fill="midnightblue" stroke="midnightblue" points="89.95,-18 84.95,-20.25 87.45,-18 84.95,-18 84.95,-18 84.95,-18 87.45,-18 84.95,-15.75 89.95,-18 89.95,-18"/>
</g>
</g>
</svg>
