<?xml version="1.0" encoding="UTF-8" standalone="no"?>
<!DOCTYPE svg PUBLIC "-//W3C//DTD SVG 1.1//EN"
 "http://www.w3.org/Graphics/SVG/1.1/DTD/svg11.dtd">
<!-- Generated by graphviz version 2.43.0 (0)
 -->
<!-- Title: Publisher::publish Pages: 1 -->
<svg width="606pt" height="29pt"
 viewBox="0.00 0.00 606.00 29.00" xmlns="http://www.w3.org/2000/svg" xmlns:xlink="http://www.w3.org/1999/xlink">
<g id="graph0" class="graph" transform="scale(1 1) rotate(0) translate(4 25)">
<title>Publisher::publish</title>
<!-- Node1 -->
<g id="node1" class="node">
<title>Node1</title>
<g id="a_node1"><a xlink:title=" ">
<polygon fill="#bfbfbf" stroke="transparent" points="598,-21 476,-21 476,0 598,0 598,-21"/>
<text text-anchor="start" x="484" y="-8.4" font-family="Helvetica,Arial,sans-serif" font-weight="bold" font-size="12.00">Publisher::publish</text>
</a>
</g>
</g>
<!-- Node2 -->
<g id="node2" class="node">
<title>Node2</title>
<g id="a_node2"><a xlink:href="$group__PS.html#gae0de20d55f2eb979eb20dcef9abde9bd" xlink:title=" ">
<text text-anchor="middle" x="357.5" y="-7.4" font-family="Helvetica,Arial,sans-serif" font-size="12.00">publisher_subscriber_demo</text>
</a>
</g>
</g>
<!-- Node1&#45;&gt;Node2 -->
<g id="edge1" class="edge">
<title>Node1&#45;&gt;Node2</title>
<path fill="none" stroke="midnightblue" d="M470.76,-10.5C460.83,-10.5 450.48,-10.5 440.25,-10.5"/>
<polygon fill="midnightblue" stroke="midnightblue" points="475.91,-10.5 470.91,-12.75 473.41,-10.5 470.91,-10.5 470.91,-10.5 470.91,-10.5 473.41,-10.5 470.91,-8.25 475.91,-10.5 475.91,-10.5"/>
</g>
<!-- Node3 -->
<g id="node3" class="node">
<title>Node3</title>
<g id="a_node3"><a xlink:href="$group__BP.html#ga608cf93d9bef165bc7e5690ac3b46a03" xlink:title=" ">
<text text-anchor="middle" x="159" y="-7.4" font-family="Helvetica,Arial,sans-serif" font-size="12.00">behavioral_patterns_demo</text>
</a>
</g>
</g>
<!-- Node2&#45;&gt;Node3 -->
<g id="edge2" class="edge">
<title>Node2&#45;&gt;Node3</title>
<path fill="none" stroke="midnightblue" d="M269.59,-10.5C259.47,-10.5 249.18,-10.5 239.16,-10.5"/>
<polygon fill="midnightblue" stroke="midnightblue" points="274.87,-10.5 269.87,-12.75 272.37,-10.5 269.87,-10.5 269.87,-10.5 269.87,-10.5 272.37,-10.5 269.87,-8.25 274.87,-10.5 274.87,-10.5"/>
</g>
<!-- Node4 -->
<g id="node4" class="node">
<title>Node4</title>
<g id="a_node4"><a xlink:href="$group__DP.html#gae66f6b31b5ad750f1fe042a706a4e3d4" xlink:title=" ">
<text text-anchor="middle" x="21.5" y="-7.4" font-family="Helvetica,Arial,sans-serif" font-size="12.00">main</text>
</a>
</g>
</g>
<!-- Node3&#45;&gt;Node4 -->
<g id="edge3" class="edge">
<title>Node3&#45;&gt;Node4</title>
<path fill="none" stroke="midnightblue" d="M73.56,-10.5C62.28,-10.5 51.66,-10.5 43.05,-10.5"/>
<polygon fill="midnightblue" stroke="midnightblue" points="78.79,-10.5 73.79,-12.75 76.29,-10.5 73.79,-10.5 73.79,-10.5 73.79,-10.5 76.29,-10.5 73.79,-8.25 78.79,-10.5 78.79,-10.5"/>
</g>
</g>
</svg>
