<?xml version="1.0" encoding="UTF-8" standalone="no"?>
<!DOCTYPE svg PUBLIC "-//W3C//DTD SVG 1.1//EN"
 "http://www.w3.org/Graphics/SVG/1.1/DTD/svg11.dtd">
<!-- Generated by graphviz version 2.43.0 (0)
 -->
<!-- Title: Interface::method Pages: 1 -->
<svg width="580pt" height="169pt"
 viewBox="0.00 0.00 580.00 169.33" xmlns="http://www.w3.org/2000/svg" xmlns:xlink="http://www.w3.org/1999/xlink">
<g id="graph0" class="graph" transform="scale(1 1) rotate(0) translate(4 165.33)">
<title>Interface::method</title>
<!-- Node1 -->
<g id="node1" class="node">
<title>Node1</title>
<g id="a_node1"><a xlink:title=" ">
<polygon fill="#bfbfbf" stroke="transparent" points="572,-99 454,-99 454,-78 572,-78 572,-99"/>
<text text-anchor="start" x="462" y="-86.4" font-family="Helvetica,Arial,sans-serif" font-weight="bold" font-size="12.00">Interface::method</text>
</a>
</g>
</g>
<!-- Node2 -->
<g id="node2" class="node">
<title>Node2</title>
<g id="a_node2"><a xlink:href="$group__CP.html#ga50a82bd9d08b9a3b31267eefdf4ebaed" xlink:title=" ">
<text text-anchor="middle" x="163.5" y="-143.4" font-family="Helvetica,Arial,sans-serif" font-size="12.00">creational_patterns_demo</text>
</a>
</g>
</g>
<!-- Node1&#45;&gt;Node2 -->
<g id="edge1" class="edge">
<title>Node1&#45;&gt;Node2</title>
<path fill="none" stroke="midnightblue" d="M495.8,-102.72C478.1,-117.22 448.21,-138.8 418,-147.5 357.2,-165 284.75,-162.53 232.91,-157"/>
<polygon fill="midnightblue" stroke="midnightblue" points="500.03,-99.19 497.63,-104.12 498.11,-100.79 496.19,-102.39 496.19,-102.39 496.19,-102.39 498.11,-100.79 494.75,-100.66 500.03,-99.19 500.03,-99.19"/>
</g>
<!-- Node4 -->
<g id="node4" class="node">
<title>Node4</title>
<g id="a_node4"><a xlink:href="$structProxy.html#a1c58aa9104f2537aae0f75b59130ce32" xlink:title=" ">
<text text-anchor="middle" x="351" y="-124.4" font-family="Helvetica,Arial,sans-serif" font-size="12.00">Proxy::method</text>
</a>
</g>
</g>
<!-- Node1&#45;&gt;Node4 -->
<g id="edge3" class="edge">
<title>Node1&#45;&gt;Node4</title>
<path fill="none" stroke="midnightblue" d="M463.83,-100.24C442.05,-105.55 416.5,-111.78 395.33,-116.94"/>
<polygon fill="midnightblue" stroke="midnightblue" points="468.7,-99.05 464.38,-102.42 466.27,-99.65 463.84,-100.24 463.84,-100.24 463.84,-100.24 466.27,-99.65 463.31,-98.05 468.7,-99.05 468.7,-99.05"/>
</g>
<!-- Node5 -->
<g id="node5" class="node">
<title>Node5</title>
<g id="a_node5"><a xlink:href="$group__SP.html#ga3a9c3856221bdc96fcf38f956fc12011" xlink:title=" ">
<text text-anchor="middle" x="163.5" y="-85.4" font-family="Helvetica,Arial,sans-serif" font-size="12.00">structural_patterns_demo</text>
</a>
</g>
</g>
<!-- Node1&#45;&gt;Node5 -->
<g id="edge11" class="edge">
<title>Node1&#45;&gt;Node5</title>
<path fill="none" stroke="midnightblue" d="M448.58,-88.5C389.68,-88.5 301.93,-88.5 239.56,-88.5"/>
<polygon fill="midnightblue" stroke="midnightblue" points="453.84,-88.5 448.84,-90.75 451.34,-88.5 448.84,-88.5 448.84,-88.5 448.84,-88.5 451.34,-88.5 448.84,-86.25 453.84,-88.5 453.84,-88.5"/>
</g>
<!-- Node6 -->
<g id="node6" class="node">
<title>Node6</title>
<g id="a_node6"><a xlink:href="$structDecorator.html#a49123c88d6088bbd5573b98bccd1d8bf" xlink:title=" ">
<text text-anchor="middle" x="351" y="-46.4" font-family="Helvetica,Arial,sans-serif" font-size="12.00">Decorator::method</text>
</a>
</g>
</g>
<!-- Node1&#45;&gt;Node6 -->
<g id="edge6" class="edge">
<title>Node1&#45;&gt;Node6</title>
<path fill="none" stroke="midnightblue" d="M463.83,-76.76C442.05,-71.45 416.5,-65.22 395.33,-60.06"/>
<polygon fill="midnightblue" stroke="midnightblue" points="468.7,-77.95 463.31,-78.95 466.27,-77.35 463.84,-76.76 463.84,-76.76 463.84,-76.76 466.27,-77.35 464.38,-74.58 468.7,-77.95 468.7,-77.95"/>
</g>
<!-- Node7 -->
<g id="node7" class="node">
<title>Node7</title>
<g id="a_node7"><a xlink:href="$structActive__object.html#ac125fd7860055c3a289b68ae39488714" xlink:title=" ">
<text text-anchor="middle" x="351" y="-7.4" font-family="Helvetica,Arial,sans-serif" font-size="12.00">Active_object::method</text>
</a>
</g>
</g>
<!-- Node1&#45;&gt;Node7 -->
<g id="edge8" class="edge">
<title>Node1&#45;&gt;Node7</title>
<path fill="none" stroke="midnightblue" d="M493.63,-74.78C475.29,-61.63 445.89,-41.97 418,-29.5 410.82,-26.29 402.95,-23.47 395.23,-21.05"/>
<polygon fill="midnightblue" stroke="midnightblue" points="498.05,-77.98 492.68,-76.87 496.03,-76.51 494,-75.05 494,-75.05 494,-75.05 496.03,-76.51 495.32,-73.23 498.05,-77.98 498.05,-77.98"/>
</g>
<!-- Node3 -->
<g id="node3" class="node">
<title>Node3</title>
<g id="a_node3"><a xlink:href="$group__DP.html#gae66f6b31b5ad750f1fe042a706a4e3d4" xlink:title=" ">
<text text-anchor="middle" x="21.5" y="-85.4" font-family="Helvetica,Arial,sans-serif" font-size="12.00">main</text>
</a>
</g>
</g>
<!-- Node2&#45;&gt;Node3 -->
<g id="edge2" class="edge">
<title>Node2&#45;&gt;Node3</title>
<path fill="none" stroke="midnightblue" d="M132.26,-133.97C105.32,-122.81 66.63,-106.78 43.11,-97.04"/>
<polygon fill="midnightblue" stroke="midnightblue" points="137.15,-136 131.67,-136.16 134.84,-135.04 132.53,-134.08 132.53,-134.08 132.53,-134.08 134.84,-135.04 133.39,-132 137.15,-136 137.15,-136"/>
</g>
<!-- Node4&#45;&gt;Node5 -->
<g id="edge4" class="edge">
<title>Node4&#45;&gt;Node5</title>
<path fill="none" stroke="midnightblue" d="M299.43,-116.87C273.07,-111.33 240.93,-104.57 214.63,-99.04"/>
<polygon fill="midnightblue" stroke="midnightblue" points="304.62,-117.96 299.27,-119.13 302.18,-117.45 299.73,-116.93 299.73,-116.93 299.73,-116.93 302.18,-117.45 300.19,-114.73 304.62,-117.96 304.62,-117.96"/>
</g>
<!-- Node5&#45;&gt;Node3 -->
<g id="edge5" class="edge">
<title>Node5&#45;&gt;Node3</title>
<path fill="none" stroke="midnightblue" d="M81.88,-88.5C67.58,-88.5 53.89,-88.5 43.26,-88.5"/>
<polygon fill="midnightblue" stroke="midnightblue" points="87.17,-88.5 82.17,-90.75 84.67,-88.5 82.17,-88.5 82.17,-88.5 82.17,-88.5 84.67,-88.5 82.17,-86.25 87.17,-88.5 87.17,-88.5"/>
</g>
<!-- Node6&#45;&gt;Node5 -->
<g id="edge7" class="edge">
<title>Node6&#45;&gt;Node5</title>
<path fill="none" stroke="midnightblue" d="M294.79,-61.11C269.4,-66.45 239.49,-72.73 214.74,-77.94"/>
<polygon fill="midnightblue" stroke="midnightblue" points="299.8,-60.05 295.37,-63.28 297.35,-60.57 294.91,-61.08 294.91,-61.08 294.91,-61.08 297.35,-60.57 294.45,-58.88 299.8,-60.05 299.8,-60.05"/>
</g>
<!-- Node8 -->
<g id="node8" class="node">
<title>Node8</title>
<g id="a_node8"><a xlink:href="$group__CC.html#ga3e57442badb533d55c8d3d3a05465030" xlink:title=" ">
<text text-anchor="middle" x="163.5" y="-27.4" font-family="Helvetica,Arial,sans-serif" font-size="12.00">concurrency_patterns_demo</text>
</a>
</g>
</g>
<!-- Node7&#45;&gt;Node8 -->
<g id="edge9" class="edge">
<title>Node7&#45;&gt;Node8</title>
<path fill="none" stroke="midnightblue" d="M278.64,-18.19C268.66,-19.27 258.34,-20.38 248.17,-21.48"/>
<polygon fill="midnightblue" stroke="midnightblue" points="283.82,-17.64 279.09,-20.41 281.33,-17.9 278.84,-18.17 278.84,-18.17 278.84,-18.17 281.33,-17.9 278.6,-15.93 283.82,-17.64 283.82,-17.64"/>
</g>
<!-- Node8&#45;&gt;Node3 -->
<g id="edge10" class="edge">
<title>Node8&#45;&gt;Node3</title>
<path fill="none" stroke="midnightblue" d="M132.26,-43.03C105.32,-54.19 66.63,-70.22 43.11,-79.96"/>
<polygon fill="midnightblue" stroke="midnightblue" points="137.15,-41 133.39,-45 134.84,-41.96 132.53,-42.92 132.53,-42.92 132.53,-42.92 134.84,-41.96 131.67,-40.84 137.15,-41 137.15,-41"/>
</g>
</g>
</svg>
