<?xml version="1.0" encoding="UTF-8" standalone="no"?>
<!DOCTYPE svg PUBLIC "-//W3C//DTD SVG 1.1//EN"
 "http://www.w3.org/Graphics/SVG/1.1/DTD/svg11.dtd">
<!-- Generated by graphviz version 2.43.0 (0)
 -->
<!-- Title: Decorator::method Pages: 1 -->
<svg width="400pt" height="29pt"
 viewBox="0.00 0.00 400.00 29.00" xmlns="http://www.w3.org/2000/svg" xmlns:xlink="http://www.w3.org/1999/xlink">
<g id="graph0" class="graph" transform="scale(1 1) rotate(0) translate(4 25)">
<title>Decorator::method</title>
<!-- Node1 -->
<g id="node1" class="node">
<title>Node1</title>
<g id="a_node1"><a xlink:title=" ">
<polygon fill="#bfbfbf" stroke="transparent" points="392,-21 267,-21 267,0 392,0 392,-21"/>
<text text-anchor="start" x="275" y="-8.4" font-family="Helvetica,Arial,sans-serif" font-weight="bold" font-size="12.00">Decorator::method</text>
</a>
</g>
</g>
<!-- Node2 -->
<g id="node2" class="node">
<title>Node2</title>
<g id="a_node2"><a xlink:href="$group__SP.html#ga3a9c3856221bdc96fcf38f956fc12011" xlink:title=" ">
<text text-anchor="middle" x="155" y="-7.4" font-family="Helvetica,Arial,sans-serif" font-size="12.00">structural_patterns_demo</text>
</a>
</g>
</g>
<!-- Node1&#45;&gt;Node2 -->
<g id="edge1" class="edge">
<title>Node1&#45;&gt;Node2</title>
<path fill="none" stroke="midnightblue" d="M261.55,-10.5C251.61,-10.5 241.31,-10.5 231.22,-10.5"/>
<polygon fill="midnightblue" stroke="midnightblue" points="266.71,-10.5 261.71,-12.75 264.21,-10.5 261.71,-10.5 261.71,-10.5 261.71,-10.5 264.21,-10.5 261.71,-8.25 266.71,-10.5 266.71,-10.5"/>
</g>
<!-- Node3 -->
<g id="node3" class="node">
<title>Node3</title>
<g id="a_node3"><a xlink:href="$group__DP.html#gae66f6b31b5ad750f1fe042a706a4e3d4" xlink:title=" ">
<text text-anchor="middle" x="21.5" y="-7.4" font-family="Helvetica,Arial,sans-serif" font-size="12.00">main</text>
</a>
</g>
</g>
<!-- Node2&#45;&gt;Node3 -->
<g id="edge2" class="edge">
<title>Node2&#45;&gt;Node3</title>
<path fill="none" stroke="midnightblue" d="M73.47,-10.5C62.27,-10.5 51.68,-10.5 43.09,-10.5"/>
<polygon fill="midnightblue" stroke="midnightblue" points="78.65,-10.5 73.65,-12.75 76.15,-10.5 73.65,-10.5 73.65,-10.5 73.65,-10.5 76.15,-10.5 73.65,-8.25 78.65,-10.5 78.65,-10.5"/>
</g>
</g>
</svg>
