<?xml version="1.0" encoding="UTF-8" standalone="no"?>
<!DOCTYPE svg PUBLIC "-//W3C//DTD SVG 1.1//EN"
 "http://www.w3.org/Graphics/SVG/1.1/DTD/svg11.dtd">
<!-- Generated by graphviz version 2.43.0 (0)
 -->
<!-- Title: Builder::add Pages: 1 -->
<svg width="456pt" height="34pt"
 viewBox="0.00 0.00 456.00 34.00" xmlns="http://www.w3.org/2000/svg" xmlns:xlink="http://www.w3.org/1999/xlink">
<g id="graph0" class="graph" transform="scale(1 1) rotate(0) translate(4 30)">
<title>Builder::add</title>
<!-- Node1 -->
<g id="node1" class="node">
<title>Node1</title>
<g id="a_node1"><a xlink:title=" ">
<polygon fill="#bfbfbf" stroke="black" points="338,-0.5 338,-25.5 448,-25.5 448,-0.5 338,-0.5"/>
<text text-anchor="middle" x="393" y="-9.5" font-family="Helvetica,sans-Serif" font-size="15.00">Builder::add</text>
</a>
</g>
</g>
<!-- Node2 -->
<g id="node2" class="node">
<title>Node2</title>
<g id="a_node2"><a xlink:href="group__CP.html#ga50a82bd9d08b9a3b31267eefdf4ebaed" target="_top" xlink:title=" ">
<polygon fill="none" stroke="black" points="90,-0.5 90,-25.5 302,-25.5 302,-0.5 90,-0.5"/>
<text text-anchor="middle" x="196" y="-9.5" font-family="Helvetica,sans-Serif" font-size="15.00">creational_patterns_demo</text>
</a>
</g>
</g>
<!-- Node1&#45;&gt;Node2 -->
<g id="edge1" class="edge">
<title>Node1&#45;&gt;Node2</title>
<path fill="none" stroke="midnightblue" d="M327.67,-13C319.38,-13 310.74,-13 302.02,-13"/>
<polygon fill="midnightblue" stroke="midnightblue" points="327.94,-16.5 337.94,-13 327.94,-9.5 327.94,-16.5"/>
</g>
<!-- Node3 -->
<g id="node3" class="node">
<title>Node3</title>
<g id="a_node3"><a xlink:href="group__DP.html#gae66f6b31b5ad750f1fe042a706a4e3d4" target="_top" xlink:title=" ">
<polygon fill="none" stroke="black" points="0,-0.5 0,-25.5 54,-25.5 54,-0.5 0,-0.5"/>
<text text-anchor="middle" x="27" y="-9.5" font-family="Helvetica,sans-Serif" font-size="15.00">main</text>
</a>
</g>
</g>
<!-- Node2&#45;&gt;Node3 -->
<g id="edge2" class="edge">
<title>Node2&#45;&gt;Node3</title>
<path fill="none" stroke="midnightblue" d="M79.42,-13C70.13,-13 61.47,-13 54,-13"/>
<polygon fill="midnightblue" stroke="midnightblue" points="79.71,-16.5 89.71,-13 79.71,-9.5 79.71,-16.5"/>
</g>
</g>
</svg>
