<?xml version="1.0" encoding="UTF-8" standalone="no"?>
<!DOCTYPE svg PUBLIC "-//W3C//DTD SVG 1.1//EN"
 "http://www.w3.org/Graphics/SVG/1.1/DTD/svg11.dtd">
<!-- Generated by graphviz version 2.43.0 (0)
 -->
<!-- Title: Model::register_observer Pages: 1 -->
<svg width="508pt" height="44pt"
 viewBox="0.00 0.00 508.00 44.00" xmlns="http://www.w3.org/2000/svg" xmlns:xlink="http://www.w3.org/1999/xlink">
<g id="graph0" class="graph" transform="scale(1 1) rotate(0) translate(4 40)">
<title>Model::register_observer</title>
<!-- Node1 -->
<g id="node1" class="node">
<title>Node1</title>
<g id="a_node1"><a xlink:title=" ">
<text text-anchor="start" x="322" y="-15.9" font-family="UbuntuXX" font-weight="bold" font-size="12.00">Model::register_observer</text>
</a>
</g>
</g>
<!-- Node2 -->
<g id="node2" class="node">
<title>Node2</title>
<g id="a_node2"><a xlink:href="group__AP.html#gaa52033e9b5a5923880bf57a9afb7e751" target="_top" xlink:title=" ">
<text text-anchor="middle" x="184" y="-14.9" font-family="UbuntuXX" font-size="12.00">architectural_patterns_demo</text>
</a>
</g>
</g>
<!-- Node1&#45;&gt;Node2 -->
<g id="edge1" class="edge">
<title>Node1&#45;&gt;Node2</title>
<path fill="none" stroke="midnightblue" d="M308.86,-18C298.63,-18 288.23,-18 278.04,-18"/>
<polygon fill="midnightblue" stroke="midnightblue" points="313.88,-18 308.88,-20.25 311.38,-18 308.88,-18 308.88,-18 308.88,-18 311.38,-18 308.88,-15.75 313.88,-18 313.88,-18"/>
</g>
<!-- Node3 -->
<g id="node3" class="node">
<title>Node3</title>
<g id="a_node3"><a xlink:href="group__DP.html#gae66f6b31b5ad750f1fe042a706a4e3d4" target="_top" xlink:title=" ">
<text text-anchor="middle" x="27" y="-14.9" font-family="UbuntuXX" font-size="12.00">main</text>
</a>
</g>
</g>
<!-- Node2&#45;&gt;Node3 -->
<g id="edge2" class="edge">
<title>Node2&#45;&gt;Node3</title>
<path fill="none" stroke="midnightblue" d="M84.58,-18C73.52,-18 63.06,-18 54.23,-18"/>
<polygon fill="midnightblue" stroke="midnightblue" points="89.71,-18 84.71,-20.25 87.21,-18 84.71,-18 84.71,-18 84.71,-18 87.21,-18 84.71,-15.75 89.71,-18 89.71,-18"/>
</g>
</g>
</svg>
