<?xml version="1.0" encoding="UTF-8" standalone="no"?>
<!DOCTYPE svg PUBLIC "-//W3C//DTD SVG 1.1//EN"
 "http://www.w3.org/Graphics/SVG/1.1/DTD/svg11.dtd">
<!-- Generated by graphviz version 2.43.0 (0)
 -->
<!-- Title: Controller::command Pages: 1 -->
<svg width="526pt" height="98pt"
 viewBox="0.00 0.00 526.00 98.00" xmlns="http://www.w3.org/2000/svg" xmlns:xlink="http://www.w3.org/1999/xlink">
<g id="graph0" class="graph" transform="scale(1 1) rotate(0) translate(4 94)">
<title>Controller::command</title>
<!-- Node1 -->
<g id="node1" class="node">
<title>Node1</title>
<g id="a_node1"><a xlink:title=" ">
<text text-anchor="start" x="8" y="-42.9" font-family="UbuntuXX" font-weight="bold" font-size="12.00">Controller::command</text>
</a>
</g>
</g>
<!-- Node2 -->
<g id="node2" class="node">
<title>Node2</title>
<g id="a_node2"><a xlink:href="structModel.html#a9000558a25601a58c19f903bfb660e64" target="_top" xlink:title=" ">
<text text-anchor="middle" x="254.5" y="-41.9" font-family="UbuntuXX" font-size="12.00">Model::command</text>
</a>
</g>
</g>
<!-- Node1&#45;&gt;Node2 -->
<g id="edge1" class="edge">
<title>Node1&#45;&gt;Node2</title>
<path fill="none" stroke="midnightblue" d="M158.12,-45C168.31,-45 178.66,-45 188.59,-45"/>
<polygon fill="midnightblue" stroke="midnightblue" points="193.75,-45 188.75,-47.25 191.25,-45 188.75,-45 188.75,-45 188.75,-45 191.25,-45 188.75,-42.75 193.75,-45 193.75,-45"/>
</g>
<!-- Node3 -->
<g id="node3" class="node">
<title>Node3</title>
<g id="a_node3"><a xlink:href="structCommand.html#acbc1a7f30a3962728ce2e167a032ac87" target="_top" xlink:title=" ">
<text text-anchor="middle" x="434.5" y="-68.9" font-family="UbuntuXX" font-size="12.00">Command::execute</text>
</a>
</g>
</g>
<!-- Node2&#45;&gt;Node3 -->
<g id="edge2" class="edge">
<title>Node2&#45;&gt;Node3</title>
<path fill="none" stroke="midnightblue" d="M315.27,-54.07C330.33,-56.35 346.65,-58.83 362.22,-61.19"/>
<polygon fill="midnightblue" stroke="midnightblue" points="367.46,-61.98 362.18,-63.46 364.99,-61.61 362.52,-61.23 362.52,-61.23 362.52,-61.23 364.99,-61.61 362.86,-59.01 367.46,-61.98 367.46,-61.98"/>
</g>
<!-- Node4 -->
<g id="node4" class="node">
<title>Node4</title>
<g id="a_node4"><a xlink:href="structSubject.html#a156c54b0ef570d0439f2347643192dc3" target="_top" xlink:title=" ">
<text text-anchor="middle" x="434.5" y="-14.9" font-family="UbuntuXX" font-size="12.00">Subject::notify_observers</text>
</a>
</g>
</g>
<!-- Node2&#45;&gt;Node4 -->
<g id="edge3" class="edge">
<title>Node2&#45;&gt;Node4</title>
<path fill="none" stroke="midnightblue" d="M315.27,-35.93C325.07,-34.45 335.42,-32.88 345.73,-31.31"/>
<polygon fill="midnightblue" stroke="midnightblue" points="350.79,-30.55 346.19,-33.52 348.32,-30.92 345.85,-31.3 345.85,-31.3 345.85,-31.3 348.32,-30.92 345.51,-29.07 350.79,-30.55 350.79,-30.55"/>
</g>
</g>
</svg>
