<?xml version="1.0" encoding="UTF-8" standalone="no"?>
<!DOCTYPE svg PUBLIC "-//W3C//DTD SVG 1.1//EN"
 "http://www.w3.org/Graphics/SVG/1.1/DTD/svg11.dtd">
<!-- Generated by graphviz version 2.43.0 (0)
 -->
<!-- Title: Command::execute Pages: 1 -->
<svg width="728pt" height="68pt"
 viewBox="0.00 0.00 728.00 68.00" xmlns="http://www.w3.org/2000/svg" xmlns:xlink="http://www.w3.org/1999/xlink">
<g id="graph0" class="graph" transform="scale(1 1) rotate(0) translate(4 64)">
<title>Command::execute</title>
<!-- Node1 -->
<g id="node1" class="node">
<title>Node1</title>
<g id="a_node1"><a xlink:title=" ">
<polygon fill="#bfbfbf" stroke="transparent" points="720,-40 592,-40 592,-19 720,-19 720,-40"/>
<text text-anchor="start" x="600" y="-27.4" font-family="Helvetica,Arial,sans-serif" font-weight="bold" font-size="12.00">Command::execute</text>
</a>
</g>
</g>
<!-- Node2 -->
<g id="node2" class="node">
<title>Node2</title>
<g id="a_node2"><a xlink:href="$structModel.html#a9000558a25601a58c19f903bfb660e64" xlink:title=" ">
<text text-anchor="middle" x="502" y="-46.4" font-family="Helvetica,Arial,sans-serif" font-size="12.00">Model::command</text>
</a>
</g>
</g>
<!-- Node1&#45;&gt;Node2 -->
<g id="edge1" class="edge">
<title>Node1&#45;&gt;Node2</title>
<path fill="none" stroke="midnightblue" d="M586.81,-38.47C576.49,-39.83 565.98,-41.21 556.05,-42.52"/>
<polygon fill="midnightblue" stroke="midnightblue" points="591.86,-37.81 587.2,-40.69 589.38,-38.13 586.9,-38.46 586.9,-38.46 586.9,-38.46 589.38,-38.13 586.61,-36.23 591.86,-37.81 591.86,-37.81"/>
</g>
<!-- Node6 -->
<g id="node6" class="node">
<title>Node6</title>
<g id="a_node6"><a xlink:href="$structHandler.html#a5f1fa0706cb56b26e58c2e102dfec6ca" xlink:title="Specific handler can process a command and return non&#45;negative.">
<text text-anchor="middle" x="502" y="-7.4" font-family="Helvetica,Arial,sans-serif" font-size="12.00">Handler::handle</text>
</a>
</g>
</g>
<!-- Node1&#45;&gt;Node6 -->
<g id="edge5" class="edge">
<title>Node1&#45;&gt;Node6</title>
<path fill="none" stroke="midnightblue" d="M586.64,-20.95C575.22,-19.53 563.58,-18.07 552.74,-16.72"/>
<polygon fill="midnightblue" stroke="midnightblue" points="591.86,-21.61 586.62,-23.22 589.38,-21.3 586.9,-20.99 586.9,-20.99 586.9,-20.99 589.38,-21.3 587.18,-18.75 591.86,-21.61 591.86,-21.61"/>
</g>
<!-- Node3 -->
<g id="node3" class="node">
<title>Node3</title>
<g id="a_node3"><a xlink:href="$structController.html#af9531d07a0bf9d651c6830e88b64f0ff" xlink:title=" ">
<text text-anchor="middle" x="348" y="-46.4" font-family="Helvetica,Arial,sans-serif" font-size="12.00">Controller::command</text>
</a>
</g>
</g>
<!-- Node2&#45;&gt;Node3 -->
<g id="edge2" class="edge">
<title>Node2&#45;&gt;Node3</title>
<path fill="none" stroke="midnightblue" d="M442.64,-49.5C432.63,-49.5 422.18,-49.5 412.05,-49.5"/>
<polygon fill="midnightblue" stroke="midnightblue" points="447.84,-49.5 442.84,-51.75 445.34,-49.5 442.84,-49.5 442.84,-49.5 442.84,-49.5 445.34,-49.5 442.84,-47.25 447.84,-49.5 447.84,-49.5"/>
</g>
<!-- Node4 -->
<g id="node4" class="node">
<title>Node4</title>
<g id="a_node4"><a xlink:href="$group__AP.html#gaa52033e9b5a5923880bf57a9afb7e751" xlink:title=" ">
<text text-anchor="middle" x="163.5" y="-46.4" font-family="Helvetica,Arial,sans-serif" font-size="12.00">architectural_patterns_demo</text>
</a>
</g>
</g>
<!-- Node3&#45;&gt;Node4 -->
<g id="edge3" class="edge">
<title>Node3&#45;&gt;Node4</title>
<path fill="none" stroke="midnightblue" d="M278.76,-49.5C268.78,-49.5 258.41,-49.5 248.16,-49.5"/>
<polygon fill="midnightblue" stroke="midnightblue" points="283.94,-49.5 278.94,-51.75 281.44,-49.5 278.94,-49.5 278.94,-49.5 278.94,-49.5 281.44,-49.5 278.94,-47.25 283.94,-49.5 283.94,-49.5"/>
</g>
<!-- Node5 -->
<g id="node5" class="node">
<title>Node5</title>
<g id="a_node5"><a xlink:href="$group__DP.html#gae66f6b31b5ad750f1fe042a706a4e3d4" xlink:title=" ">
<text text-anchor="middle" x="21.5" y="-46.4" font-family="Helvetica,Arial,sans-serif" font-size="12.00">main</text>
</a>
</g>
</g>
<!-- Node4&#45;&gt;Node5 -->
<g id="edge4" class="edge">
<title>Node4&#45;&gt;Node5</title>
<path fill="none" stroke="midnightblue" d="M73.43,-49.5C62.21,-49.5 51.69,-49.5 43.16,-49.5"/>
<polygon fill="midnightblue" stroke="midnightblue" points="78.64,-49.5 73.64,-51.75 76.14,-49.5 73.64,-49.5 73.64,-49.5 73.64,-49.5 76.14,-49.5 73.64,-47.25 78.64,-49.5 78.64,-49.5"/>
</g>
</g>
</svg>
