<?xml version="1.0" encoding="UTF-8" standalone="no"?>
<!DOCTYPE svg PUBLIC "-//W3C//DTD SVG 1.1//EN"
 "http://www.w3.org/Graphics/SVG/1.1/DTD/svg11.dtd">
<!-- Generated by graphviz version 2.43.0 (0)
 -->
<!-- Title: Factory_method_demo::factory_method Pages: 1 -->
<svg width="779pt" height="44pt"
 viewBox="0.00 0.00 779.00 44.00" xmlns="http://www.w3.org/2000/svg" xmlns:xlink="http://www.w3.org/1999/xlink">
<g id="graph0" class="graph" transform="scale(1 1) rotate(0) translate(4 40)">
<title>Factory_method_demo::factory_method</title>
<!-- Node1 -->
<g id="node1" class="node">
<title>Node1</title>
<g id="a_node1"><a xlink:title=" ">
<text text-anchor="start" x="496" y="-15.9" font-family="UbuntuXX" font-weight="bold" font-size="12.00">Factory_method_demo::factory_method</text>
</a>
</g>
</g>
<!-- Node2 -->
<g id="node2" class="node">
<title>Node2</title>
<g id="a_node2"><a xlink:href="structFactory__method__demo.html#a06046828f550a6e72b4798906d1e3466" target="_top" xlink:title=" ">
<text text-anchor="start" x="306" y="-21.4" font-family="UbuntuXX" font-size="12.00">Factory_method_demo</text>
<text text-anchor="middle" x="375" y="-8.4" font-family="UbuntuXX" font-size="12.00">::client</text>
</a>
</g>
</g>
<!-- Node1&#45;&gt;Node2 -->
<g id="edge1" class="edge">
<title>Node1&#45;&gt;Node2</title>
<path fill="none" stroke="midnightblue" d="M482.71,-18C472.25,-18 461.97,-18 452.18,-18"/>
<polygon fill="midnightblue" stroke="midnightblue" points="487.85,-18 482.85,-20.25 485.35,-18 482.85,-18 482.85,-18 482.85,-18 485.35,-18 482.85,-15.75 487.85,-18 487.85,-18"/>
</g>
<!-- Node3 -->
<g id="node3" class="node">
<title>Node3</title>
<g id="a_node3"><a xlink:href="group__CP.html#ga50a82bd9d08b9a3b31267eefdf4ebaed" target="_top" xlink:title=" ">
<text text-anchor="middle" x="176" y="-14.9" font-family="UbuntuXX" font-size="12.00">creational_patterns_demo</text>
</a>
</g>
</g>
<!-- Node2&#45;&gt;Node3 -->
<g id="edge2" class="edge">
<title>Node2&#45;&gt;Node3</title>
<path fill="none" stroke="midnightblue" d="M292.6,-18C282.54,-18 272.24,-18 262.13,-18"/>
<polygon fill="midnightblue" stroke="midnightblue" points="297.83,-18 292.83,-20.25 295.33,-18 292.83,-18 292.83,-18 292.83,-18 295.33,-18 292.83,-15.75 297.83,-18 297.83,-18"/>
</g>
<!-- Node4 -->
<g id="node4" class="node">
<title>Node4</title>
<g id="a_node4"><a xlink:href="group__DP.html#gae66f6b31b5ad750f1fe042a706a4e3d4" target="_top" xlink:title=" ">
<text text-anchor="middle" x="27" y="-14.9" font-family="UbuntuXX" font-size="12.00">main</text>
</a>
</g>
</g>
<!-- Node3&#45;&gt;Node4 -->
<g id="edge3" class="edge">
<title>Node3&#45;&gt;Node4</title>
<path fill="none" stroke="midnightblue" d="M84.78,-18C73.69,-18 63.13,-18 54.2,-18"/>
<polygon fill="midnightblue" stroke="midnightblue" points="89.92,-18 84.92,-20.25 87.42,-18 84.92,-18 84.92,-18 84.92,-18 87.42,-18 84.92,-15.75 89.92,-18 89.92,-18"/>
</g>
</g>
</svg>
