<?xml version="1.0" encoding="UTF-8" standalone="no"?>
<!DOCTYPE svg PUBLIC "-//W3C//DTD SVG 1.1//EN"
 "http://www.w3.org/Graphics/SVG/1.1/DTD/svg11.dtd">
<!-- Generated by graphviz version 2.43.0 (0)
 -->
<!-- Title: Other::template_method Pages: 1 -->
<svg width="284pt" height="68pt"
 viewBox="0.00 0.00 284.00 68.00" xmlns="http://www.w3.org/2000/svg" xmlns:xlink="http://www.w3.org/1999/xlink">
<g id="graph0" class="graph" transform="scale(1 1) rotate(0) translate(4 64)">
<title>Other::template_method</title>
<!-- Node1 -->
<g id="node1" class="node">
<title>Node1</title>
<g id="a_node1"><a xlink:title="Template_method_pattern">
<polygon fill="#bfbfbf" stroke="transparent" points="155,-40 0,-40 0,-19 155,-19 155,-40"/>
<text text-anchor="start" x="8" y="-27.4" font-family="Helvetica,Arial,sans-serif" font-weight="bold" font-size="12.00">Other::template_method</text>
</a>
</g>
</g>
<!-- Node2 -->
<g id="node2" class="node">
<title>Node2</title>
<g id="a_node2"><a xlink:href="$structOther.html#aa9ad5b291051d68c5a812446a0566713" xlink:title=" ">
<text text-anchor="middle" x="233.5" y="-46.4" font-family="Helvetica,Arial,sans-serif" font-size="12.00">Other::hook1</text>
</a>
</g>
</g>
<!-- Node1&#45;&gt;Node2 -->
<g id="edge1" class="edge">
<title>Node1&#45;&gt;Node2</title>
<path fill="none" stroke="midnightblue" d="M155.05,-39.44C165.59,-40.81 176.14,-42.18 185.92,-43.45"/>
<polygon fill="midnightblue" stroke="midnightblue" points="190.96,-44.1 185.71,-45.69 188.48,-43.78 186,-43.46 186,-43.46 186,-43.46 188.48,-43.78 186.29,-41.23 190.96,-44.1 190.96,-44.1"/>
</g>
<!-- Node3 -->
<g id="node3" class="node">
<title>Node3</title>
<g id="a_node3"><a xlink:href="$structOther.html#ae28f59a5208e77738508a33840e91183" xlink:title=" ">
<text text-anchor="middle" x="233.5" y="-7.4" font-family="Helvetica,Arial,sans-serif" font-size="12.00">Other::hook2</text>
</a>
</g>
</g>
<!-- Node1&#45;&gt;Node3 -->
<g id="edge2" class="edge">
<title>Node1&#45;&gt;Node3</title>
<path fill="none" stroke="midnightblue" d="M155.05,-20.06C165.59,-18.75 176.14,-17.45 185.92,-16.25"/>
<polygon fill="midnightblue" stroke="midnightblue" points="190.96,-15.63 186.27,-18.47 188.47,-15.93 185.99,-16.24 185.99,-16.24 185.99,-16.24 188.47,-15.93 185.72,-14 190.96,-15.63 190.96,-15.63"/>
</g>
</g>
</svg>
