<?xml version="1.0" encoding="UTF-8" standalone="no"?>
<!DOCTYPE svg PUBLIC "-//W3C//DTD SVG 1.1//EN"
 "http://www.w3.org/Graphics/SVG/1.1/DTD/svg11.dtd">
<!-- Generated by graphviz version 2.43.0 (0)
 -->
<!-- Title: Subject::notify_observers Pages: 1 -->
<svg width="846pt" height="117pt"
 viewBox="0.00 0.00 846.00 117.30" xmlns="http://www.w3.org/2000/svg" xmlns:xlink="http://www.w3.org/1999/xlink">
<g id="graph0" class="graph" transform="scale(1 1) rotate(0) translate(4 113.3)">
<title>Subject::notify_observers</title>
<!-- Node1 -->
<g id="node1" class="node">
<title>Node1</title>
<g id="a_node1"><a xlink:title=" ">
<text text-anchor="start" x="658" y="-69.9" font-family="UbuntuXX" font-weight="bold" font-size="12.00">Subject::notify_observers</text>
</a>
</g>
</g>
<!-- Node2 -->
<g id="node2" class="node">
<title>Node2</title>
<g id="a_node2"><a xlink:href="group__AP.html#gaa52033e9b5a5923880bf57a9afb7e751" target="_top" xlink:title=" ">
<text text-anchor="middle" x="184" y="-68.9" font-family="UbuntuXX" font-size="12.00">architectural_patterns_demo</text>
</a>
</g>
</g>
<!-- Node1&#45;&gt;Node2 -->
<g id="edge1" class="edge">
<title>Node1&#45;&gt;Node2</title>
<path fill="none" stroke="midnightblue" d="M664.61,-91.1C648,-94.39 630.5,-97.29 614,-99 481.38,-112.73 446.62,-112.73 314,-99 295.79,-97.11 276.37,-93.77 258.26,-90.06"/>
<polygon fill="midnightblue" stroke="midnightblue" points="669.74,-90.06 665.28,-93.26 667.29,-90.56 664.84,-91.05 664.84,-91.05 664.84,-91.05 667.29,-90.56 664.39,-88.85 669.74,-90.06 669.74,-90.06"/>
</g>
<!-- Node4 -->
<g id="node4" class="node">
<title>Node4</title>
<g id="a_node4"><a xlink:href="structModel.html#a9000558a25601a58c19f903bfb660e64" target="_top" xlink:title=" ">
<text text-anchor="middle" x="553.5" y="-68.9" font-family="UbuntuXX" font-size="12.00">Model::command</text>
</a>
</g>
</g>
<!-- Node1&#45;&gt;Node4 -->
<g id="edge3" class="edge">
<title>Node1&#45;&gt;Node4</title>
<path fill="none" stroke="midnightblue" d="M644.73,-72C634.29,-72 623.93,-72 614.14,-72"/>
<polygon fill="midnightblue" stroke="midnightblue" points="649.85,-72 644.85,-74.25 647.35,-72 644.85,-72 644.85,-72 644.85,-72 647.35,-72 644.85,-69.75 649.85,-72 649.85,-72"/>
</g>
<!-- Node6 -->
<g id="node6" class="node">
<title>Node6</title>
<g id="a_node6"><a xlink:href="group__BP.html#ga39dd63f04a9c36bb6cde09c53024a21d" target="_top" xlink:title=" ">
<text text-anchor="middle" x="553.5" y="-14.9" font-family="UbuntuXX" font-size="12.00">observer_demo</text>
</a>
</g>
</g>
<!-- Node1&#45;&gt;Node6 -->
<g id="edge6" class="edge">
<title>Node1&#45;&gt;Node6</title>
<path fill="none" stroke="midnightblue" d="M675.05,-52.54C653.22,-46.28 629.34,-39.44 608.64,-33.51"/>
<polygon fill="midnightblue" stroke="midnightblue" points="679.97,-53.94 674.54,-54.73 677.57,-53.26 675.16,-52.57 675.16,-52.57 675.16,-52.57 677.57,-53.26 675.78,-50.4 679.97,-53.94 679.97,-53.94"/>
</g>
<!-- Node3 -->
<g id="node3" class="node">
<title>Node3</title>
<g id="a_node3"><a xlink:href="group__DP.html#gae66f6b31b5ad750f1fe042a706a4e3d4" target="_top" xlink:title=" ">
<text text-anchor="middle" x="27" y="-41.9" font-family="UbuntuXX" font-size="12.00">main</text>
</a>
</g>
</g>
<!-- Node2&#45;&gt;Node3 -->
<g id="edge2" class="edge">
<title>Node2&#45;&gt;Node3</title>
<path fill="none" stroke="midnightblue" d="M84.58,-54.86C73.52,-52.93 63.06,-51.11 54.23,-49.57"/>
<polygon fill="midnightblue" stroke="midnightblue" points="89.71,-55.75 84.39,-57.11 87.24,-55.32 84.78,-54.89 84.78,-54.89 84.78,-54.89 87.24,-55.32 85.17,-52.67 89.71,-55.75 89.71,-55.75"/>
</g>
<!-- Node5 -->
<g id="node5" class="node">
<title>Node5</title>
<g id="a_node5"><a xlink:href="structController.html#af9531d07a0bf9d651c6830e88b64f0ff" target="_top" xlink:title=" ">
<text text-anchor="middle" x="385.5" y="-68.9" font-family="UbuntuXX" font-size="12.00">Controller::command</text>
</a>
</g>
</g>
<!-- Node4&#45;&gt;Node5 -->
<g id="edge4" class="edge">
<title>Node4&#45;&gt;Node5</title>
<path fill="none" stroke="midnightblue" d="M487.4,-72C477.45,-72 467.14,-72 457.08,-72"/>
<polygon fill="midnightblue" stroke="midnightblue" points="492.57,-72 487.57,-74.25 490.07,-72 487.57,-72 487.57,-72 487.57,-72 490.07,-72 487.57,-69.75 492.57,-72 492.57,-72"/>
</g>
<!-- Node5&#45;&gt;Node2 -->
<g id="edge5" class="edge">
<title>Node5&#45;&gt;Node2</title>
<path fill="none" stroke="midnightblue" d="M308.71,-72C298.74,-72 288.44,-72 278.23,-72"/>
<polygon fill="midnightblue" stroke="midnightblue" points="313.88,-72 308.88,-74.25 311.38,-72 308.88,-72 308.88,-72 308.88,-72 311.38,-72 308.88,-69.75 313.88,-72 313.88,-72"/>
</g>
<!-- Node7 -->
<g id="node7" class="node">
<title>Node7</title>
<g id="a_node7"><a xlink:href="group__BP.html#ga608cf93d9bef165bc7e5690ac3b46a03" target="_top" xlink:title=" ">
<text text-anchor="middle" x="184" y="-14.9" font-family="UbuntuXX" font-size="12.00">behavioral_patterns_demo</text>
</a>
</g>
</g>
<!-- Node6&#45;&gt;Node7 -->
<g id="edge7" class="edge">
<title>Node6&#45;&gt;Node7</title>
<path fill="none" stroke="midnightblue" d="M492.95,-18C433.15,-18 340.36,-18 272.25,-18"/>
<polygon fill="midnightblue" stroke="midnightblue" points="498.27,-18 493.27,-20.25 495.77,-18 493.27,-18 493.27,-18 493.27,-18 495.77,-18 493.27,-15.75 498.27,-18 498.27,-18"/>
</g>
<!-- Node7&#45;&gt;Node3 -->
<g id="edge8" class="edge">
<title>Node7&#45;&gt;Node3</title>
<path fill="none" stroke="midnightblue" d="M91.02,-34.02C77.63,-36.36 64.82,-38.59 54.3,-40.42"/>
<polygon fill="midnightblue" stroke="midnightblue" points="95.99,-33.16 91.45,-36.23 93.52,-33.59 91.06,-34.02 91.06,-34.02 91.06,-34.02 93.52,-33.59 90.67,-31.8 95.99,-33.16 95.99,-33.16"/>
</g>
</g>
</svg>
