<?xml version="1.0" encoding="UTF-8" standalone="no"?>
<!DOCTYPE svg PUBLIC "-//W3C//DTD SVG 1.1//EN"
 "http://www.w3.org/Graphics/SVG/1.1/DTD/svg11.dtd">
<!-- Generated by graphviz version 2.43.0 (0)
 -->
<!-- Title: Controller Pages: 1 -->
<svg width="82pt" height="161pt"
 viewBox="0.00 0.00 82.00 161.00" xmlns="http://www.w3.org/2000/svg" xmlns:xlink="http://www.w3.org/1999/xlink">
<g id="graph0" class="graph" transform="scale(1 1) rotate(0) translate(4 157)">
<title>Controller</title>
<!-- Node1 -->
<g id="node1" class="node">
<title>Node1</title>
<g id="a_node1"><a xlink:title="is part of MVC with Model and View">
<polygon fill="#bfbfbf" stroke="transparent" points="74,-21 0,-21 0,0 74,0 74,-21"/>
<text text-anchor="start" x="8" y="-8.4" font-family="Helvetica,Arial,sans-serif" font-weight="bold" font-size="12.00">Controller</text>
</a>
</g>
</g>
<!-- Node2 -->
<g id="node2" class="node">
<title>Node2</title>
<g id="a_node2"><a xlink:href="$structModel.html" xlink:title="is part of MVC with View and Controller">
<text text-anchor="middle" x="37" y="-81.4" font-family="Helvetica,Arial,sans-serif" font-size="12.00">Model</text>
</a>
</g>
</g>
<!-- Node2&#45;&gt;Node1 -->
<g id="edge1" class="edge">
<title>Node2&#45;&gt;Node1</title>
<path fill="none" stroke="#9a32cd" stroke-dasharray="5,2" d="M37,-68.5C37,-54.23 37,-33.18 37,-21.06"/>
<polygon fill="#9a32cd" stroke="#9a32cd" points="37,-73.79 34.75,-68.79 37,-71.29 37,-68.79 37,-68.79 37,-68.79 37,-71.29 39.25,-68.79 37,-73.79 37,-73.79"/>
<text text-anchor="middle" x="54" y="-44" font-family="Helvetica,Arial,sans-serif" font-size="15.00"> mod</text>
</g>
<!-- Node3 -->
<g id="node3" class="node">
<title>Node3</title>
<g id="a_node3"><a xlink:href="$structSubject.html" xlink:title="of Observer">
<text text-anchor="middle" x="37" y="-139.4" font-family="Helvetica,Arial,sans-serif" font-size="12.00">Subject</text>
</a>
</g>
</g>
<!-- Node3&#45;&gt;Node2 -->
<g id="edge2" class="edge">
<title>Node3&#45;&gt;Node2</title>
<path fill="none" stroke="midnightblue" d="M37,-126.55C37,-116.58 37,-103.78 37,-95.14"/>
<polygon fill="midnightblue" stroke="midnightblue" points="37,-131.75 34.75,-126.75 37,-129.25 37,-126.75 37,-126.75 37,-126.75 37,-129.25 39.25,-126.75 37,-131.75 37,-131.75"/>
</g>
</g>
</svg>
