<?xml version="1.0" encoding="UTF-8" standalone="no"?>
<!DOCTYPE svg PUBLIC "-//W3C//DTD SVG 1.1//EN"
 "http://www.w3.org/Graphics/SVG/1.1/DTD/svg11.dtd">
<!-- Generated by graphviz version 2.43.0 (0)
 -->
<!-- Title: Interface Pages: 1 -->
<svg width="668pt" height="116pt"
 viewBox="0.00 0.00 667.50 116.00" xmlns="http://www.w3.org/2000/svg" xmlns:xlink="http://www.w3.org/1999/xlink">
<g id="graph0" class="graph" transform="scale(1 1) rotate(0) translate(4 112)">
<title>Interface</title>
<!-- Node1 -->
<g id="node1" class="node">
<title>Node1</title>
<g id="a_node1"><a xlink:title="is a common pure virtual interface">
<text text-anchor="start" x="294" y="-87.9" font-family="UbuntuXX" font-weight="bold" font-size="12.00">Interface</text>
</a>
</g>
</g>
<!-- Node2 -->
<g id="node2" class="node">
<title>Node2</title>
<g id="a_node2"><a xlink:href="structActive__object.html" target="_top" xlink:title="Active object">
<text text-anchor="middle" x="48" y="-14.9" font-family="UbuntuXX" font-size="12.00">Active_object</text>
</a>
</g>
</g>
<!-- Node1&#45;&gt;Node2 -->
<g id="edge1" class="edge">
<title>Node1&#45;&gt;Node2</title>
<path fill="none" stroke="midnightblue" d="M280.86,-79.1C236.32,-68.93 165.64,-52.33 105,-36 102.11,-35.22 99.14,-34.4 96.15,-33.56"/>
<polygon fill="midnightblue" stroke="midnightblue" points="285.89,-80.24 280.52,-81.33 283.46,-79.69 281.02,-79.13 281.02,-79.13 281.02,-79.13 283.46,-79.69 281.52,-76.94 285.89,-80.24 285.89,-80.24"/>
</g>
<!-- Node3 -->
<g id="node3" class="node">
<title>Node3</title>
<g id="a_node3"><a xlink:href="structBridge.html" target="_top" xlink:title="is a wrapper using different from Standalone interface. AKA Adapter">
<text text-anchor="middle" x="142" y="-14.9" font-family="UbuntuXX" font-size="12.00">Bridge</text>
</a>
</g>
</g>
<!-- Node1&#45;&gt;Node3 -->
<g id="edge2" class="edge">
<title>Node1&#45;&gt;Node3</title>
<path fill="none" stroke="midnightblue" d="M280.97,-74.08C251.81,-63.94 212.84,-49.89 179,-36 176.12,-34.82 173.14,-33.54 170.18,-32.24"/>
<polygon fill="midnightblue" stroke="midnightblue" points="285.93,-75.8 280.47,-76.29 283.57,-74.98 281.21,-74.16 281.21,-74.16 281.21,-74.16 283.57,-74.98 281.95,-72.04 285.93,-75.8 285.93,-75.8"/>
</g>
<!-- Node4 -->
<g id="node4" class="node">
<title>Node4</title>
<g id="a_node4"><a xlink:href="structComposite.html" target="_top" xlink:title=" ">
<text text-anchor="middle" x="228" y="-14.9" font-family="UbuntuXX" font-size="12.00">Composite</text>
</a>
</g>
</g>
<!-- Node1&#45;&gt;Node4 -->
<g id="edge3" class="edge">
<title>Node1&#45;&gt;Node4</title>
<path fill="none" stroke="midnightblue" d="M296.69,-68.57C282.41,-58.26 265.28,-45.9 251.7,-36.1"/>
<polygon fill="midnightblue" stroke="midnightblue" points="301.02,-71.7 295.65,-70.6 299,-70.23 296.97,-68.77 296.97,-68.77 296.97,-68.77 299,-70.23 298.28,-66.95 301.02,-71.7 301.02,-71.7"/>
</g>
<!-- Node5 -->
<g id="node5" class="node">
<title>Node5</title>
<g id="a_node5"><a xlink:href="structDecorator.html" target="_top" xlink:title="is a partial wrapper of an object with same as wrapped object Interface">
<text text-anchor="middle" x="325" y="-14.9" font-family="UbuntuXX" font-size="12.00">Decorator</text>
</a>
</g>
</g>
<!-- Node1&#45;&gt;Node5 -->
<g id="edge4" class="edge">
<title>Node1&#45;&gt;Node5</title>
<path fill="none" stroke="midnightblue" d="M325,-66.68C325,-56.78 325,-45.31 325,-36.1"/>
<polygon fill="midnightblue" stroke="midnightblue" points="325,-71.7 322.75,-66.7 325,-69.2 325,-66.7 325,-66.7 325,-66.7 325,-69.2 327.25,-66.7 325,-71.7 325,-71.7"/>
</g>
<!-- Node6 -->
<g id="node6" class="node">
<title>Node6</title>
<g id="a_node6"><a xlink:href="structPrototype.html" target="_top" xlink:title="is the factory of himself">
<text text-anchor="middle" x="419" y="-14.9" font-family="UbuntuXX" font-size="12.00">Prototype</text>
</a>
</g>
</g>
<!-- Node1&#45;&gt;Node6 -->
<g id="edge5" class="edge">
<title>Node1&#45;&gt;Node6</title>
<path fill="none" stroke="midnightblue" d="M352.44,-68.57C366.28,-58.26 382.87,-45.9 396.03,-36.1"/>
<polygon fill="midnightblue" stroke="midnightblue" points="348.24,-71.7 350.9,-66.91 350.24,-70.2 352.25,-68.71 352.25,-68.71 352.25,-68.71 350.24,-70.2 353.59,-70.51 348.24,-71.7 348.24,-71.7"/>
</g>
<!-- Node7 -->
<g id="node7" class="node">
<title>Node7</title>
<g id="a_node7"><a xlink:href="structProxy.html" target="_top" xlink:title="is a opaque wrapper with same as wrapped object Interface">
<text text-anchor="middle" x="501" y="-14.9" font-family="UbuntuXX" font-size="12.00">Proxy</text>
</a>
</g>
</g>
<!-- Node1&#45;&gt;Node7 -->
<g id="edge6" class="edge">
<title>Node1&#45;&gt;Node7</title>
<path fill="none" stroke="midnightblue" d="M368.98,-73.37C396.74,-63.25 433.23,-49.49 465,-36 467.93,-34.76 470.96,-33.41 473.98,-32.04"/>
<polygon fill="midnightblue" stroke="midnightblue" points="364.25,-75.08 368.18,-71.26 366.6,-74.23 368.95,-73.38 368.95,-73.38 368.95,-73.38 366.6,-74.23 369.72,-75.49 364.25,-75.08 364.25,-75.08"/>
</g>
<!-- Node8 -->
<g id="node8" class="node">
<title>Node8</title>
<g id="a_node8"><a xlink:href="structSample__product.html" target="_top" xlink:title=" ">
<text text-anchor="middle" x="603" y="-14.9" font-family="UbuntuXX" font-size="12.00">Sample_product</text>
</a>
</g>
</g>
<!-- Node1&#45;&gt;Node8 -->
<g id="edge7" class="edge">
<title>Node1&#45;&gt;Node8</title>
<path fill="none" stroke="midnightblue" d="M369.2,-78.05C412.11,-67.39 479.05,-50.71 537,-36 540.1,-35.21 543.27,-34.4 546.48,-33.59"/>
<polygon fill="midnightblue" stroke="midnightblue" points="364.09,-79.31 368.4,-75.93 366.52,-78.71 368.95,-78.11 368.95,-78.11 368.95,-78.11 366.52,-78.71 369.49,-80.29 364.09,-79.31 364.09,-79.31"/>
</g>
</g>
</svg>
