<?xml version="1.0" encoding="UTF-8" standalone="no"?>
<!DOCTYPE svg PUBLIC "-//W3C//DTD SVG 1.1//EN"
 "http://www.w3.org/Graphics/SVG/1.1/DTD/svg11.dtd">
<!-- Generated by graphviz version 2.43.0 (0)
 -->
<!-- Title: Factory_method_demo::client Pages: 1 -->
<svg width="520pt" height="44pt"
 viewBox="0.00 0.00 520.00 44.00" xmlns="http://www.w3.org/2000/svg" xmlns:xlink="http://www.w3.org/1999/xlink">
<g id="graph0" class="graph" transform="scale(1 1) rotate(0) translate(4 40)">
<title>Factory_method_demo::client</title>
<!-- Node1 -->
<g id="node1" class="node">
<title>Node1</title>
<g id="a_node1"><a xlink:title=" ">
<text text-anchor="start" x="306" y="-15.9" font-family="UbuntuXX" font-weight="bold" font-size="12.00">Factory_method_demo::client</text>
</a>
</g>
</g>
<!-- Node2 -->
<g id="node2" class="node">
<title>Node2</title>
<g id="a_node2"><a xlink:href="group__CP.html#ga50a82bd9d08b9a3b31267eefdf4ebaed" target="_top" xlink:title=" ">
<text text-anchor="middle" x="176" y="-14.9" font-family="UbuntuXX" font-size="12.00">creational_patterns_demo</text>
</a>
</g>
</g>
<!-- Node1&#45;&gt;Node2 -->
<g id="edge1" class="edge">
<title>Node1&#45;&gt;Node2</title>
<path fill="none" stroke="midnightblue" d="M292.74,-18C282.41,-18 272.06,-18 262.02,-18"/>
<polygon fill="midnightblue" stroke="midnightblue" points="297.81,-18 292.81,-20.25 295.31,-18 292.81,-18 292.81,-18 292.81,-18 295.31,-18 292.81,-15.75 297.81,-18 297.81,-18"/>
</g>
<!-- Node3 -->
<g id="node3" class="node">
<title>Node3</title>
<g id="a_node3"><a xlink:href="group__DP.html#gae66f6b31b5ad750f1fe042a706a4e3d4" target="_top" xlink:title=" ">
<text text-anchor="middle" x="27" y="-14.9" font-family="UbuntuXX" font-size="12.00">main</text>
</a>
</g>
</g>
<!-- Node2&#45;&gt;Node3 -->
<g id="edge2" class="edge">
<title>Node2&#45;&gt;Node3</title>
<path fill="none" stroke="midnightblue" d="M84.78,-18C73.69,-18 63.13,-18 54.2,-18"/>
<polygon fill="midnightblue" stroke="midnightblue" points="89.92,-18 84.92,-20.25 87.42,-18 84.92,-18 84.92,-18 84.92,-18 87.42,-18 84.92,-15.75 89.92,-18 89.92,-18"/>
</g>
</g>
</svg>
