<?xml version="1.0" encoding="UTF-8" standalone="no"?>
<!DOCTYPE svg PUBLIC "-//W3C//DTD SVG 1.1//EN"
 "http://www.w3.org/Graphics/SVG/1.1/DTD/svg11.dtd">
<!-- Generated by graphviz version 2.43.0 (0)
 -->
<!-- Title: Publisher::publish Pages: 1 -->
<svg width="663pt" height="44pt"
 viewBox="0.00 0.00 663.00 44.00" xmlns="http://www.w3.org/2000/svg" xmlns:xlink="http://www.w3.org/1999/xlink">
<g id="graph0" class="graph" transform="scale(1 1) rotate(0) translate(4 40)">
<title>Publisher::publish</title>
<!-- Node1 -->
<g id="node1" class="node">
<title>Node1</title>
<g id="a_node1"><a xlink:title=" ">
<text text-anchor="start" x="526" y="-15.9" font-family="UbuntuXX" font-weight="bold" font-size="12.00">Publisher::publish</text>
</a>
</g>
</g>
<!-- Node2 -->
<g id="node2" class="node">
<title>Node2</title>
<g id="a_node2"><a xlink:href="group__PS.html#gae0de20d55f2eb979eb20dcef9abde9bd" target="_top" xlink:title=" ">
<text text-anchor="middle" x="392" y="-14.9" font-family="UbuntuXX" font-size="12.00">publisher_subscriber_demo</text>
</a>
</g>
</g>
<!-- Node1&#45;&gt;Node2 -->
<g id="edge1" class="edge">
<title>Node1&#45;&gt;Node2</title>
<path fill="none" stroke="midnightblue" d="M512.7,-18C502.69,-18 492.32,-18 482.06,-18"/>
<polygon fill="midnightblue" stroke="midnightblue" points="517.9,-18 512.9,-20.25 515.4,-18 512.9,-18 512.9,-18 512.9,-18 515.4,-18 512.9,-15.75 517.9,-18 517.9,-18"/>
</g>
<!-- Node3 -->
<g id="node3" class="node">
<title>Node3</title>
<g id="a_node3"><a xlink:href="group__BP.html#ga608cf93d9bef165bc7e5690ac3b46a03" target="_top" xlink:title=" ">
<text text-anchor="middle" x="178" y="-14.9" font-family="UbuntuXX" font-size="12.00">behavioral_patterns_demo</text>
</a>
</g>
</g>
<!-- Node2&#45;&gt;Node3 -->
<g id="edge2" class="edge">
<title>Node2&#45;&gt;Node3</title>
<path fill="none" stroke="midnightblue" d="M296.45,-18C286.37,-18 276.15,-18 266.16,-18"/>
<polygon fill="midnightblue" stroke="midnightblue" points="301.71,-18 296.71,-20.25 299.21,-18 296.71,-18 296.71,-18 296.71,-18 299.21,-18 296.71,-15.75 301.71,-18 301.71,-18"/>
</g>
<!-- Node4 -->
<g id="node4" class="node">
<title>Node4</title>
<g id="a_node4"><a xlink:href="group__DP.html#gae66f6b31b5ad750f1fe042a706a4e3d4" target="_top" xlink:title=" ">
<text text-anchor="middle" x="27" y="-14.9" font-family="UbuntuXX" font-size="12.00">main</text>
</a>
</g>
</g>
<!-- Node3&#45;&gt;Node4 -->
<g id="edge3" class="edge">
<title>Node3&#45;&gt;Node4</title>
<path fill="none" stroke="midnightblue" d="M84.75,-18C73.63,-18 63.07,-18 54.14,-18"/>
<polygon fill="midnightblue" stroke="midnightblue" points="89.89,-18 84.9,-20.25 87.39,-18 84.89,-18 84.89,-18 84.89,-18 87.39,-18 84.89,-15.75 89.89,-18 89.89,-18"/>
</g>
</g>
</svg>
