<?xml version="1.0" encoding="UTF-8" standalone="no"?>
<!DOCTYPE svg PUBLIC "-//W3C//DTD SVG 1.1//EN"
 "http://www.w3.org/Graphics/SVG/1.1/DTD/svg11.dtd">
<!-- Generated by graphviz version 2.43.0 (0)
 -->
<!-- Title: Visitor::visit Pages: 1 -->
<svg width="656pt" height="98pt"
 viewBox="0.00 0.00 656.00 98.00" xmlns="http://www.w3.org/2000/svg" xmlns:xlink="http://www.w3.org/1999/xlink">
<g id="graph0" class="graph" transform="scale(1 1) rotate(0) translate(4 94)">
<title>Visitor::visit</title>
<!-- Node1 -->
<g id="node1" class="node">
<title>Node1</title>
<g id="a_node1"><a xlink:title="overloaded function for each component">
<text text-anchor="start" x="558" y="-42.9" font-family="UbuntuXX" font-weight="bold" font-size="12.00">Visitor::visit</text>
</a>
</g>
</g>
<!-- Node2 -->
<g id="node2" class="node">
<title>Node2</title>
<g id="a_node2"><a xlink:href="structSample__component.html#a5737a5660436a9ca70447cbbbe7d06e3" target="_top" xlink:title=" ">
<text text-anchor="start" x="310" y="-75.4" font-family="UbuntuXX" font-size="12.00">Sample_component::component</text>
<text text-anchor="middle" x="408" y="-62.4" font-family="UbuntuXX" font-size="12.00">_accept</text>
</a>
</g>
</g>
<!-- Node1&#45;&gt;Node2 -->
<g id="edge1" class="edge">
<title>Node1&#45;&gt;Node2</title>
<path fill="none" stroke="midnightblue" d="M544.83,-52.6C535.15,-53.98 524.76,-55.46 514.19,-56.97"/>
<polygon fill="midnightblue" stroke="midnightblue" points="549.82,-51.88 545.19,-54.82 547.34,-52.24 544.87,-52.59 544.87,-52.59 544.87,-52.59 547.34,-52.24 544.55,-50.36 549.82,-51.88 549.82,-51.88"/>
</g>
<!-- Node3 -->
<g id="node3" class="node">
<title>Node3</title>
<g id="a_node3"><a xlink:href="group__visitor.html#ga11584cf836c2520c14cc5827ce453f8f" target="_top" xlink:title=" ">
<text text-anchor="middle" x="408" y="-14.9" font-family="UbuntuXX" font-size="12.00">visitor_demo</text>
</a>
</g>
</g>
<!-- Node1&#45;&gt;Node3 -->
<g id="edge2" class="edge">
<title>Node1&#45;&gt;Node3</title>
<path fill="none" stroke="midnightblue" d="M544.61,-37.37C516.31,-33.33 481.89,-28.41 454.81,-24.54"/>
<polygon fill="midnightblue" stroke="midnightblue" points="549.82,-38.12 544.55,-39.64 547.34,-37.76 544.87,-37.41 544.87,-37.41 544.87,-37.41 547.34,-37.76 545.19,-35.18 549.82,-38.12 549.82,-38.12"/>
</g>
<!-- Node4 -->
<g id="node4" class="node">
<title>Node4</title>
<g id="a_node4"><a xlink:href="group__BP.html#ga608cf93d9bef165bc7e5690ac3b46a03" target="_top" xlink:title=" ">
<text text-anchor="middle" x="178" y="-14.9" font-family="UbuntuXX" font-size="12.00">behavioral_patterns_demo</text>
</a>
</g>
</g>
<!-- Node3&#45;&gt;Node4 -->
<g id="edge3" class="edge">
<title>Node3&#45;&gt;Node4</title>
<path fill="none" stroke="midnightblue" d="M356.2,-18C329.68,-18 296.5,-18 266.04,-18"/>
<polygon fill="midnightblue" stroke="midnightblue" points="361.41,-18 356.41,-20.25 358.91,-18 356.41,-18 356.41,-18 356.41,-18 358.91,-18 356.41,-15.75 361.41,-18 361.41,-18"/>
</g>
<!-- Node5 -->
<g id="node5" class="node">
<title>Node5</title>
<g id="a_node5"><a xlink:href="group__DP.html#gae66f6b31b5ad750f1fe042a706a4e3d4" target="_top" xlink:title=" ">
<text text-anchor="middle" x="27" y="-14.9" font-family="UbuntuXX" font-size="12.00">main</text>
</a>
</g>
</g>
<!-- Node4&#45;&gt;Node5 -->
<g id="edge4" class="edge">
<title>Node4&#45;&gt;Node5</title>
<path fill="none" stroke="midnightblue" d="M84.75,-18C73.63,-18 63.07,-18 54.14,-18"/>
<polygon fill="midnightblue" stroke="midnightblue" points="89.89,-18 84.9,-20.25 87.39,-18 84.89,-18 84.89,-18 84.89,-18 87.39,-18 84.89,-15.75 89.89,-18 89.89,-18"/>
</g>
</g>
</svg>
