<?xml version="1.0" encoding="UTF-8" standalone="no"?>
<!DOCTYPE svg PUBLIC "-//W3C//DTD SVG 1.1//EN"
 "http://www.w3.org/Graphics/SVG/1.1/DTD/svg11.dtd">
<!-- Generated by graphviz version 2.43.0 (0)
 -->
<!-- Title: Setter_interface::set Pages: 1 -->
<svg width="532pt" height="42pt"
 viewBox="0.00 0.00 532.00 42.00" xmlns="http://www.w3.org/2000/svg" xmlns:xlink="http://www.w3.org/1999/xlink">
<g id="graph0" class="graph" transform="scale(1 1) rotate(0) translate(4 38)">
<title>Setter_interface::set</title>
<!-- Node1 -->
<g id="node1" class="node">
<title>Node1</title>
<g id="a_node1"><a xlink:title=" ">
<polygon fill="#bfbfbf" stroke="transparent" points="524,-27.5 391,-27.5 391,-6.5 524,-6.5 524,-27.5"/>
<text text-anchor="start" x="399" y="-14.9" font-family="Helvetica,Arial,sans-serif" font-weight="bold" font-size="12.00">Setter_interface::set</text>
</a>
</g>
</g>
<!-- Node2 -->
<g id="node2" class="node">
<title>Node2</title>
<g id="a_node2"><a xlink:href="$group__OOP.html#gac9e27f9e1496655643170a1fe1319148" xlink:title=" ">
<text text-anchor="start" x="197" y="-20.4" font-family="Helvetica,Arial,sans-serif" font-size="12.00">synchronized_encapsulated</text>
<text text-anchor="middle" x="272" y="-7.4" font-family="Helvetica,Arial,sans-serif" font-size="12.00">_value</text>
</a>
</g>
</g>
<!-- Node1&#45;&gt;Node2 -->
<g id="edge1" class="edge">
<title>Node1&#45;&gt;Node2</title>
<path fill="none" stroke="midnightblue" d="M385.6,-17C375.66,-17 365.37,-17 355.24,-17"/>
<polygon fill="midnightblue" stroke="midnightblue" points="390.77,-17 385.77,-19.25 388.27,-17 385.77,-17 385.77,-17 385.77,-17 388.27,-17 385.77,-14.75 390.77,-17 390.77,-17"/>
</g>
<!-- Node3 -->
<g id="node3" class="node">
<title>Node3</title>
<g id="a_node3"><a xlink:href="$group__OOP.html#gac98f62660ece957e8cbc4d3ff6ec0cdf" xlink:title=" ">
<text text-anchor="middle" x="116" y="-13.9" font-family="Helvetica,Arial,sans-serif" font-size="12.00">oop_demo</text>
</a>
</g>
</g>
<!-- Node2&#45;&gt;Node3 -->
<g id="edge2" class="edge">
<title>Node2&#45;&gt;Node3</title>
<path fill="none" stroke="midnightblue" d="M183.36,-17C172.73,-17 162.38,-17 153.14,-17"/>
<polygon fill="midnightblue" stroke="midnightblue" points="188.59,-17 183.59,-19.25 186.09,-17 183.59,-17 183.59,-17 183.59,-17 186.09,-17 183.59,-14.75 188.59,-17 188.59,-17"/>
</g>
<!-- Node4 -->
<g id="node4" class="node">
<title>Node4</title>
<g id="a_node4"><a xlink:href="$group__DP.html#gae66f6b31b5ad750f1fe042a706a4e3d4" xlink:title=" ">
<text text-anchor="middle" x="21.5" y="-13.9" font-family="Helvetica,Arial,sans-serif" font-size="12.00">main</text>
</a>
</g>
</g>
<!-- Node3&#45;&gt;Node4 -->
<g id="edge3" class="edge">
<title>Node3&#45;&gt;Node4</title>
<path fill="none" stroke="midnightblue" d="M73.79,-17C63.15,-17 52.14,-17 43.07,-17"/>
<polygon fill="midnightblue" stroke="midnightblue" points="78.97,-17 73.97,-19.25 76.47,-17 73.97,-17 73.97,-17 73.97,-17 76.47,-17 73.97,-14.75 78.97,-17 78.97,-17"/>
</g>
</g>
</svg>
